<?xml version="1.0" standalone="no"?>
<!DOCTYPE svg PUBLIC "-//W3C//DTD SVG 20010904//EN"
 "http://www.w3.org/TR/2001/REC-SVG-20010904/DTD/svg10.dtd">
<svg version="1.0" xmlns="http://www.w3.org/2000/svg"
 width="299.000000pt" height="168.000000pt" viewBox="0 0 299.000000 168.000000"
 preserveAspectRatio="xMidYMid meet">

<g transform="translate(0.000000,168.000000) scale(0.100000,-0.100000)"
fill="#000000" stroke="none">
<path d="M30 1670 c8 -5 22 -10 30 -10 13 0 13 1 0 10 -8 5 -22 10 -30 10 -13
0 -13 -1 0 -10z"/>
<path d="M238 1673 c12 -2 30 -2 40 0 9 3 -1 5 -23 4 -22 0 -30 -2 -17 -4z"/>
<path d="M316 1666 c5 -12 2 -15 -11 -10 -14 6 -16 3 -10 -14 6 -20 -2 -27
-27 -24 -3 1 -9 -5 -12 -13 -6 -18 7 -19 35 -5 14 8 19 7 19 -2 0 -9 3 -9 10
2 8 12 12 13 19 2 4 -8 20 -15 35 -15 14 -1 26 -6 26 -10 0 -5 4 -6 9 -2 5 3
12 1 16 -4 8 -15 -65 -26 -85 -13 -10 6 -36 8 -59 5 -23 -3 -41 -2 -39 3 2 5
0 9 -3 9 -4 0 -16 8 -27 18 -20 18 -20 18 -28 -5 -7 -22 -7 -22 -14 -3 -4 11
-3 23 4 28 8 5 6 10 -4 17 -11 7 -4 10 28 10 32 0 41 -3 36 -12 -5 -10 -3 -10
7 0 12 11 12 14 0 21 -7 5 -22 6 -32 4 -10 -3 -19 0 -19 6 0 6 -11 10 -25 9
-18 -2 -26 -10 -31 -33 -3 -16 -11 -36 -16 -42 -8 -10 -4 -13 16 -13 19 0 26
-5 26 -20 0 -17 6 -19 53 -14 51 4 52 4 22 -10 -16 -9 -23 -15 -15 -16 11 0
10 -4 -5 -16 -20 -16 -19 -16 4 -9 13 4 21 3 18 -1 -3 -5 17 -9 43 -9 37 0 50
4 53 17 4 12 -2 16 -22 14 -14 -1 -32 -5 -39 -9 -7 -5 -12 -3 -12 7 0 24 46
31 75 12 29 -19 46 -21 43 -3 -2 6 5 11 14 11 10 -1 15 2 12 7 -3 5 12 9 33 8
34 -1 35 -2 13 -9 -22 -7 -21 -8 13 -9 20 -1 37 4 37 9 0 6 -6 10 -12 10 -7 1
-2 7 11 14 l24 13 -27 5 c-18 4 -26 1 -26 -8 0 -8 -7 -14 -15 -14 -23 0 16 60
40 61 l20 0 -20 9 c-11 5 -47 9 -80 9 -36 1 -55 5 -47 10 7 4 37 7 65 5 l52
-3 -45 8 c-25 5 -64 12 -88 16 -37 7 -42 6 -36 -9z m27 -33 c-7 -2 -19 -2 -25
0 -7 3 -2 5 12 5 14 0 19 -2 13 -5z"/>
<path d="M477 1668 c7 -8 10 -18 6 -21 -3 -4 0 -7 7 -7 7 0 23 -11 36 -25 24
-26 58 -32 84 -15 10 6 5 9 -19 8 -32 -1 -59 21 -40 32 14 9 70 -1 63 -11 -3
-5 6 -9 20 -9 13 0 27 -6 29 -12 3 -8 6 -6 6 5 1 9 7 17 14 17 9 0 9 2 -1 9
-9 5 2 13 35 24 35 12 41 16 23 16 -15 1 -32 -5 -38 -11 -10 -10 -15 -10 -20
-1 -5 8 -30 10 -77 7 -39 -2 -74 -5 -80 -5 -5 0 -21 3 -35 7 -22 6 -23 5 -13
-8z m143 -8 c11 -7 7 -10 -18 -10 -20 0 -31 4 -27 10 8 13 26 13 45 0z"/>
<path d="M780 1664 c0 -8 10 -12 28 -11 22 2 27 -2 28 -23 2 -43 4 -50 14 -50
5 0 6 7 3 17 -5 11 -3 14 6 9 7 -5 11 -17 8 -27 -3 -11 -2 -19 1 -19 4 0 7
-18 7 -39 1 -32 -3 -41 -19 -45 -11 -3 -24 0 -28 7 -5 8 -8 7 -8 -5 0 -13 -8
-18 -27 -18 -35 0 -58 -14 -49 -29 7 -10 -7 -16 -28 -12 -5 1 -12 -2 -15 -7
-3 -5 -17 -13 -31 -17 -24 -7 -24 -7 -5 9 19 15 19 17 2 30 -21 16 -107 18
-104 3 1 -6 -7 -13 -17 -15 -22 -5 -69 -53 -60 -61 4 -3 9 0 11 7 3 6 13 12
24 12 10 0 19 5 19 10 0 22 22 8 31 -20 10 -26 14 -29 42 -23 18 3 43 13 57
21 21 13 20 10 -8 -20 -33 -35 -33 -35 -19 -79 22 -67 29 -101 19 -95 -5 3 -7
-6 -4 -19 2 -15 0 -25 -7 -25 -6 0 -11 7 -11 16 0 13 -3 14 -15 4 -8 -7 -12
-16 -9 -21 8 -14 -14 -10 -40 6 -21 14 -25 14 -36 0 -12 -14 -10 -16 16 -10
24 4 25 4 8 -4 -64 -28 -5 -44 61 -17 34 15 35 14 35 -8 0 -17 10 -28 40 -41
29 -13 37 -21 28 -27 -8 -5 -4 -7 13 -6 28 2 127 -45 147 -70 11 -15 15 -15
40 0 15 9 27 22 27 28 0 5 14 21 30 35 19 16 23 23 11 18 -13 -4 -17 -3 -12 5
4 7 3 12 -3 12 -16 0 -53 -59 -45 -72 4 -7 4 -10 -1 -6 -4 4 -14 3 -21 -3 -9
-8 -11 -6 -8 8 4 15 -8 25 -55 48 -40 20 -56 32 -47 37 8 5 36 -5 67 -22 29
-16 57 -26 61 -24 21 13 3 35 -47 59 -30 15 -55 34 -55 41 0 17 -1 17 38 3 18
-6 30 -15 27 -19 -6 -10 30 -32 38 -24 3 3 3 12 0 20 -3 9 1 14 12 14 11 0 15
-5 12 -15 -4 -8 -3 -17 2 -19 4 -3 7 26 6 65 0 38 3 69 7 69 4 0 8 -25 8 -55
0 -37 4 -55 13 -55 8 0 7 -3 -3 -10 -13 -8 -12 -11 5 -25 11 -9 37 -24 57 -34
21 -10 35 -21 31 -25 -4 -4 -1 -11 7 -16 23 -15 33 -12 27 9 -3 13 1 21 14 24
12 3 17 1 13 -6 -4 -7 -1 -7 7 1 12 11 12 14 -1 22 -12 8 -11 10 5 10 17 0 17
2 5 10 -11 7 -6 10 22 10 20 0 39 6 41 13 3 6 6 -9 6 -35 1 -27 6 -48 14 -51
9 -4 9 -6 -1 -6 -7 -1 -22 4 -32 9 -16 8 -18 7 -14 -4 3 -9 -3 -17 -15 -21
-12 -3 -19 -10 -16 -15 10 -16 -16 -22 -33 -8 -9 8 -30 20 -45 26 -16 7 -25
17 -21 23 4 7 -2 7 -17 -1 -21 -12 -21 -14 -6 -25 9 -7 17 -16 17 -22 0 -5 17
-17 38 -26 21 -9 39 -23 39 -30 0 -10 -12 -7 -41 9 -23 13 -47 24 -53 24 -17
0 -16 -25 1 -39 13 -11 13 -18 1 -51 -7 -21 -11 -41 -7 -45 4 -3 0 -10 -8 -15
-9 -6 -18 -3 -27 8 -7 9 -13 13 -13 7 0 -5 -4 -4 -9 3 -6 10 -10 8 -14 -8 -3
-13 0 -23 9 -27 8 -3 14 -13 15 -22 0 -10 2 -11 6 -3 2 6 9 12 14 12 6 0 7 -4
4 -10 -9 -14 19 -12 33 2 9 9 15 9 24 0 9 -9 9 -12 -1 -12 -7 0 -10 -4 -6 -9
3 -5 1 -13 -5 -16 -7 -5 -8 -11 -1 -19 5 -6 7 -16 3 -21 -9 -13 -52 -15 -52
-3 0 5 -5 6 -11 3 -6 -4 -5 2 3 14 7 12 17 21 22 21 4 0 3 -7 -4 -15 -11 -13
-8 -15 15 -15 23 0 25 2 15 15 -6 8 -9 19 -5 26 5 8 -1 9 -23 4 -25 -5 -31 -3
-37 15 -3 11 -11 18 -16 15 -9 -6 -13 14 -9 50 3 24 21 38 34 25 6 -6 15 -5
23 1 21 18 15 26 -17 21 -23 -3 -31 0 -36 14 -3 11 -10 27 -15 37 -5 10 -7 22
-4 26 3 5 -2 11 -10 14 -9 4 -12 1 -8 -9 4 -10 -2 -14 -22 -14 -17 0 -24 4
-19 12 4 7 3 8 -4 4 -22 -13 -12 -26 18 -26 l31 0 -20 -21 c-11 -12 -18 -29
-16 -39 4 -21 -20 -47 -29 -31 -8 12 -42 6 -39 -7 2 -7 -4 -9 -14 -5 -11 4
-13 8 -5 11 7 2 12 10 12 18 0 9 5 12 11 9 16 -11 -17 62 -41 87 l-21 23 -6
-23 c-3 -12 -10 -22 -15 -22 -5 0 -6 -4 -3 -10 3 -5 -3 -10 -14 -10 -12 0 -21
7 -21 15 0 8 3 14 8 14 18 -3 32 2 32 11 0 6 -6 10 -12 9 -25 -3 -39 1 -34 10
3 5 -4 11 -15 14 -15 4 -19 2 -15 -9 8 -21 -17 -17 -32 6 -10 17 -10 20 6 20
11 0 30 10 43 22 20 18 21 20 4 13 -41 -16 -74 -14 -80 6 -8 25 -21 24 -30 -3
l-8 -23 -4 23 c-2 12 -9 22 -15 22 -6 0 -8 -10 -4 -25 5 -19 3 -23 -9 -19 -10
4 -15 0 -15 -10 0 -9 -4 -16 -10 -16 -5 0 -10 9 -10 21 0 14 -5 19 -17 17 -23
-4 -26 -47 -4 -46 9 0 31 -3 50 -7 28 -7 33 -5 29 6 -7 19 41 22 59 4 17 -18
16 -23 -4 -21 -9 0 -19 -8 -22 -19 -4 -13 -14 -20 -28 -19 -25 1 -27 -3 -14
-25 6 -9 11 -10 15 -2 10 15 27 14 23 -1 -1 -7 9 -14 23 -16 20 -3 22 -1 13 9
-15 15 1 49 23 49 11 0 12 -4 5 -17 -5 -10 -9 -22 -9 -28 1 -10 -15 -20 -45
-29 -11 -4 -15 -11 -11 -18 4 -7 -5 -2 -19 11 -24 22 -27 22 -33 7 -5 -13 -9
-14 -14 -5 -5 7 -3 23 3 37 9 20 9 26 -1 30 -6 2 -12 9 -12 17 0 7 -7 18 -15
25 -17 14 -20 3 -5 -20 5 -9 5 -19 -2 -27 -6 -8 -8 -16 -4 -20 3 -3 6 -1 6 5
0 7 4 12 10 12 5 0 7 -7 4 -15 -4 -8 -12 -15 -20 -15 -8 0 -13 -6 -11 -12 1
-9 -8 -12 -25 -10 -29 3 -34 -4 -19 -27 5 -8 11 -9 15 -3 3 6 21 9 39 7 17 -2
39 -4 47 -4 13 -1 13 -3 1 -10 -9 -6 -22 -6 -33 0 -12 7 -18 6 -18 -1 0 -6 -4
-9 -8 -6 -4 2 -8 -4 -9 -14 -2 -18 22 -21 46 -5 14 8 21 -9 10 -25 -6 -10 -9
-11 -9 -2 0 6 -5 12 -11 12 -5 0 -7 -6 -3 -12 5 -8 0 -7 -11 2 -17 14 -18 13
-12 -2 3 -10 2 -20 -3 -23 -6 -4 -10 2 -10 12 0 25 -19 43 -45 43 -14 0 -21 6
-21 19 0 11 4 17 8 15 13 -8 9 5 -8 31 -9 14 -24 25 -33 24 -14 0 -14 -1 -1
-7 8 -4 16 -15 16 -25 2 -15 -3 -17 -27 -12 -16 4 -29 3 -28 -2 4 -20 -2 -23
-17 -9 -20 20 -54 21 -54 1 0 -8 -4 -15 -10 -15 -5 0 -10 5 -10 10 0 6 -23 10
-51 10 -29 0 -48 -4 -44 -10 3 -5 13 -7 23 -4 14 5 15 4 2 -5 -13 -9 -13 -11
3 -11 9 0 17 -5 17 -11 0 -7 11 -8 30 -4 20 4 44 -1 79 -16 44 -20 47 -25 33
-36 -15 -12 -15 -12 3 -6 11 3 25 10 31 14 6 5 14 5 18 1 4 -4 6 0 4 8 -2 8 3
14 11 12 7 -1 20 3 29 10 13 10 14 10 8 0 -5 -8 -3 -11 5 -10 7 2 15 -5 17
-15 3 -15 -1 -17 -27 -12 -26 4 -29 3 -26 -16 4 -18 0 -21 -26 -17 -17 3 -34
-1 -41 -9 -14 -17 -6 -26 26 -25 16 0 23 -5 19 -14 -3 -7 2 -21 11 -30 9 -8
14 -20 10 -25 -3 -5 2 -12 10 -15 9 -3 13 -11 9 -17 -4 -6 2 -8 18 -4 13 4 28
7 32 7 5 0 5 5 2 10 -5 8 -12 7 -23 -2 -16 -12 -16 -11 -2 7 8 11 22 26 30 33
13 12 13 13 0 6 -12 -5 -12 -4 -3 6 6 7 9 18 6 26 -4 10 0 11 20 1 17 -8 24
-19 23 -37 0 -15 5 -24 12 -23 7 2 12 -2 12 -7 0 -14 -23 -13 -37 1 -9 9 -11
7 -6 -9 3 -13 13 -21 27 -20 50 2 67 -2 60 -14 -4 -8 -3 -10 2 -5 5 5 10 13
10 18 1 5 2 14 3 19 0 6 10 10 21 10 14 0 18 -5 14 -17 -5 -15 -4 -15 5 -3 8
12 11 12 17 -3 3 -9 14 -17 24 -17 11 0 21 -4 24 -9 7 -11 -40 -24 -57 -16 -7
4 -4 0 6 -8 14 -11 15 -16 5 -20 -9 -4 -9 -6 -1 -6 6 -1 19 6 27 15 15 14 16
14 16 -5 0 -12 -8 -29 -18 -39 -18 -18 -18 -42 0 -79 8 -17 15 -20 28 -13 13
7 20 5 24 -6 5 -13 9 -14 21 -4 8 6 18 10 22 7 4 -2 15 -2 24 2 14 5 15 8 4
18 -11 10 -19 8 -39 -8 -32 -26 -33 -18 -2 16 20 22 25 23 36 10 7 -8 15 -13
19 -11 4 3 8 -5 8 -16 2 -15 -8 -24 -37 -35 -22 -9 -37 -20 -34 -24 3 -5 -7
-11 -21 -15 -18 -4 -25 -12 -22 -23 12 -44 12 -46 -15 -49 -29 -3 -40 -22 -13
-22 8 0 15 -5 15 -11 0 -7 -11 -9 -30 -6 -16 4 -32 2 -35 -3 -4 -6 1 -7 11 -3
13 5 15 3 9 -7 -6 -9 -4 -12 6 -8 17 7 43 -18 29 -27 -6 -4 -8 -11 -5 -16 11
-16 24 -10 27 14 2 15 9 21 21 19 12 -2 21 4 24 17 4 16 12 20 37 18 17 -2 41
-9 53 -15 30 -17 42 -14 19 3 -11 8 -15 15 -9 15 7 0 18 -6 25 -13 11 -12 16
-12 26 0 15 15 48 17 57 3 4 -6 -1 -7 -12 -4 -14 5 -15 4 -4 -4 11 -8 23 -6
42 4 33 17 39 17 39 3 0 -5 -6 -7 -12 -3 -9 5 -9 2 1 -9 14 -18 26 -24 17 -8
-3 5 5 11 19 13 17 4 25 1 25 -9 0 -8 5 -11 10 -8 6 4 8 11 5 16 -11 17 32 9
46 -8 13 -17 13 -17 -6 -3 -18 14 -19 13 -8 -1 7 -9 9 -19 5 -23 -4 -5 11 -1
33 8 23 10 50 14 67 11 29 -7 39 -25 13 -25 -8 0 -15 -7 -15 -15 0 -8 5 -15
10 -15 6 0 10 -4 10 -8 0 -4 -12 -7 -27 -6 -16 1 -27 7 -26 13 2 6 -2 11 -7
11 -6 0 -10 -4 -10 -8 0 -15 22 -30 36 -25 8 3 18 -5 24 -22 13 -35 13 -40 -4
-26 -7 6 -20 9 -28 6 -21 -8 -18 -35 4 -35 11 0 16 5 13 10 -4 7 3 8 22 4 48
-11 179 -15 164 -5 -8 5 -10 14 -5 22 6 11 5 12 -7 3 -8 -5 -20 -9 -26 -8 -7
1 -18 2 -24 3 -8 1 -8 6 1 16 7 8 8 15 3 15 -5 0 -15 -11 -21 -25 -13 -28 -59
-37 -48 -10 3 9 -1 18 -9 21 -8 4 -15 10 -15 16 0 5 5 6 10 3 24 -15 58 -14
64 1 5 12 2 15 -9 10 -10 -3 -13 -2 -10 5 4 6 -1 19 -11 30 -15 17 -16 22 -4
29 17 11 30 4 30 -16 0 -8 7 -14 15 -14 22 0 30 4 27 13 -1 5 2 6 8 2 6 -3 8
-10 5 -15 -3 -4 4 -10 15 -13 11 -3 20 -1 20 4 0 4 10 14 23 20 22 12 22 12 4
-9 -18 -20 -18 -21 2 -33 20 -13 20 -13 -7 -31 -24 -16 -25 -18 -7 -18 12 0
25 -4 30 -9 6 -4 24 -11 40 -14 l30 -6 -32 14 c-18 8 -33 18 -32 23 1 16 18
46 18 34 1 -7 5 -11 11 -7 5 3 7 12 3 20 -3 10 1 15 12 15 9 0 13 -4 10 -10
-3 -5 -1 -10 6 -10 7 0 4 -7 -7 -16 -10 -8 -14 -13 -7 -9 7 3 22 0 34 -7 16
-10 23 -10 26 -1 2 7 10 11 16 9 7 -1 9 -1 5 1 -17 10 -8 43 12 43 13 0 17 -5
14 -14 -3 -8 4 -19 16 -26 12 -6 30 -20 41 -31 20 -20 57 -16 40 5 -6 7 3 18
25 33 24 16 34 18 34 9 0 -14 -27 -31 -43 -27 -5 1 -6 -3 -2 -9 3 -5 13 -10
21 -10 8 0 12 5 9 10 -3 6 -1 10 4 10 6 0 11 -4 11 -10 0 -5 8 -10 18 -10 10
0 13 3 6 8 -12 8 -15 42 -3 42 4 0 15 -3 25 -7 16 -6 16 -7 -2 -14 -17 -7 -16
-8 6 -9 23 -1 23 -2 5 -10 -16 -7 -13 -9 15 -7 28 2 35 -2 34 -15 -1 -14 2
-16 17 -7 11 5 19 12 19 15 0 3 -4 2 -10 -1 -5 -3 -10 -1 -10 5 0 7 6 10 13 7
6 -2 11 -12 11 -21 -1 -9 3 -16 8 -16 6 0 8 11 6 25 -3 13 -1 22 3 19 5 -3 9
-11 9 -19 0 -8 5 -17 12 -21 7 -5 8 -3 3 6 -6 10 1 11 31 6 88 -16 135 -18
148 -7 11 9 15 9 19 -1 3 -7 6 -4 6 7 1 13 4 16 9 8 4 -7 22 -14 39 -17 35 -7
47 9 37 51 -5 19 -3 24 7 21 7 -2 13 -19 13 -39 l1 -34 55 0 55 0 -2 32 c-2
17 2 35 7 38 6 4 10 -10 10 -34 l0 -40 28 27 c16 16 23 30 17 34 -11 8 6 11
45 8 32 -2 23 7 -10 12 -14 1 -28 8 -32 13 -5 6 -8 5 -8 -2 0 -7 -7 -13 -15
-13 -8 0 -15 3 -15 8 1 21 20 32 56 32 65 0 102 -5 97 -13 -6 -10 9 -9 26 2
17 11 6 31 -19 31 -19 0 -34 25 -24 41 3 5 -4 9 -15 9 -12 0 -21 -6 -21 -12 0
-9 -3 -9 -9 1 -5 7 -32 16 -60 19 -48 4 -51 3 -51 -19 0 -19 -2 -21 -10 -9 -7
11 -10 11 -10 2 0 -7 -4 -10 -10 -7 -5 3 -10 2 -10 -3 0 -6 7 -12 15 -16 8 -3
15 -11 15 -17 0 -8 -23 -10 -78 -7 -61 4 -79 2 -79 -8 0 -7 4 -11 8 -8 4 2 10
0 14 -6 10 -16 -22 -11 -40 6 -12 12 -13 19 -4 30 9 11 8 14 -7 14 -17 0 -17
1 2 15 19 14 18 14 -2 9 -21 -6 -42 22 -28 35 4 3 9 0 11 -6 3 -7 9 -13 14
-13 6 0 8 4 5 9 -11 17 5 38 27 37 12 -1 27 -12 34 -26 l13 -25 -2 28 c-1 15
-8 27 -16 27 -7 0 -10 5 -7 10 4 6 -8 10 -29 10 -20 0 -36 -4 -36 -10 0 -5 -8
-10 -17 -11 -16 0 -15 -1 1 -8 19 -7 19 -8 -1 -13 -16 -4 -20 -11 -16 -27 6
-25 6 -25 -41 -6 -23 10 -34 20 -30 27 5 8 2 9 -10 5 -10 -4 -20 -7 -22 -7 -2
0 -4 -6 -4 -13 0 -7 -12 -14 -26 -15 -20 -1 -25 2 -20 13 3 8 0 15 -7 15 -7 0
-3 8 8 17 18 14 18 15 1 9 -12 -4 -23 0 -32 11 -8 11 -13 13 -14 6 0 -26 -80
-2 -80 23 0 11 -5 11 -24 2 -30 -13 -41 -37 -25 -52 8 -7 10 -7 6 -1 -3 6 -2
17 4 25 7 13 9 12 9 -2 0 -10 5 -18 12 -18 6 0 3 -10 -8 -23 -11 -12 -28 -34
-37 -50 -15 -22 -21 -26 -37 -17 -13 7 -22 6 -32 -3 -17 -16 -53 -16 -54 1 -1
6 -2 17 -3 22 0 6 -8 10 -16 10 -8 0 -15 -4 -15 -10 0 -5 6 -10 13 -10 7 0 13
-11 13 -25 0 -14 -4 -25 -8 -25 -4 0 -8 5 -8 11 0 5 -4 8 -9 4 -13 -7 -24 30
-16 55 4 12 0 26 -9 35 -17 17 -36 20 -36 5 0 -5 6 -10 13 -10 7 0 13 -13 13
-30 1 -16 -2 -30 -7 -30 -5 0 -9 8 -10 18 0 9 -3 12 -6 5 -7 -17 -43 6 -36 24
3 7 0 13 -6 13 -6 0 -8 6 -5 13 2 7 -4 13 -16 14 -11 1 -20 -3 -20 -8 0 -6 -5
-7 -12 -3 -7 5 -8 3 -4 -5 5 -7 14 -10 21 -7 8 3 19 -2 25 -10 9 -10 9 -14 1
-14 -6 0 -11 -5 -11 -11 0 -5 4 -8 9 -5 11 7 33 -19 24 -28 -4 -4 0 -4 10 0
10 3 17 1 17 -5 0 -12 -11 -14 -34 -5 -8 3 -12 12 -9 20 3 8 1 14 -5 12 -6 -2
-18 6 -27 17 -9 11 -14 14 -10 8 3 -7 2 -13 -3 -13 -11 0 -24 26 -27 53 -1 11
3 16 12 13 8 -3 13 2 13 14 0 10 4 22 10 25 5 3 8 0 7 -7 -2 -7 -2 -10 0 -5 8
14 25 7 19 -8 -3 -8 -1 -15 4 -15 6 0 10 9 10 20 0 11 -7 20 -15 20 -8 0 -15
7 -15 16 0 14 -2 14 -15 0 -9 -8 -23 -12 -33 -9 -13 4 -13 2 3 -10 17 -14 18
-18 5 -27 -8 -5 -23 -7 -32 -4 -12 4 -16 -1 -15 -15 1 -16 4 -18 22 -9 18 10
19 10 6 -5 -7 -10 -9 -17 -3 -17 5 0 12 -6 15 -14 4 -9 -4 -13 -26 -12 -27 1
-31 5 -29 23 4 26 -13 39 -22 17 -3 -8 -2 -12 4 -9 6 3 10 1 10 -4 0 -6 -4
-11 -10 -11 -5 0 -7 -6 -4 -14 3 -8 0 -17 -7 -22 -8 -4 -10 -3 -5 4 4 7 2 12
-5 12 -8 0 -9 3 0 13 6 8 8 17 4 20 -14 15 -21 5 -19 -28 2 -41 -9 -47 -17 -8
-6 33 1 53 18 53 25 0 23 15 -3 34 -21 16 -24 17 -19 4 6 -17 -11 -29 -41 -27
-13 0 -13 2 3 8 13 6 0 9 -42 9 -35 1 -63 -3 -63 -8 0 -6 5 -10 10 -10 6 0 10
-4 10 -10 0 -5 -7 -7 -15 -4 -8 4 -15 12 -15 20 0 13 -39 40 -41 29 -1 -3 -2
-11 -3 -17 -2 -16 -28 -11 -38 7 -4 7 -19 16 -33 19 -36 9 -31 28 5 22 16 -2
32 0 36 5 8 13 26 -1 20 -16 -3 -8 4 -12 19 -11 14 0 26 9 29 20 4 14 2 16 -7
7 -15 -15 -24 -14 -30 3 -5 12 5 14 54 11 46 -4 59 -2 59 9 0 8 -9 18 -20 21
-11 3 -20 12 -20 20 0 21 11 45 22 45 5 0 6 -5 2 -12 -4 -7 -3 -8 5 -4 6 4 9
11 6 16 -11 18 24 32 54 22 25 -9 29 -8 24 4 -3 8 -16 14 -28 14 -13 0 -35 4
-49 10 -19 7 -26 6 -26 -3 0 -6 -7 -3 -15 7 -8 11 -21 21 -29 22 -21 3 -28
-22 -10 -37 11 -9 12 -15 3 -25 -9 -11 -8 -14 6 -14 10 0 16 -2 13 -5 -10 -10
-58 7 -57 19 4 33 -2 46 -23 46 l-21 0 22 19 c16 14 18 21 9 25 -10 5 -10 7
-1 12 7 3 9 12 6 20 -9 25 23 5 35 -22 7 -14 20 -24 32 -24 12 0 18 -4 15 -10
-4 -6 10 -9 36 -8 37 1 39 3 24 14 -10 8 -22 11 -26 8 -5 -3 -19 2 -31 10 -13
8 -27 16 -33 16 -5 1 -9 8 -9 16 1 8 -4 14 -12 14 -21 0 -17 14 8 25 36 16 35
37 -2 30 -17 -3 -38 -2 -46 3 -14 8 -14 10 0 21 11 9 16 10 16 2 0 -6 7 -11
15 -11 8 0 15 3 15 8 -1 18 -17 30 -40 28 -16 -1 -24 4 -22 13 2 8 -3 11 -12
8 -11 -4 -14 2 -14 24 1 16 5 32 10 35 5 3 7 -6 4 -20 -4 -22 -1 -26 22 -28
15 0 37 0 50 1 25 2 26 -2 12 -29 -7 -13 -6 -21 4 -29 10 -8 20 -6 41 11 27
21 27 21 21 1 -4 -12 -1 -25 9 -33 11 -9 15 -9 15 -1 0 7 5 9 10 6 6 -3 10 -1
10 5 0 7 -8 9 -20 5 -15 -5 -18 -3 -14 9 4 9 19 17 38 17 30 2 30 2 4 6 -16 2
-28 9 -28 14 0 5 -8 9 -18 9 -24 0 -42 19 -41 45 0 12 3 15 6 7 9 -23 29 29
25 65 -3 24 -9 33 -23 33 -10 0 -19 5 -19 10 0 6 -8 10 -17 11 -10 0 -13 3 -7
5 22 9 79 -32 86 -62 7 -29 7 -29 4 4 -2 23 2 32 13 34 9 0 23 2 31 2 8 1 32
-1 53 -5 20 -3 40 -3 43 2 4 8 104 3 112 -6 7 -7 67 18 85 36 9 10 17 28 17
41 0 19 -2 20 -10 8 -8 -12 -10 -11 -10 6 0 19 8 27 40 39 3 1 20 6 38 10 17
4 32 11 32 16 0 5 7 9 15 9 17 0 20 16 6 25 -5 3 -8 26 -7 52 2 34 7 48 20 53
10 3 17 10 16 15 -1 5 4 11 11 14 7 2 9 -1 5 -8 -5 -7 -1 -9 10 -4 12 4 15 3
10 -5 -4 -7 -2 -12 3 -12 6 0 11 6 11 13 0 7 4 6 10 -4 12 -21 6 -54 -11 -53
-9 1 -14 -9 -14 -27 l0 -27 30 16 c17 10 32 20 33 25 2 4 7 7 12 7 4 0 23 14
41 30 17 17 37 29 44 26 8 -3 10 4 7 20 -2 14 -7 22 -10 20 -3 -3 -11 -1 -19
5 -9 9 -13 8 -13 0 0 -6 -4 -11 -10 -11 -6 0 -10 26 -10 58 0 38 3 52 9 42 6
-8 7 -18 4 -24 -3 -5 -1 -6 5 -2 7 4 12 14 12 22 0 8 5 14 11 14 6 0 9 -9 6
-20 -3 -11 0 -23 6 -27 13 -8 2 126 -13 141 -12 12 -13 46 -1 46 5 0 11 7 15
15 11 29 -10 15 -93 -64 -82 -77 -87 -80 -155 -93 -67 -12 -69 -13 -36 -20 19
-4 47 -10 62 -13 21 -6 27 -3 33 15 5 16 10 19 20 10 15 -12 12 -47 -5 -64 -8
-8 -14 -6 -20 4 -8 13 -10 12 -10 -2 0 -24 -23 -23 -45 2 -31 35 -73 26 -122
-25 -48 -51 -57 -55 -47 -22 8 29 32 55 69 79 l30 19 -30 -7 c-16 -4 -40 -11
-52 -15 -13 -5 -23 -6 -23 -4 0 2 -10 1 -23 -4 -14 -5 -57 -5 -103 0 -66 7
-140 13 -235 18 -9 1 -19 7 -22 14 -5 14 30 13 221 -2 105 -8 152 -4 202 16 8
4 26 8 39 9 13 2 28 9 32 16 7 10 9 10 9 1 0 -7 5 -13 11 -13 5 0 8 4 5 9 -3
4 6 6 19 3 15 -2 25 0 25 7 0 6 16 11 35 11 19 0 35 5 35 10 0 6 4 10 9 10 13
0 125 118 129 136 2 8 10 14 18 14 19 0 18 26 -2 34 -8 3 -12 2 -9 -4 3 -5
-23 -37 -57 -72 -64 -64 -70 -68 -89 -68 -6 0 -9 -7 -5 -15 3 -8 1 -15 -4 -15
-6 0 -10 5 -10 10 0 6 -7 10 -16 10 -8 0 -13 -4 -9 -9 3 -5 1 -12 -5 -16 -5
-3 -10 -1 -10 4 0 6 -5 11 -11 11 -6 0 -9 -7 -5 -15 3 -8 1 -15 -4 -15 -6 0
-10 5 -10 10 0 6 -7 10 -16 10 -8 0 -13 -4 -9 -9 3 -5 1 -12 -5 -16 -5 -3 -10
1 -10 9 0 9 -4 16 -10 16 -5 0 -10 -10 -10 -22 -1 -21 -2 -21 -11 -5 -6 9 -15
15 -20 12 -5 -4 -7 -10 -4 -15 3 -5 1 -11 -5 -15 -5 -3 -10 1 -10 9 0 9 -5 16
-11 16 -6 0 -9 -7 -6 -15 4 -8 2 -17 -2 -20 -5 -3 -11 2 -15 10 -3 8 -10 15
-17 15 -6 0 -8 -7 -4 -17 5 -15 4 -16 -6 -5 -7 6 -23 12 -35 12 -12 0 -25 -6
-27 -12 -4 -10 -6 -10 -6 0 -1 15 -31 16 -31 0 0 -6 -7 -3 -15 8 -13 16 -16
17 -25 4 -6 -10 -10 -11 -10 -2 0 19 -28 14 -33 -5 -4 -17 -5 -17 -6 0 -1 19
-31 24 -31 5 0 -7 -5 -5 -11 5 -5 9 -14 17 -19 17 -5 0 -11 -8 -13 -17 -4 -17
-5 -17 -6 0 -1 20 -27 23 -34 5 -4 -10 -6 -10 -6 0 -1 15 -31 16 -31 1 0 -6
-8 -1 -19 12 -20 25 -18 49 5 49 8 0 14 6 14 13 0 6 5 4 11 -5 7 -13 23 -18
54 -18 46 0 54 7 33 28 -16 16 -23 15 -44 -5 -17 -17 -18 -17 -11 1 7 17 3 18
-33 13 -22 -3 -43 -1 -46 4 -3 5 5 9 18 10 14 0 -30 27 -112 67 l-135 67 -19
62 -20 62 -53 0 c-37 -1 -53 -5 -53 -15z m-175 -244 c3 -6 -1 -7 -9 -4 -18 7
-21 14 -7 14 6 0 13 -4 16 -10z m675 -30 c0 -5 -5 -10 -11 -10 -5 0 -7 5 -4
10 3 6 8 10 11 10 2 0 4 -4 4 -10z m-645 -10 c-3 -5 -11 -10 -16 -10 -6 0 -7
5 -4 10 3 6 11 10 16 10 6 0 7 -4 4 -10z m1295 -33 c0 -16 -3 -18 -12 -9 -7 7
-18 12 -25 12 -15 0 -53 -71 -53 -100 0 -12 -4 -18 -10 -15 -6 4 -5 18 4 40 8
18 12 36 8 39 -3 3 -1 6 5 6 5 0 15 12 21 26 7 14 17 22 22 19 6 -3 10 -2 10
4 0 6 7 8 15 5 8 -4 15 -16 15 -27z m-1043 -19 c-3 -7 -5 -2 -5 12 0 14 2 19
5 13 2 -7 2 -19 0 -25z m-192 -131 c2 -12 7 -21 13 -20 20 4 21 -25 0 -30 -21
-6 -20 -34 1 -29 7 1 10 -2 6 -8 -3 -5 -1 -10 4 -10 6 0 11 5 11 10 0 20 18 9
22 -14 5 -26 -6 -26 -50 2 -20 13 -22 22 -21 73 2 57 10 73 14 26z m504 16
c-10 -11 -10 -14 -1 -9 6 4 12 2 12 -3 0 -6 -7 -11 -16 -11 -8 0 -12 -4 -9
-10 3 -5 -1 -10 -10 -10 -12 0 -15 7 -11 28 2 15 5 28 5 30 1 1 11 2 22 2 19
0 20 -2 8 -17z m180 3 c15 -8 33 -21 40 -30 7 -8 20 -12 29 -9 14 4 14 3 3 -5
-8 -6 -11 -17 -8 -26 11 -27 -13 -18 -47 19 -29 30 -40 35 -79 35 -37 0 -49
-5 -66 -26 -12 -15 -28 -24 -38 -22 -15 3 -12 10 19 41 30 31 43 37 77 37 23
0 54 -6 70 -14z m167 -5 c10 8 9 2 -3 -22 -36 -72 -73 -82 -73 -20 0 36 3 40
28 43 15 2 29 -1 30 -5 2 -4 10 -3 18 4z m288 -5 c-6 -16 -64 -46 -89 -46 -28
0 -7 17 29 24 19 4 39 13 46 21 16 19 21 19 14 1z m-608 -75 c-6 -8 -65 -5
-74 4 -3 3 14 5 37 5 23 0 40 -4 37 -9z m350 -10 c-9 -14 -83 -22 -128 -14
-42 8 -42 8 27 14 39 3 78 6 88 7 10 1 16 -2 13 -7z m301 -17 c-3 -3 -12 -4
-19 -1 -8 3 -5 6 6 6 11 1 17 -2 13 -5z m-315 -15 c8 -24 -5 -89 -23 -107 -18
-20 -18 -20 21 -27 47 -8 53 -31 10 -37 -25 -4 -30 -1 -31 16 -1 20 -2 18 -15
-23 -6 -20 -37 8 -31 29 2 9 -2 17 -9 17 -7 0 -11 -3 -9 -7 2 -3 -5 -14 -16
-23 -18 -16 -19 -16 -19 18 0 19 5 35 11 35 5 0 8 4 4 10 -3 5 -12 7 -19 4
-13 -5 -15 11 -7 73 0 6 11 9 24 6 18 -4 19 -3 7 6 -9 7 -10 11 -3 11 6 0 14
-4 17 -9 3 -5 19 -8 36 -7 16 1 32 -3 35 -8 3 -6 3 -1 1 12 -4 22 9 32 16 11z
m-369 -6 c-7 -2 -19 -2 -25 0 -7 3 -2 5 12 5 14 0 19 -2 13 -5z m117 -67 c0
-8 -4 -17 -9 -20 -10 -7 -23 19 -14 28 11 11 23 6 23 -8z m-100 -91 c0 -25
-18 -30 -32 -10 -14 19 -8 35 12 35 15 0 20 -7 20 -25z m102 10 c5 -6 8 -5 8
3 0 7 13 12 30 12 20 0 30 -5 30 -15 0 -8 -3 -15 -7 -16 -5 0 -25 -1 -46 -3
-21 -2 -44 2 -50 9 -7 6 -19 15 -27 18 -8 4 1 5 20 4 19 -1 38 -6 42 -12z
m118 1 c0 -9 -7 -12 -20 -9 -11 3 -20 9 -20 14 0 5 9 9 20 9 11 0 20 -6 20
-14z m-50 -36 c0 -5 -4 -10 -10 -10 -5 0 -10 5 -10 10 0 6 5 10 10 10 6 0 10
-4 10 -10z m-577 -13 c3 -8 -1 -14 -9 -14 -15 0 -18 9 -7 20 9 9 10 9 16 -6z
m490 -2 c-3 -9 -8 -14 -10 -11 -3 3 -2 9 2 15 9 16 15 13 8 -4z m-354 -26 c-8
-5 -9 -9 -3 -9 5 0 10 -11 10 -24 0 -23 -1 -23 -23 -9 -23 15 -33 31 -11 17 7
-5 9 -2 5 8 -6 18 12 40 26 31 5 -3 3 -9 -4 -14z m-229 -1 c0 -9 3 -9 12 0 18
18 26 15 26 -13 0 -26 -16 -33 -35 -14 -8 8 -17 5 -31 -9 -16 -16 -22 -18 -26
-6 -8 20 3 42 22 47 29 8 32 7 32 -5z m110 -7 c0 -3 -9 -12 -21 -19 -13 -9
-19 -20 -16 -32 3 -12 0 -17 -8 -14 -8 4 -11 -3 -10 -19 4 -30 -9 -54 -19 -38
-11 17 -22 13 -23 -7 -1 -13 5 -18 20 -17 28 3 57 -12 57 -28 0 -7 -9 -20 -20
-30 -25 -21 -27 -1 -3 25 16 18 15 19 -20 16 -20 -1 -37 -7 -37 -13 0 -5 -5
-3 -10 5 -5 8 -7 26 -4 40 5 20 3 22 -6 10 -9 -12 -10 -10 -8 10 2 19 9 25 27
25 26 0 39 19 21 30 -5 3 -13 0 -16 -9 -3 -8 -12 -12 -20 -9 -16 6 -20 43 -4
43 5 0 7 -7 3 -16 -5 -14 -3 -14 27 1 23 12 30 13 24 3 -6 -10 -4 -10 9 1 18
14 24 36 7 26 -5 -3 -10 -2 -10 4 0 14 31 30 47 24 7 -3 13 -8 13 -12z m270
10 c0 -5 -6 -12 -12 -14 -8 -3 -5 -6 5 -6 18 -1 21 -30 3 -34 -14 -3 -30 29
-23 47 7 17 27 22 27 7z m90 -36 c7 -4 9 -19 6 -34 l-6 -26 14 25 c13 22 15
23 21 8 4 -10 11 -15 16 -12 5 3 9 -1 9 -9 0 -19 -45 -30 -70 -17 -27 15 -36
12 -36 -9 0 -13 7 -19 18 -18 10 1 18 5 18 10 0 5 7 4 16 -4 14 -12 14 -14 -4
-20 -33 -12 -57 -4 -55 19 2 13 -5 23 -17 27 -22 7 -28 27 -7 23 8 -2 11 7 9
29 -3 31 -2 32 27 23 17 -5 35 -12 41 -15z m-810 -30 c-9 -10 -9 -15 -1 -15
15 0 14 -27 -1 -33 -17 -6 -50 12 -43 23 3 4 -3 6 -14 3 -10 -3 -22 1 -26 7
-6 9 2 11 28 8 24 -2 38 1 41 9 3 7 11 13 17 13 8 0 8 -4 -1 -15z m216 -15 c8
0 17 7 20 15 10 26 23 17 18 -12 -3 -15 -7 -30 -10 -32 -2 -2 4 -13 13 -24 10
-11 12 -17 6 -13 -7 4 -13 3 -13 -2 0 -5 -12 -8 -27 -7 -16 0 -28 6 -27 13 2
27 4 32 14 32 5 0 7 -6 4 -13 -3 -8 2 -14 9 -14 9 0 14 9 13 22 -1 18 -7 22
-28 21 -30 -2 -32 2 -21 31 7 17 8 17 11 1 2 -10 10 -18 18 -18z m330 -12 c1
-46 -12 -64 -33 -46 -10 8 -13 5 -13 -10 0 -17 5 -20 26 -16 18 3 25 1 22 -8
-3 -7 -18 -13 -34 -13 -26 0 -29 3 -26 29 3 18 0 26 -7 22 -6 -4 -11 0 -11 8
0 8 5 18 10 21 8 5 7 11 -1 21 -6 8 -9 17 -5 21 3 3 6 2 6 -4 0 -12 48 -5 56
8 9 15 10 11 10 -33z m149 24 c-3 -3 -11 0 -18 7 -9 10 -8 11 6 5 10 -3 15 -9
12 -12z m-390 -12 c3 -6 -1 -7 -9 -4 -18 7 -21 14 -7 14 6 0 13 -4 16 -10z
m408 -14 c4 -10 1 -13 -9 -9 -7 3 -14 9 -14 14 0 14 17 10 23 -5z m-410 -21
c-3 -9 -8 -14 -10 -11 -3 3 -2 9 2 15 9 16 15 13 8 -4z m-173 -41 c0 -3 -7
-12 -15 -20 -12 -13 -15 -13 -15 -1 0 7 3 17 7 20 8 8 23 9 23 1z m134 -39
c-4 -8 -8 -15 -10 -15 -2 0 -4 7 -4 15 0 8 4 15 10 15 5 0 7 -7 4 -15z m213
-14 c-4 -15 1 -18 22 -16 20 2 27 -2 27 -16 0 -11 -7 -19 -14 -19 -9 0 -12 6
-8 15 4 12 2 13 -12 6 -19 -10 -62 3 -62 18 0 6 7 8 15 4 9 -3 15 -2 14 3 -3
17 1 24 12 24 6 0 9 -8 6 -19z m246 -6 c-3 -9 -8 -14 -10 -11 -3 3 -2 9 2 15
9 16 15 13 8 -4z m-157 -7 c5 -7 3 -8 -6 -3 -10 6 -12 3 -8 -13 4 -12 2 -22
-3 -22 -5 0 -9 11 -9 25 0 26 14 33 26 13z m-252 -60 c8 -6 7 -8 -2 -8 -7 0
-15 7 -19 16 -3 8 -12 13 -19 10 -8 -3 -14 -1 -14 4 0 15 35 16 39 0 2 -8 8
-18 15 -22z m373 12 c2 -21 -2 -29 -10 -25 -7 4 -3 -1 7 -9 11 -9 23 -16 27
-16 18 0 20 -43 4 -59 -10 -9 -15 -10 -11 -3 4 6 3 12 -2 12 -6 0 -20 -19 -32
-42 -13 -26 -16 -37 -7 -30 15 12 47 7 47 -8 0 -5 3 -17 7 -27 6 -16 5 -16
-10 -4 -9 7 -14 18 -11 23 4 5 -4 9 -17 7 -44 -4 -79 11 -79 35 0 11 4 17 8
11 10 -14 32 -17 32 -5 0 6 -4 10 -10 10 -5 0 -10 7 -10 15 0 9 -7 18 -16 22
-15 5 -15 7 -1 15 9 5 14 15 11 23 -4 9 0 15 10 15 9 0 15 5 14 12 -2 7 4 12
12 13 8 0 15 5 15 10 0 9 14 35 18 35 1 0 3 -14 4 -30z m-260 8 c-2 -7 -10
-12 -16 -10 -6 1 -14 -5 -17 -13 -4 -8 -11 -15 -17 -15 -6 0 0 11 13 25 25 27
45 33 37 13z m79 -32 c-2 -11 1 -30 7 -41 9 -18 9 -19 -8 -5 -17 14 -17 14 -7
-7 7 -12 21 -24 31 -28 42 -13 34 -68 -8 -60 -9 2 -24 4 -33 4 -11 1 -18 9
-18 21 0 12 7 20 18 20 15 1 15 2 -3 18 -11 9 -19 26 -17 37 2 16 1 17 -7 5
-9 -13 -11 -13 -11 2 0 9 6 19 13 21 7 3 5 6 -5 6 -22 1 -24 27 -3 35 8 3 15
1 15 -4 0 -6 4 -10 10 -10 5 0 6 8 3 18 -6 15 -5 15 10 3 9 -7 15 -23 13 -35z
m134 29 c0 -10 -10 -15 -27 -16 -25 0 -26 -1 -8 -9 18 -8 19 -9 1 -9 -12 -1
-16 -6 -13 -16 4 -8 2 -17 -3 -20 -6 -4 -10 -1 -10 6 0 6 -8 18 -17 25 -15 11
-16 15 -4 26 12 11 13 11 7 -2 -4 -8 -1 -7 8 4 8 10 19 15 25 12 5 -4 12 -2
16 4 9 15 25 12 25 -5z m-291 -31 c-6 -8 -19 -13 -28 -13 -13 1 -13 2 2 6 9 2
17 11 17 19 0 8 5 12 10 9 8 -5 7 -11 -1 -21z m395 11 c6 -17 4 -18 -18 -9
-20 8 -21 24 -2 24 8 0 16 -7 20 -15z m-319 -54 c-10 -10 -34 10 -29 24 6 14
8 13 19 -2 8 -10 12 -20 10 -22z m145 5 c0 -2 -7 -7 -16 -10 -8 -3 -12 -2 -9
4 6 10 25 14 25 6z m-147 -41 c-3 -9 -8 -14 -10 -11 -3 3 -2 9 2 15 9 16 15
13 8 -4z m-23 -15 c0 -5 -8 -10 -17 -10 -15 0 -16 2 -3 10 19 12 20 12 20 0z
m135 -108 c11 0 36 -4 55 -7 19 -3 45 -6 58 -6 19 1 20 -2 10 -18 -6 -10 -19
-16 -28 -14 -9 3 -23 -2 -31 -10 -23 -22 -59 -39 -74 -33 -7 2 -16 -2 -19 -10
-4 -9 2 -14 17 -15 l22 -2 -22 -4 c-23 -4 -33 -33 -12 -33 5 0 7 4 4 10 -3 6
1 7 9 4 25 -10 18 -21 -11 -20 -25 1 -28 5 -31 40 -2 21 1 36 6 33 4 -3 14 3
22 13 11 15 18 17 33 8 17 -9 19 -8 14 6 -4 10 -3 15 3 11 6 -3 10 3 10 13 0
15 -6 20 -24 18 -13 0 -22 -3 -20 -5 8 -9 -29 -40 -40 -34 -6 3 -8 2 -3 -2 8
-9 -53 -39 -61 -30 -8 7 16 30 31 30 7 0 12 5 12 10 0 15 15 35 26 35 6 0 7
-5 3 -12 -4 -7 -3 -8 4 -4 9 5 9 13 0 29 -9 19 -9 20 3 11 8 -6 23 -11 34 -12z
m209 -43 c-3 -5 -15 -9 -27 -9 -12 0 -39 -11 -60 -25 -37 -25 -37 -25 -37 -4
0 14 5 19 14 16 8 -3 16 -3 18 1 2 4 14 14 27 23 25 16 75 14 65 -2z m-137
-49 c2 -20 -8 -26 -20 -13 -4 3 -2 12 4 20 15 17 14 17 16 -7z m87 -15 c11 -8
17 -17 14 -20 -3 -3 -16 3 -29 14 -27 23 -14 28 15 6z m-98 -20 c4 -8 11 -12
17 -8 6 3 7 1 3 -5 -10 -17 -19 -15 -34 8 -7 13 -8 20 -2 20 6 0 13 -7 16 -15z
m-150 -5 c9 0 13 -4 10 -8 -7 -11 -66 -13 -66 -3 0 14 14 22 28 16 7 -3 20 -5
28 -5z m1110 -15 c17 -13 17 -14 2 -15 -10 0 -18 5 -18 11 0 5 -4 7 -10 4 -5
-3 -10 -1 -10 4 0 15 13 14 36 -4z m-906 1 c0 -2 -7 -7 -16 -10 -8 -3 -12 -2
-9 4 6 10 25 14 25 6z m240 -6 c0 -5 -2 -10 -4 -10 -3 0 -8 5 -11 10 -3 6 -1
10 4 10 6 0 11 -4 11 -10z m-80 -10 c0 -5 -5 -10 -11 -10 -5 0 -7 5 -4 10 3 6
8 10 11 10 2 0 4 -4 4 -10z m733 -42 c2 -7 8 -10 12 -6 4 4 2 14 -4 22 -10 12
-9 15 8 13 25 -2 26 -7 6 -33 -8 -10 -15 -26 -15 -35 0 -32 -23 -37 -67 -18
-49 21 -59 44 -15 36 58 -12 65 -12 69 1 3 7 -3 12 -14 12 -10 0 -25 5 -33 10
-13 9 -13 11 -1 19 17 11 47 -1 54 -21z m564 3 c-1 -18 -3 -18 -27 -3 -14 9
-27 17 -29 19 -2 2 10 3 27 3 24 0 30 -4 29 -19z m-437 -35 c-35 -52 -37 -60
-10 -51 10 3 29 1 41 -5 18 -10 25 -9 42 8 16 17 18 24 9 35 -10 12 -8 13 14
9 14 -2 22 -7 16 -11 -14 -10 -33 -51 -28 -60 3 -5 0 -14 -7 -19 -25 -21 -161
46 -150 74 3 8 12 14 20 14 13 0 13 -3 3 -15 -8 -9 -8 -15 -2 -15 6 0 23 18
39 40 15 22 32 40 36 40 4 0 -6 -20 -23 -44z m-520 30 c0 -11 -19 -15 -25 -6
-3 5 1 10 9 10 9 0 16 -2 16 -4z m620 -6 c0 -5 -4 -10 -10 -10 -5 0 -10 5 -10
10 0 6 5 10 10 10 6 0 10 -4 10 -10z m307 -7 c3 -8 -5 -10 -24 -7 -41 8 -49
21 -12 20 18 -1 34 -7 36 -13z m-917 -23 c20 -6 21 -8 5 -8 -11 0 -29 3 -40 8
-25 11 1 11 35 0z m575 -11 c4 -6 5 -13 1 -16 -8 -8 -56 6 -56 17 0 13 47 13
55 -1z m-515 -9 c0 -5 -2 -10 -4 -10 -3 0 -8 5 -11 10 -3 6 -1 10 4 10 6 0 11
-4 11 -10z m165 0 c-3 -5 -10 -10 -16 -10 -5 0 -9 5 -9 10 0 6 7 10 16 10 8 0
12 -4 9 -10z m575 -12 c0 -9 3 -9 11 -1 12 12 39 7 39 -8 0 -5 -7 -9 -15 -9
-8 0 -15 -4 -15 -10 0 -5 7 -10 15 -10 8 0 15 -7 15 -15 0 -11 -11 -15 -43
-15 -33 0 -44 4 -44 15 0 9 6 14 14 11 7 -3 13 1 13 8 0 8 -8 17 -17 20 -15 6
-15 8 -3 16 20 13 30 12 30 -2z m-565 -8 c-3 -5 -11 -10 -16 -10 -6 0 -7 5 -4
10 3 6 11 10 16 10 6 0 7 -4 4 -10z m-455 -10 c0 -5 -2 -10 -4 -10 -3 0 -8 5
-11 10 -3 6 -1 10 4 10 6 0 11 -4 11 -10z m400 -30 c0 -5 -4 -10 -10 -10 -5 0
-10 5 -10 10 0 6 5 10 10 10 6 0 10 -4 10 -10z m528 -9 c11 -7 11 -9 -2 -14
-9 -4 -16 -2 -16 4 0 6 -4 7 -10 4 -5 -3 -10 -1 -10 4 0 13 20 14 38 2z"/>
<path d="M1133 805 c0 -18 28 -16 35 3 2 7 -5 12 -15 12 -11 0 -20 -7 -20 -15z"/>
<path d="M876 773 c-11 -11 -6 -23 8 -23 8 0 17 4 20 9 7 10 -19 23 -28 14z"/>
<path d="M1010 520 c-11 -7 -11 -10 -2 -10 7 0 11 -4 7 -9 -3 -5 -2 -12 3 -14
4 -3 12 6 19 19 12 26 1 32 -27 14z"/>
<path d="M1063 510 c-13 -5 -23 -14 -23 -19 0 -5 11 -4 25 2 14 7 25 15 25 20
0 8 2 8 -27 -3z"/>
<path d="M908 1672 c7 -5 12 -15 10 -22 -2 -8 2 -14 7 -15 15 -1 86 -76 80
-85 -2 -4 7 -5 22 -2 21 4 25 2 20 -11 -4 -10 3 -21 19 -31 23 -16 24 -16 24
8 0 13 7 27 16 30 12 4 15 2 11 -9 -4 -8 -2 -17 3 -20 6 -4 10 -1 10 4 0 6 4
11 10 11 5 0 7 -6 4 -13 -3 -8 6 -19 22 -25 21 -10 24 -15 14 -27 -10 -12 -9
-15 4 -15 25 0 31 4 31 20 0 8 7 16 16 18 11 2 15 10 12 21 -6 23 16 39 28 20
4 -7 11 -10 15 -6 4 4 13 2 21 -4 10 -9 13 -8 14 2 1 8 5 3 9 -11 5 -17 8 -19
9 -7 1 20 27 23 34 5 3 -8 6 -6 6 5 1 17 21 25 21 9 0 -9 27 -13 48 -6 10 3 9
10 -3 34 -16 31 -29 38 -40 20 -3 -5 2 -10 12 -11 12 -1 10 -3 -7 -8 -18 -5
-29 -2 -41 13 -16 19 -16 19 -31 -2 l-15 -22 -11 25 c-14 30 -32 32 -39 5 -9
-35 -33 -24 -31 15 1 39 1 39 30 24 28 -15 113 -23 133 -11 12 6 5 9 -27 10
-63 2 -118 13 -118 22 0 5 17 6 38 4 27 -4 33 -3 22 5 -8 5 -17 8 -21 5 -4 -2
-11 1 -15 7 -5 9 0 10 14 7 12 -4 22 -1 22 4 0 6 6 5 15 -2 9 -7 15 -8 15 -2
0 5 -6 12 -14 15 -23 9 -442 8 -428 -1z m397 -112 c3 -5 2 -10 -4 -10 -5 0
-13 5 -16 10 -3 6 -2 10 4 10 5 0 13 -4 16 -10z m55 0 c0 -5 -5 -10 -11 -10
-5 0 -7 5 -4 10 3 6 8 10 11 10 2 0 4 -4 4 -10z"/>
<path d="M1680 1670 c-9 -6 -10 -10 -3 -10 6 0 15 5 18 10 8 12 4 12 -15 0z"/>
<path d="M1731 1663 c-6 -10 -11 -13 -11 -8 0 6 -7 -1 -15 -15 -9 -15 -15 -19
-15 -10 0 8 -7 0 -15 -17 -15 -34 -35 -44 -35 -18 0 8 -8 15 -17 14 -11 0 -13
-3 -5 -6 17 -7 15 -23 -3 -23 -8 0 -15 -7 -15 -16 0 -8 5 -12 11 -8 6 3 15 0
20 -7 7 -11 9 -11 9 3 0 9 10 20 22 24 13 4 28 14 35 23 11 15 12 15 13 -1 0
-28 -12 -51 -20 -38 -5 7 -9 2 -12 -15 l-5 -26 23 22 c16 15 24 34 24 56 0 18
5 33 11 33 7 0 9 -10 7 -25 -3 -13 -1 -22 3 -19 5 3 9 20 9 39 0 22 6 38 18
44 15 9 15 10 -5 11 -12 0 -27 -8 -32 -17z"/>
<path d="M1863 1666 c6 -16 -13 -26 -49 -26 -13 0 -24 -4 -24 -10 0 -13 21
-13 54 0 21 8 26 6 31 -10 14 -45 51 -11 39 36 -4 17 -13 24 -31 24 -18 0 -24
-4 -20 -14z"/>
<path d="M1937 1663 c3 -7 6 -13 8 -13 1 0 7 6 13 13 8 10 6 13 -7 13 -11 0
-17 -6 -14 -13z"/>
<path d="M2210 1669 c0 -5 -10 -9 -22 -9 -19 0 -20 -2 -8 -10 13 -8 13 -10 -2
-10 -9 0 -18 6 -21 13 -3 6 -4 -5 -2 -25 1 -27 -2 -38 -11 -38 -8 0 -14 -4
-14 -10 0 -17 40 -11 63 10 24 23 68 23 75 1 4 -11 -2 -12 -24 -7 -16 4 -25 4
-21 0 4 -4 32 -8 62 -9 43 0 55 3 56 15 0 9 4 6 9 -7 5 -13 14 -23 20 -23 5 0
10 -3 10 -7 0 -5 -15 -8 -32 -7 -18 1 -52 -4 -75 -11 -23 -7 -44 -11 -47 -8
-2 2 -29 -1 -60 -8 -33 -8 -50 -16 -43 -21 18 -11 59 -10 52 2 -4 6 8 10 30
10 25 0 34 -4 29 -12 -5 -7 -2 -9 9 -5 9 3 18 -1 21 -9 8 -21 7 -26 -3 -20 -4
3 -13 -7 -20 -22 -9 -22 -9 -24 1 -12 21 24 41 24 28 1 -6 -11 -6 -22 -1 -25
5 -3 12 2 16 12 6 15 8 15 18 2 10 -13 22 -14 66 -7 37 6 50 12 40 18 -10 6
-10 9 -1 9 6 0 12 7 12 15 0 8 7 15 16 15 12 0 15 -6 11 -21 -5 -17 -1 -20 21
-18 15 1 36 1 47 0 l20 -2 -20 -10 c-17 -8 -17 -9 5 -4 14 2 41 5 60 5 26 0
31 3 20 10 -10 7 -11 10 -2 10 7 0 21 -6 32 -12 16 -10 22 -10 32 3 16 19 73
55 64 40 -11 -16 22 -25 39 -11 18 15 66 -1 104 -34 13 -12 21 -15 17 -8 -10
16 31 20 84 7 21 -5 22 -4 5 4 -17 8 -18 10 -2 10 21 1 23 31 2 31 -8 0 -15 5
-15 10 0 6 7 10 15 10 18 0 20 26 3 33 -10 4 -10 6 0 6 23 2 12 21 -13 21 -26
0 -34 15 -12 23 6 3 2 6 -10 6 -13 1 -23 -3 -23 -7 0 -10 -61 -3 -75 9 -6 4
-27 10 -48 12 -23 3 -44 13 -56 28 -11 13 -20 18 -21 12 0 -8 -13 -13 -29 -13
-17 0 -33 -4 -36 -10 -4 -6 -18 -5 -39 4 -30 12 -34 12 -44 -5 -15 -23 -32
-25 -32 -4 0 17 -55 21 -65 5 -3 -5 -21 -11 -38 -11 l-32 -1 30 -8 30 -8 -35
-2 c-32 -3 -30 -4 15 -10 l50 -8 -50 2 c-46 1 -50 3 -58 33 -8 28 -13 31 -41
28 -17 -2 -41 -7 -52 -10 -12 -4 -25 -2 -28 4 -5 7 2 11 18 11 24 0 103 26
118 39 7 6 -47 7 -67 1 -5 -1 -14 -1 -20 0 -29 8 -105 7 -105 -1z m40 -20 c0
-5 -7 -9 -15 -9 -8 0 -15 -4 -15 -10 0 -5 -8 -10 -17 -9 -11 0 -13 3 -5 6 6 2
10 9 6 14 -3 5 4 9 16 9 13 0 19 4 14 12 -4 7 -3 8 4 4 7 -4 12 -11 12 -17z
m257 -45 c-3 -3 -12 -4 -19 -1 -8 3 -5 6 6 6 11 1 17 -2 13 -5z m-130 -26 c-3
-8 -6 -5 -6 6 -1 11 2 17 5 13 3 -3 4 -12 1 -19z m481 -29 c29 -23 31 -23 -38
-3 -11 3 -20 10 -20 15 0 16 31 10 58 -12z m-363 -19 c7 -12 -2 -12 -30 0 -19
8 -19 9 2 9 12 1 25 -3 28 -9z m250 -8 c-3 -3 -11 0 -18 7 -9 10 -8 11 6 5 10
-3 15 -9 12 -12z m-320 -13 c5 -5 -1 -9 -17 -9 -14 0 -32 7 -39 17 -13 15 -11
16 16 9 17 -4 34 -12 40 -17z m439 -5 c23 -9 20 -26 -4 -19 -12 4 -20 2 -20
-5 0 -6 -4 -8 -10 -5 -5 3 -10 13 -10 21 0 15 18 18 44 8z m-574 -39 c0 -5 -5
-3 -10 5 -5 8 -10 20 -10 25 0 6 5 3 10 -5 5 -8 10 -19 10 -25z m320 25 c0 -5
-4 -10 -10 -10 -5 0 -10 5 -10 10 0 6 5 10 10 10 6 0 10 -4 10 -10z m-250 -4
c0 -3 -4 -8 -10 -11 -5 -3 -10 -1 -10 4 0 6 5 11 10 11 6 0 10 -2 10 -4z m437
-2 c-3 -3 -12 -4 -19 -1 -8 3 -5 6 6 6 11 1 17 -2 13 -5z m-283 -19 c3 -9 0
-15 -9 -15 -9 0 -12 6 -9 15 4 8 7 15 9 15 2 0 5 -7 9 -15z m133 -14 c0 -11
-5 -18 -9 -15 -4 3 -5 11 -1 19 7 21 12 19 10 -4z m-268 -17 c-6 -8 -23 -14
-38 -14 l-26 0 30 19 c33 20 53 17 34 -5z m189 17 c11 -7 11 -9 -1 -14 -9 -3
-21 1 -27 9 -10 11 -10 14 1 14 8 0 20 -4 27 -9z"/>
<path d="M2695 1673 c-16 -2 -37 -7 -45 -10 -8 -3 -22 -5 -30 -4 -10 2 -11 -1
-5 -6 16 -14 123 -4 129 13 3 8 0 13 -7 13 -7 -1 -25 -4 -42 -6z"/>
<path d="M2875 1660 c10 -11 19 -20 21 -20 1 0 2 9 1 20 -1 13 -8 20 -21 20
-18 0 -19 -1 -1 -20z"/>
<path d="M1388 1663 c6 -2 18 -2 25 0 6 3 1 5 -13 5 -14 0 -19 -2 -12 -5z"/>
<path d="M1908 1592 c-84 -84 -102 -103 -76 -84 12 10 18 10 24 1 4 -7 3 -9
-4 -5 -6 3 -13 2 -17 -4 -4 -6 -11 -8 -16 -5 -5 4 -19 -1 -31 -10 l-23 -17 25
6 c25 6 25 6 3 -5 -27 -14 -30 -39 -5 -39 20 0 139 108 156 141 6 13 17 24 23
24 20 0 26 14 14 29 -8 10 -9 16 -1 21 5 3 13 0 16 -8 7 -18 59 -20 74 -2 16
19 -5 28 -30 13 -18 -11 -23 -10 -31 5 -6 9 -13 17 -17 17 -4 0 -42 -35 -84
-78z m20 -27 c-3 -3 -9 2 -12 12 -6 14 -5 15 5 6 7 -7 10 -15 7 -18z m-22 -7
c4 -7 4 -10 -1 -6 -11 10 -35 -10 -31 -25 1 -7 1 -9 -1 -4 -3 4 -10 4 -16 0
-7 -3 -1 6 12 20 28 31 28 31 37 15z"/>
<path d="M2535 1660 c-30 -8 -30 -8 8 -9 20 0 37 4 37 9 0 11 -2 11 -45 0z"/>
<path d="M2981 1659 c-1 -22 -32 -33 -43 -17 -6 10 -8 10 -8 0 0 -14 47 -39
56 -30 3 4 4 19 1 35 -2 15 -5 21 -6 12z"/>
<path d="M2773 1645 c-7 -21 -1 -26 40 -32 32 -4 35 -2 35 21 0 27 -22 36 -32
14 -5 -10 -7 -10 -12 0 -8 17 -23 15 -31 -3z"/>
<path d="M728 1643 c6 -2 18 -2 25 0 6 3 1 5 -13 5 -14 0 -19 -2 -12 -5z"/>
<path d="M1406 1642 c-3 -5 1 -9 9 -9 8 0 12 4 9 9 -3 4 -7 8 -9 8 -2 0 -6 -4
-9 -8z"/>
<path d="M30 1630 c-13 -8 -13 -10 2 -10 9 0 20 5 23 10 8 13 -5 13 -25 0z"/>
<path d="M2870 1630 c0 -6 7 -10 15 -10 8 0 15 2 15 4 0 2 -7 6 -15 10 -8 3
-15 1 -15 -4z"/>
<path d="M1578 1623 c7 -3 16 -2 19 1 4 3 -2 6 -13 5 -11 0 -14 -3 -6 -6z"/>
<path d="M2090 1620 c-8 -5 -11 -12 -8 -16 10 -9 38 3 38 16 0 12 -10 13 -30
0z"/>
<path d="M0 1614 c0 -5 6 -17 14 -26 10 -13 19 -15 42 -8 16 4 21 9 11 9 -10
1 -29 8 -42 17 -14 9 -25 12 -25 8z"/>
<path d="M1528 1613 c6 -2 18 -2 25 0 6 3 1 5 -13 5 -14 0 -19 -2 -12 -5z"/>
<path d="M218 1603 c7 -3 16 -2 19 1 4 3 -2 6 -13 5 -11 0 -14 -3 -6 -6z"/>
<path d="M743 1590 c-30 -12 -29 -22 1 -14 14 3 34 -1 48 -10 14 -9 27 -13 30
-10 4 3 9 -4 13 -15 7 -24 22 -28 22 -6 0 8 -4 15 -9 15 -5 0 -7 4 -4 8 2 4
-4 9 -15 9 -10 1 -26 9 -35 17 -17 18 -20 18 -51 6z"/>
<path d="M2000 1589 c0 -5 5 -7 10 -4 6 3 10 8 10 11 0 2 -4 4 -10 4 -5 0 -10
-5 -10 -11z"/>
<path d="M611 1581 c-1 -8 -7 -11 -18 -7 -17 7 -17 6 -1 -10 20 -20 32 -14 25
13 -3 10 -5 12 -6 4z"/>
<path d="M1565 1581 c3 -6 -4 -15 -15 -21 -16 -9 -20 -8 -20 5 0 8 -8 15 -17
15 -14 0 -15 -2 -4 -9 11 -7 9 -12 -10 -22 l-24 -13 25 -6 c14 -4 27 -3 30 1
3 4 14 9 25 11 11 1 23 7 27 12 8 12 -1 36 -14 36 -5 0 -7 -4 -3 -9z"/>
<path d="M547 1567 c-3 -9 1 -18 9 -21 16 -6 18 2 5 22 -7 11 -9 11 -14 -1z"/>
<path d="M635 1571 c-6 -11 13 -26 22 -17 4 3 0 6 -8 7 -8 1 -3 5 11 9 23 7
23 8 3 9 -12 1 -24 -3 -28 -8z"/>
<path d="M64 1559 c-5 -9 -2 -10 9 -6 9 3 19 2 22 -3 4 -6 -1 -10 -9 -10 -9 0
-16 -4 -16 -10 0 -5 -4 -10 -10 -10 -5 0 -10 6 -10 14 0 8 -10 14 -25 14 -36
0 -31 -15 10 -28 24 -8 40 -8 54 -1 29 16 51 14 45 -4 -7 -18 7 -20 25 -2 11
9 12 9 7 0 -5 -9 -2 -11 8 -7 23 9 19 21 -9 28 -14 4 -24 12 -22 19 3 16 -69
22 -79 6z"/>
<path d="M940 1559 c0 -5 5 -7 10 -4 6 3 10 8 10 11 0 2 -4 4 -10 4 -5 0 -10
-5 -10 -11z"/>
<path d="M1729 1553 c-13 -16 -12 -17 4 -4 9 7 17 15 17 17 0 8 -8 3 -21 -13z"/>
<path d="M1775 1560 c3 -5 10 -10 16 -10 5 0 9 5 9 10 0 6 -7 10 -16 10 -8 0
-12 -4 -9 -10z"/>
<path d="M2050 1560 c0 -5 7 -7 15 -4 8 4 15 8 15 10 0 2 -7 4 -15 4 -8 0 -15
-4 -15 -10z"/>
<path d="M510 1535 c0 -8 5 -15 10 -15 6 0 10 7 10 15 0 8 -4 15 -10 15 -5 0
-10 -7 -10 -15z"/>
<path d="M2157 1539 c7 -7 15 -10 18 -7 3 3 -2 9 -12 12 -14 6 -15 5 -6 -5z"/>
<path d="M2030 1530 c0 -5 4 -10 9 -10 5 0 18 -3 28 -6 16 -6 16 -5 -2 9 -23
19 -35 21 -35 7z"/>
<path d="M688 1523 c7 -3 16 -2 19 1 4 3 -2 6 -13 5 -11 0 -14 -3 -6 -6z"/>
<path d="M1622 1515 c-11 -12 -10 -15 3 -15 8 0 15 7 15 15 0 18 -2 18 -18 0z"/>
<path d="M1696 1521 c-3 -5 3 -11 15 -14 16 -4 18 -3 8 9 -13 16 -16 17 -23 5z"/>
<path d="M0 1500 c0 -5 7 -10 16 -10 10 0 14 -6 10 -15 -7 -18 3 -45 16 -45 5
0 6 5 3 11 -4 6 2 13 14 16 30 8 27 33 -4 33 -14 0 -25 5 -25 10 0 6 -7 10
-15 10 -8 0 -15 -4 -15 -10z"/>
<path d="M1270 1496 c0 -8 4 -17 9 -20 5 -4 7 3 4 14 -6 23 -13 26 -13 6z"/>
<path d="M1520 1498 c0 -9 -6 -19 -12 -21 -10 -4 -10 -6 0 -6 14 -1 28 26 18
36 -3 4 -6 -1 -6 -9z"/>
<path d="M1305 1480 c-3 -5 -1 -10 4 -10 6 0 11 5 11 10 0 6 -2 10 -4 10 -3 0
-8 -4 -11 -10z"/>
<path d="M1365 1480 c-3 -5 -1 -10 4 -10 6 0 11 5 11 10 0 6 -2 10 -4 10 -3 0
-8 -4 -11 -10z"/>
<path d="M1655 1470 c4 -6 11 -8 16 -5 14 9 11 15 -7 15 -8 0 -12 -5 -9 -10z"/>
<path d="M2100 1470 c0 -13 28 -25 38 -16 3 4 0 11 -8 16 -20 13 -30 12 -30 0z"/>
<path d="M110 1450 c12 -23 32 -27 24 -5 -5 12 2 14 42 10 39 -3 43 -3 19 4
-16 5 -45 9 -63 10 -30 1 -32 -1 -22 -19z"/>
<path d="M1738 1463 c7 -3 16 -2 19 1 4 3 -2 6 -13 5 -11 0 -14 -3 -6 -6z"/>
<path d="M1978 1463 c7 -3 16 -2 19 1 4 3 -2 6 -13 5 -11 0 -14 -3 -6 -6z"/>
<path d="M495 1450 c-3 -5 -1 -10 4 -10 6 0 11 5 11 10 0 6 -2 10 -4 10 -3 0
-8 -4 -11 -10z"/>
<path d="M1688 1453 c7 -3 16 -2 19 1 4 3 -2 6 -13 5 -11 0 -14 -3 -6 -6z"/>
<path d="M328 1443 c6 -2 18 -2 25 0 6 3 1 5 -13 5 -14 0 -19 -2 -12 -5z"/>
<path d="M1480 1440 c-23 -8 -23 -8 7 -7 17 1 29 5 27 9 -3 4 -6 8 -7 7 -1 -1
-13 -5 -27 -9z"/>
<path d="M1713 1443 c-18 -7 -16 -33 2 -33 8 0 15 8 16 18 0 10 3 12 6 5 7
-18 23 -16 23 2 0 15 -22 19 -47 8z"/>
<path d="M1984 1438 c-10 -15 1 -19 26 -10 l24 9 -22 5 c-12 4 -25 2 -28 -4z"/>
<path d="M2048 1425 c5 -28 17 -26 25 5 4 14 0 20 -13 20 -13 0 -16 -6 -12
-25z"/>
<path d="M70 1421 c0 -18 5 -19 52 -15 29 3 55 8 58 11 3 3 -14 3 -38 0 -30
-4 -47 -1 -57 10 -13 13 -15 12 -15 -6z"/>
<path d="M1645 1425 c-23 -7 -41 -19 -43 -28 -2 -10 1 -17 7 -17 6 0 11 8 11
18 0 15 2 15 10 2 9 -13 12 -13 24 3 10 13 15 15 19 5 6 -17 20 -4 15 14 -2
11 -10 12 -43 3z"/>
<path d="M235 1421 c-6 -11 13 -26 22 -17 4 3 0 6 -8 7 -8 1 -3 5 11 9 23 7
23 8 3 9 -12 1 -24 -3 -28 -8z"/>
<path d="M1218 1423 c12 -2 32 -2 45 0 12 2 2 4 -23 4 -25 0 -35 -2 -22 -4z"/>
<path d="M1291 1425 c0 -5 4 -17 9 -25 7 -11 12 -12 18 -3 4 6 23 13 42 16 21
3 16 3 -12 2 -27 -1 -49 3 -52 9 -2 6 -5 7 -5 1z"/>
<path d="M1568 1423 c7 -3 16 -2 19 1 4 3 -2 6 -13 5 -11 0 -14 -3 -6 -6z"/>
<path d="M2800 1420 c0 -5 5 -10 10 -10 6 0 10 5 10 10 0 6 -4 10 -10 10 -5 0
-10 -4 -10 -10z"/>
<path d="M31 1404 c0 -11 3 -14 6 -6 3 7 2 16 -1 19 -3 4 -6 -2 -5 -13z"/>
<path d="M51 1394 c0 -11 3 -14 6 -6 3 7 2 16 -1 19 -3 4 -6 -2 -5 -13z"/>
<path d="M195 1400 c-3 -5 1 -10 9 -10 9 0 16 5 16 10 0 6 -4 10 -9 10 -6 0
-13 -4 -16 -10z"/>
<path d="M1463 1403 c9 -2 25 -2 35 0 9 3 1 5 -18 5 -19 0 -27 -2 -17 -5z"/>
<path d="M1565 1400 c-8 -13 4 -32 16 -25 12 8 12 35 0 35 -6 0 -13 -4 -16
-10z"/>
<path d="M2390 1400 c-12 -8 -9 -10 13 -10 16 0 26 4 22 10 -8 12 -16 12 -35
0z"/>
<path d="M2578 1398 c8 -8 20 -8 44 -1 l33 11 -44 1 c-34 1 -42 -2 -33 -11z"/>
<path d="M2718 1403 c7 -3 16 -2 19 1 4 3 -2 6 -13 5 -11 0 -14 -3 -6 -6z"/>
<path d="M1324 1388 c-3 -5 -3 -12 1 -16 3 -3 10 0 15 8 8 13 12 12 24 -5 14
-18 15 -18 16 -2 0 9 8 17 18 17 14 0 15 -2 2 -10 -20 -12 -12 -18 30 -20 69
-4 88 0 93 18 4 16 5 16 6 0 1 -11 6 -15 15 -12 8 3 12 12 9 21 -4 10 -13 13
-32 8 -40 -11 -81 -12 -81 -3 0 11 -109 7 -116 -4z"/>
<path d="M2090 1385 c-17 -21 -9 -27 13 -10 10 7 14 16 9 19 -5 3 -15 -1 -22
-9z"/>
<path d="M2156 1392 c-3 -5 1 -9 9 -9 8 0 15 4 15 9 0 4 -4 8 -9 8 -6 0 -12
-4 -15 -8z"/>
<path d="M2525 1391 c-17 -7 -16 -9 9 -15 31 -8 42 -3 31 13 -7 12 -12 13 -40
2z"/>
<path d="M87 1377 c3 -5 18 -6 34 -3 22 4 29 1 34 -14 4 -11 13 -20 21 -20 8
0 13 4 10 9 -4 5 0 12 6 14 10 4 9 8 -2 16 -18 13 -111 11 -103 -2z m93 -1 c0
-3 -4 -8 -10 -11 -5 -3 -10 -1 -10 4 0 6 5 11 10 11 6 0 10 -2 10 -4z"/>
<path d="M250 1380 c20 -13 33 -13 25 0 -3 6 -14 10 -23 10 -15 0 -15 -2 -2
-10z"/>
<path d="M330 1380 c0 -5 5 -10 11 -10 5 0 7 5 4 10 -3 6 -8 10 -11 10 -2 0
-4 -4 -4 -10z"/>
<path d="M2804 1379 c-8 -13 3 -24 32 -33 19 -6 22 -3 20 19 -1 19 -7 25 -23
25 -12 0 -25 -5 -29 -11z"/>
<path d="M390 1370 c0 -5 -8 -7 -17 -4 -15 5 -16 4 -3 -5 8 -6 26 -10 40 -10
17 1 19 3 7 6 -9 2 -15 9 -12 14 4 5 1 9 -4 9 -6 0 -11 -4 -11 -10z"/>
<path d="M300 1362 c0 -15 32 -24 44 -12 7 7 7 10 -1 10 -6 0 -18 3 -27 6 -9
3 -16 2 -16 -4z"/>
<path d="M2110 1360 c-8 -5 -10 -10 -5 -10 6 0 17 5 25 10 8 5 11 10 5 10 -5
0 -17 -5 -25 -10z"/>
<path d="M218 1353 c7 -3 16 -2 19 1 4 3 -2 6 -13 5 -11 0 -14 -3 -6 -6z"/>
<path d="M2460 1340 c0 -12 -7 -20 -17 -20 -16 -1 -16 -2 2 -16 19 -15 19 -16
-10 -14 -46 3 -52 1 -31 -15 14 -11 23 -12 33 -4 9 9 17 8 28 -1 10 -9 15 -9
15 -1 0 6 11 11 24 11 14 0 27 4 30 8 3 5 -9 6 -26 4 -21 -3 -29 -1 -24 7 5 7
1 9 -8 5 -9 -3 -16 -3 -16 1 0 13 29 35 47 34 10 0 13 -3 6 -6 -7 -2 -13 -9
-13 -14 0 -5 9 -4 19 3 13 8 26 9 41 2 l21 -9 -23 -24 c-14 -16 -18 -26 -10
-29 7 -2 12 -10 12 -17 0 -7 10 -15 21 -18 16 -4 20 -11 16 -26 -4 -17 18 -52
26 -40 1 2 9 13 17 23 10 13 10 17 3 12 -8 -4 -13 -1 -13 8 0 20 5 20 24 1 16
-17 76 -27 76 -14 0 5 -10 9 -22 9 -19 0 -20 2 -8 11 12 8 10 9 -7 4 -15 -4
-23 -2 -23 6 0 7 -10 9 -30 6 -23 -5 -30 -3 -30 9 0 8 6 14 13 13 41 -5 46 5
7 16 -25 7 -38 14 -30 14 8 1 24 9 35 17 19 15 18 16 -15 10 l-35 -7 33 15
c17 8 32 17 32 18 0 2 -24 4 -54 5 -29 1 -63 6 -74 12 -34 18 -62 14 -62 -9z"/>
<path d="M2658 1353 c7 -3 16 -2 19 1 4 3 -2 6 -13 5 -11 0 -14 -3 -6 -6z"/>
<path d="M2728 1343 c27 -11 10 -21 -20 -12 -42 12 -43 12 -28 -5 6 -8 18 -12
25 -9 9 3 19 -5 26 -21 10 -20 20 -26 48 -28 62 -2 64 -3 69 -17 3 -10 0 -12
-14 -7 -11 4 -30 9 -44 10 -14 2 -18 1 -10 -1 8 -3 18 -10 21 -15 8 -12 54
-17 70 -7 7 4 22 3 32 -3 12 -6 23 -6 28 -1 6 6 -1 15 -16 23 -14 7 -25 17
-25 22 0 4 -7 8 -15 8 -8 0 -15 4 -15 8 0 9 42 8 58 -2 11 -7 16 -1 13 16 0 3
14 10 32 14 31 6 31 7 9 15 -14 6 -31 5 -43 -2 -11 -5 -29 -7 -41 -3 -13 4
-18 2 -14 -4 10 -17 -47 -19 -64 -2 -19 19 -43 24 -38 8 3 -7 11 -13 18 -13 7
0 14 -7 16 -16 1 -11 -4 -16 -15 -14 -9 2 -19 4 -23 4 -5 1 -8 9 -8 19 0 20
-19 42 -34 41 -6 0 -5 -3 2 -6z"/>
<path d="M380 1320 l-25 -8 28 -1 c15 -1 27 4 27 9 0 6 -1 10 -2 9 -2 -1 -14
-5 -28 -9z"/>
<path d="M1991 1317 c-6 -7 -9 -29 -6 -48 2 -18 5 -71 6 -116 2 -46 6 -83 11
-83 4 0 8 5 8 10 0 6 15 10 33 10 55 0 61 10 62 99 l0 80 -32 6 c-18 3 -33 11
-33 16 0 10 -24 39 -33 39 -3 0 -9 -6 -16 -13z"/>
<path d="M2286 1303 c2 -12 -1 -25 -8 -29 -6 -4 -8 -3 -5 2 3 5 -2 10 -12 10
-10 0 -18 -6 -18 -12 0 -15 117 -38 129 -26 10 10 0 42 -14 42 -5 0 -6 -5 -3
-10 4 -7 -4 -9 -22 -7 -15 3 -27 10 -25 16 1 6 -2 11 -7 11 -5 0 -11 6 -14 13
-2 6 -2 2 -1 -10z"/>
<path d="M2330 1320 c0 -5 7 -10 16 -10 8 0 12 5 9 10 -3 6 -10 10 -16 10 -5
0 -9 -4 -9 -10z"/>
<path d="M2695 1300 c-19 -8 -19 -9 3 -9 12 -1 22 4 22 9 0 6 -1 10 -2 9 -2 0
-12 -4 -23 -9z"/>
<path d="M2 1270 c-1 -14 5 -35 13 -46 14 -19 14 -18 15 4 0 21 13 27 49 23 7
-2 10 2 6 9 -4 7 -18 10 -32 7 -17 -3 -23 -1 -19 8 2 7 -3 15 -13 18 -13 3
-17 -3 -19 -23z m23 -9 c3 -5 1 -12 -5 -16 -5 -3 -10 1 -10 9 0 18 6 21 15 7z"/>
<path d="M144 1291 c3 -5 15 -7 26 -4 28 7 25 13 -6 13 -14 0 -23 -4 -20 -9z"/>
<path d="M2968 1293 c7 -3 16 -2 19 1 4 3 -2 6 -13 5 -11 0 -14 -3 -6 -6z"/>
<path d="M2957 1249 c7 -7 15 -10 18 -7 3 3 -2 9 -12 12 -14 6 -15 5 -6 -5z"/>
<path d="M2510 1240 c0 -5 7 -10 15 -10 8 0 15 5 15 10 0 6 -7 10 -15 10 -8 0
-15 -4 -15 -10z"/>
<path d="M2270 1230 c0 -5 5 -10 10 -10 6 0 10 5 10 10 0 6 -4 10 -10 10 -5 0
-10 -4 -10 -10z"/>
<path d="M1961 1204 c0 -11 3 -14 6 -6 3 7 2 16 -1 19 -3 4 -6 -2 -5 -13z"/>
<path d="M2395 1210 c-3 -5 -1 -10 4 -10 6 0 11 5 11 10 0 6 -2 10 -4 10 -3 0
-8 -4 -11 -10z"/>
<path d="M2537 1206 c-8 -20 30 -27 45 -8 11 13 10 15 -4 9 -10 -3 -18 -2 -18
3 0 15 -17 12 -23 -4z"/>
<path d="M3 1189 c-2 -23 3 -25 10 -4 4 8 3 16 -1 19 -4 3 -9 -4 -9 -15z"/>
<path d="M223 1193 c-35 -7 -27 -23 10 -23 22 0 28 3 18 9 -11 7 -11 9 0 14
16 6 4 6 -28 0z"/>
<path d="M346 1190 c5 -4 24 -10 42 -14 27 -5 31 -3 20 7 -7 7 -26 13 -42 14
-15 0 -24 -2 -20 -7z"/>
<path d="M2447 1188 c-8 -5 -5 -8 8 -8 11 0 27 5 35 10 12 7 10 9 -8 7 -13 -1
-28 -5 -35 -9z"/>
<path d="M2777 1183 c-8 -12 12 -22 31 -16 6 3 12 9 12 15 0 7 -5 6 -14 -1
-11 -9 -15 -9 -18 1 -3 8 -6 9 -11 1z"/>
<path d="M298 1173 c7 -3 16 -2 19 1 4 3 -2 6 -13 5 -11 0 -14 -3 -6 -6z"/>
<path d="M605 1169 c-4 -6 -5 -12 -2 -15 2 -3 7 2 10 11 7 17 1 20 -8 4z"/>
<path d="M22 1160 c-27 -12 -29 -30 -2 -31 33 -2 38 -4 46 -11 11 -11 54 -10
54 2 0 5 7 7 15 4 12 -5 13 -10 4 -20 -7 -9 -8 -14 -1 -14 17 0 22 28 7 40
-23 19 -7 30 26 18 32 -11 45 -6 34 11 -4 7 -33 10 -70 9 -35 -2 -61 -6 -58
-11 2 -4 8 -5 13 -2 5 3 11 1 15 -5 4 -6 -8 -10 -29 -10 -20 0 -36 5 -36 11 0
5 5 7 12 3 7 -4 8 -3 4 4 -4 7 -8 12 -9 11 -1 0 -12 -4 -25 -9z"/>
<path d="M2184 1159 c-10 -16 52 -71 74 -66 16 4 16 5 0 6 -10 0 -18 6 -18 11
0 6 -7 10 -16 10 -8 0 -12 5 -9 10 4 6 1 9 -7 8 -7 -2 -12 5 -12 15 2 20 -2
22 -12 6z"/>
<path d="M396 1145 c4 -10 0 -12 -15 -8 -15 4 -21 1 -21 -12 0 -13 -6 -16 -23
-13 -16 3 -23 0 -24 -11 -1 -12 8 -16 32 -17 20 0 31 4 28 9 -3 6 -2 7 4 4 5
-3 23 -2 39 3 28 8 28 8 4 9 -14 1 -20 5 -15 9 16 11 16 30 0 36 -9 3 -12 0
-9 -9z"/>
<path d="M2127 1149 c7 -7 15 -10 18 -7 3 3 -2 9 -12 12 -14 6 -15 5 -6 -5z"/>
<path d="M2420 1149 c0 -5 7 -9 15 -9 8 0 15 -5 15 -11 0 -5 5 -7 10 -4 17 11
11 22 -15 27 -14 3 -25 1 -25 -3z"/>
<path d="M2753 1153 c11 -3 16 -11 13 -19 -4 -12 -2 -12 14 -4 15 8 20 8 20
-1 0 -7 3 -9 7 -5 11 11 -27 36 -51 35 -18 -1 -19 -2 -3 -6z"/>
<path d="M475 1139 c-11 -4 -14 -8 -7 -8 8 -1 10 -6 6 -13 -5 -8 -1 -8 12 2
10 8 20 15 22 16 12 7 -17 10 -33 3z"/>
<path d="M2582 1135 c-7 -8 -9 -15 -4 -15 5 0 15 7 22 15 16 19 -1 19 -18 0z"/>
<path d="M2928 1143 c6 -2 18 -2 25 0 6 3 1 5 -13 5 -14 0 -19 -2 -12 -5z"/>
<path d="M260 1129 c0 -5 -4 -8 -9 -5 -5 3 -14 -1 -21 -9 -17 -20 -7 -19 37 5
31 16 33 20 15 20 -12 0 -22 -5 -22 -11z"/>
<path d="M2683 1130 c-13 -5 -23 -7 -23 -4 0 3 -7 -1 -15 -10 -23 -23 -18 -30
10 -12 13 9 31 16 40 16 8 0 15 5 15 10 0 6 -1 10 -2 9 -2 0 -13 -4 -25 -9z"/>
<path d="M188 1123 c6 -2 18 -2 25 0 6 3 1 5 -13 5 -14 0 -19 -2 -12 -5z"/>
<path d="M2489 1094 c-13 -15 -37 -33 -54 -40 -22 -9 -25 -13 -11 -14 11 0 16
-3 12 -7 -4 -4 14 -13 41 -19 47 -11 48 -11 17 -19 -27 -6 -30 -10 -26 -36 5
-32 -5 -35 -67 -23 -48 10 -37 23 17 19 26 -3 41 -1 35 3 -7 4 -11 17 -9 29 4
17 -1 22 -25 25 -17 3 -33 0 -36 -5 -3 -6 -1 -7 5 -3 7 4 12 1 12 -8 0 -8 5
-16 12 -18 7 -3 5 -7 -6 -11 -10 -4 -15 -3 -11 3 4 6 -5 10 -20 10 -14 0 -24
-4 -20 -9 3 -5 1 -12 -5 -16 -6 -3 -14 4 -19 17 -5 14 -5 25 1 29 7 4 6 9 -1
13 -6 4 -11 2 -11 -3 0 -7 -26 -12 -62 -13 l-63 -1 65 -7 65 -7 -55 -1 c-40
-2 -51 -5 -40 -12 11 -7 4 -10 -25 -10 -29 0 -36 3 -25 10 17 11 1 13 -24 4
-11 -4 -12 -9 -4 -18 9 -9 26 -10 62 -4 86 14 118 -3 115 -62 -1 -8 -4 -4 -8
9 -6 23 -7 23 -24 6 -15 -14 -16 -20 -5 -26 7 -5 9 -9 4 -9 -5 0 -18 7 -28 17
-10 9 -21 13 -25 9 -4 -3 3 -13 15 -22 12 -8 22 -19 22 -23 0 -16 -55 -20 -71
-5 -8 8 -22 14 -29 14 -9 0 -7 -5 6 -15 16 -13 17 -16 4 -25 -8 -5 -21 -7 -29
-5 -12 5 -12 3 0 -12 12 -15 12 -16 -3 -10 -10 3 -18 2 -18 -3 0 -5 9 -12 20
-15 48 -15 15 -26 -77 -24 -54 0 -110 -4 -125 -10 -23 -9 -28 -8 -28 5 0 8 5
12 10 9 6 -3 10 -1 10 4 0 12 -6 12 -151 15 -76 1 -95 -2 -91 -12 2 -7 11 -11
18 -8 8 3 14 1 14 -4 0 -13 -32 -28 -52 -25 -10 2 -20 -1 -24 -6 -3 -5 -10 -7
-15 -4 -5 4 -9 1 -9 -6 0 -7 10 -9 25 -7 20 4 23 3 14 -8 -6 -7 -8 -18 -4 -24
3 -5 -1 -10 -9 -10 -9 0 -16 -4 -16 -10 0 -5 -7 -10 -15 -10 -8 0 -15 -5 -15
-12 0 -6 3 -8 7 -5 3 4 13 2 20 -5 11 -9 16 -9 23 1 5 9 10 10 14 2 9 -14 -2
-33 -15 -25 -5 3 -17 0 -25 -7 -12 -10 -17 -9 -28 6 -8 11 -15 14 -19 8 -10
-15 27 -45 47 -37 9 3 16 9 16 13 0 12 47 6 64 -9 19 -15 54 -19 74 -6 6 4 17
4 22 1 14 -9 32 4 24 17 -4 7 -9 6 -14 -2 -5 -8 -12 -6 -25 7 -18 17 -19 17
-12 -1 7 -19 8 -19 -42 2 -10 4 -12 1 -6 -9 8 -12 6 -12 -9 0 -16 13 -15 15
14 27 32 14 46 36 35 54 -5 8 -11 8 -19 1 -7 -6 -16 -8 -20 -4 -3 4 -5 -4 -4
-16 2 -16 -4 -26 -20 -32 -15 -6 -21 -5 -17 1 4 6 -1 13 -9 16 -18 7 -22 34
-5 34 6 0 9 6 6 13 -10 25 7 36 28 20 20 -16 20 -16 0 -9 -16 6 -18 5 -7 -6 7
-7 18 -13 25 -13 21 -1 26 18 9 33 -11 9 -7 8 10 -2 15 -9 34 -13 42 -10 19 7
22 -26 4 -44 -6 -6 -9 -15 -5 -19 4 -4 12 -2 18 4 12 12 49 6 49 -9 0 -5 -6
-6 -12 -3 -7 3 -3 -2 10 -11 12 -9 22 -23 22 -30 0 -8 5 -14 10 -14 6 0 8 11
4 25 -6 24 -5 26 22 19 33 -7 54 -29 54 -56 0 -19 8 -22 27 -10 9 6 7 13 -9
26 -17 15 -18 20 -7 27 10 6 8 9 -9 9 -13 0 -20 4 -17 10 7 11 -39 25 -54 16
-16 -11 -77 24 -78 45 -2 17 0 18 13 4 13 -13 18 -13 40 1 32 22 30 28 -6 21
-16 -4 -32 -2 -35 3 -4 6 11 10 34 10 22 0 52 5 67 10 15 6 29 8 32 6 4 -5 -1
-8 -42 -20 -12 -4 -12 -10 -3 -29 10 -21 16 -23 52 -19 22 2 43 9 47 16 6 8 8
8 8 0 0 -7 9 -14 21 -17 15 -4 19 -2 15 9 -4 11 5 14 44 14 27 0 52 5 55 10 8
13 35 13 35 1 0 -5 -10 -13 -21 -16 -35 -12 -2 -24 53 -20 38 3 48 0 44 -10
-3 -8 2 -12 12 -10 9 1 16 8 14 14 -3 14 9 14 42 1 14 -5 26 -6 26 -1 0 5 8 7
19 4 10 -3 22 0 25 6 4 6 15 11 25 11 10 0 24 7 31 16 11 12 11 15 -1 12 -8
-2 -16 -6 -19 -10 -5 -7 -28 -11 -47 -9 -20 2 -15 21 5 21 16 1 16 1 -1 11
-21 13 -164 15 -218 4 -27 -5 -38 -3 -42 8 -4 11 0 13 16 9 12 -3 19 -1 15 3
-4 5 -3 14 3 22 8 9 8 13 1 13 -6 0 -10 9 -9 20 1 11 7 20 13 20 7 0 21 3 31
6 17 6 17 6 -1 -8 -15 -12 -16 -17 -6 -23 9 -6 11 -4 5 5 -6 9 -4 11 4 6 7 -5
10 -13 8 -20 -3 -6 6 -11 19 -11 13 0 24 4 24 9 0 4 8 5 17 2 10 -4 14 -3 9 1
-4 4 -17 8 -29 8 -11 0 -22 6 -24 13 -3 8 7 12 32 12 20 0 34 -4 30 -9 -3 -5
-1 -12 5 -16 6 -4 8 -11 5 -16 -3 -5 1 -6 10 -2 14 5 14 8 3 15 -9 7 -5 8 15
5 15 -2 27 -1 27 4 0 4 8 10 18 12 12 3 9 5 -8 6 l-25 2 24 10 c18 7 27 6 33
-3 7 -10 11 -9 22 5 7 9 19 17 26 17 9 0 7 -6 -5 -20 -11 -12 -13 -20 -6 -20
6 0 14 6 17 14 5 13 64 18 64 4 0 -3 15 -5 33 -2 l32 3 -33 -15 c-19 -8 -30
-19 -26 -25 5 -8 9 -8 14 1 5 8 9 8 13 -3 5 -13 17 -14 61 -10 36 4 61 2 70
-6 11 -9 16 -9 21 0 6 8 10 8 15 -2 5 -7 34 -14 66 -17 41 -3 55 -2 50 7 -4 6
-6 11 -4 11 2 0 21 7 43 14 l40 14 -37 7 c-46 9 -62 45 -19 45 15 0 31 -4 37
-9 5 -5 18 -11 29 -14 11 -3 -2 -4 -30 -2 -39 4 -43 3 -19 -4 17 -4 36 -11 42
-15 7 -4 18 -1 26 6 25 26 -10 42 -92 42 -79 1 -109 18 -52 31 32 7 32 25 -1
25 -10 0 -19 5 -19 10 0 6 -12 11 -27 11 l-28 1 30 8 c28 7 27 8 -14 9 l-44 1
5 -48 c4 -46 4 -47 -21 -46 -14 0 -27 6 -29 12 -5 16 -32 16 -32 0 0 -6 -3 -9
-6 -5 -4 3 -4 13 0 22 5 14 9 14 40 1 27 -11 34 -12 32 -1 -4 25 -28 46 -41
35 -9 -8 -14 -6 -18 4 -4 9 -14 12 -26 9 -19 -5 -59 22 -49 32 3 3 23 6 46 7
41 1 55 12 30 21 -10 4 -10 7 0 18 10 11 17 10 42 -4 27 -16 34 -15 32 4 -1 3
12 3 29 1 16 -2 29 -7 29 -11 0 -10 47 -8 57 2 4 5 3 8 -2 7 -6 -1 -20 -2 -32
-1 -33 2 -28 21 4 21 27 0 26 1 -10 20 -26 14 -43 18 -54 12 -20 -12 -55 -3
-46 11 4 7 0 8 -11 4 -10 -4 -22 -7 -27 -7 -6 0 -7 -4 -4 -10 11 -18 -7 -10
-26 11 -15 18 -21 19 -34 9 -20 -17 -57 -6 -74 22 -13 20 -12 22 1 11 14 -13
28 -8 28 9 0 18 -38 7 -61 -18z m21 -51 c0 -7 -6 -13 -14 -13 -11 0 -15 24 -7
50 2 9 21 -24 21 -37z m130 -23 c0 -5 -5 -10 -11 -10 -5 0 -7 5 -4 10 3 6 8
10 11 10 2 0 4 -4 4 -10z m-66 -16 c23 -9 20 -19 -11 -33 -18 -8 -29 -9 -37
-1 -7 7 -3 10 12 10 24 0 30 15 10 23 -9 4 -9 6 -1 6 6 1 18 -2 27 -5z m-74
-57 c0 -5 -4 -5 -10 -2 -5 3 -10 14 -10 23 0 15 2 15 10 2 5 -8 10 -19 10 -23z
m54 -19 c-1 -10 1 -16 5 -15 16 4 59 -35 54 -51 -3 -13 6 -21 34 -31 32 -12
35 -15 18 -21 -12 -4 -25 -1 -34 7 -8 9 -26 13 -43 11 -31 -5 -39 7 -10 16 9
3 2 4 -15 2 -18 -1 -33 1 -33 6 0 8 22 12 48 9 6 -1 12 3 12 9 0 6 -16 8 -40
6 -30 -3 -40 0 -40 11 0 12 -3 11 -17 -3 -13 -13 -14 -19 -5 -22 6 -2 12 -8
12 -13 0 -16 -30 3 -30 20 -1 14 -3 13 -15 -3 -8 -10 -21 -16 -29 -13 -8 3
-17 -1 -20 -9 -3 -8 -10 -14 -16 -14 -6 0 -9 4 -6 9 4 5 0 11 -6 14 -10 3 -8
10 6 26 17 19 17 21 3 21 -10 0 -17 5 -17 11 0 13 103 2 108 -12 5 -13 32 17
32 36 0 11 7 15 23 13 14 -2 22 -9 21 -20z m86 -18 c0 -5 -5 -10 -11 -10 -5 0
-7 5 -4 10 3 6 8 10 11 10 2 0 4 -4 4 -10z m143 -7 c-7 -2 -21 -2 -30 0 -10 3
-4 5 12 5 17 0 24 -2 18 -5z m-409 -12 c3 -5 -1 -12 -10 -15 -20 -8 -29 -1
-19 13 8 13 22 14 29 2z m396 -36 c0 -8 -4 -15 -10 -15 -5 0 -10 7 -10 15 0 8
5 15 10 15 6 0 10 -7 10 -15z m-442 -32 c-10 -2 -26 -2 -35 0 -10 3 -2 5 17 5
19 0 27 -2 18 -5z m396 -9 c3 -8 2 -12 -4 -9 -6 3 -10 10 -10 16 0 14 7 11 14
-7z m-49 -24 c4 -6 -6 -10 -22 -10 -22 0 -25 2 -13 10 19 12 27 12 35 0z
m-816 -50 c-29 -8 -81 -2 -75 9 2 3 26 4 53 2 41 -3 44 -5 22 -11z m248 -15
c0 -11 -12 -15 -45 -15 -25 0 -43 3 -39 6 5 5 48 18 78 23 3 1 6 -6 6 -14z
m236 -32 c-5 -14 -40 -17 -67 -7 -29 11 -17 19 28 19 31 0 42 -3 39 -12z
m-353 -17 c0 -2 -7 -7 -16 -10 -8 -3 -12 -2 -9 4 6 10 25 14 25 6z m-328 -48
c-7 -7 -12 -8 -12 -2 0 14 12 26 19 19 2 -3 -1 -11 -7 -17z"/>
<path d="M2520 930 c0 -5 4 -10 9 -10 6 0 13 5 16 10 3 6 -1 10 -9 10 -9 0
-16 -4 -16 -10z"/>
<path d="M16 1094 c-9 -8 -16 -17 -16 -19 0 -9 44 13 48 23 5 17 -14 15 -32
-4z"/>
<path d="M2420 1103 c-14 -3 -31 -9 -37 -15 -7 -6 -25 -7 -40 -4 -25 6 -26 5
-8 -6 11 -6 31 -12 45 -13 28 -2 93 29 83 39 -3 3 -9 5 -12 5 -3 -1 -17 -4
-31 -6z"/>
<path d="M2570 1100 c8 -5 22 -10 30 -10 13 0 13 1 0 10 -8 5 -22 10 -30 10
-13 0 -13 -1 0 -10z"/>
<path d="M75 1091 c-9 -16 9 -20 23 -5 10 12 10 14 -2 14 -8 0 -17 -4 -21 -9z"/>
<path d="M2716 1085 c4 -8 11 -15 16 -15 6 0 5 6 -2 15 -7 8 -14 15 -16 15 -2
0 -1 -7 2 -15z"/>
<path d="M1971 1074 c0 -11 3 -14 6 -6 3 7 2 16 -1 19 -3 4 -6 -2 -5 -13z"/>
<path d="M2780 1080 c0 -5 5 -10 10 -10 6 0 10 5 10 10 0 6 -4 10 -10 10 -5 0
-10 -4 -10 -10z"/>
<path d="M2945 1080 c-18 -7 -19 -8 -2 -15 21 -9 22 -22 2 -22 -8 0 -15 4 -15
9 0 4 -4 8 -10 8 -5 0 -10 -5 -10 -11 0 -7 -11 -22 -25 -35 -14 -13 -25 -29
-25 -36 1 -7 7 -2 14 11 8 15 16 20 20 12 4 -6 20 -11 37 -11 39 0 38 -26 -2
-34 -17 -3 -48 -6 -69 -6 -33 0 -50 -12 -50 -35 0 -6 66 -16 123 -19 l57 -3 0
92 c0 98 -6 110 -45 95z m-85 -150 c0 -5 -4 -10 -10 -10 -5 0 -10 5 -10 10 0
6 5 10 10 10 6 0 10 -4 10 -10z m63 -17 c-7 -2 -21 -2 -30 0 -10 3 -4 5 12 5
17 0 24 -2 18 -5z"/>
<path d="M110 1070 c-17 -11 -8 -23 14 -18 9 2 12 8 8 15 -5 8 -13 9 -22 3z"/>
<path d="M20 1061 c0 -5 11 -16 25 -25 14 -9 25 -25 25 -36 0 -14 7 -20 23
-20 18 0 19 -2 7 -10 -13 -8 -12 -10 4 -10 10 0 24 -7 31 -17 12 -17 45 -12
45 6 0 6 -7 7 -17 4 -11 -4 -14 -3 -9 5 5 8 0 12 -14 12 -19 0 -20 1 -6 16 22
21 20 27 -5 21 -25 -7 -51 2 -44 13 3 5 22 6 42 3 27 -5 34 -3 29 6 -4 6 -16
9 -26 6 -10 -3 -21 -1 -25 5 -3 5 -17 10 -31 10 -13 0 -24 5 -24 10 0 6 -7 10
-15 10 -8 0 -15 -4 -15 -9z"/>
<path d="M480 1048 c0 -19 2 -20 10 -8 13 19 13 30 0 30 -5 0 -10 -10 -10 -22z"/>
<path d="M2805 1060 c-4 -6 7 -10 25 -10 18 0 29 4 25 10 -3 6 -15 10 -25 10
-10 0 -22 -4 -25 -10z"/>
<path d="M2155 1050 c-4 -6 3 -10 14 -10 25 0 27 6 6 13 -8 4 -17 2 -20 -3z"/>
<path d="M2001 1034 c0 -11 3 -14 6 -6 3 7 2 16 -1 19 -3 4 -6 -2 -5 -13z"/>
<path d="M2336 1042 c-3 -5 8 -9 25 -9 19 0 25 3 17 9 -17 10 -35 10 -42 0z"/>
<path d="M6 1024 c-9 -23 -7 -34 4 -34 5 0 6 7 3 17 -4 11 -3 14 5 9 7 -4 12
-3 12 3 0 17 -18 21 -24 5z"/>
<path d="M1981 1024 c0 -11 3 -14 6 -6 3 7 2 16 -1 19 -3 4 -6 -2 -5 -13z"/>
<path d="M2258 1033 c12 -2 32 -2 45 0 12 2 2 4 -23 4 -25 0 -35 -2 -22 -4z"/>
<path d="M992 1008 c-23 -14 -30 -23 -21 -28 8 -6 3 -13 -17 -24 -24 -14 -25
-16 -5 -10 18 5 22 3 15 -7 -4 -7 10 -3 32 9 l39 23 -28 -26 c-15 -14 -23 -25
-18 -25 6 0 11 -8 11 -17 0 -10 9 0 21 21 24 45 13 71 -19 43 -10 -9 -23 -17
-28 -17 -5 0 2 10 16 21 16 14 19 19 8 15 -25 -8 -22 1 3 15 15 8 19 8 15 0
-11 -17 10 -13 24 4 11 13 10 14 -5 9 -13 -5 -16 -4 -11 4 10 16 6 15 -32 -10z"/>
<path d="M220 1009 c0 -5 5 -7 10 -4 6 3 10 8 10 11 0 2 -4 4 -10 4 -5 0 -10
-5 -10 -11z"/>
<path d="M35 1000 c-3 -5 1 -10 10 -10 9 0 13 5 10 10 -3 6 -8 10 -10 10 -2 0
-7 -4 -10 -10z"/>
<path d="M375 1000 c3 -5 8 -10 11 -10 2 0 4 5 4 10 0 6 -5 10 -11 10 -5 0 -7
-4 -4 -10z"/>
<path d="M2138 1003 c7 -3 16 -2 19 1 4 3 -2 6 -13 5 -11 0 -14 -3 -6 -6z"/>
<path d="M1135 990 c3 -5 16 -10 28 -9 21 0 21 1 2 9 -28 12 -37 12 -30 0z"/>
<path d="M1901 984 c0 -11 3 -14 6 -6 3 7 2 16 -1 19 -3 4 -6 -2 -5 -13z"/>
<path d="M743 977 c4 -11 2 -14 -9 -10 -7 3 -14 0 -14 -6 0 -13 29 -14 49 -2
11 7 9 11 -9 21 -20 11 -22 10 -17 -3z"/>
<path d="M51 963 c4 -22 -3 -33 -18 -34 -15 0 -15 -2 2 -8 24 -10 47 -3 38 12
-3 5 -1 7 4 4 6 -4 9 -20 7 -37 -3 -25 -1 -28 10 -18 8 7 12 16 10 20 -2 4 0
10 6 13 14 9 -6 35 -26 35 -8 0 -14 5 -14 10 0 6 -4 10 -10 10 -5 0 -9 -3 -9
-7z"/>
<path d="M1702 940 c0 -14 2 -19 5 -12 2 6 2 18 0 25 -3 6 -5 1 -5 -13z"/>
<path d="M1782 920 c0 -14 2 -19 5 -12 2 6 2 18 0 25 -3 6 -5 1 -5 -13z"/>
<path d="M2070 929 c0 -5 5 -7 10 -4 6 3 10 8 10 11 0 2 -4 4 -10 4 -5 0 -10
-5 -10 -11z"/>
<path d="M2221 929 c-17 -7 -21 -13 -14 -20 11 -11 53 8 53 23 0 10 -9 9 -39
-3z"/>
<path d="M233 906 c7 -14 15 -26 20 -26 13 0 7 17 -13 35 -19 17 -19 17 -7 -9z"/>
<path d="M549 919 c-10 -6 -7 -9 14 -9 29 0 35 5 14 13 -8 3 -20 1 -28 -4z"/>
<path d="M1761 914 c0 -11 3 -14 6 -6 3 7 2 16 -1 19 -3 4 -6 -2 -5 -13z"/>
<path d="M1732 900 c0 -14 2 -19 5 -12 2 6 2 18 0 25 -3 6 -5 1 -5 -13z"/>
<path d="M0 887 c0 -15 5 -34 12 -41 10 -10 18 -7 41 18 28 28 29 30 11 37
-36 14 -46 11 -34 -11 9 -16 8 -20 -5 -20 -9 0 -14 4 -11 8 2 4 1 14 -5 22 -6
11 -9 8 -9 -13z"/>
<path d="M173 893 c-7 -2 -13 -12 -12 -21 0 -12 2 -13 6 -4 4 10 8 9 19 -5 9
-13 13 -14 14 -4 0 9 4 10 13 4 17 -13 87 -16 87 -3 0 5 -15 10 -34 10 -19 0
-36 4 -38 9 -4 11 -40 21 -55 14z"/>
<path d="M2130 896 c0 -2 9 -6 20 -9 11 -3 18 -1 14 4 -5 9 -34 13 -34 5z"/>
<path d="M433 883 c4 -3 2 -12 -4 -19 -8 -10 -4 -12 17 -11 15 1 29 8 32 15 5
16 -15 16 -21 0 -3 -8 -6 -6 -6 5 -1 9 -6 17 -13 17 -6 0 -8 -3 -5 -7z"/>
<path d="M980 865 c-9 -10 -9 -15 -1 -15 6 0 11 5 11 11 0 5 5 7 10 4 6 -3 10
-1 10 4 0 16 -16 13 -30 -4z"/>
<path d="M2948 873 c6 -2 18 -2 25 0 6 3 1 5 -13 5 -14 0 -19 -2 -12 -5z"/>
<path d="M97 863 c-12 -3 -15 -9 -9 -16 5 -7 12 -22 15 -35 4 -17 1 -22 -11
-20 -11 2 -18 -5 -20 -19 -3 -19 1 -22 30 -21 57 1 77 31 32 48 -22 9 -24 13
-14 25 10 12 10 15 0 15 -7 0 -10 7 -6 15 3 8 4 14 3 14 -1 -1 -10 -3 -20 -6z"/>
<path d="M845 861 c-7 -12 12 -24 25 -16 11 7 4 25 -10 25 -5 0 -11 -4 -15 -9z"/>
<path d="M1833 826 c0 -11 5 -13 19 -5 12 6 18 6 18 -1 0 -5 9 -10 21 -10 12
0 36 -7 55 -16 26 -13 42 -14 79 -6 25 5 56 7 68 5 18 -5 20 -3 10 7 -14 15
-53 21 -53 10 0 -10 -79 -22 -92 -14 -7 4 -5 10 3 16 10 7 5 8 -14 4 -15 -4
-27 -3 -26 1 3 20 -2 27 -12 13 -8 -11 -12 -12 -16 -2 -7 17 -60 16 -60 -2z"/>
<path d="M1302 810 c0 -14 2 -19 5 -12 2 6 2 18 0 25 -3 6 -5 1 -5 -13z"/>
<path d="M1322 810 c0 -14 2 -19 5 -12 2 6 2 18 0 25 -3 6 -5 1 -5 -13z"/>
<path d="M1352 810 c0 -14 2 -19 5 -12 2 6 2 18 0 25 -3 6 -5 1 -5 -13z"/>
<path d="M1422 810 c0 -14 2 -19 5 -12 2 6 2 18 0 25 -3 6 -5 1 -5 -13z"/>
<path d="M1472 810 c0 -14 2 -19 5 -12 2 6 2 18 0 25 -3 6 -5 1 -5 -13z"/>
<path d="M1492 800 c0 -14 2 -19 5 -12 2 6 2 18 0 25 -3 6 -5 1 -5 -13z"/>
<path d="M1640 810 c0 -5 -7 -7 -15 -4 -8 4 -15 1 -15 -6 0 -9 -4 -9 -17 1
-16 12 -17 12 -5 -2 7 -9 9 -25 5 -35 -7 -18 -6 -18 11 -1 9 9 23 17 30 17 6
0 12 9 13 20 1 11 0 20 -3 20 -2 0 -4 -4 -4 -10z"/>
<path d="M48 803 c7 -3 16 -2 19 1 4 3 -2 6 -13 5 -11 0 -14 -3 -6 -6z"/>
<path d="M1788 793 c6 -2 18 -2 25 0 6 3 1 5 -13 5 -14 0 -19 -2 -12 -5z"/>
<path d="M1848 793 c6 -2 18 -2 25 0 6 3 1 5 -13 5 -14 0 -19 -2 -12 -5z"/>
<path d="M40 783 c0 -7 -9 -13 -20 -13 -32 0 -23 -17 10 -18 32 -1 35 4 20 28
-6 10 -10 11 -10 3z"/>
<path d="M1291 773 c-1 -17 16 -25 25 -12 4 7 3 9 -4 5 -5 -3 -13 0 -15 6 -4
9 -6 10 -6 1z"/>
<path d="M2030 770 c0 -5 4 -10 9 -10 6 0 13 5 16 10 3 6 -1 10 -9 10 -9 0
-16 -4 -16 -10z"/>
<path d="M2070 776 c0 -2 7 -6 15 -10 8 -3 15 -1 15 4 0 6 -7 10 -15 10 -8 0
-15 -2 -15 -4z"/>
<path d="M232 746 c7 -8 15 -12 17 -11 5 6 -10 25 -20 25 -5 0 -4 -6 3 -14z"/>
<path d="M2440 750 c-11 -8 -7 -10 18 -8 19 1 36 6 38 10 7 11 -38 10 -56 -2z"/>
<path d="M2630 749 c0 -5 9 -9 20 -9 11 0 20 2 20 4 0 2 -9 6 -20 9 -11 3 -20
1 -20 -4z"/>
<path d="M160 741 c0 -11 59 -26 67 -17 4 3 -3 6 -15 6 -12 0 -22 5 -22 10 0
6 -7 10 -15 10 -8 0 -15 -4 -15 -9z"/>
<path d="M1350 739 c0 -5 5 -7 10 -4 6 3 10 8 10 11 0 2 -4 4 -10 4 -5 0 -10
-5 -10 -11z"/>
<path d="M2268 743 c6 -2 18 -2 25 0 6 3 1 5 -13 5 -14 0 -19 -2 -12 -5z"/>
<path d="M2318 743 c6 -2 18 -2 25 0 6 3 1 5 -13 5 -14 0 -19 -2 -12 -5z"/>
<path d="M2968 743 c7 -3 16 -2 19 1 4 3 -2 6 -13 5 -11 0 -14 -3 -6 -6z"/>
<path d="M0 724 c0 -8 5 -12 10 -9 6 3 10 10 10 16 0 5 -4 9 -10 9 -5 0 -10
-7 -10 -16z"/>
<path d="M2570 729 c0 -5 5 -7 10 -4 6 3 10 -1 10 -9 0 -9 -9 -16 -20 -16 -11
0 -20 7 -20 15 0 8 -4 15 -9 15 -5 0 -7 -9 -4 -20 5 -20 35 -26 67 -14 12 5
13 9 3 25 -13 20 -37 26 -37 8z"/>
<path d="M128 712 c-3 -11 0 -19 7 -19 7 0 10 8 7 19 -2 10 -6 18 -7 18 -1 0
-5 -8 -7 -18z"/>
<path d="M2640 716 c4 -4 16 -4 26 2 16 9 14 10 -8 9 -15 -1 -23 -6 -18 -11z"/>
<path d="M2705 721 c-3 -6 3 -9 14 -8 11 0 17 5 15 9 -7 11 -22 10 -29 -1z"/>
<path d="M2760 720 c0 -6 11 -15 24 -20 13 -5 27 -14 31 -19 3 -6 14 -11 23
-11 20 0 8 12 -40 39 -21 11 -38 16 -38 11z"/>
<path d="M2790 726 c0 -2 18 -6 39 -8 22 -2 37 0 35 4 -5 8 -74 11 -74 4z"/>
<path d="M2888 723 c6 -2 18 -2 25 0 6 3 1 5 -13 5 -14 0 -19 -2 -12 -5z"/>
<path d="M1600 716 c0 -2 7 -6 15 -10 8 -3 15 -1 15 4 0 6 -7 10 -15 10 -8 0
-15 -2 -15 -4z"/>
<path d="M10 700 c-18 -12 -2 -12 25 0 13 6 15 9 5 9 -8 0 -22 -4 -30 -9z"/>
<path d="M85 700 c-3 -5 1 -10 9 -10 9 0 16 5 16 10 0 6 -4 10 -9 10 -6 0 -13
-4 -16 -10z"/>
<path d="M161 698 c-1 -13 7 -18 29 -18 20 0 30 5 30 15 0 8 -4 15 -10 15 -5
0 -10 -4 -10 -10 0 -14 -27 -12 -33 3 -3 7 -6 5 -6 -5z"/>
<path d="M232 674 c-10 -12 -10 -14 2 -14 17 0 30 16 19 23 -5 3 -14 -1 -21
-9z"/>
<path d="M1400 675 c0 -8 4 -15 10 -15 5 0 7 7 4 15 -4 8 -8 15 -10 15 -2 0
-4 -7 -4 -15z"/>
<path d="M1430 683 c0 -7 4 -14 9 -17 12 -8 41 4 41 16 0 7 -5 6 -13 -1 -10
-8 -17 -7 -25 1 -9 9 -12 9 -12 1z"/>
<path d="M2510 681 c0 -5 5 -13 10 -16 6 -3 10 -2 10 4 0 5 -4 13 -10 16 -5 3
-10 2 -10 -4z"/>
<path d="M2750 679 c0 -5 5 -7 10 -4 6 3 10 8 10 11 0 2 -4 4 -10 4 -5 0 -10
-5 -10 -11z"/>
<path d="M2880 679 c0 -5 4 -7 10 -4 5 3 15 -6 22 -20 8 -18 16 -24 27 -19 9
4 24 6 34 6 9 0 17 3 17 9 0 5 -6 9 -12 9 -10 0 -10 2 0 9 10 6 7 10 -13 13
-20 4 -25 2 -21 -9 4 -9 2 -11 -6 -7 -8 5 -9 2 -5 -10 4 -10 3 -15 -4 -11 -5
4 -7 16 -4 28 5 17 4 19 -4 7 -7 -10 -11 -11 -11 -2 0 6 -7 12 -15 12 -8 0
-15 -5 -15 -11z"/>
<path d="M1535 671 c-3 -6 -11 -9 -16 -6 -5 4 -17 1 -26 -5 -16 -9 -15 -10 5
-5 17 5 22 2 22 -12 0 -15 2 -14 16 5 9 13 14 26 11 28 -3 3 -8 0 -12 -5z"/>
<path d="M2534 658 c-3 -12 -1 -24 6 -28 9 -6 7 -11 -6 -19 -25 -14 -11 -14
21 1 30 14 31 22 6 47 -20 20 -20 20 -27 -1z"/>
<path d="M187 640 c18 -32 18 -34 -22 -55 -6 -3 -5 -7 3 -11 6 -3 9 -10 6 -16
-3 -5 4 -4 16 4 18 11 23 11 35 -6 8 -10 16 -23 17 -28 2 -6 19 -6 44 0 23 5
50 5 63 0 14 -5 28 -4 35 1 7 6 17 6 26 1 19 -12 30 -12 30 -2 0 12 -49 34
-60 27 -5 -3 -11 4 -15 15 -4 11 -15 20 -26 20 -11 0 -18 4 -14 9 3 5 1 12 -4
15 -5 3 -7 -10 -4 -29 5 -35 5 -35 -36 -35 -32 0 -39 3 -35 15 4 9 -2 18 -17
24 -18 7 -19 10 -6 10 23 1 21 11 -8 44 -33 37 -51 35 -28 -3z m163 -74 c0 -3
-4 -8 -10 -11 -5 -3 -10 -1 -10 4 0 6 5 11 10 11 6 0 10 -2 10 -4z"/>
<path d="M1556 654 c-9 -24 3 -32 15 -11 6 9 15 17 20 17 6 0 7 -5 3 -12 -4
-7 -3 -8 5 -4 6 4 9 12 6 17 -10 15 -42 10 -49 -7z"/>
<path d="M58 653 c19 -4 21 -7 11 -19 -9 -11 -8 -14 5 -14 9 0 16 5 16 10 0 6
9 10 20 10 13 0 20 -7 20 -19 0 -20 21 -33 37 -23 14 10 12 44 -3 38 -6 -2
-20 1 -30 8 -11 7 -37 13 -59 13 -22 1 -30 -1 -17 -4z"/>
<path d="M145 650 c3 -5 8 -10 11 -10 2 0 4 5 4 10 0 6 -5 10 -11 10 -5 0 -7
-4 -4 -10z"/>
<path d="M2460 649 c0 -5 5 -7 10 -4 6 3 10 8 10 11 0 2 -4 4 -10 4 -5 0 -10
-5 -10 -11z"/>
<path d="M2826 647 c10 -5 24 -5 36 0 17 7 14 9 -16 9 -27 0 -32 -2 -20 -9z"/>
<path d="M1380 638 c0 -6 10 -8 24 -4 14 3 28 2 31 -4 3 -5 11 -10 18 -10 6 0
3 6 -8 13 -25 16 -65 20 -65 5z"/>
<path d="M2333 644 c9 -10 -30 -37 -43 -29 -6 3 -10 0 -10 -8 0 -8 -7 -18 -16
-21 -23 -9 -24 -8 -18 12 3 9 -3 5 -12 -10 -10 -16 -24 -28 -31 -28 -16 0 -16
-10 -2 -30 9 -13 10 -12 5 3 -4 12 0 17 14 17 10 0 22 5 25 10 3 6 14 10 23
10 13 0 14 -2 3 -9 -11 -7 -11 -9 0 -14 11 -4 11 -8 -3 -22 -16 -17 -15 -19 5
-36 l22 -18 -22 -1 c-26 0 -31 -18 -8 -26 8 -4 13 -9 10 -13 -7 -13 32 -6 50
9 13 11 20 11 40 0 13 -7 33 -10 44 -7 12 3 21 1 21 -4 0 -5 14 -6 30 -2 21 4
30 2 30 -7 0 -8 -3 -10 -6 -7 -4 3 -16 1 -27 -4 -15 -8 -22 -8 -28 2 -6 10 -9
9 -15 -5 -4 -11 -2 -21 6 -26 9 -6 8 -10 -6 -19 -16 -9 -17 -12 -4 -21 8 -5
11 -10 6 -10 -13 0 26 -29 39 -30 6 0 3 5 -5 10 -13 9 -13 10 1 10 8 0 21 -6
29 -13 12 -10 12 -9 3 3 -7 9 -8 21 -4 29 7 10 9 9 14 -3 8 -21 84 -17 120 7
32 21 37 21 37 3 0 -9 8 -12 25 -8 14 2 25 0 25 -6 0 -11 -46 -22 -55 -14 -3
3 -13 7 -21 8 -13 2 -11 -2 5 -20 24 -26 27 -38 7 -30 -9 3 -15 -4 -18 -20 -4
-18 -1 -24 11 -23 9 0 30 -3 46 -6 22 -6 26 -5 15 3 -11 7 -11 10 -2 10 8 0
10 5 6 12 -5 8 -2 9 12 4 10 -5 27 -11 37 -13 9 -3 17 -9 17 -14 0 -6 10 -14
23 -20 18 -8 13 -9 -23 -6 -25 3 -56 1 -70 -3 -22 -6 -23 -8 -7 -15 15 -6 16
-10 5 -17 -9 -7 -7 -8 7 -3 11 3 22 7 25 8 3 0 21 -9 40 -21 l35 -22 -40 -2
c-22 0 -48 -1 -57 0 -10 1 -18 -3 -18 -8 0 -6 9 -10 19 -10 11 0 21 -6 24 -12
2 -7 8 -9 13 -5 5 4 2 13 -6 18 -11 8 1 9 40 6 30 -2 49 -2 43 0 -17 6 -16 23
1 23 8 0 16 7 20 15 3 8 16 15 28 15 19 0 20 -2 8 -11 -12 -9 -12 -10 3 -5 10
3 21 6 24 6 9 0 -22 26 -42 35 -19 8 -19 9 3 12 12 3 22 9 22 14 0 5 -17 7
-39 3 -24 -4 -41 -2 -45 5 -4 6 -1 11 7 11 8 0 20 7 27 15 7 8 23 15 35 15 13
0 26 7 29 16 4 11 15 15 35 12 28 -4 29 -3 25 26 -3 17 -5 40 -5 51 0 10 -5
26 -12 34 -10 12 -9 14 6 8 11 -4 16 -3 12 4 -4 6 2 13 14 16 14 4 21 13 21
30 0 20 -4 24 -20 20 -11 -3 -18 -1 -14 4 3 5 13 9 22 10 14 0 13 2 -3 8 -12
5 -23 4 -26 -2 -4 -6 -14 -4 -27 4 -16 12 -18 18 -8 29 14 19 37 24 30 7 -3
-8 5 -13 23 -15 27 -1 27 -1 9 13 -17 13 -18 15 -3 15 9 0 17 5 17 10 0 6 -21
10 -47 11 -37 0 -43 2 -28 9 15 7 9 8 -22 6 -23 -2 -43 0 -45 5 -2 6 -8 -4
-15 -21 -6 -17 -7 -32 -2 -36 5 -3 9 1 9 9 0 7 7 14 15 14 8 0 12 -4 9 -9 -5
-8 11 -12 30 -9 5 1 6 -6 2 -15 -4 -10 2 -24 16 -37 17 -14 18 -18 6 -14 -15
5 -17 1 -14 -26 2 -18 -1 -38 -7 -46 -7 -8 -12 -26 -12 -40 0 -22 -4 -26 -25
-23 -18 2 -21 0 -12 -6 11 -7 10 -10 -3 -15 -9 -4 -13 -3 -10 2 3 5 1 12 -5
16 -5 3 -15 16 -21 28 -7 12 -8 19 -4 15 4 -4 16 -3 27 3 17 9 17 12 3 25 -16
17 -21 39 -6 29 5 -3 12 -1 16 5 14 22 -40 2 -71 -26 -10 -9 -10 -14 -1 -24 9
-10 9 -11 0 -6 -15 8 -17 -6 -3 -20 5 -5 6 -15 1 -22 -13 -22 -45 22 -32 46 7
14 7 19 -4 19 -7 0 -11 -7 -7 -15 3 -10 1 -13 -6 -8 -7 4 -12 13 -12 21 0 7
-6 16 -12 19 -7 3 -3 3 10 0 16 -4 22 -1 22 11 0 13 6 15 29 10 27 -6 28 -4
23 22 -4 19 -7 22 -10 11 -7 -36 -21 -17 -16 22 3 26 1 40 -7 40 -6 0 -9 -7
-5 -15 3 -8 1 -15 -3 -15 -5 0 -7 -10 -3 -22 3 -13 1 -19 -5 -15 -6 4 -13 16
-16 27 -3 11 -1 18 4 14 18 -10 9 17 -12 39 -16 16 -20 18 -16 5 3 -9 1 -19
-6 -21 -9 -3 -7 -10 4 -23 20 -23 21 -54 2 -54 -11 0 -11 4 -3 21 11 19 10 20
-10 9 -17 -9 -19 -14 -10 -26 18 -21 5 -43 -22 -37 -18 4 -20 3 -8 -6 13 -9
13 -11 -2 -11 -10 0 -22 10 -29 22 -10 18 -8 24 11 38 20 15 21 18 5 23 -24
10 -27 9 -19 -5 4 -7 3 -8 -5 -4 -8 6 -9 12 -2 20 14 17 5 25 -20 19 -24 -7
-36 -50 -21 -74 8 -13 8 -18 -2 -22 -7 -3 -24 12 -39 36 l-26 40 25 14 c15 7
33 13 40 13 8 0 14 5 14 10 0 6 8 10 18 10 10 0 27 7 38 16 19 15 19 16 -1 9
-49 -17 -50 -17 -38 -8 9 6 8 12 -6 20 -15 9 -22 6 -44 -22 -20 -25 -32 -32
-48 -28 -13 4 -20 2 -16 -4 3 -5 0 -10 -7 -10 -7 0 -13 5 -13 11 0 6 -2 17 -4
25 -2 8 5 17 18 20 l22 6 -22 25 c-20 23 -55 30 -58 12 -6 -32 -5 -59 2 -68 6
-8 4 -14 -5 -17 -9 -4 -24 7 -40 28 -29 37 -32 51 -14 57 7 3 4 7 -7 12 -11 4
-16 4 -12 0z m114 -36 c-3 -8 -6 -5 -6 6 -1 11 2 17 5 13 3 -3 4 -12 1 -19z
m-112 -78 c3 -4 -9 -10 -25 -12 -27 -4 -37 1 -25 13 8 8 45 8 50 -1z m105 -6
c0 -8 -19 -13 -24 -6 -3 5 1 9 9 9 8 0 15 -2 15 -3z m-70 -24 c0 -5 -7 -7 -15
-4 -8 4 -15 8 -15 10 0 2 7 4 15 4 8 0 15 -4 15 -10z m576 -66 c-25 -18 -31
-12 -14 15 8 14 16 17 23 10 7 -7 4 -15 -9 -25z m-126 -20 c0 -8 -5 -12 -10
-9 -6 4 -8 11 -5 16 9 14 15 11 15 -7z m100 -19 c0 -8 -4 -15 -9 -15 -13 0
-22 16 -14 24 11 11 23 6 23 -9z m-325 -15 c3 -5 1 -10 -4 -10 -6 0 -11 5 -11
10 0 6 2 10 4 10 3 0 8 -4 11 -10z m142 -76 c-3 -3 -12 -4 -19 -1 -8 3 -5 6 6
6 11 1 17 -2 13 -5z m78 -4 c-3 -5 -12 -10 -18 -10 -7 0 -6 4 3 10 19 12 23
12 15 0z"/>
<path d="M2745 640 c3 -5 8 -10 11 -10 2 0 4 5 4 10 0 6 -5 10 -11 10 -5 0 -7
-4 -4 -10z"/>
<path d="M1231 632 c-1 -7 -5 -11 -9 -8 -4 2 -8 -4 -8 -15 0 -10 6 -19 13 -19
7 0 13 -9 13 -20 0 -23 15 -27 23 -6 8 19 3 47 -8 46 -5 -1 -12 7 -16 17 -4
10 -8 12 -8 5z"/>
<path d="M2660 640 c-9 -27 -4 -46 11 -46 11 0 15 4 10 11 -5 5 -11 17 -14 25
-3 8 -6 13 -7 10z"/>
<path d="M2967 629 c7 -7 15 -10 18 -7 3 3 -2 9 -12 12 -14 6 -15 5 -6 -5z"/>
<path d="M1483 615 c-13 -5 -23 -18 -23 -28 0 -15 5 -18 25 -13 14 4 25 2 25
-3 0 -4 11 -8 25 -8 24 0 36 16 15 18 -5 1 -15 2 -22 3 -7 0 -15 10 -18 21 -4
17 -9 18 -27 10z"/>
<path d="M2587 624 c-12 -12 13 -32 33 -27 25 7 27 22 3 19 -10 -2 -21 1 -24
6 -3 4 -8 5 -12 2z"/>
<path d="M246 605 c-4 -10 1 -15 14 -15 11 0 20 7 20 15 0 8 -6 15 -14 15 -8
0 -16 -7 -20 -15z"/>
<path d="M7 603 c7 -2 19 -2 26 0 6 3 1 5 -13 5 -14 0 -19 -2 -13 -5z"/>
<path d="M353 603 c9 -2 23 -2 30 0 6 3 -1 5 -18 5 -16 0 -22 -2 -12 -5z"/>
<path d="M1277 603 c-11 -18 19 -36 40 -24 17 10 16 10 -4 11 -12 0 -23 5 -25
12 -3 8 -6 9 -11 1z"/>
<path d="M1340 599 c0 -5 9 -9 20 -9 11 0 20 2 20 4 0 2 -9 6 -20 9 -11 3 -20
1 -20 -4z"/>
<path d="M1426 591 c-19 -7 -19 -8 0 -13 13 -3 21 0 21 8 0 8 -1 14 -1 13 -1
0 -10 -4 -20 -8z"/>
<path d="M2735 590 c27 -12 35 -12 35 0 0 6 -12 10 -27 9 -25 0 -26 -1 -8 -9z"/>
<path d="M35 574 c-9 -9 -15 -11 -15 -4 0 6 -5 8 -11 4 -8 -4 -7 -9 2 -15 7
-4 18 -5 24 -1 5 3 16 7 23 8 21 4 24 11 8 17 -9 4 -22 -1 -31 -9z"/>
<path d="M370 580 c0 -5 5 -10 10 -10 6 0 10 5 10 10 0 6 -4 10 -10 10 -5 0
-10 -4 -10 -10z"/>
<path d="M2190 580 c0 -5 5 -10 10 -10 6 0 10 5 10 10 0 6 -4 10 -10 10 -5 0
-10 -4 -10 -10z"/>
<path d="M2520 579 c0 -5 5 -7 10 -4 6 3 10 8 10 11 0 2 -4 4 -10 4 -5 0 -10
-5 -10 -11z"/>
<path d="M2790 586 c0 -2 7 -9 15 -16 9 -7 15 -8 15 -2 0 5 -7 12 -15 16 -8 3
-15 4 -15 2z"/>
<path d="M280 570 c0 -5 7 -10 15 -10 8 0 15 5 15 10 0 6 -7 10 -15 10 -8 0
-15 -4 -15 -10z"/>
<path d="M1571 568 c0 -10 -5 -18 -11 -18 -5 0 -7 -6 -4 -14 3 -8 -3 -19 -15
-26 -12 -6 -21 -17 -21 -25 0 -8 -5 -15 -11 -15 -6 0 -8 -7 -5 -16 6 -15 4
-15 -10 -3 -10 8 -19 13 -21 11 -3 -2 -7 -1 -11 3 -3 3 4 8 16 12 15 4 22 13
22 30 0 13 4 21 10 18 6 -3 10 -2 10 4 0 20 -22 23 -35 5 -7 -11 -9 -20 -4
-22 5 -2 9 -8 9 -13 0 -4 -7 -5 -17 -2 -10 4 -14 2 -9 -5 3 -6 2 -13 -3 -16
-5 -4 -12 -2 -16 4 -3 5 -17 10 -31 10 -24 0 -24 -1 -9 -30 23 -44 18 -48 -15
-10 -16 19 -29 32 -30 28 0 -4 -12 -3 -26 3 -24 8 -25 8 -14 -6 7 -8 19 -15
27 -15 8 0 11 -5 7 -12 -5 -8 -2 -9 9 -5 24 9 32 -12 11 -28 -18 -13 -17 -14
9 -16 15 -1 32 -3 37 -4 6 -1 13 -3 18 -4 4 -1 0 -6 -8 -11 -10 -6 -4 -8 21
-4 20 4 45 1 55 -5 17 -9 16 -10 -8 -11 -16 0 -28 -5 -28 -10 0 -13 63 -4 98
13 19 9 25 8 32 -3 17 -27 10 -32 -35 -26 -29 5 -45 4 -45 -3 0 -9 37 -16 63
-12 4 0 7 -3 7 -9 0 -5 8 -19 17 -30 17 -20 17 -20 29 3 11 20 13 20 19 5 7
-19 45 -25 45 -8 0 6 -7 10 -15 10 -8 0 -15 4 -15 8 0 9 38 8 63 -3 11 -5 23
-3 30 5 8 9 8 11 1 7 -7 -4 -18 1 -25 10 -13 15 -11 16 11 10 24 -6 24 -5 6 8
-26 20 -33 19 -41 -5 -5 -15 -13 -19 -38 -16 -18 3 -37 5 -42 5 -16 1 -13 51
3 51 7 0 11 -4 7 -9 -3 -6 4 -9 15 -8 12 1 19 6 16 14 -3 7 -1 13 4 13 5 0 11
-8 13 -17 4 -15 6 -14 12 5 4 13 13 21 20 18 7 -2 29 13 48 33 27 29 33 41 24
50 -9 9 -8 14 3 21 14 9 7 14 -13 11 -5 -1 -6 3 -3 8 3 5 -1 14 -8 21 -12 9
-17 7 -25 -8 -8 -15 -7 -23 4 -32 24 -20 0 -32 -57 -31 -14 1 -33 -5 -41 -14
-13 -13 -17 -13 -29 2 -11 15 -11 16 4 10 19 -7 45 17 28 28 -5 3 -16 3 -22 0
-7 -4 -3 3 10 14 22 19 22 20 3 30 -28 15 -34 14 -27 -6 5 -15 4 -15 -9 1 -15
19 -15 19 -15 -1 0 -14 -8 -24 -22 -29 -13 -4 -26 -11 -29 -16 -3 -5 -9 -3
-12 6 -4 10 -1 16 7 16 22 0 38 27 33 57 -2 15 -5 20 -6 11z m-117 -114 c3 -8
0 -13 -7 -11 -13 2 -27 17 -27 29 0 12 28 -3 34 -18z m19 -41 c-7 -2 -19 -2
-25 0 -7 3 -2 5 12 5 14 0 19 -2 13 -5z"/>
<path d="M2480 570 c0 -5 7 -10 16 -10 8 0 12 5 9 10 -3 6 -10 10 -16 10 -5 0
-9 -4 -9 -10z"/>
<path d="M2665 570 c3 -5 8 -10 11 -10 2 0 4 5 4 10 0 6 -5 10 -11 10 -5 0 -7
-4 -4 -10z"/>
<path d="M2100 543 c0 -13 2 -23 4 -23 2 0 11 -3 20 -6 11 -4 16 -1 16 11 0 9
-4 14 -9 10 -6 -3 -14 3 -20 12 -9 16 -10 16 -11 -4z"/>
<path d="M2797 550 c8 -10 9 -21 3 -30 -13 -20 -12 -33 0 -25 6 3 10 2 10 -4
0 -5 -6 -12 -12 -14 -9 -4 -8 -6 2 -6 8 -1 28 7 43 18 26 16 27 19 10 26 -10
5 -24 7 -32 6 -7 -1 -10 2 -7 7 3 5 -2 16 -12 23 -15 12 -16 12 -5 -1z"/>
<path d="M480 540 c0 -5 5 -10 10 -10 6 0 10 5 10 10 0 6 -4 10 -10 10 -5 0
-10 -4 -10 -10z"/>
<path d="M1935 540 c3 -5 1 -10 -4 -10 -6 0 -11 -8 -12 -17 0 -14 -2 -13 -9 5
-5 12 -15 22 -21 22 -8 0 -9 -4 0 -13 8 -10 6 -24 -9 -55 -21 -43 -34 -52 -43
-29 -3 7 -6 5 -6 -5 -1 -10 -5 -19 -11 -19 -5 -1 -15 -2 -20 -3 -6 0 -14 -5
-18 -11 -4 -5 -16 -15 -27 -21 -42 -24 6 -35 85 -21 18 3 30 -2 42 -18 16 -22
16 -22 -10 -17 -15 3 -23 1 -19 -4 4 -5 39 -9 78 -9 45 0 73 -4 77 -12 7 -10
12 -10 26 0 18 13 17 15 -5 33 -26 20 -35 66 -12 57 8 -3 13 3 13 16 0 12 6
21 15 21 12 0 10 5 -5 20 -17 17 -24 19 -42 9 -20 -11 -20 -13 -5 -24 16 -11
16 -13 2 -19 -9 -3 -13 -11 -9 -17 5 -8 -1 -10 -20 -7 -14 3 -26 2 -26 -3 0
-4 -12 -4 -27 0 -25 7 -28 12 -25 42 4 40 49 93 72 83 40 -16 43 -15 18 10
-26 25 -56 36 -43 16z"/>
<path d="M2615 540 c3 -5 8 -10 11 -10 2 0 4 5 4 10 0 6 -5 10 -11 10 -5 0 -7
-4 -4 -10z"/>
<path d="M548 533 c6 -2 9 -10 6 -15 -4 -7 -2 -8 5 -4 13 9 5 26 -12 25 -9 0
-8 -2 1 -6z"/>
<path d="M1338 533 c7 -3 16 -2 19 1 4 3 -2 6 -13 5 -11 0 -14 -3 -6 -6z"/>
<path d="M2775 530 c-3 -5 -1 -10 4 -10 6 0 11 5 11 10 0 6 -2 10 -4 10 -3 0
-8 -4 -11 -10z"/>
<path d="M2855 530 c4 -6 11 -8 16 -5 14 9 11 15 -7 15 -8 0 -12 -5 -9 -10z"/>
<path d="M40 521 c0 -17 18 -21 24 -6 3 9 0 15 -9 15 -8 0 -15 -4 -15 -9z"/>
<path d="M1690 510 c13 -23 20 -26 20 -6 0 8 -7 16 -15 20 -13 4 -14 2 -5 -14z"/>
<path d="M2020 520 c20 -13 40 -13 40 0 0 6 -12 10 -27 10 -22 0 -25 -2 -13
-10z"/>
<path d="M2645 520 c3 -5 8 -10 11 -10 2 0 4 5 4 10 0 6 -5 10 -11 10 -5 0 -7
-4 -4 -10z"/>
<path d="M154 509 c-3 -6 -21 -9 -40 -7 -22 3 -35 -1 -39 -10 -7 -19 -6 -22 6
-22 5 0 8 4 5 9 -3 5 0 9 7 8 41 -1 66 5 71 18 6 17 0 20 -10 4z"/>
<path d="M1843 501 c-10 -15 -9 -22 2 -31 13 -11 15 -7 15 19 0 36 -1 37 -17
12z"/>
<path d="M325 500 c3 -5 11 -10 16 -10 6 0 7 5 4 10 -3 6 -11 10 -16 10 -6 0
-7 -4 -4 -10z"/>
<path d="M2510 501 c0 -6 4 -13 10 -16 6 -3 7 1 4 9 -7 18 -14 21 -14 7z"/>
<path d="M604 488 c-3 -4 4 -8 15 -8 11 0 22 4 25 8 2 4 -4 8 -15 8 -11 0 -23
-4 -25 -8z"/>
<path d="M2065 490 c3 -5 14 -10 23 -10 15 0 15 2 2 10 -20 13 -33 13 -25 0z"/>
<path d="M128 473 c7 -3 16 -2 19 1 4 3 -2 6 -13 5 -11 0 -14 -3 -6 -6z"/>
<path d="M473 466 c3 -9 -4 -21 -19 -30 -18 -12 -24 -13 -25 -4 0 7 -5 3 -12
-10 -7 -16 -7 -26 -1 -30 6 -4 14 -16 18 -27 l8 -20 8 20 c7 16 9 17 9 3 1
-26 -21 -33 -38 -12 -9 10 -28 19 -42 20 -23 0 -26 -4 -24 -25 1 -14 8 -27 14
-29 6 -2 17 -10 25 -17 7 -8 16 -11 19 -8 4 3 18 -2 31 -11 19 -12 31 -14 51
-6 15 6 23 15 19 21 -4 8 1 9 17 5 l24 -6 -23 12 c-12 6 -25 22 -29 36 -4 17
-8 20 -14 11 -4 -7 -5 -18 -2 -24 3 -5 0 -5 -7 2 -17 15 -5 30 37 48 27 11 38
12 44 4 4 -7 24 -10 47 -7 22 2 38 0 36 -4 -3 -5 3 -8 13 -8 15 0 16 -2 3 -10
-12 -7 -10 -9 8 -7 25 2 29 12 7 21 -8 3 -14 13 -13 23 0 10 0 29 -1 43 -1 21
-3 23 -14 10 -16 -19 -47 -22 -47 -4 0 8 -4 14 -10 14 -5 0 -10 -5 -10 -11 0
-8 -6 -7 -17 2 -11 10 -14 10 -9 2 8 -15 -3 -17 -23 -4 -9 6 -20 2 -33 -11
-11 -11 -22 -17 -26 -14 -3 4 0 12 6 18 15 15 16 38 1 38 -6 0 -9 -6 -6 -14z
m165 -57 c-10 -5 -32 -5 -55 0 -38 8 -37 8 17 9 37 0 49 -3 38 -9z m-231 -65
c-3 -3 -12 -4 -19 -1 -8 3 -5 6 6 6 11 1 17 -2 13 -5z"/>
<path d="M2860 471 c0 -6 4 -13 10 -16 6 -3 7 1 4 9 -7 18 -14 21 -14 7z"/>
<path d="M226 455 c4 -8 11 -15 16 -15 6 0 5 6 -2 15 -7 8 -14 15 -16 15 -2 0
-1 -7 2 -15z"/>
<path d="M2635 460 c3 -5 11 -10 16 -10 6 0 7 5 4 10 -3 6 -11 10 -16 10 -6 0
-7 -4 -4 -10z"/>
<path d="M1947 453 c-12 -11 -8 -30 7 -30 8 0 11 8 8 19 -5 20 -6 21 -15 11z"/>
<path d="M2860 430 c0 -5 5 -10 11 -10 5 0 7 5 4 10 -3 6 -8 10 -11 10 -2 0
-4 -4 -4 -10z"/>
<path d="M348 403 c7 -3 16 -2 19 1 4 3 -2 6 -13 5 -11 0 -14 -3 -6 -6z"/>
<path d="M2850 370 c0 -5 7 -10 16 -10 8 0 12 5 9 10 -3 6 -10 10 -16 10 -5 0
-9 -4 -9 -10z"/>
<path d="M575 360 c3 -5 17 -10 30 -10 13 0 27 5 30 10 4 6 -8 10 -30 10 -22
0 -34 -4 -30 -10z"/>
<path d="M2071 354 c18 -9 26 -9 31 -1 5 8 16 8 41 -1 45 -16 56 -15 30 3 -14
10 -41 15 -73 14 -48 -2 -50 -3 -29 -15z"/>
<path d="M2348 363 c7 -3 16 -2 19 1 4 3 -2 6 -13 5 -11 0 -14 -3 -6 -6z"/>
<path d="M2958 363 c6 -2 18 -2 25 0 6 3 1 5 -13 5 -14 0 -19 -2 -12 -5z"/>
<path d="M231 334 c0 -11 3 -14 6 -6 3 7 2 16 -1 19 -3 4 -6 -2 -5 -13z"/>
<path d="M1568 343 c6 -2 18 -2 25 0 6 3 1 5 -13 5 -14 0 -19 -2 -12 -5z"/>
<path d="M712 328 c5 -15 28 -18 29 -3 0 6 -7 12 -17 13 -10 3 -15 -1 -12 -10z"/>
<path d="M1690 329 c0 -5 5 -7 10 -4 6 3 10 8 10 11 0 2 -4 4 -10 4 -5 0 -10
-5 -10 -11z"/>
<path d="M2223 333 c9 -2 25 -2 35 0 9 3 1 5 -18 5 -19 0 -27 -2 -17 -5z"/>
<path d="M0 320 c0 -5 9 -10 20 -10 11 0 20 5 20 10 0 6 -9 10 -20 10 -11 0
-20 -4 -20 -10z"/>
<path d="M188 322 c-10 -2 -18 -7 -18 -12 0 -5 -7 -7 -15 -4 -8 4 -15 2 -15
-2 0 -9 48 -41 83 -56 11 -5 15 -13 11 -19 -4 -7 -3 -9 2 -6 6 3 16 2 24 -3
12 -7 12 -11 -1 -26 -12 -15 -12 -17 1 -12 8 2 16 14 18 26 2 11 11 24 21 27
13 4 16 13 13 35 -3 24 -7 28 -17 20 -10 -8 -16 -7 -23 6 -8 15 -13 16 -25 6
-12 -11 -18 -10 -29 5 -7 11 -21 17 -30 15z"/>
<path d="M1467 316 c-4 -10 -1 -13 9 -9 15 6 19 23 5 23 -5 0 -11 -7 -14 -14z"/>
<path d="M2960 321 c0 -5 7 -11 15 -15 9 -3 15 0 15 9 0 8 -7 15 -15 15 -8 0
-15 -4 -15 -9z"/>
<path d="M2070 310 c12 -7 12 -12 2 -22 -10 -10 -15 -10 -22 2 -7 11 -10 11
-10 2 0 -7 -4 -10 -10 -7 -5 3 -10 1 -10 -5 0 -6 -4 -9 -8 -6 -5 3 -9 -1 -9
-8 0 -14 21 -16 33 -3 13 12 34 7 34 -8 0 -8 -8 -15 -17 -15 -14 0 -15 -2 -4
-12 11 -11 14 -10 18 0 3 6 10 9 15 6 7 -5 8 -2 4 7 -4 8 0 5 8 -5 16 -20 20
-16 17 17 -2 12 5 17 23 17 14 0 26 -4 26 -10 0 -5 5 -10 10 -10 7 0 7 6 0 20
-6 11 -17 20 -25 20 -8 0 -15 7 -15 15 0 18 -12 19 -27 4 -8 -8 -13 -8 -17 0
-4 6 -13 11 -19 11 -7 0 -6 -4 3 -10z"/>
<path d="M1793 303 c-20 -8 -15 -23 7 -23 11 0 20 5 20 11 0 6 9 8 21 4 15 -5
19 -4 15 4 -7 11 -41 14 -63 4z"/>
<path d="M2175 300 c-4 -6 9 -10 31 -10 42 0 42 4 2 14 -15 3 -30 2 -33 -4z"/>
<path d="M1908 293 c6 -2 10 -8 8 -12 -3 -4 10 -8 29 -8 19 0 32 4 29 8 -2 4
2 10 8 12 8 4 7 6 -4 6 -9 1 -18 -5 -21 -11 -3 -10 -9 -10 -26 0 -11 6 -24 12
-28 11 -5 0 -2 -3 5 -6z"/>
<path d="M20 280 c0 -5 5 -10 10 -10 6 0 10 5 10 10 0 6 -4 10 -10 10 -5 0
-10 -4 -10 -10z"/>
<path d="M681 273 c-5 -10 -13 -17 -18 -15 -4 2 -9 -4 -11 -12 -3 -14 12 -15
60 -7 8 1 -2 40 -13 46 -4 3 -12 -3 -18 -12z"/>
<path d="M2380 280 c0 -5 5 -10 10 -10 6 0 10 5 10 10 0 6 -4 10 -10 10 -5 0
-10 -4 -10 -10z"/>
<path d="M1305 270 c3 -5 8 -10 11 -10 2 0 4 5 4 10 0 6 -5 10 -11 10 -5 0 -7
-4 -4 -10z"/>
<path d="M1448 268 c5 -5 16 -8 23 -6 8 3 3 7 -10 11 -17 4 -21 3 -13 -5z"/>
<path d="M1715 270 c3 -5 14 -10 23 -10 15 0 15 2 2 10 -20 13 -33 13 -25 0z"/>
<path d="M2570 270 c0 -5 5 -10 11 -10 5 0 7 5 4 10 -3 6 -8 10 -11 10 -2 0
-4 -4 -4 -10z"/>
<path d="M548 263 c7 -3 16 -2 19 1 4 3 -2 6 -13 5 -11 0 -14 -3 -6 -6z"/>
<path d="M596 261 c-6 -9 35 -24 43 -16 2 3 -2 5 -10 5 -11 0 -11 2 1 10 12 8
11 10 -7 10 -12 0 -24 -4 -27 -9z"/>
<path d="M1640 263 c1 -19 19 -35 34 -30 8 3 18 2 21 -3 4 -6 1 -10 -6 -10 -7
0 -10 -3 -6 -6 3 -3 10 -3 16 0 14 9 4 33 -17 40 -9 3 -23 9 -29 12 -7 3 -13
2 -13 -3z"/>
<path d="M1583 253 c-15 -6 -17 -43 -3 -43 6 0 10 9 10 21 0 13 4 18 12 13 7
-4 8 -3 4 4 -4 7 -8 12 -9 11 -1 0 -8 -3 -14 -6z"/>
<path d="M2934 248 c3 -15 26 -23 26 -8 0 6 -4 9 -9 6 -5 -4 -12 -1 -14 4 -3
6 -4 5 -3 -2z"/>
<path d="M26 241 c-4 -7 -5 -15 -2 -18 9 -9 19 4 14 18 -4 11 -6 11 -12 0z"/>
<path d="M1625 240 c-3 -5 -1 -10 4 -10 6 0 11 5 11 10 0 6 -2 10 -4 10 -3 0
-8 -4 -11 -10z"/>
<path d="M2135 240 c3 -5 8 -10 11 -10 2 0 4 5 4 10 0 6 -5 10 -11 10 -5 0 -7
-4 -4 -10z"/>
<path d="M2550 240 c0 -7 7 -9 17 -6 9 4 20 1 25 -6 7 -10 9 -9 5 2 -4 18 -47
27 -47 10z"/>
<path d="M1731 230 c-12 -7 -9 -11 12 -21 15 -7 27 -16 27 -20 0 -11 -26 -5
-44 10 -9 7 -16 9 -16 3 0 -5 7 -13 16 -16 8 -3 13 -10 9 -15 -3 -5 -1 -13 5
-16 6 -4 9 -1 8 6 -2 7 2 14 7 14 6 1 26 9 45 18 25 13 28 16 11 13 -14 -3
-31 0 -38 6 -7 6 -13 7 -14 2 0 -5 -3 -1 -7 8 -5 12 -11 15 -21 8z"/>
<path d="M65 220 c3 -5 8 -10 11 -10 2 0 4 5 4 10 0 6 -5 10 -11 10 -5 0 -7
-4 -4 -10z"/>
<path d="M90 214 c0 -14 3 -14 15 -4 13 10 19 10 35 -5 10 -9 25 -15 32 -12 8
4 5 8 -9 12 -13 4 -23 11 -23 16 0 5 -11 9 -25 9 -16 0 -25 -6 -25 -16z"/>
<path d="M300 210 c0 -5 5 -10 10 -10 6 0 10 5 10 10 0 6 -4 10 -10 10 -5 0
-10 -4 -10 -10z"/>
<path d="M445 210 c-3 -5 -1 -10 4 -10 6 0 11 5 11 10 0 6 -2 10 -4 10 -3 0
-8 -4 -11 -10z"/>
<path d="M202 190 c0 -14 2 -19 5 -12 2 6 2 18 0 25 -3 6 -5 1 -5 -13z"/>
<path d="M538 203 c6 -2 18 -2 25 0 6 3 1 5 -13 5 -14 0 -19 -2 -12 -5z"/>
<path d="M2635 200 c-3 -5 -1 -10 4 -10 6 0 11 5 11 10 0 6 -2 10 -4 10 -3 0
-8 -4 -11 -10z"/>
<path d="M382 180 c0 -14 2 -19 5 -12 2 6 2 18 0 25 -3 6 -5 1 -5 -13z"/>
<path d="M1680 189 c0 -5 5 -7 10 -4 6 3 10 8 10 11 0 2 -4 4 -10 4 -5 0 -10
-5 -10 -11z"/>
<path d="M225 180 c3 -5 8 -10 11 -10 2 0 4 5 4 10 0 6 -5 10 -11 10 -5 0 -7
-4 -4 -10z"/>
<path d="M493 183 c20 -2 37 -9 37 -15 0 -5 -7 -8 -15 -4 -22 8 -18 -7 5 -22
17 -10 23 -10 36 3 9 8 23 15 32 14 13 0 12 -2 -4 -9 -26 -10 -43 -46 -18 -36
8 3 18 6 20 6 3 0 2 4 -1 10 -3 5 0 7 7 5 8 -3 14 -13 15 -23 1 -14 -9 -17
-65 -17 -37 -1 -84 -5 -104 -9 -27 -6 -38 -5 -38 3 0 7 6 9 13 6 6 -4 4 0 -5
8 -24 19 -23 22 8 25 15 1 32 6 39 12 6 5 15 7 18 3 4 -3 7 -1 7 5 0 6 -9 10
-19 9 -11 0 -17 -5 -14 -10 3 -5 -4 -6 -16 -2 -13 4 -21 2 -21 -5 0 -7 -5 -8
-12 -3 -7 4 -32 8 -55 9 -33 1 -43 -3 -43 -15 0 -13 -2 -13 -9 -3 -7 11 -10
10 -15 -3 -9 -24 -8 -25 20 -25 23 0 24 -1 10 -16 -9 -9 -21 -12 -28 -7 -7 4
-16 8 -20 9 -5 1 -9 2 -10 3 -2 1 -18 4 -35 5 -35 4 -43 -7 -17 -22 12 -7 6
-11 -27 -16 -33 -5 -40 -9 -29 -16 12 -8 10 -10 -7 -10 -13 0 -23 5 -23 10 0
6 -13 10 -30 10 -26 0 -30 -4 -30 -27 0 -16 4 -24 8 -18 4 6 15 16 24 23 14
12 16 11 11 -8 -5 -18 -3 -19 21 -10 19 7 26 6 26 -2 0 -9 3 -9 12 0 15 15 84
16 93 2 10 -16 133 -9 140 8 4 11 0 13 -17 8 -13 -4 -43 -8 -66 -10 -39 -3
-43 -1 -39 15 3 11 1 19 -4 19 -5 0 -9 4 -9 10 0 5 20 -2 45 -15 42 -24 45
-24 54 -6 11 20 6 31 -12 27 -7 -2 -9 -1 -6 1 4 2 5 14 3 26 -2 12 -1 15 2 7
4 -8 16 -23 28 -32 16 -13 17 -18 6 -18 -10 -1 -9 -4 5 -10 28 -12 45 -12 45
1 0 6 -6 9 -14 6 -8 -3 -18 5 -25 19 -10 24 1 35 15 13 3 -6 19 -8 38 -5 25 5
34 2 44 -15 8 -12 9 -18 3 -14 -6 3 -11 1 -11 -4 0 -6 -4 -11 -9 -11 -5 0 -7
10 -3 22 5 19 1 18 -26 -10 -18 -18 -32 -35 -32 -37 0 -3 16 -5 36 -5 23 0 42
6 50 18 12 16 13 16 19 0 5 -13 18 -18 45 -18 33 0 37 3 33 20 -3 11 0 20 6
20 6 0 11 -9 11 -20 0 -17 7 -20 40 -20 34 0 40 3 40 21 0 12 4 17 11 14 6 -4
8 -12 6 -19 -3 -8 20 -12 81 -13 70 -2 88 1 99 15 12 16 12 16 13 0 0 -14 9
-17 50 -15 44 2 47 4 34 17 -13 13 -16 13 -24 0 -5 -8 -10 -10 -10 -5 0 6 5
16 11 22 16 16 -7 27 -28 13 -17 -11 -17 -11 1 -6 15 5 17 4 8 -7 -7 -8 -9
-17 -5 -20 3 -4 1 -7 -5 -7 -7 0 -12 7 -12 15 0 9 -11 20 -25 25 -25 9 -31 21
-18 33 3 4 11 0 17 -9 9 -12 17 -13 38 -5 17 6 29 6 36 -1 6 -6 12 -6 16 0 3
6 2 13 -3 17 -6 3 -8 12 -4 20 3 8 0 15 -7 15 -6 0 -14 -9 -17 -19 -3 -11 -14
-22 -26 -25 -27 -7 -36 2 -17 15 11 8 4 9 -25 4 -22 -4 -45 -11 -52 -16 -6 -6
-23 -7 -38 -3 -20 5 -24 9 -14 18 8 8 13 8 16 -2 7 -20 33 6 32 32 0 19 -1 19
-11 -4 -6 -14 -12 -20 -14 -15 -6 14 -70 6 -84 -10 -8 -9 -5 -11 13 -8 35 7
42 -21 11 -41 -24 -16 -33 -9 -14 10 8 8 2 10 -19 9 -34 -2 -49 19 -23 34 14
9 12 10 -11 11 -15 0 -30 7 -33 15 -4 8 -12 15 -20 15 -8 0 -13 6 -12 13 2 8
-8 12 -29 11 -19 -1 -31 3 -30 10 1 7 -15 11 -43 12 -39 1 -40 1 -7 -3z m-118
-63 c3 -5 1 -10 -4 -10 -6 0 -11 5 -11 10 0 6 2 10 4 10 3 0 8 -4 11 -10z
m268 -29 c22 -37 21 -44 -3 -37 -11 3 -30 9 -41 12 -16 5 -20 3 -13 -7 7 -12
5 -12 -9 0 -9 7 -14 17 -11 22 7 13 34 11 34 -2 0 -5 5 -7 11 -3 6 3 9 15 6
25 -8 28 6 23 26 -10z m-138 -10 c-3 -5 -1 -12 4 -15 5 -3 11 1 15 9 8 21 23
19 29 -4 5 -19 -20 -51 -39 -51 -5 0 0 7 10 15 20 15 20 15 0 15 -10 0 -26 5
-34 10 -13 9 -13 11 0 20 19 12 23 12 15 1z m341 -48 c-3 -3 -12 -1 -19 5 -8
7 -16 11 -18 9 -2 -1 2 4 10 11 12 10 17 9 24 -4 5 -8 6 -18 3 -21z m-52 -14
c-10 -17 -20 -9 -22 19 -1 25 -1 26 13 8 8 -10 12 -23 9 -27z m-164 27 c0 -3
-4 -8 -10 -11 -5 -3 -10 -1 -10 4 0 6 5 11 10 11 6 0 10 -2 10 -4z"/>
<path d="M1588 183 c7 -3 16 -2 19 1 4 3 -2 6 -13 5 -11 0 -14 -3 -6 -6z"/>
<path d="M2301 183 c3 -20 -2 -24 -15 -14 -11 9 -20 10 -35 1 -29 -15 -26 -20
9 -16 16 2 31 -2 34 -8 3 -7 11 -4 20 8 15 19 13 36 -5 36 -5 0 -8 -3 -8 -7z"/>
<path d="M75 160 c22 -11 50 -19 63 -20 12 0 22 -5 22 -11 0 -5 4 -7 10 -4 25
16 -4 31 -72 38 -10 1 -18 5 -18 9 0 4 -10 8 -22 8 -18 -1 -14 -5 17 -20z"/>
<path d="M775 162 c-6 -17 2 -32 18 -32 7 0 6 4 -3 10 -12 8 -12 10 3 16 9 3
24 4 32 0 8 -3 15 0 15 7 0 17 -58 16 -65 -1z"/>
<path d="M925 169 c-4 -6 -5 -12 -2 -15 2 -3 7 2 10 11 7 17 1 20 -8 4z"/>
<path d="M1786 164 c-5 -14 -4 -15 9 -4 17 14 19 20 6 20 -5 0 -12 -7 -15 -16z"/>
<path d="M2593 165 c3 -25 39 -27 43 -3 2 14 -1 16 -16 8 -13 -7 -20 -6 -24 3
-3 6 -5 3 -3 -8z"/>
<path d="M1700 166 c0 -2 7 -9 15 -16 13 -11 14 -10 9 4 -5 14 -24 23 -24 12z"/>
<path d="M644 142 c15 -17 22 -19 33 -11 18 15 16 21 -4 17 -10 -1 -25 2 -33
6 -9 6 -8 1 4 -12z"/>
<path d="M990 150 c-13 -9 -13 -12 3 -21 19 -11 23 -39 6 -39 -6 0 -9 7 -5 15
3 8 1 15 -5 15 -6 0 -9 -8 -7 -17 2 -10 11 -18 21 -18 10 0 21 -5 25 -11 4 -6
22 -14 41 -18 34 -6 34 -6 16 14 -11 12 -25 18 -36 15 -9 -3 -20 -1 -24 5 -4
6 -3 10 2 9 23 -4 22 3 -4 26 -15 13 -23 25 -17 25 6 0 17 -7 24 -15 7 -9 19
-14 26 -11 7 3 16 1 19 -4 4 -6 11 -10 17 -10 6 0 5 6 -3 16 -7 8 -21 13 -30
11 -10 -3 -23 1 -30 9 -14 17 -19 17 -39 4z"/>
<path d="M501 131 c-8 -5 -20 -7 -27 -4 -6 2 -14 1 -17 -4 -3 -4 12 -8 33 -9
28 0 37 3 33 13 -6 15 -4 15 -22 4z"/>
<path d="M2637 133 c-4 -3 -7 -11 -7 -17 0 -6 5 -5 12 2 6 6 9 14 7 17 -3 3
-9 2 -12 -2z"/>
<path d="M2908 133 c7 -3 16 -2 19 1 4 3 -2 6 -13 5 -11 0 -14 -3 -6 -6z"/>
<path d="M10 110 c7 -14 7 -20 0 -20 -5 0 -10 -7 -10 -15 0 -8 5 -15 10 -15 6
0 10 5 10 11 0 5 5 7 12 3 7 -4 8 -3 4 5 -6 8 4 10 36 7 24 -3 34 -3 24 0 -15
5 -16 8 -5 16 10 6 2 8 -26 4 -25 -3 -33 -2 -21 3 19 7 18 8 -5 14 -37 10 -41
9 -29 -13z"/>
<path d="M118 123 c7 -3 16 -2 19 1 4 3 -2 6 -13 5 -11 0 -14 -3 -6 -6z"/>
<path d="M1221 114 c0 -11 3 -14 6 -6 3 7 2 16 -1 19 -3 4 -6 -2 -5 -13z"/>
<path d="M1135 110 c3 -5 12 -7 20 -3 21 7 19 13 -6 13 -11 0 -18 -4 -14 -10z"/>
<path d="M2887 107 c-22 -7 -36 -14 -33 -17 3 -3 -5 -6 -17 -6 -66 -1 -97 -5
-97 -14 0 -5 9 -10 20 -10 11 0 20 -5 20 -11 0 -6 7 -8 15 -5 9 3 18 -1 21 -9
4 -9 19 -15 36 -15 19 0 27 -4 22 -11 -4 -8 0 -8 15 0 15 8 27 9 40 1 29 -15
32 -13 25 16 -5 20 -3 25 7 22 8 -3 13 -15 11 -26 -2 -12 2 -22 7 -22 6 0 11
18 11 39 l0 40 -47 6 c-27 4 -52 8 -58 10 -10 4 71 9 93 6 6 -1 12 3 12 9 0
13 -55 12 -103 -3z m33 -43 c0 -8 -4 -12 -10 -9 -5 3 -10 10 -10 16 0 5 5 9
10 9 6 0 10 -7 10 -16z"/>
<path d="M1096 88 c3 -4 14 -8 25 -8 11 0 18 4 14 9 -3 6 -14 9 -25 8 -10 -1
-16 -5 -14 -9z"/>
<path d="M2556 85 c-3 -8 -1 -15 4 -15 13 0 22 18 11 24 -5 3 -11 -1 -15 -9z"/>
<path d="M1177 59 c-4 -16 -3 -18 8 -9 10 8 14 8 17 -2 3 -7 7 -8 11 -2 3 5
-3 15 -13 21 -15 10 -19 9 -23 -8z"/>
<path d="M981 61 c-7 -5 -11 -15 -9 -22 3 -10 8 -7 17 9 13 24 12 26 -8 13z"/>
<path d="M1140 60 c0 -5 5 -10 10 -10 6 0 10 5 10 10 0 6 -4 10 -10 10 -5 0
-10 -4 -10 -10z"/>
<path d="M1013 42 c-28 -4 -30 -22 -3 -22 11 0 20 -4 20 -10 0 -5 9 -10 20
-10 21 0 29 33 10 45 -5 3 -10 0 -10 -7 0 -8 -3 -9 -8 -3 -4 6 -17 9 -29 7z"/>
<path d="M2713 44 c-16 -7 16 -44 37 -43 13 0 12 2 -2 12 -15 10 -15 12 0 24
16 11 15 12 -3 12 -11 0 -25 -3 -32 -5z"/>
<path d="M1084 28 c-3 -4 4 -8 16 -8 12 0 18 -4 15 -10 -3 -6 5 -10 18 -10 33
0 44 28 14 34 -31 7 -57 4 -63 -6z"/>
<path d="M1620 36 c0 -9 40 -13 46 -5 3 5 -6 9 -20 9 -14 0 -26 -2 -26 -4z"/>
<path d="M15 10 c-19 -8 -19 -9 3 -9 12 -1 22 4 22 9 0 6 -1 10 -2 9 -2 0 -12
-4 -23 -9z"/>
<path d="M1440 10 c0 -6 7 -10 15 -10 8 0 15 2 15 4 0 2 -7 6 -15 10 -8 3 -15
1 -15 -4z"/>
<path d="M1560 16 c0 -2 7 -7 16 -10 8 -3 12 -2 9 4 -6 10 -25 14 -25 6z"/>
<path d="M1798 13 c7 -3 16 -2 19 1 4 3 -2 6 -13 5 -11 0 -14 -3 -6 -6z"/>
<path d="M2610 10 c0 -5 4 -10 9 -10 6 0 13 5 16 10 3 6 -1 10 -9 10 -9 0 -16
-4 -16 -10z"/>
<path d="M178 3 c12 -2 32 -2 45 0 12 2 2 4 -23 4 -25 0 -35 -2 -22 -4z"/>
<path d="M2663 3 c9 -2 23 -2 30 0 6 3 -1 5 -18 5 -16 0 -22 -2 -12 -5z"/>
</g>
</svg>
