<?xml version="1.0" standalone="no"?>
<!DOCTYPE svg PUBLIC "-//W3C//DTD SVG 20010904//EN"
 "http://www.w3.org/TR/2001/REC-SVG-20010904/DTD/svg10.dtd">
<svg version="1.0" xmlns="http://www.w3.org/2000/svg"
 width="217.000000pt" height="180.000000pt" viewBox="0 0 217.000000 180.000000"
 preserveAspectRatio="xMidYMid meet">

<g transform="translate(0.000000,180.000000) scale(0.100000,-0.100000)"
fill="#000000" stroke="none">
<path d="M0 900 l0 -900 1085 0 1085 0 0 900 0 900 -1085 0 -1085 0 0 -900z
m240 655 c0 -8 8 -15 18 -16 9 0 27 -2 40 -3 12 -2 34 3 49 11 29 15 45 17 23
3 -11 -7 -7 -10 19 -10 l34 0 -44 -24 c-24 -13 -48 -20 -53 -15 -5 4 -26 -1
-47 -12 -22 -11 -39 -15 -39 -10 0 5 16 15 35 21 19 6 35 15 35 20 0 13 -62 3
-73 -12 -6 -9 -7 -8 -3 6 5 15 2 17 -14 13 -23 -6 -33 5 -24 27 8 20 44 21 44
1z m313 -15 c43 0 69 9 61 21 -3 5 2 9 11 9 11 0 15 -5 12 -14 -4 -10 3 -16
21 -19 17 -2 8 -5 -23 -7 -27 -1 -53 -2 -57 -1 -12 2 -9 -14 4 -27 9 -9 9 -12
-1 -12 -7 0 -9 -4 -6 -10 3 -5 15 -10 26 -10 11 0 17 5 14 10 -11 17 7 11 21
-7 13 -17 14 -17 8 0 -5 13 -2 16 11 11 10 -4 21 -1 26 7 8 12 11 12 19 -1 8
-13 11 -13 19 -1 9 14 31 7 31 -10 0 -6 -4 -8 -9 -4 -21 12 -23 -19 -3 -36 18
-14 22 -27 21 -76 -1 -32 -4 -47 -7 -33 -4 23 -5 24 -13 5 -6 -17 -8 -17 -8
-2 -1 9 -6 17 -12 17 -5 0 -7 -5 -3 -12 4 -7 3 -8 -5 -4 -14 9 -51 -2 -51 -15
0 -6 9 -5 21 2 16 8 20 8 14 0 -8 -14 -125 -74 -131 -68 -2 2 16 15 41 28 25
13 45 28 45 33 0 4 -12 0 -27 -9 -23 -16 -25 -16 -20 -1 4 9 2 16 -3 16 -6 0
-10 -9 -10 -20 0 -11 -7 -20 -15 -20 -8 0 -15 5 -15 11 0 5 -5 7 -10 4 -6 -4
-8 -10 -5 -15 3 -5 0 -12 -6 -16 -8 -5 -9 -3 -4 6 6 10 4 12 -11 6 -43 -17
-49 -18 -31 -3 22 18 22 28 0 20 -11 -4 -14 -3 -9 5 4 7 2 12 -3 12 -6 0 -12
-10 -12 -22 -1 -19 -2 -19 -6 -5 -3 12 -11 16 -21 13 -14 -5 -14 -4 1 8 10 8
15 16 10 19 -10 7 -38 -13 -46 -33 -3 -8 -6 1 -6 20 0 19 3 30 7 23 5 -8 18
-5 47 13 44 27 41 33 -5 9 -17 -9 -30 -12 -30 -7 0 5 16 16 37 26 26 12 38 14
43 6 6 -9 13 -9 30 0 29 16 50 6 50 -23 0 -18 -8 -28 -30 -37 -16 -7 -30 -16
-30 -21 0 -5 24 3 53 18 64 34 78 39 53 19 -11 -9 -16 -16 -10 -16 21 0 31 17
29 45 -1 27 2 31 24 33 17 1 21 -1 13 -6 -16 -11 -24 -52 -10 -52 5 0 8 7 4
15 -3 8 -1 15 3 15 5 0 12 -6 14 -12 3 -8 6 -6 6 5 1 9 6 17 12 17 8 0 9 4 0
13 -6 8 -7 18 -3 22 4 5 0 6 -9 2 -13 -4 -16 -1 -12 14 3 10 9 19 14 19 5 0 9
4 9 9 0 6 -12 6 -30 -1 -17 -5 -36 -8 -44 -5 -7 3 -19 0 -25 -6 -8 -8 -11 -7
-11 4 -1 10 -3 10 -11 -3 -5 -10 -20 -18 -32 -19 -21 0 -21 -1 -3 -8 19 -7 19
-8 -2 -13 -14 -4 -20 -2 -16 4 4 6 -1 8 -13 4 -13 -4 -20 -2 -20 8 0 8 6 12
15 8 10 -3 13 -1 8 6 -3 6 -1 14 5 18 7 4 9 3 5 -4 -4 -7 1 -10 14 -9 33 2 33
28 0 40 -16 6 -30 15 -30 20 0 4 6 5 13 1 8 -5 8 -2 -2 9 -18 22 -32 22 -24 0
6 -17 5 -17 -13 -2 -20 17 -54 22 -54 7 0 -5 8 -8 18 -7 30 3 35 -1 22 -16
-14 -17 -35 -21 -25 -5 9 14 4 13 -59 -15 -32 -14 -55 -21 -51 -15 3 5 0 10
-7 10 -7 0 -2 9 12 20 14 10 27 17 29 15 2 -3 17 5 32 16 16 11 38 21 49 22
11 1 22 8 25 17 6 13 8 13 19 -2 8 -11 26 -18 49 -18z m685 16 c16 -10 372
-15 378 -5 2 4 -17 10 -43 12 l-48 3 57 2 c47 2 56 -1 52 -13 -4 -10 0 -15 11
-15 9 0 14 -4 10 -9 -3 -5 0 -11 7 -14 7 -2 4 -2 -7 1 -11 3 -60 7 -109 9 -66
3 -91 1 -97 -9 -7 -10 -9 -10 -9 0 0 7 -13 12 -30 12 -22 0 -33 -6 -40 -22
l-9 -23 0 23 c-1 20 -5 23 -33 20 -34 -3 -35 -7 -24 -55 3 -16 1 -20 -10 -16
-8 3 -13 12 -10 19 3 8 1 14 -4 14 -6 0 -10 -5 -10 -12 0 -6 -9 -3 -20 7 -19
18 -20 17 -20 -3 0 -22 -24 -30 -35 -12 -3 6 -1 10 5 10 6 0 8 5 4 11 -5 8
-10 6 -16 -5 -9 -15 -12 -16 -26 -3 -10 8 -27 13 -40 12 -15 -1 -21 3 -20 14
2 12 -6 16 -32 17 -19 0 -40 -3 -47 -8 -7 -5 -14 -5 -18 2 -3 5 -31 10 -61 10
-53 0 -55 -1 -49 -22 l6 -23 -20 24 c-12 13 -21 18 -21 12 0 -8 -4 -8 -14 1
-21 20 12 25 140 24 77 -1 110 2 107 10 -5 12 125 12 145 0z m585 7 c-27 -5
-30 -20 -5 -26 13 -4 11 -5 -5 -6 -15 -1 -23 5 -24 17 -1 16 -2 16 -6 0 -3
-11 -14 -18 -26 -17 -21 0 -21 1 -2 9 27 11 7 18 -60 23 -27 2 -5 4 50 4 55 0
90 -2 78 -4z m78 -2 c-7 -5 -10 -14 -7 -20 4 -6 2 -11 -3 -11 -6 0 -11 6 -11
14 0 8 -8 17 -17 19 -10 3 -2 5 17 6 24 0 30 -2 21 -8z m-1318 -8 c-7 -2 -21
-2 -30 0 -10 3 -4 5 12 5 17 0 24 -2 18 -5z m200 -6 c3 -8 -5 -14 -24 -15 -16
-1 -29 3 -29 9 0 6 8 8 20 4 11 -4 20 -2 20 4 0 15 7 14 13 -2z m942 -7 c3 -5
-1 -10 -9 -10 -9 0 -16 5 -16 10 0 6 4 10 9 10 6 0 13 -4 16 -10z m-1008 -6
c-3 -3 -12 -4 -19 -1 -8 3 -5 6 6 6 11 1 17 -2 13 -5z m73 -34 c0 -27 -24 -31
-36 -5 -10 20 -8 23 13 23 15 0 23 -6 23 -18z m306 11 c-9 -15 5 -42 18 -34 6
4 17 8 24 9 10 2 10 -1 2 -11 -10 -12 -6 -14 19 -10 17 2 31 -1 31 -7 0 -6 -9
-8 -20 -5 -10 3 -21 0 -22 -5 -2 -6 -18 -2 -38 8 -27 14 -34 24 -32 42 2 12 8
22 13 22 6 0 8 -4 5 -9z m612 -28 c-3 -20 -3 -20 -23 0 -16 16 -17 19 -3 14
13 -4 16 -2 11 11 -5 13 -3 14 6 6 7 -7 11 -21 9 -31z m37 -4 c-1 -22 -7 -45
-12 -50 -5 -5 -8 5 -5 29 7 70 21 88 17 21z m221 30 c4 -8 9 -7 15 2 6 9 9 1
9 -23 0 -24 -5 -38 -12 -39 -10 0 -10 -2 0 -6 9 -3 12 -59 11 -231 -1 -125 -4
-216 -8 -202 -4 16 -9 21 -14 13 -4 -6 -16 -10 -27 -8 -11 2 -20 0 -20 -6 0
-12 -52 0 -61 14 -4 5 -12 7 -18 3 -13 -8 -91 14 -91 26 0 12 -28 10 -36 -3
-3 -6 0 -16 7 -21 10 -7 8 -8 -8 -3 -12 3 -24 1 -27 -4 -4 -6 -14 -7 -24 -4
-14 6 -15 4 -4 -9 10 -13 10 -18 1 -24 -8 -4 -9 -3 -5 4 4 7 1 12 -9 12 -9 0
-13 -4 -10 -10 3 -5 2 -10 -4 -10 -5 0 -13 5 -16 10 -3 6 -15 10 -26 10 -11 0
-18 -4 -15 -8 2 -4 -4 -8 -14 -8 -10 0 -16 5 -13 10 4 5 -1 7 -10 3 -10 -3
-17 -3 -17 1 0 4 -16 12 -35 18 -27 8 -35 8 -39 -3 -3 -7 -12 -13 -19 -13 -10
0 -13 -8 -10 -24 4 -19 0 -25 -22 -30 -15 -4 -30 -5 -33 -2 -6 7 -32 -28 -48
-64 -10 -21 -11 -17 -7 28 4 48 2 56 -19 70 -12 9 -27 16 -32 14 -5 -2 -1 9 9
24 9 14 13 24 7 20 -16 -10 -22 20 -22 105 0 56 4 79 13 79 9 0 8 3 -2 9 -11
7 -10 13 4 35 21 32 25 33 17 4 -4 -17 -2 -20 11 -15 12 4 14 2 10 -11 -3 -9
-2 -14 2 -9 5 4 9 17 10 29 1 12 7 24 15 26 7 3 10 0 7 -5 -4 -6 7 -10 23 -11
20 0 30 4 30 14 0 8 5 14 10 14 7 0 7 -6 0 -20 -12 -23 -2 -26 25 -6 10 7 26
11 35 9 10 -3 20 3 24 14 6 14 5 16 -5 6 -15 -15 -33 -17 -24 -4 3 5 0 13 -7
17 -8 5 -4 10 10 15 15 6 22 17 22 34 0 14 3 25 8 26 4 0 23 2 43 4 32 3 36 1
32 -16 -3 -10 -1 -19 5 -19 6 0 12 10 14 23 2 17 9 21 28 19 14 -2 40 -4 59
-4 18 0 28 -4 22 -8 -7 -3 -9 -15 -5 -24 4 -11 2 -21 -6 -26 -11 -7 -10 -11 3
-24 8 -9 23 -16 31 -16 9 0 16 -7 16 -15 0 -21 12 -19 44 6 22 17 30 19 39 9
9 -10 9 -12 -4 -7 -9 3 -21 -4 -28 -16 -11 -18 -11 -20 0 -9 18 17 30 15 22
-4 -5 -13 -2 -15 14 -10 35 11 97 10 101 -2 2 -8 8 -7 19 3 8 8 19 13 24 10 5
-4 9 -1 9 4 0 14 -27 14 -35 1 -9 -15 -27 -1 -21 17 3 8 1 11 -4 8 -16 -10
-12 12 6 29 18 18 30 20 39 6 13 -21 20 -8 23 41 2 31 -2 57 -10 67 -10 12
-10 16 0 19 18 7 15 23 -10 44 -11 11 -16 19 -10 19 6 0 14 -5 18 -11z m-1146
-3 c0 -3 -4 -8 -10 -11 -5 -3 -10 -1 -10 4 0 6 5 11 10 11 6 0 10 -2 10 -4z
m120 -24 c0 -15 -2 -15 -10 -2 -13 20 -13 33 0 25 6 -3 10 -14 10 -23z m410
-4 c1 -29 2 -31 11 -14 10 16 13 14 30 -24 11 -24 18 -45 15 -47 -6 -6 -74 41
-80 55 -3 7 -1 22 4 32 7 13 6 20 -3 23 -7 3 -5 6 6 6 13 1 17 -7 17 -31z
m207 -20 c-2 -13 -4 -5 -4 17 -1 22 1 32 4 23 2 -10 2 -28 0 -40z m-1070 -10
c-3 -7 -5 -2 -5 12 0 14 2 19 5 13 2 -7 2 -19 0 -25z m1001 14 c6 -18 -15 -14
-22 4 -4 10 -1 14 6 12 6 -2 14 -10 16 -16z m-1019 -14 c-1 -17 -2 -19 -6 -6
-4 15 -8 16 -25 7 -15 -8 -17 -13 -9 -19 9 -5 8 -9 -4 -13 -9 -4 -13 -3 -10 3
8 13 -1 13 -25 0 -13 -7 -19 -6 -24 5 -3 8 0 17 6 21 7 4 8 3 4 -4 -4 -7 -2
-12 3 -12 6 0 11 8 11 18 0 11 3 13 8 5 5 -8 13 -8 32 2 35 20 40 18 39 -7z
m346 12 c3 -5 1 -10 -4 -10 -6 0 -11 5 -11 10 0 6 2 10 4 10 3 0 8 -4 11 -10z
m95 0 c-19 -13 -30 -13 -30 0 0 6 10 10 23 10 18 0 19 -2 7 -10z m620 0 c0 -5
-5 -10 -11 -10 -5 0 -7 5 -4 10 3 6 8 10 11 10 2 0 4 -4 4 -10z m156 -17 c-3
-8 -1 -11 4 -8 6 3 10 -1 10 -9 0 -22 -27 -20 -32 2 -6 23 1 44 14 36 5 -3 7
-13 4 -21z m128 -22 c-5 -6 -24 10 -35 32 -10 20 -9 20 14 -3 13 -14 23 -27
21 -29z m136 39 c0 -5 -4 -10 -10 -10 -5 0 -10 5 -10 10 0 6 5 10 10 10 6 0
10 -4 10 -10z m-1088 -15 c0 -5 -5 -11 -11 -13 -6 -2 -11 4 -11 13 0 9 5 15
11 13 6 -2 11 -8 11 -13z m595 -17 c-3 -8 -6 -5 -6 6 -1 11 2 17 5 13 3 -3 4
-12 1 -19z m419 3 c0 -11 -4 -17 -8 -15 -4 3 -8 12 -8 20 0 8 4 14 8 14 4 0 8
-9 8 -19z m90 -18 c-7 -7 -26 7 -26 19 0 6 6 6 15 -2 9 -7 13 -15 11 -17z
m-1568 -35 c2 -4 13 -3 24 3 11 6 22 9 24 6 2 -2 -7 -9 -21 -15 -19 -9 -27 -8
-39 3 -18 19 -26 19 -26 1 0 -8 -5 -18 -12 -22 -6 -4 -8 -3 -4 4 3 6 2 13 -4
17 -5 3 -10 -3 -10 -14 0 -12 -4 -21 -10 -21 -13 0 -13 16 1 42 10 18 8 19
-11 13 -19 -6 -20 -5 -9 13 12 20 13 20 53 -1 23 -12 42 -25 44 -29z m912 42
c-19 -13 -30 -13 -30 0 0 6 10 10 23 10 18 0 19 -2 7 -10z m185 0 c3 -5 1 -10
-4 -10 -6 0 -11 5 -11 10 0 6 2 10 4 10 3 0 8 -4 11 -10z m-1017 -9 c11 -7 10
-9 -3 -14 -9 -4 -14 -3 -10 2 3 5 -1 12 -7 14 -7 3 -8 6 -3 6 6 0 16 -3 23 -8z
m612 -1 c0 -5 -4 -10 -10 -10 -5 0 -10 5 -10 10 0 6 5 10 10 10 6 0 10 -4 10
-10z m50 0 c0 -5 -2 -10 -4 -10 -3 0 -8 5 -11 10 -3 6 -1 10 4 10 6 0 11 -4
11 -10z m125 1 c10 -17 -12 -21 -25 -6 -10 12 -10 15 3 15 9 0 18 -4 22 -9z
m663 -18 c-2 -16 -12 -33 -23 -40 -24 -15 -59 -17 -50 -3 3 5 12 7 19 4 7 -3
19 3 27 12 12 16 12 17 -4 11 -13 -5 -16 -3 -10 6 26 43 46 48 41 10z m-878
13 c0 -3 -4 -8 -10 -11 -5 -3 -10 -1 -10 4 0 6 5 11 10 11 6 0 10 -2 10 -4z
m305 -16 c3 -11 3 -24 0 -30 -12 -19 -22 -10 -22 20 0 34 13 40 22 10z m515
-4 c0 -6 -11 -11 -24 -11 -16 0 -21 4 -15 11 5 6 16 11 24 11 8 0 15 -5 15
-11z m-840 -36 c0 -13 -1 -13 -10 0 -5 8 -10 22 -10 30 0 13 1 13 10 0 5 -8
10 -22 10 -30z m-729 11 c-6 -10 -7 -22 -3 -26 4 -5 1 -5 -6 -1 -7 4 -9 13 -5
19 4 7 0 6 -10 -2 -10 -8 -17 -9 -17 -3 0 11 28 31 43 32 4 0 3 -8 -2 -19z
m873 -15 c-3 -14 -10 -26 -15 -26 -5 0 -5 -7 -2 -17 4 -11 3 -14 -5 -9 -13 8
-6 53 12 72 15 17 18 11 10 -20z m601 14 c7 -21 -9 -50 -26 -50 -12 0 -11 37
1 45 6 4 8 11 5 16 -4 5 -2 9 4 9 5 0 13 -9 16 -20z m-1165 -5 c-7 -9 -15 -13
-17 -11 -7 7 7 26 19 26 6 0 6 -6 -2 -15z m860 7 c0 -5 -7 -9 -15 -9 -8 0 -12
4 -9 9 3 4 9 8 15 8 5 0 9 -4 9 -8z m-400 -27 c0 -8 -4 -15 -10 -15 -5 0 -10
7 -10 15 0 8 5 15 10 15 6 0 10 -7 10 -15z m58 -22 c6 -20 10 -39 8 -41 -2 -2
-7 6 -11 17 -8 27 -19 27 -34 -1 -9 -17 -10 -18 -5 -3 4 11 9 30 11 43 8 32
18 27 31 -15z m-738 23 c0 -3 -4 -8 -10 -11 -5 -3 -10 -1 -10 4 0 6 5 11 10
11 6 0 10 -2 10 -4z m970 -4 c0 -5 -7 -9 -15 -9 -8 0 -12 4 -9 9 3 4 9 8 15 8
5 0 9 -4 9 -8z m-1100 -24 c0 -19 -2 -20 -10 -8 -13 19 -13 30 0 30 6 0 10
-10 10 -22z m1630 12 c0 -5 -5 -10 -11 -10 -5 0 -7 5 -4 10 3 6 8 10 11 10 2
0 4 -4 4 -10z m-1532 -37 c-17 -40 -49 -73 -69 -73 -10 0 -21 -5 -24 -10 -12
-19 -22 -1 -20 35 4 47 11 53 18 15 l6 -30 35 16 c24 12 36 26 40 45 3 16 10
29 16 29 6 0 5 -10 -2 -27z m312 -9 c-68 -37 -120 -60 -107 -48 15 16 143 83
157 83 8 0 -14 -15 -50 -35z m533 15 c5 -3 1 -9 -8 -12 -9 -4 -13 -3 -10 3 3
6 1 10 -5 10 -6 0 -8 5 -5 11 4 6 10 7 14 2 3 -4 10 -11 14 -14z m244 15 c-3
-3 -12 -4 -19 -1 -8 3 -5 6 6 6 11 1 17 -2 13 -5z m-1147 -8 c0 -3 -4 -8 -10
-11 -5 -3 -10 -1 -10 4 0 6 5 11 10 11 6 0 10 -2 10 -4z m17 -25 c1 -11 -5
-22 -13 -25 -17 -6 -18 -1 -4 25 13 24 15 24 17 0z m549 -64 c11 4 12 9 3 19
-7 9 -8 14 -1 14 20 0 21 -30 1 -41 -25 -13 -35 -4 -44 36 l-6 30 16 -32 c11
-20 22 -30 31 -26z m-159 37 c-3 -3 -12 -4 -19 -1 -8 3 -5 6 6 6 11 1 17 -2
13 -5z m13 -20 c0 -8 -19 -13 -24 -6 -3 5 1 9 9 9 8 0 15 -2 15 -3z m-146 -25
c-3 -5 2 -12 11 -15 13 -6 14 -8 3 -15 -20 -13 -28 -11 -22 6 7 18 -31 21 -42
3 -5 -8 -2 -9 9 -5 11 4 17 1 17 -9 0 -12 -4 -13 -20 -4 -20 10 -19 19 2 46
10 14 51 6 42 -7z m249 1 c3 -13 -1 -24 -14 -30 -20 -11 -22 -8 -13 28 8 27
20 29 27 2z m302 -42 c-4 -51 -4 -52 7 -18 6 19 13 37 15 40 8 10 22 -26 17
-44 -5 -15 -2 -17 23 -12 l30 7 2 -56 c2 -55 -2 -61 -40 -57 -3 1 -6 -6 -6
-14 0 -9 7 -12 19 -8 17 5 19 2 13 -30 l-7 -36 34 14 c47 20 61 8 55 -43 -2
-22 -10 -47 -17 -55 -6 -8 -9 -24 -5 -36 5 -14 2 -20 -9 -20 -9 0 -16 -4 -16
-10 0 -5 7 -10 15 -10 8 0 15 -4 15 -9 0 -13 64 -20 104 -11 35 8 35 7 21 -13
-20 -29 -19 -42 5 -44 11 -1 20 2 20 7 0 4 16 11 35 14 19 4 37 12 41 18 8 13
-14 28 -44 28 -13 0 -20 4 -17 10 4 6 20 9 37 8 18 -1 33 3 36 10 2 6 14 12
27 12 27 0 75 -19 75 -30 0 -4 16 -7 36 -8 20 -1 45 -4 54 -7 10 -3 22 0 26 6
5 9 2 10 -12 5 -15 -5 -16 -4 -7 5 6 6 9 18 6 27 -4 10 -2 13 5 8 6 -3 14 -1
18 5 4 6 19 9 37 5 21 -4 34 -1 44 11 14 17 14 17 9 1 -3 -12 0 -18 9 -18 9 0
15 10 15 24 0 20 6 25 34 28 18 2 45 1 59 -3 25 -7 26 -5 32 39 4 26 8 54 9
62 2 8 4 -70 5 -174 0 -104 -1 -187 -3 -185 -3 3 -6 24 -7 47 -2 23 -7 42 -11
42 -4 0 -8 -7 -8 -15 0 -18 -28 -19 -67 -4 -15 6 -40 11 -56 11 -25 -1 -26 0
-10 16 16 16 15 17 -1 20 -9 2 -24 -2 -32 -9 -8 -7 -33 -12 -54 -11 -41 2 -49
-5 -28 -26 9 -9 3 -12 -29 -12 -45 0 -60 -17 -34 -38 14 -11 13 -12 -9 -10
-14 2 -26 9 -26 16 -1 6 -2 17 -3 22 0 6 -8 10 -16 10 -8 0 -15 -4 -15 -10 0
-5 -13 -10 -30 -10 -29 0 -33 6 -33 45 0 6 -9 12 -19 12 -16 2 -19 -3 -15 -19
5 -17 2 -19 -19 -15 -14 2 -24 -1 -24 -7 0 -6 -5 -4 -10 4 -9 13 -11 13 -20 0
-15 -22 -12 -30 10 -30 11 0 20 -4 20 -8 0 -12 49 -13 71 -2 13 7 19 7 19 0 0
-5 -7 -10 -15 -10 -8 0 -15 -4 -15 -9 0 -5 -7 -17 -16 -25 -14 -14 -12 -15 16
-12 17 2 33 -1 36 -6 3 -4 2 -8 -3 -7 -4 1 -25 1 -47 0 -29 -1 -37 -4 -32 -16
4 -12 -5 -15 -48 -15 -34 0 -56 5 -59 13 -4 9 -7 9 -14 0 -6 -9 -47 -12 -133
-11 -106 0 -120 2 -90 11 19 6 44 19 54 29 11 10 34 20 52 24 46 8 57 54 13
54 -10 0 -25 10 -33 22 -14 20 -14 23 -1 31 9 4 24 5 35 2 14 -4 20 -2 20 9 0
9 -11 18 -24 22 -13 3 -34 16 -45 28 -22 23 -61 25 -86 5 -6 -4 -30 -11 -54
-15 -43 -7 -43 -7 -31 16 10 19 9 27 -10 54 l-21 31 25 -28 c14 -15 26 -24 26
-18 0 5 9 7 20 4 23 -6 27 9 6 26 -10 9 -16 9 -21 1 -5 -8 -11 -8 -21 1 -21
17 -17 24 20 39 37 14 50 38 47 85 -1 23 0 27 8 15 9 -13 11 -13 11 3 0 9 -4
17 -10 17 -5 0 -10 25 -10 55 0 32 -4 55 -11 55 -6 0 -8 -9 -4 -21 5 -14 3
-19 -3 -15 -6 3 -12 0 -15 -6 -3 -7 -5 -2 -4 12 1 14 5 28 9 31 5 3 11 23 13
44 3 22 10 44 16 50 7 7 9 6 7 -4 -5 -22 20 -24 27 -2 10 34 13 24 10 -31z
m-377 22 c11 -18 10 -20 -18 -20 -27 0 -30 -3 -30 -34 0 -31 3 -34 36 -38 33
-4 35 -2 32 21 -1 14 2 27 7 29 6 1 11 -7 11 -18 2 -31 3 -31 23 -20 12 6 21
24 24 43 4 31 4 31 5 -6 2 -34 -1 -39 -35 -55 -21 -9 -39 -20 -41 -24 -2 -4
-10 -1 -19 7 -8 8 -23 15 -34 15 -15 0 -19 7 -19 36 0 30 25 83 40 84 3 0 11
-9 18 -20z m-428 -26 c16 -29 7 -40 -42 -50 -17 -4 -25 -11 -21 -20 6 -16 30
-19 35 -3 2 5 10 7 19 4 10 -4 15 -17 15 -40 -2 -31 -16 -65 -16 -36 0 12 -36
11 -90 -1 -9 -2 -16 11 -20 35 -6 33 -5 37 11 32 20 -7 39 19 32 45 -3 12 -11
16 -24 13 -19 -5 -19 -6 -2 -26 18 -19 17 -20 -4 -8 -25 13 -33 57 -9 48 17
-7 76 13 76 25 0 18 28 6 40 -18z m291 -33 l31 -19 -38 -18 c-52 -23 -52 -24
-30 -40 19 -13 18 -14 -13 -14 -25 0 -32 -4 -28 -14 3 -8 -1 -17 -10 -20 -14
-6 -14 -8 3 -21 11 -8 14 -15 7 -15 -7 0 -13 -9 -13 -20 0 -11 -6 -20 -12 -20
-16 0 -23 76 -8 85 6 4 5 18 -5 41 -7 18 -11 34 -7 34 4 0 0 5 -8 10 -12 8
-11 10 7 10 27 0 73 20 73 32 0 13 17 9 51 -11z m139 -11 c0 -5 -7 -10 -15
-10 -8 0 -15 5 -15 10 0 6 7 10 15 10 8 0 15 -4 15 -10z m155 1 c3 -5 1 -12
-5 -16 -5 -3 -10 1 -10 9 0 18 6 21 15 7z m-529 -44 c-2 -13 -8 -32 -13 -42
-10 -17 -11 -17 -10 7 1 14 6 24 11 20 5 -3 7 2 3 10 -3 9 -3 19 0 22 10 10
11 7 9 -17z m451 -9 c-3 -8 -6 -5 -6 6 -1 11 2 17 5 13 3 -3 4 -12 1 -19z
m163 -3 c0 -7 4 -15 9 -17 5 -1 2 -10 -7 -18 -14 -13 -15 -12 -9 3 3 9 2 19
-3 22 -6 4 -10 13 -10 21 0 8 5 12 10 9 6 -3 10 -12 10 -20z m40 3 c0 -12 -1
-19 -3 -17 -1 2 -9 12 -16 22 -12 14 -11 17 3 17 10 0 16 -8 16 -22z m-546
-25 c4 -9 1 -20 -6 -25 -21 -13 -25 -9 -20 17 5 29 17 32 26 8z m326 -9 c0
-14 4 -23 10 -19 6 4 10 -7 9 -27 -1 -31 -1 -32 -9 -8 -7 22 -8 21 -9 -12 -1
-38 -21 -55 -21 -19 0 21 -23 44 -34 34 -4 -4 -5 6 -2 22 2 17 5 33 5 37 1 6
20 13 44 17 4 0 7 -11 7 -25z m-402 -32 c-5 -2 -15 -1 -24 2 -12 5 -13 10 -3
27 l11 21 12 -23 c7 -13 8 -26 4 -27z m626 -2 c6 0 17 5 24 12 9 9 12 8 12 -4
0 -10 -10 -18 -22 -20 -13 -2 -22 -9 -20 -16 1 -8 -2 -11 -8 -7 -6 4 -17 1
-25 -5 -13 -10 -15 -8 -15 14 0 15 4 25 9 21 5 -3 13 5 17 17 7 19 9 20 12 6
2 -10 9 -18 16 -18z m762 20 c8 0 13 -6 12 -12 -2 -7 5 -12 15 -12 9 1 17 -2
17 -6 0 -4 8 -11 18 -14 9 -3 26 -12 38 -19 18 -10 19 -14 7 -25 -7 -7 -21
-11 -31 -8 -9 3 -20 6 -24 7 -4 0 -21 4 -38 9 -16 5 -29 5 -29 2 4 -23 -3 -42
-14 -42 -8 0 -12 13 -11 38 1 20 -2 44 -6 52 -10 21 -1 42 17 36 8 -3 21 -6
29 -6z m-62 -59 c-3 -3 -9 0 -13 8 -5 7 -12 12 -17 12 -5 -1 -10 9 -10 21 -1
21 0 20 22 -7 13 -16 21 -32 18 -34z m-1377 7 c-3 -7 -5 -2 -5 12 0 14 2 19 5
13 2 -7 2 -19 0 -25z m93 -3 c0 -17 6 -25 18 -25 13 0 10 -6 -12 -25 -26 -22
-31 -23 -45 -11 -16 15 -64 24 -129 25 -18 1 -31 5 -28 9 7 12 66 13 66 1 0
-6 7 -6 18 0 13 7 22 7 30 -1 6 -6 22 -8 36 -4 19 5 26 13 26 31 0 14 5 25 10
25 6 0 10 -11 10 -25z m1104 0 c-10 -8 -23 -15 -28 -15 -6 0 -1 7 10 15 10 8
23 15 28 15 6 0 1 -7 -10 -15z m63 3 c0 -7 4 -21 8 -31 6 -13 3 -16 -9 -11 -9
3 -16 14 -16 23 0 14 -2 14 -10 1 -8 -13 -10 -13 -10 2 0 14 12 25 31 27 3 1
6 -5 6 -11z m63 1 c0 -4 -10 -6 -21 -4 -32 6 -34 13 -4 13 14 0 25 -4 25 -9z
m-1273 -14 c0 -8 -4 -15 -9 -15 -4 0 -8 7 -8 15 0 8 4 15 8 15 5 0 9 -7 9 -15z
m-195 -19 c7 4 8 2 4 -4 -12 -20 -26 -13 -25 11 1 17 2 18 6 4 2 -9 9 -14 15
-11z m368 4 c0 -11 -22 -18 -37 -12 -24 8 -14 29 12 24 14 -2 25 -8 25 -12z
m68 -10 c6 0 12 -5 12 -12 0 -6 -3 -9 -6 -5 -11 11 -64 -23 -64 -41 -1 -14 -4
-13 -20 7 -20 23 -20 23 -20 2 0 -12 -1 -24 -2 -28 -2 -3 8 -7 21 -8 13 -1 30
-10 37 -20 8 -11 21 -16 34 -12 14 3 26 -3 40 -20 27 -34 25 -43 -6 -43 -24 0
-25 2 -13 17 12 14 12 15 0 9 -10 -6 -12 -4 -7 11 5 16 1 18 -34 15 -22 -2
-46 0 -53 6 -6 5 -25 12 -42 16 l-30 8 27 -21 c14 -12 31 -21 37 -21 6 0 11
-2 11 -4 0 -2 3 -11 6 -20 5 -13 -2 -16 -35 -16 -34 0 -41 3 -41 20 0 11 -5
20 -11 20 -7 0 -9 13 -5 38 4 20 7 47 7 60 1 31 29 28 29 -4 0 -14 4 -23 10
-19 6 3 7 17 4 30 -6 22 -4 24 23 16 31 -8 63 -4 63 9 0 5 -6 10 -12 13 -7 2
-4 3 7 1 11 -2 26 -4 33 -4z m34 -22 c-7 -7 -12 -20 -12 -29 0 -24 -19 -34
-33 -19 -9 10 -8 12 6 7 11 -4 17 -1 17 9 0 8 -4 13 -9 9 -5 -3 -12 -1 -16 5
-3 5 3 10 15 10 11 0 23 7 27 15 3 9 8 13 11 10 3 -3 0 -11 -6 -17z m204 -10
c9 -13 -26 -48 -48 -48 -10 0 -34 -7 -54 -15 -19 -8 -32 -10 -29 -6 2 5 -2 12
-11 15 -8 3 -13 2 -10 -3 10 -16 -22 -20 -34 -5 -7 8 -9 14 -4 14 5 0 2 5 -6
10 -26 16 2 33 34 20 23 -8 34 -7 61 10 39 24 46 25 38 4 -4 -12 -2 -15 8 -12
8 3 13 12 11 21 -2 11 3 14 18 10 11 -3 23 -10 26 -15z m500 3 c0 -16 -3 -17
-14 -9 -12 10 -7 19 13 28 1 0 1 -9 1 -19z m232 -6 c-3 -3 -9 2 -12 12 -6 14
-5 15 5 6 7 -7 10 -15 7 -18z m-1378 5 c0 -5 -2 -10 -4 -10 -3 0 -8 5 -11 10
-3 6 -1 10 4 10 6 0 11 -4 11 -10z m37 4 c-3 -3 -12 -4 -19 -1 -8 3 -5 6 6 6
11 1 17 -2 13 -5z m101 1 c-2 -2 -20 -5 -39 -7 -18 -1 -37 -7 -41 -13 -5 -6
-8 -4 -8 6 0 13 11 17 46 17 26 1 45 -1 42 -3z m93 -71 c-2 -76 -6 -88 -20
-52 -5 14 -17 28 -26 31 -13 6 -14 11 -4 28 6 12 7 19 2 16 -5 -3 -15 -2 -22
2 -8 6 -2 10 18 14 18 4 34 14 37 22 11 29 17 7 15 -61z m1059 66 c0 -5 -4
-10 -10 -10 -5 0 -10 -9 -10 -19 0 -11 -3 -26 -6 -35 -5 -14 -8 -14 -21 -1
-13 13 -12 19 9 44 24 31 38 38 38 21z m160 -10 c0 -14 -6 -20 -22 -19 -17 1
-19 2 -5 6 9 2 17 11 17 19 0 8 2 14 5 14 3 0 5 -9 5 -20z m76 -3 c8 3 14 1
14 -5 0 -14 -35 -21 -51 -11 -12 8 -11 11 1 19 9 5 16 6 18 0 2 -5 10 -6 18
-3z m-1491 -18 c4 -5 -5 -9 -19 -9 -14 0 -26 4 -26 8 0 11 39 12 45 1z m104
-5 c2 -2 -12 -4 -33 -4 -22 0 -35 4 -31 10 5 9 52 4 64 -6z m1071 -20 c0 -2
-9 -4 -21 -4 -11 0 -18 4 -14 10 5 8 35 3 35 -6z m-98 -35 c-3 -25 -25 -45
-30 -28 -2 5 0 17 4 27 4 9 6 21 5 25 -1 5 4 7 11 4 7 -2 12 -15 10 -28z
m-652 6 c7 -9 8 -15 2 -15 -5 0 -12 7 -16 15 -3 8 -4 15 -2 15 2 0 9 -7 16
-15z m970 11 c0 -3 -4 -8 -10 -11 -5 -3 -10 -1 -10 4 0 6 5 11 10 11 6 0 10
-2 10 -4z m-195 -16 c-6 -10 -55 -19 -55 -10 0 12 10 18 35 18 14 0 23 -4 20
-8z m-1237 -30 c7 0 12 -4 12 -10 0 -5 -13 -10 -30 -10 -26 0 -30 4 -30 27 0
25 1 25 18 10 10 -10 24 -17 30 -17z m192 10 c0 -5 -4 -10 -10 -10 -5 0 -10 5
-10 10 0 6 5 10 10 10 6 0 10 -4 10 -10z m537 -16 c-3 -3 -12 -4 -19 -1 -8 3
-5 6 6 6 11 1 17 -2 13 -5z m-714 -41 c-7 -2 -21 -2 -30 0 -10 3 -4 5 12 5 17
0 24 -2 18 -5z m44 1 c-3 -3 -12 -4 -19 -1 -8 3 -5 6 6 6 11 1 17 -2 13 -5z
m610 -26 c-3 -8 -6 -5 -6 6 -1 11 2 17 5 13 3 -3 4 -12 1 -19z m-644 -5 c-7
-2 -21 -2 -30 0 -10 3 -4 5 12 5 17 0 24 -2 18 -5z m624 1 c-3 -3 -12 -4 -19
-1 -8 3 -5 6 6 6 11 1 17 -2 13 -5z m923 -40 c0 -2 -13 -4 -30 -4 -16 0 -30 4
-30 8 0 5 14 7 30 4 17 -2 30 -6 30 -8z m-125 -14 c3 -5 -3 -10 -14 -10 -12 0
-21 5 -21 10 0 6 6 10 14 10 8 0 18 -4 21 -10z m-515 -10 c0 -5 -7 -10 -16
-10 -8 0 -12 5 -9 10 3 6 10 10 16 10 5 0 9 -4 9 -10z m677 -16 c-3 -3 -12 -4
-19 -1 -8 3 -5 6 6 6 11 1 17 -2 13 -5z m110 0 c-3 -3 -12 -4 -19 -1 -8 3 -5
6 6 6 11 1 17 -2 13 -5z m-280 -36 c-3 -8 -6 -5 -6 6 -1 11 2 17 5 13 3 -3 4
-12 1 -19z m63 -9 c0 -5 9 -9 19 -9 11 0 23 -5 26 -11 4 -6 25 -9 46 -8 21 2
39 -1 39 -6 0 -15 -99 -18 -117 -4 -11 10 -16 10 -22 0 -5 -7 -19 -14 -32 -16
-13 -1 -33 -6 -44 -11 -18 -7 -19 -7 -4 8 9 9 29 18 44 20 27 3 28 4 12 20
-23 22 -22 26 8 26 14 0 25 -4 25 -9z m70 -10 c0 -5 -4 -9 -10 -9 -5 0 -10 7
-10 16 0 8 5 12 10 9 6 -3 10 -10 10 -16z m97 15 c-3 -3 -12 -4 -19 -1 -8 3
-5 6 6 6 11 1 17 -2 13 -5z m56 -1 c-7 -2 -21 -2 -30 0 -10 3 -4 5 12 5 17 0
24 -2 18 -5z m-1354 -41 c59 -4 48 -12 -17 -12 -39 0 -62 4 -62 11 0 6 7 9 15
5 8 -3 15 0 15 7 0 8 3 8 8 2 4 -6 23 -12 41 -13z m982 8 c5 0 9 -4 9 -10 0
-6 -25 -9 -57 -9 -32 1 -47 4 -33 6 14 3 29 9 35 14 5 5 16 7 23 4 8 -3 18 -5
23 -5z m359 -7 c0 -16 -12 -17 -29 0 -11 10 -13 10 -7 0 4 -8 1 -13 -8 -13 -9
0 -16 7 -16 15 0 11 9 15 30 13 17 -1 30 -8 30 -15z m40 2 c0 -8 -7 -15 -15
-15 -26 0 -18 20 13 29 1 1 2 -6 2 -14z m-1750 -5 c0 -6 -11 -10 -25 -10 -14
0 -25 4 -25 8 0 4 11 9 25 10 14 1 25 -3 25 -8z m138 -6 c2 -1 -25 -2 -60 -2
-51 1 -56 2 -28 8 30 6 78 3 88 -6z m142 6 c0 -6 -26 -9 -62 -8 l-63 1 55 7
c30 4 58 7 63 8 4 1 7 -2 7 -8z m380 0 c18 -6 9 -8 -35 -8 -44 0 -53 2 -35 8
14 4 30 8 35 8 6 0 21 -4 35 -8z m158 -4 c3 -3 -23 -6 -57 -6 -34 0 -60 4 -57
9 6 9 104 6 114 -3z m-295 -3 c-18 -2 -48 -2 -65 0 -18 2 -4 4 32 4 36 0 50
-2 33 -4z m884 1 c-3 -3 -12 -4 -19 -1 -8 3 -5 6 6 6 11 1 17 -2 13 -5z
m-1440 -34 c-3 -13 0 -20 9 -20 8 0 13 3 13 8 -3 17 2 32 10 32 5 0 9 -49 10
-110 1 -60 -1 -110 -5 -110 -4 0 -13 8 -20 18 -12 16 -13 16 -14 0 0 -9 9 -20
21 -23 30 -10 22 -50 -11 -50 l-25 0 -2 138 c-2 95 1 137 8 137 6 0 9 -9 6
-20z m432 -105 c1 -69 4 -132 8 -140 4 -11 -2 -15 -21 -15 -26 0 -36 15 -14
22 8 3 11 40 11 124 -1 108 1 134 12 134 1 0 4 -56 4 -125z m38 75 c0 -27 -4
-50 -9 -50 -4 0 -8 23 -8 50 0 28 4 50 9 50 5 0 9 -22 8 -50z m763 -2 c0 -45
1 -48 19 -38 11 5 23 10 28 10 10 -1 -58 -39 -70 -40 -5 0 -5 5 -1 12 13 21
10 96 -3 91 -7 -3 -10 -9 -7 -14 3 -6 0 -17 -8 -26 -7 -9 -8 -14 -3 -11 7 4 9
-9 8 -35 -4 -61 -6 -67 -13 -67 -4 0 -8 38 -8 83 l-2 84 30 0 c29 0 30 -2 30
-49z m468 32 c3 -9 -1 -11 -12 -7 -12 5 -15 3 -10 -6 5 -9 4 -9 -6 0 -14 13
-4 36 13 30 6 -2 13 -9 15 -17z m50 -28 c0 -62 2 -73 10 -68 5 3 7 27 4 54 -2
30 1 52 7 56 8 5 11 -14 11 -58 0 -71 -4 -75 -50 -51 -30 16 -41 29 -16 19 16
-6 19 41 4 70 -7 13 -7 16 1 12 6 -4 11 -2 11 4 0 6 4 9 9 6 5 -4 9 -23 9 -44z
m-629 27 c16 -6 31 -16 34 -22 2 -7 4 -62 4 -123 l0 -111 -71 -7 c-96 -8 -533
-8 -574 0 -27 6 -32 11 -32 35 0 16 5 29 11 29 8 0 8 4 1 13 -14 18 -16 164
-1 173 8 4 9 3 5 -4 -4 -7 -2 -12 3 -12 6 0 11 -18 11 -41 0 -33 3 -40 16 -35
9 3 24 6 35 6 14 0 19 7 19 30 0 29 -14 37 -52 31 -5 0 -8 4 -8 9 0 6 10 11
23 11 16 1 18 2 5 6 -10 2 -18 9 -18 14 0 13 551 11 589 -2z m151 7 c0 -2 -7
-9 -15 -16 -13 -11 -14 -10 -9 4 5 14 24 23 24 12z m153 -8 c3 -8 -4 -13 -17
-13 -11 -1 -32 -4 -46 -8 -14 -4 -7 2 15 13 22 11 41 20 41 20 1 0 4 -6 7 -12z
m214 6 c-3 -3 -12 -4 -19 -1 -8 3 -5 6 6 6 11 1 17 -2 13 -5z m-1473 -29 c11
-8 16 -18 11 -22 -4 -5 -10 -2 -12 5 -3 6 -8 10 -13 7 -4 -3 -10 2 -14 10 -7
19 3 19 28 0z m73 9 c-3 -3 -12 -4 -19 -1 -8 3 -5 6 6 6 11 1 17 -2 13 -5z
m73 -24 c0 -16 -5 -30 -11 -30 -5 0 -8 4 -4 9 3 5 1 12 -4 16 -12 7 -3 35 10
35 5 0 9 -13 9 -30z m970 21 c0 -5 -7 -12 -16 -15 -14 -5 -15 -4 -4 9 14 17
20 19 20 6z m315 -1 c3 -6 -1 -7 -9 -4 -18 7 -21 14 -7 14 6 0 13 -4 16 -10z
m-1459 -33 c18 -10 18 -31 0 -24 -7 3 -19 0 -26 -6 -10 -9 -11 -9 -6 1 4 7 2
20 -5 28 -10 13 -10 17 2 24 9 6 15 5 18 -3 2 -7 10 -16 17 -20z m1574 2 c0
-4 -11 -6 -24 -5 -23 1 -23 2 -9 19 13 13 18 15 25 5 4 -7 8 -16 8 -19z
m-1456 13 c2 -4 -4 -9 -15 -9 -11 -1 -17 2 -14 8 7 11 22 12 29 1z m136 -17
c0 -14 -2 -25 -4 -25 -2 0 -6 11 -8 25 -3 14 -1 25 3 25 5 0 9 -11 9 -25z
m-318 -17 c-9 -9 -12 -7 -12 12 0 19 3 21 12 12 9 -9 9 -15 0 -24z m285 0 c-3
-7 -5 -2 -5 12 0 14 2 19 5 13 2 -7 2 -19 0 -25z m-143 6 c4 -10 1 -14 -6 -12
-15 5 -23 28 -10 28 5 0 13 -7 16 -16z m341 -5 c11 -16 1 -19 -13 -3 -7 8 -8
14 -3 14 5 0 13 -5 16 -11z m972 -31 c2 -17 0 -19 -7 -8 -5 8 -6 18 -4 22 8
12 10 10 11 -14z m-1058 -53 c1 -36 -2 -65 -7 -65 -5 0 -10 29 -11 65 -1 36 2
65 7 65 5 0 10 -29 11 -65z m1061 15 c-8 -5 -19 -10 -25 -10 -5 0 -3 5 5 10 8
5 20 10 25 10 6 0 3 -5 -5 -10z m250 -60 l0 -60 -51 0 c-27 0 -48 4 -45 9 3 5
15 7 27 4 16 -5 20 -1 19 13 -4 34 0 54 10 54 6 0 8 -13 5 -30 -3 -17 -1 -30
5 -30 5 0 10 15 10 34 0 33 8 66 16 66 2 0 4 -27 4 -60z m-589 20 c2 -20 5
-54 8 -67 1 -5 5 -2 10 6 5 7 6 28 4 47 -3 21 0 34 6 34 6 0 11 -20 11 -46 0
-25 4 -43 9 -39 5 3 12 1 16 -5 4 -6 -9 -10 -34 -10 -42 0 -63 16 -40 31 8 5
9 9 4 9 -6 0 -12 14 -13 30 -1 17 2 30 8 30 5 0 11 -9 11 -20z m519 0 c0 -5
-7 -10 -15 -10 -8 0 -15 5 -15 10 0 6 7 10 15 10 8 0 15 -4 15 -10z m-426 -16
c7 -19 -1 -34 -19 -34 -18 0 -28 17 -21 35 7 20 32 19 40 -1z m-814 -38 c0 -3
-4 -8 -10 -11 -5 -3 -10 -1 -10 4 0 6 5 11 10 11 6 0 10 -2 10 -4z m-360 -22
c0 -2 -13 -4 -30 -4 -16 0 -30 4 -30 8 0 5 14 7 30 4 17 -2 30 -6 30 -8z m55
6 c4 -6 -5 -10 -20 -10 -15 0 -24 4 -20 10 3 6 12 10 20 10 8 0 17 -4 20 -10z
m140 -1 c-7 -11 -112 -12 -118 -1 -3 4 24 8 59 9 38 1 62 -2 59 -8z m75 -5 c0
-2 -12 -4 -27 -4 -21 0 -24 3 -14 9 13 8 41 5 41 -5z m983 -1 c-18 -2 -48 -2
-65 0 -18 2 -4 4 32 4 36 0 50 -2 33 -4z m280 0 c-13 -2 -33 -2 -45 0 -13 2
-3 4 22 4 25 0 35 -2 23 -4z"/>
<path d="M340 1519 c0 -5 5 -7 10 -4 6 3 10 8 10 11 0 2 -4 4 -10 4 -5 0 -10
-5 -10 -11z"/>
<path d="M380 1490 c-19 -11 -31 -19 -27 -20 11 0 67 29 67 35 0 7 -1 7 -40
-15z"/>
<path d="M725 1390 c10 -11 19 -20 21 -20 1 0 2 9 1 20 -1 13 -8 20 -21 20
-18 0 -19 -1 -1 -20z"/>
<path d="M508 1357 c-27 -11 -48 -25 -48 -30 0 -5 6 -7 14 -4 8 3 16 1 18 -4
6 -19 77 22 75 43 -2 21 1 22 -59 -5z m51 0 c-28 -21 -59 -36 -59 -29 0 9 37
30 54 31 5 1 7 0 5 -2z"/>
<path d="M1516 1319 c2 -4 -3 -12 -11 -19 -8 -7 -15 -20 -15 -29 0 -13 2 -13
9 -2 6 9 11 10 15 2 4 -6 -1 -14 -10 -18 -10 -4 -19 -2 -22 5 -2 6 -10 8 -18
5 -8 -3 -14 0 -14 7 0 6 -4 8 -10 5 -5 -3 -10 -21 -10 -40 0 -29 -4 -34 -27
-37 -20 -2 -29 -9 -31 -25 -3 -24 12 -31 23 -13 5 8 11 7 21 -1 12 -10 13 -9
8 5 -4 12 -1 16 15 16 14 0 25 -11 36 -36 21 -52 19 -61 -10 -34 -14 13 -25
20 -25 16 0 -5 -7 -3 -15 4 -14 12 -35 6 -35 -10 0 -5 11 -12 25 -16 24 -6 35
-24 15 -24 -5 0 -9 -6 -7 -12 1 -7 -3 -12 -10 -11 -6 2 -25 4 -42 5 -16 1 -28
5 -25 9 2 4 0 18 -5 31 -9 20 -10 18 -10 -19 l-1 -41 71 1 c38 0 72 4 75 9 3
4 -4 8 -15 8 -12 0 -21 5 -21 10 0 14 16 12 50 -5 25 -13 29 -13 34 0 7 19 26
20 26 1 0 -9 7 -12 20 -9 16 4 18 8 9 19 -13 16 -1 23 45 28 15 1 31 7 37 13
7 7 20 6 40 -4 37 -19 63 -11 54 17 -4 13 -2 20 7 20 10 0 9 3 -2 10 -11 7
-12 12 -3 21 8 8 13 6 18 -11 7 -21 7 -21 31 5 13 14 24 32 24 39 0 8 7 16 15
20 8 3 15 2 15 -3 0 -5 11 -8 25 -8 14 0 25 3 25 7 0 16 -32 19 -102 10 -76
-9 -85 -7 -106 22 -7 10 -17 18 -23 18 -5 0 -26 11 -47 25 -26 17 -49 24 -79
22 -23 -1 -40 -4 -37 -8z m24 -19 c-6 -11 -15 -18 -21 -14 -6 4 -6 11 2 20 17
21 31 17 19 -6z m80 -10 c0 -5 -5 -10 -11 -10 -5 0 -7 5 -4 10 3 6 8 10 11 10
2 0 4 -4 4 -10z m-28 -42 c-7 -7 -12 -8 -12 -2 0 14 12 26 19 19 2 -3 -1 -11
-7 -17z m88 1 c0 -5 -4 -9 -10 -9 -5 0 -10 7 -10 16 0 8 5 12 10 9 6 -3 10
-10 10 -16z m-218 -30 c-2 -17 -8 -27 -13 -22 -9 9 -1 53 10 53 4 0 6 -14 3
-31z m235 -1 c-3 -8 -6 -5 -6 6 -1 11 2 17 5 13 3 -3 4 -12 1 -19z m-29 -26
c-10 -2 -18 -12 -18 -23 0 -10 -4 -19 -10 -19 -5 0 -10 13 -10 29 0 26 3 28
28 23 19 -4 22 -7 10 -10z m-105 -16 c3 -8 -1 -20 -10 -28 -14 -11 -15 -10 -9
10 6 18 4 21 -11 16 -15 -5 -16 -4 -3 5 20 14 27 14 33 -3z"/>
<path d="M1670 1300 c0 -5 5 -10 11 -10 5 0 7 5 4 10 -3 6 -8 10 -11 10 -2 0
-4 -4 -4 -10z"/>
<path d="M1370 1240 c-13 -8 -12 -10 3 -10 9 0 17 5 17 10 0 12 -1 12 -20 0z"/>
<path d="M1959 1217 c-14 -10 -15 -16 -4 -30 17 -24 22 -21 22 13 0 17 -1 30
-1 30 -1 0 -8 -6 -17 -13z"/>
<path d="M1915 1210 c-3 -5 -1 -10 4 -10 6 0 11 5 11 10 0 6 -2 10 -4 10 -3 0
-8 -4 -11 -10z"/>
<path d="M1280 1188 c0 -10 -4 -18 -10 -18 -5 0 -10 -4 -10 -9 0 -5 9 -7 20
-4 22 6 24 11 10 33 -8 13 -10 12 -10 -2z"/>
<path d="M1331 1144 c0 -11 3 -14 6 -6 3 7 2 16 -1 19 -3 4 -6 -2 -5 -13z"/>
<path d="M1868 1129 c-19 -11 -25 -39 -8 -39 6 0 14 8 17 18 4 9 11 20 17 24
17 12 -6 9 -26 -3z"/>
<path d="M1965 1130 c3 -5 8 -10 11 -10 2 0 4 5 4 10 0 6 -5 10 -11 10 -5 0
-7 -4 -4 -10z"/>
<path d="M1915 1110 c-4 -6 7 -10 27 -9 27 0 30 2 13 9 -27 12 -33 12 -40 0z"/>
<path d="M1645 1080 c-3 -5 -1 -10 4 -10 6 0 11 5 11 10 0 6 -2 10 -4 10 -3 0
-8 -4 -11 -10z"/>
<path d="M1795 1070 c-8 -13 5 -13 25 0 13 8 13 10 -2 10 -9 0 -20 -4 -23 -10z"/>
<path d="M1960 1061 c0 -5 5 -13 10 -16 6 -3 10 -2 10 4 0 5 -4 13 -10 16 -5
3 -10 2 -10 -4z"/>
<path d="M1330 980 c-12 -7 -10 -9 8 -7 12 0 22 5 22 9 0 11 -12 10 -30 -2z"/>
<path d="M1089 1158 c-9 -35 -5 -59 12 -69 18 -9 19 -8 11 8 -5 10 -8 28 -7
41 1 12 -2 22 -7 22 -4 0 -8 -1 -9 -2z"/>
<path d="M1158 1097 c7 -8 9 -16 6 -19 -2 -3 2 -8 9 -11 11 -4 13 0 10 13 -3
10 -12 21 -20 25 -12 4 -13 3 -5 -8z"/>
<path d="M1140 1040 c0 -11 5 -20 10 -20 6 0 10 9 10 20 0 11 -4 20 -10 20 -5
0 -10 -9 -10 -20z"/>
<path d="M1160 961 c0 -6 5 -13 10 -16 6 -3 10 1 10 9 0 9 -4 16 -10 16 -5 0
-10 -4 -10 -9z"/>
<path d="M1196 862 c-2 -4 7 -12 20 -19 27 -13 31 -8 10 13 -16 16 -23 17 -30
6z"/>
<path d="M1162 825 c-36 -20 -46 -32 -32 -40 7 -4 17 -1 22 6 7 11 11 11 15 2
5 -15 43 -18 43 -4 0 5 -8 12 -17 14 -17 4 -17 5 0 6 9 0 17 8 17 16 0 18 -16
18 -48 0z"/>
<path d="M1913 826 c-13 -6 -23 -14 -23 -18 0 -13 17 -9 30 6 6 8 18 12 26 9
21 -8 17 -23 -7 -23 -11 0 -17 -4 -14 -10 8 -13 50 -6 49 8 -1 7 -2 19 -2 27
-2 17 -27 18 -59 1z"/>
<path d="M1795 771 c3 -6 1 -11 -4 -11 -6 0 -11 -4 -11 -10 0 -5 11 -10 25
-10 31 0 32 11 4 28 -12 8 -18 9 -14 3z"/>
<path d="M1900 730 c0 -5 5 -10 12 -10 6 0 3 -9 -7 -20 -15 -16 -15 -20 -3
-20 8 0 20 11 26 25 16 34 15 35 -8 35 -11 0 -20 -4 -20 -10z"/>
<path d="M1277 629 c7 -7 15 -10 18 -7 3 3 -2 9 -12 12 -14 6 -15 5 -6 -5z"/>
<path d="M1340 606 c7 -7 13 -7 20 0 6 6 3 10 -10 10 -13 0 -16 -4 -10 -10z"/>
<path d="M1181 561 c-9 -6 -10 -11 -2 -15 6 -4 11 -3 11 3 0 5 8 12 18 14 12
3 13 5 2 6 -8 0 -21 -3 -29 -8z"/>
<path d="M260 1129 c0 -5 5 -7 10 -4 6 3 10 8 10 11 0 2 -4 4 -10 4 -5 0 -10
-5 -10 -11z"/>
<path d="M296 1064 c-4 -10 -1 -23 6 -31 11 -11 13 -9 13 12 -2 32 -11 41 -19
19z"/>
<path d="M1770 992 c0 -11 34 -42 45 -42 4 0 -2 8 -13 19 -12 10 -19 21 -15
25 3 3 1 6 -5 6 -7 0 -12 -4 -12 -8z"/>
<path d="M210 448 c0 -9 7 -19 16 -22 15 -6 15 -4 3 11 -7 10 -15 20 -16 22
-2 2 -3 -3 -3 -11z"/>
<path d="M207 414 c-3 -4 -2 -15 3 -25 7 -11 7 -20 0 -24 -10 -6 -3 -35 9 -35
7 0 7 77 -1 85 -2 3 -8 2 -11 -1z"/>
<path d="M220 260 c-9 -6 -10 -10 -3 -10 6 0 15 5 18 10 8 12 4 12 -15 0z"/>
<path d="M733 330 c2 -34 25 -50 35 -22 2 8 -2 10 -14 5 -9 -3 -15 -2 -12 3 3
5 2 18 -3 29 -6 15 -7 11 -6 -15z"/>
<path d="M1471 284 c0 -11 3 -14 6 -6 3 7 2 16 -1 19 -3 4 -6 -2 -5 -13z"/>
</g>
</svg>
