<?xml version="1.0" standalone="no"?>
<!DOCTYPE svg PUBLIC "-//W3C//DTD SVG 20010904//EN"
 "http://www.w3.org/TR/2001/REC-SVG-20010904/DTD/svg10.dtd">
<svg version="1.0" xmlns="http://www.w3.org/2000/svg"
 width="155.000000pt" height="156.000000pt" viewBox="0 0 155.000000 156.000000"
 preserveAspectRatio="xMidYMid meet">

<g transform="translate(0.000000,156.000000) scale(0.100000,-0.100000)"
fill="#000000" stroke="none">
<path d="M0 780 l0 -780 775 0 775 0 0 780 0 780 -775 0 -775 0 0 -780z m1538
7 l2 -757 -760 0 -760 0 2 673 c1 369 4 609 5 532 2 -77 4 -302 5 -500 l3
-360 745 0 745 0 0 580 0 580 -752 0 c-413 0 -749 3 -746 8 2 4 343 6 756 5
l752 -3 3 -758z m-1511 626 c-2 -21 -4 -4 -4 37 0 41 2 58 4 38 2 -21 2 -55 0
-75z m894 11 c68 -20 130 -56 186 -107 45 -41 110 -137 93 -137 -6 0 -10 4
-10 9 0 5 -27 36 -60 69 -87 89 -196 141 -310 149 -144 10 -260 -32 -367 -131
-59 -54 -65 -63 -100 -146 -41 -95 -42 -97 -42 -75 -2 39 41 140 79 191 65 87
174 161 267 183 64 15 205 12 264 -5z m-150 -76 c72 -33 93 -59 105 -130 13
-77 13 -79 37 -73 13 3 36 -3 55 -15 l34 -21 -6 -92 c-7 -105 8 -199 37 -239
11 -14 16 -31 13 -37 -10 -15 -56 -13 -86 4 -47 27 -59 20 -55 -29 3 -25 9
-64 14 -87 11 -47 5 -95 -13 -107 -10 -6 -196 -11 -196 -4 0 11 56 18 108 13
76 -8 99 7 88 61 -4 18 -11 64 -16 102 -5 38 -11 75 -14 81 -2 7 9 27 25 46
16 19 29 29 29 23 0 -5 -5 -15 -11 -21 -8 -8 -1 -18 24 -37 44 -34 59 -34 51
2 -25 110 -27 114 -51 85 -13 -17 -14 -16 -8 5 12 41 7 120 -9 151 -9 16 -16
34 -16 38 1 4 10 -9 21 -29 11 -21 23 -38 28 -38 5 0 12 19 15 42 6 37 4 46
-15 60 -11 10 -27 18 -34 18 -17 0 -38 -27 -31 -39 3 -5 -5 -4 -19 2 -23 11
-25 17 -24 62 2 55 -15 120 -39 148 -22 25 -32 21 -32 -14 0 -27 -3 -30 -27
-27 -36 4 -46 46 -14 55 26 7 26 12 4 29 -24 18 -58 17 -73 -1 -8 -9 -8 -15
-2 -15 6 0 18 -7 26 -16 12 -12 16 -37 16 -109 0 -100 -9 -117 -51 -95 -14 8
-27 7 -47 -2 -23 -11 -28 -21 -33 -68 -3 -30 -6 -45 -7 -32 -1 13 -7 32 -13
43 -23 44 30 93 94 87 l32 -3 0 79 c0 81 -2 86 -48 100 -24 8 -7 40 31 60 34
19 24 21 103 -16z m100 -286 c33 -30 41 -45 45 -82 l4 -45 -19 43 c-11 23 -21
42 -23 42 -2 0 -3 -19 -3 -42 0 -39 -2 -43 -25 -43 -16 0 -24 5 -22 14 5 23
-30 40 -69 34 -32 -4 -37 -2 -42 18 -10 36 -9 37 21 54 l27 16 -30 -6 c-16 -4
-38 -14 -47 -22 -21 -18 -24 -5 -5 19 21 26 50 37 100 38 42 0 53 -5 88 -38z
m-101 -138 c0 -11 -5 -14 -16 -10 -9 3 -20 6 -25 6 -6 0 -7 5 -4 10 10 16 45
12 45 -6z m30 -5 c0 -6 -4 -7 -10 -4 -5 3 -10 11 -10 16 0 6 5 7 10 4 6 -3 10
-11 10 -16z m-217 -130 l-6 -42 32 5 c27 4 30 3 18 -9 -20 -21 -70 -22 -75 -1
-3 16 22 88 32 88 2 0 2 -19 -1 -41z m112 -94 c-1 -16 -2 -54 -3 -82 -1 -30
-7 -53 -13 -53 -7 0 -9 22 -5 68 3 37 5 85 6 107 1 34 3 36 9 15 4 -14 7 -38
6 -55z m3 -164 c3 -8 -1 -12 -9 -9 -7 2 -15 10 -17 17 -3 8 1 12 9 9 7 -2 15
-10 17 -17z"/>
<path d="M34 347 c-2 -7 -3 -78 -2 -157 l3 -145 745 0 745 0 3 125 c2 69 0
140 -3 158 l-6 32 -740 0 c-596 0 -741 -3 -745 -13z m412 -99 c-9 -12 -16 -32
-16 -43 0 -11 7 -31 16 -43 8 -12 10 -22 5 -22 -6 0 -18 11 -27 25 -19 29 -11
80 14 95 24 14 25 13 8 -12z m94 12 c0 -13 -11 -13 -30 0 -12 8 -11 10 8 10
12 0 22 -4 22 -10z m237 -102 c-2 -18 -4 -4 -4 32 0 36 2 50 4 33 2 -18 2 -48
0 -65z m83 72 c24 -24 25 -39 6 -65 -13 -18 -14 -18 -9 8 4 20 -1 35 -17 53
-28 29 -9 33 20 4z m-152 -2 c15 -15 16 -64 2 -73 -6 -4 -10 6 -10 24 0 16 -7
37 -16 45 -12 13 -12 16 -2 16 8 0 19 -5 26 -12z m227 -37 c0 -38 -3 -47 -12
-39 -16 13 -17 60 -1 76 7 7 12 12 13 12 0 0 0 -22 0 -49z m99 33 c10 -25 7
-62 -5 -70 -7 -4 -9 0 -5 12 3 11 -1 31 -9 47 -11 22 -11 27 0 27 7 0 16 -7
19 -16z m76 5 c0 -7 11 -22 25 -35 17 -16 23 -28 18 -41 -7 -16 -8 -16 -11 -1
-2 9 -14 24 -28 32 -23 16 -34 56 -14 56 6 0 10 -5 10 -11z m-506 -23 c-3 -13
-1 -34 6 -45 15 -29 4 -26 -15 3 -13 19 -14 29 -5 45 15 28 22 26 14 -3z m-64
-36 c0 -16 -4 -30 -10 -30 -5 0 -10 14 -10 30 0 17 5 30 10 30 6 0 10 -13 10
-30z"/>
<path d="M750 1280 c0 -5 5 -10 10 -10 6 0 10 5 10 10 0 6 -4 10 -10 10 -5 0
-10 -4 -10 -10z"/>
</g>
</svg>
