<?xml version="1.0" standalone="no"?>
<!DOCTYPE svg PUBLIC "-//W3C//DTD SVG 20010904//EN"
 "http://www.w3.org/TR/2001/REC-SVG-20010904/DTD/svg10.dtd">
<svg version="1.0" xmlns="http://www.w3.org/2000/svg"
 width="300.000000pt" height="168.000000pt" viewBox="0 0 300.000000 168.000000"
 preserveAspectRatio="xMidYMid meet">

<g transform="translate(0.000000,168.000000) scale(0.100000,-0.100000)"
fill="#000000" stroke="none">
<path d="M1 1098 c0 -321 3 -577 6 -570 2 6 15 12 28 12 21 0 24 4 20 30 -2
17 1 30 6 30 5 0 9 7 9 16 0 13 3 14 14 5 11 -9 17 -8 29 4 9 8 20 15 26 15 5
0 13 5 17 11 5 8 -1 10 -20 7 -26 -5 -26 -5 -10 13 9 11 24 19 33 19 13 0 16
-9 14 -45 -2 -34 1 -45 12 -45 8 0 15 -4 15 -10 0 -5 7 -10 16 -10 8 0 12 5 9
10 -3 6 -2 10 4 10 5 0 15 -8 20 -17 10 -17 10 -17 11 -1 0 9 5 20 12 24 6 4
8 3 5 -3 -3 -5 8 -20 25 -33 24 -17 32 -20 38 -9 7 10 14 10 35 1 34 -16 36
-15 28 5 -4 11 -3 14 5 9 7 -4 12 -1 12 9 0 11 6 15 17 11 16 -5 18 1 17 42 0
26 -4 55 -8 64 -4 9 -9 22 -11 30 -10 43 -18 56 -31 51 -10 -4 -14 3 -14 22 0
15 4 24 10 20 6 -3 10 -2 10 3 0 6 -7 13 -16 16 -10 4 -13 2 -8 -6 5 -8 2 -9
-9 -5 -18 7 -24 -8 -7 -18 6 -4 8 -11 4 -16 -3 -6 2 -19 12 -30 17 -19 17 -20
-2 -14 -18 6 -18 6 -2 -8 10 -8 15 -17 11 -21 -4 -4 0 -4 10 0 10 3 17 1 17
-5 0 -7 -7 -14 -15 -17 -8 -4 -15 -12 -15 -20 0 -24 -17 -15 -30 16 -13 30
-30 40 -30 18 0 -9 -3 -10 -8 -2 -4 6 -14 14 -22 18 -9 3 -6 5 7 2 12 -2 30 3
40 11 17 14 17 14 1 9 -12 -4 -18 0 -19 12 0 10 -3 12 -6 5 -2 -7 -11 -13 -18
-13 -8 0 -18 -7 -23 -16 -7 -12 -9 -8 -10 17 -1 24 2 29 8 19 8 -13 10 -13 10
0 0 13 1 13 10 0 8 -12 10 -12 16 3 3 9 11 14 18 10 6 -3 8 -3 4 1 -4 5 -3 18
2 31 8 22 7 22 -28 14 -51 -12 -60 -11 -40 5 10 7 15 16 11 19 -6 6 23 11 56
10 9 -1 10 2 2 10 -15 15 -14 30 1 21 7 -4 8 -3 4 4 -4 7 -16 12 -27 12 -25 0
-24 21 1 43 11 9 20 24 20 33 0 16 -1 16 -18 1 -10 -10 -22 -14 -25 -10 -4 3
-7 1 -7 -5 0 -7 -8 -12 -17 -12 -14 0 -12 4 8 18 14 9 24 24 22 32 -4 12 -3
12 5 1 7 -9 12 -10 16 -2 4 6 20 11 37 11 16 0 30 5 30 10 1 6 2 16 3 23 1 11
13 14 93 20 18 1 33 5 33 9 0 4 10 8 23 10 12 2 26 13 31 25 9 18 16 20 53 16
36 -4 42 -2 37 11 -4 11 0 16 11 16 13 0 16 6 11 24 -6 23 -4 24 21 17 33 -8
39 -8 76 7 17 7 28 19 26 29 -3 34 1 43 19 43 9 1 28 7 42 15 l25 14 -25 9
c-14 5 -29 7 -33 5 -5 -3 -3 4 4 15 7 12 18 20 23 19 6 -1 10 6 8 16 -2 9 3
17 11 17 7 0 14 7 14 15 0 8 -9 15 -19 15 -10 0 -18 -4 -18 -10 0 -5 -8 -10
-17 -10 -16 1 -16 2 -2 10 11 6 15 20 13 39 l-3 30 40 -18 c22 -10 40 -21 40
-25 -1 -3 -1 -11 -1 -17 0 -5 -5 -7 -12 -3 -7 4 -8 3 -4 -4 4 -7 17 -12 29
-12 12 0 18 -4 12 -8 -22 -16 -14 -40 19 -56 45 -21 97 -20 122 2 23 22 64 35
61 20 -1 -6 4 -13 10 -15 7 -3 13 0 13 6 0 6 7 11 15 11 9 0 12 6 9 15 -5 12
-10 13 -20 5 -9 -8 -18 -8 -33 -1 -25 14 -34 14 -26 1 3 -5 1 -10 -4 -10 -13
0 -14 49 -3 68 6 9 15 10 33 3 13 -5 18 -10 10 -10 -8 -1 -11 -4 -8 -8 4 -3
19 7 34 22 26 26 27 27 4 15 -21 -11 -23 -10 -18 4 4 10 1 16 -8 16 -9 0 -12
-6 -9 -15 4 -10 2 -13 -8 -10 -23 9 -17 35 8 35 13 0 35 11 50 25 15 14 23 25
17 25 -5 0 -15 -6 -22 -12 -11 -11 -13 -9 -8 11 4 18 3 21 -6 12 -6 -6 -15
-11 -20 -11 -5 0 -1 7 8 16 12 12 13 19 5 24 -9 6 -9 9 -1 15 7 4 22 -4 36
-19 26 -28 45 -34 45 -13 0 9 2 9 8 0 4 -6 21 -13 37 -16 l30 -4 -32 -2 c-50
-2 -39 -16 12 -16 25 0 41 2 35 3 -26 9 -5 22 38 24 l47 1 -50 7 c-27 4 -41 8
-31 8 11 1 17 5 13 8 -3 4 -14 3 -24 -1 -47 -20 -61 -11 -30 20 11 11 17 15
14 9 -4 -7 15 -10 63 -9 39 1 70 -2 70 -7 0 -5 9 -4 21 2 11 7 23 9 27 6 3 -3
1 -6 -4 -6 -5 0 -10 -8 -11 -18 -1 -13 6 -18 25 -20 23 -1 25 0 11 11 -36 28
-10 37 106 37 106 0 114 -1 120 -21 l7 -21 15 22 c12 16 18 19 29 9 8 -6 14
-7 14 -2 0 5 7 10 15 10 17 0 20 -13 5 -22 -14 -9 -5 -21 20 -28 21 -5 24 14
3 23 -8 3 -9 10 -4 19 7 11 14 10 37 -6 16 -11 42 -23 57 -27 24 -6 28 -4 25
10 -2 10 -9 19 -17 22 -8 3 -11 0 -7 -7 10 -16 -19 -14 -34 3 -10 13 -2 15 55
12 36 -2 68 0 70 4 3 4 22 4 42 1 21 -4 106 -6 188 -5 83 1 146 0 140 -1 -5
-2 -23 -6 -39 -10 -15 -3 -26 -8 -23 -11 3 -3 25 0 48 7 66 19 69 19 69 1 0
-15 2 -15 10 -2 5 8 10 10 10 5 0 -6 -5 -16 -11 -22 -7 -7 -4 -12 10 -16 12
-3 19 -1 15 4 -3 5 0 9 7 9 7 0 9 8 6 21 -4 17 -3 19 6 10 6 -6 22 -11 36 -11
18 0 22 3 13 9 -8 5 42 8 117 8 100 0 131 -3 135 -13 3 -8 -2 -14 -12 -15 -10
0 -12 -3 -4 -6 24 -9 12 -22 -13 -13 -18 7 -24 6 -22 -3 1 -7 9 -15 17 -18 11
-5 6 -9 -14 -14 -20 -6 -31 -4 -34 3 -2 7 -9 12 -16 12 -8 0 -12 10 -11 23 3
21 -1 22 -56 22 -39 0 -60 -4 -64 -13 -2 -7 0 -10 5 -7 6 3 10 1 10 -4 0 -6
-7 -11 -15 -11 -8 0 -15 -8 -15 -17 0 -13 -3 -14 -12 -5 -14 14 -32 16 -23 3
9 -16 -15 -24 -31 -10 -8 7 -14 8 -13 3 4 -21 -2 -35 -11 -29 -6 4 -7 11 -4
17 4 7 2 8 -5 4 -9 -6 -9 -11 1 -24 11 -13 10 -15 -10 -10 -12 4 -22 2 -22 -4
0 -5 -6 -8 -13 -5 -6 2 -12 9 -12 14 0 21 -17 28 -26 10 -6 -9 -17 -17 -24
-17 -8 0 -15 -4 -15 -10 0 -5 5 -10 10 -10 6 0 10 -4 10 -9 0 -9 -43 -7 -59 4
-7 3 -8 0 -5 -9 8 -20 83 -23 80 -3 -1 13 6 17 32 17 15 0 15 -2 2 -11 -12 -9
-12 -10 3 -5 10 3 21 6 23 6 3 0 2 5 -1 10 -9 15 27 11 49 -5 32 -24 36 -21
27 24 -1 2 -7 -2 -15 -8 -8 -7 -16 -8 -19 -4 -6 9 25 40 33 34 13 -10 28 -37
24 -43 -8 -13 11 -9 25 5 10 10 11 9 6 -5 -4 -10 -15 -20 -26 -23 -10 -4 -19
-11 -19 -18 0 -6 -6 -4 -12 5 -17 21 -39 27 -63 17 -17 -7 -16 -8 8 -8 15 -1
27 -7 27 -13 0 -10 2 -10 9 0 7 11 9 11 14 -2 4 -9 4 -24 1 -33 -5 -17 -5 -17
6 0 13 19 32 23 25 5 -3 -7 -19 -21 -35 -30 -26 -15 -30 -15 -30 -2 0 8 5 12
10 9 6 -3 10 -1 10 4 0 14 -17 14 -25 1 -4 -6 -15 -6 -31 0 -14 6 -42 10 -62
9 -33 -1 -34 -2 -12 -9 14 -5 18 -8 9 -9 -9 -1 -31 -4 -49 -7 -24 -5 -31 -3
-30 7 5 34 1 42 -16 28 -21 -17 -56 -22 -64 -9 -4 7 -15 7 -30 2 -28 -11 -13
-23 30 -24 l30 -1 -22 -19 c-19 -16 -17 -23 6 -19 5 1 17 -6 27 -15 18 -16 19
-16 19 -1 0 20 9 21 45 7 24 -9 26 -8 21 12 l-6 23 11 -22 c7 -13 18 -23 26
-23 7 0 13 -4 13 -10 0 -5 -7 -10 -15 -10 -8 0 -15 -7 -15 -15 0 -11 -9 -14
-30 -12 -17 2 -33 7 -38 12 -4 4 8 5 26 2 18 -4 32 -2 32 3 0 6 -10 10 -22 10
-17 0 -19 3 -10 9 11 7 11 9 -2 14 -10 4 -16 1 -16 -7 0 -14 -34 -30 -59 -26
-7 1 -10 -3 -7 -9 4 -6 0 -21 -9 -35 -14 -21 -14 -24 -1 -29 10 -4 13 -1 10 8
-7 17 35 30 70 21 14 -3 28 -2 31 4 3 5 26 10 51 10 30 0 43 4 39 11 -4 6 -13
8 -21 5 -7 -3 -16 -1 -19 3 -8 14 17 28 61 33 33 5 43 2 53 -14 6 -10 9 -23 6
-28 -4 -6 -1 -10 4 -10 6 0 11 -5 11 -11 0 -5 -4 -7 -10 -4 -14 8 -13 -8 1
-22 8 -8 6 -14 -7 -21 -28 -14 -69 -10 -69 8 0 8 -9 16 -20 19 -11 2 -23 8
-27 15 -5 6 -8 1 -8 -12 0 -16 4 -21 13 -16 7 5 6 1 -2 -10 -13 -15 -16 -16
-26 -3 -13 19 -95 34 -95 17 0 -6 -5 -8 -12 -4 -7 4 -8 3 -4 -5 5 -7 24 -10
49 -8 23 2 34 2 25 0 -10 -2 -18 -13 -18 -23 0 -23 -16 -35 -23 -18 -4 10 -6
10 -6 1 -1 -7 -7 -11 -13 -9 -7 1 -10 1 -5 -1 4 -3 5 -9 1 -14 -3 -5 0 -9 5
-9 6 0 11 5 11 10 0 12 22 9 33 -5 4 -6 7 -1 5 10 -2 14 3 20 17 20 11 0 26 4
33 8 12 8 13 5 16 -43 1 -10 9 -14 24 -12 12 2 22 -1 22 -6 0 -15 33 -20 60
-9 l25 10 -24 6 c-17 5 -26 15 -28 34 -2 16 1 27 8 27 6 0 9 -7 5 -15 -3 -8
-1 -15 4 -15 6 0 10 8 10 18 0 14 2 15 10 2 8 -12 11 -11 16 9 l7 24 19 -24
c14 -17 18 -18 14 -6 -8 24 10 21 29 -5 12 -18 17 -20 24 -9 6 9 11 10 15 2 4
-6 2 -11 -4 -11 -6 0 -8 -5 -5 -10 3 -5 -2 -10 -12 -11 -13 -1 -11 -3 7 -9 22
-7 21 -8 -12 -9 -37 -1 -37 -2 -21 -21 10 -11 23 -20 30 -20 7 0 13 -5 13 -11
0 -7 -10 -9 -27 -5 -18 4 -23 3 -15 -2 8 -5 13 -13 13 -18 -1 -5 5 -9 12 -9
20 0 27 -18 10 -30 -10 -8 -14 -19 -10 -31 7 -18 6 -17 -9 1 -8 11 -23 19 -32
17 -11 -1 -9 2 6 11 12 7 20 16 16 19 -3 4 -14 2 -23 -4 -13 -8 -23 -8 -37 1
-12 8 -13 11 -3 8 9 -3 22 -1 30 4 12 7 12 9 -1 9 -12 0 -13 2 -1 9 16 10 6
31 -14 31 -11 0 -12 -6 -5 -25 9 -23 8 -25 -9 -15 -11 5 -22 15 -24 22 -4 10
-8 10 -15 -1 -7 -10 -14 -11 -28 -2 -11 6 -16 11 -11 12 4 1 12 3 17 4 6 1 19
3 30 4 11 0 20 5 20 11 0 12 -72 8 -82 -4 -4 -6 -3 -17 2 -26 7 -13 4 -16 -15
-16 -19 0 -22 3 -13 13 8 10 6 13 -6 13 -9 0 -16 -4 -16 -9 0 -5 -3 -16 -6
-24 -4 -12 0 -14 18 -10 18 4 20 3 8 -6 -13 -9 -12 -12 8 -17 12 -4 22 -10 22
-15 0 -5 9 -9 19 -9 11 0 22 -6 24 -12 4 -10 6 -10 6 0 1 17 18 15 18 -3 0 -8
-4 -15 -9 -15 -4 0 -8 -4 -8 -9 0 -5 14 -4 30 2 25 10 33 9 40 -3 7 -10 10
-11 10 -2 0 6 5 12 12 12 9 0 9 -3 0 -12 -14 -14 -45 -20 -36 -7 3 5 -2 9 -10
9 -9 0 -16 -7 -16 -15 0 -17 -25 -20 -35 -5 -4 6 -11 8 -16 4 -19 -11 3 -24
44 -25 39 -1 40 -2 12 -9 -25 -6 -27 -8 -12 -14 9 -5 17 -15 17 -24 0 -14 -1
-14 -12 0 -18 22 -75 31 -82 13 -3 -8 -1 -15 3 -15 5 0 11 5 13 12 5 14 48
-26 48 -44 0 -10 -3 -9 -9 1 -6 9 -11 10 -15 3 -12 -20 34 -34 92 -29 57 5 57
5 15 -5 -24 -6 -43 -15 -43 -19 0 -5 -6 -9 -14 -9 -9 0 -12 -7 -9 -18 5 -21
-48 -53 -55 -33 -6 19 -42 12 -70 -14 -17 -16 -35 -24 -48 -22 -13 2 -27 -4
-35 -14 -7 -10 -17 -15 -22 -12 -6 4 -7 1 -3 -6 5 -7 15 -10 23 -6 14 5 14 3
2 -11 -13 -16 -11 -17 16 -9 17 4 36 8 43 8 6 0 12 10 13 21 0 20 1 20 9 -1 5
-13 12 -23 16 -23 3 0 3 7 0 16 -6 15 -4 15 19 0 19 -13 30 -14 39 -7 7 6 16
8 19 5 3 -4 14 1 23 11 13 13 27 15 55 11 25 -4 39 -2 42 7 4 9 6 9 6 0 1 -7
8 -13 17 -13 9 0 12 -5 8 -12 -6 -10 -4 -10 7 -2 8 6 31 9 52 6 30 -3 37 -8
33 -21 -5 -13 -4 -13 8 2 12 15 14 16 20 2 3 -8 1 -15 -5 -15 -6 0 -8 -4 -5
-9 7 -10 -180 -7 -231 4 -23 5 -33 4 -33 -5 0 -9 -7 -8 -25 4 -29 19 -38 20
-33 4 3 -7 15 -15 29 -19 13 -3 23 -11 21 -17 -1 -7 2 -12 8 -12 5 0 10 -9 10
-20 0 -21 12 -24 80 -20 32 2 33 1 20 -17 -22 -28 -24 -29 -17 -10 5 12 1 17
-14 17 -11 0 -17 -5 -14 -10 7 -12 -7 -13 -21 -3 -5 5 -1 1 8 -9 10 -9 18 -18
18 -21 0 -2 -36 -5 -80 -6 -55 -1 -80 2 -80 10 0 8 -4 8 -12 1 -7 -6 -17 -11
-23 -12 -5 -1 -9 -7 -9 -15 1 -7 -4 -11 -12 -8 -15 6 -19 23 -6 23 5 0 14 11
20 25 7 15 8 25 2 25 -15 0 -12 17 6 34 11 12 13 20 5 33 -6 10 -11 12 -11 5
0 -6 -3 -11 -7 -11 -14 3 -73 -25 -73 -34 0 -5 -9 -6 -20 -2 -16 5 -19 3 -13
-11 5 -14 2 -16 -15 -12 -15 4 -25 0 -32 -12 -5 -9 -7 -20 -4 -23 11 -11 -56
-18 -75 -8 -11 6 -27 8 -37 4 -12 -4 -15 -3 -10 5 4 7 15 12 24 12 15 0 15 2
2 10 -13 8 -12 12 5 30 11 11 32 21 47 22 18 2 28 9 31 23 4 21 3 21 -32 4
-26 -12 -50 -16 -88 -12 -43 5 -53 3 -53 -10 0 -8 -7 -18 -16 -21 -12 -4 -14
-1 -9 14 6 18 3 19 -26 13 -22 -4 -30 -3 -26 5 15 22 -35 -2 -50 -25 -14 -20
-14 -26 -3 -33 11 -7 11 -12 1 -23 -12 -15 -51 -12 -51 4 0 5 -4 9 -10 9 -5 0
-10 -7 -10 -16 0 -8 4 -13 8 -10 5 3 20 -1 34 -8 17 -9 31 -10 42 -4 16 9 16
7 7 -11 -8 -14 -8 -21 -1 -21 19 0 25 -2 35 -9 8 -6 217 -6 310 -1 6 0 42 0
80 0 153 -2 176 0 168 13 -4 7 0 7 10 -2 14 -11 17 -11 17 0 0 11 2 11 10 -1
5 -8 10 -10 10 -4 0 7 16 10 43 7 103 -9 116 -10 111 -2 -3 5 2 9 11 9 9 0 13
-5 9 -11 -4 -8 -1 -8 13 -1 19 10 215 8 232 -2 13 -8 38 3 45 19 4 11 -13 14
-85 14 -50 -1 -93 2 -96 5 -4 3 6 6 20 6 15 0 27 5 27 11 0 5 4 8 9 5 5 -4 11
-1 13 4 2 8 11 8 28 1 14 -5 19 -10 11 -10 -8 -1 -12 -3 -10 -6 3 -2 20 -1 37
4 23 7 32 6 32 -2 0 -7 4 -6 10 3 14 21 13 1230 -1 1230 -5 0 -21 -7 -35 -16
-19 -13 -23 -13 -19 -2 4 9 -1 14 -15 14 -22 0 -27 -12 -7 -19 7 -3 5 -6 -5
-6 -10 -1 -18 4 -18 10 0 6 -5 7 -12 2 -18 -11 -39 -13 -33 -3 6 10 -66 16
-134 12 -44 -3 -51 -7 -52 -25 0 -21 -1 -21 -8 -2 -5 11 -7 22 -6 25 2 3 -10
5 -25 5 -15 0 -26 -4 -23 -8 2 -4 -7 -5 -20 -2 -19 5 -26 2 -30 -12 -4 -16 -5
-16 -6 2 -1 14 -8 21 -21 21 -13 0 -20 -7 -21 -21 -1 -17 -2 -17 -6 -2 -2 9
-9 17 -14 17 -6 0 -8 -4 -5 -8 3 -5 -1 -9 -9 -9 -8 0 -12 4 -10 8 3 4 -2 10
-11 13 -9 4 -549 6 -1200 6 -1142 -1 -1184 -2 -1184 -19 0 -10 -9 -21 -20 -24
-16 -4 -20 0 -20 19 0 13 -4 24 -10 24 -7 0 -10 -200 -9 -582z m560 559 c-6
-8 -8 -17 -4 -21 4 -4 0 -4 -9 -1 -20 8 -12 35 9 35 12 0 13 -3 4 -13z m314 4
c3 -5 1 -12 -5 -16 -5 -3 -10 1 -10 9 0 18 6 21 15 7z m658 2 c-12 -2 -20 -10
-17 -16 5 -15 -33 -20 -41 -6 -11 18 6 29 43 28 22 -1 28 -3 15 -6z m301 -1
c3 -4 25 -7 50 -6 25 1 44 -1 42 -4 -2 -4 -25 -7 -50 -6 -25 0 -46 -3 -46 -8
0 -4 -17 -8 -39 -8 -30 0 -40 4 -44 20 -5 18 0 20 38 20 24 0 46 -4 49 -8z
m933 -14 c2 -17 0 -19 -7 -8 -5 8 -6 18 -4 22 8 12 10 10 11 -14z m210 0 c-3
-8 -6 -5 -6 6 -1 11 2 17 5 13 3 -3 4 -12 1 -19z m-2752 2 c-3 -5 -11 -10 -16
-10 -6 0 -7 5 -4 10 3 6 11 10 16 10 6 0 7 -4 4 -10z m192 -7 c0 -7 -11 -13
-23 -13 -26 0 -41 16 -22 23 23 8 45 3 45 -10z m333 13 c0 -3 -4 -8 -10 -11
-5 -3 -10 -1 -10 4 0 6 5 11 10 11 6 0 10 -2 10 -4z m167 -2 c-3 -3 -12 -4
-19 -1 -8 3 -5 6 6 6 11 1 17 -2 13 -5z m52 -4 c-6 -5 -18 -6 -26 -3 -19 8
-16 11 13 11 17 0 22 -3 13 -8z m81 0 c0 -7 -46 -7 -54 0 -2 3 9 6 25 6 16 1
29 -2 29 -6z m40 4 c0 -8 -19 -13 -24 -6 -3 5 1 9 9 9 8 0 15 -2 15 -3z m70 0
c0 -8 -19 -13 -24 -6 -3 5 1 9 9 9 8 0 15 -2 15 -3z m70 0 c0 -8 -19 -13 -24
-6 -3 5 1 9 9 9 8 0 15 -2 15 -3z m65 -5 c-5 -6 -55 0 -55 7 0 3 13 3 29 2 16
-1 28 -5 26 -9z m93 0 c-10 -6 -68 -1 -77 6 -2 2 17 3 43 2 25 -1 40 -4 34 -8z
m52 5 c0 -8 -19 -13 -24 -6 -3 5 1 9 9 9 8 0 15 -2 15 -3z m660 -4 c0 -7 -149
-4 -156 3 -3 3 31 4 75 4 45 -1 81 -4 81 -7z m67 4 c-8 -9 -47 -13 -51 -6 -2
4 9 8 25 8 17 1 28 0 26 -2z m43 0 c0 -8 -19 -13 -24 -6 -3 5 1 9 9 9 8 0 15
-2 15 -3z m70 0 c0 -8 -19 -13 -24 -6 -3 5 1 9 9 9 8 0 15 -2 15 -3z m135 -2
c-8 -8 -116 -8 -121 -1 -2 4 25 7 61 6 35 0 62 -3 60 -5z m320 -2 c7 -12 -2
-12 -30 0 -19 8 -19 9 2 9 12 1 25 -3 28 -9z m-998 -7 c-9 -8 -166 -8 -174 1
-4 3 36 6 87 6 51 0 90 -3 87 -7z m1090 1 c-3 -3 -12 -4 -19 -1 -8 3 -5 6 6 6
11 1 17 -2 13 -5z m131 -56 c-2 -6 -10 -14 -16 -16 -7 -2 -10 2 -6 12 7 18 28
22 22 4z m32 -58 c0 -5 -2 -10 -4 -10 -3 0 -8 5 -11 10 -3 6 -1 10 4 10 6 0
11 -4 11 -10z m-2060 -12 c0 6 5 12 11 12 5 0 8 -4 5 -8 -3 -5 2 -21 10 -37
24 -47 9 -53 -19 -8 -15 24 -27 46 -27 50 0 5 5 1 10 -7 6 -10 10 -11 10 -2z
m54 -3 c-4 -8 -8 -15 -10 -15 -2 0 -4 7 -4 15 0 8 4 15 10 15 5 0 7 -7 4 -15z
m-69 -43 c-6 -7 -35 18 -35 31 0 5 9 2 20 -8 11 -10 18 -20 15 -23z m205 16
c0 -19 -2 -20 -10 -8 -13 19 -13 30 0 30 6 0 10 -10 10 -22z m-43 -38 c1 -22
-3 -25 -33 -27 -32 -1 -34 1 -34 28 0 28 2 30 32 27 27 -2 33 -8 35 -28z
m-397 6 c0 -3 -4 -8 -10 -11 -5 -3 -10 -1 -10 4 0 6 5 11 10 11 6 0 10 -2 10
-4z m1757 -92 c-3 -3 -12 -4 -19 -1 -8 3 -5 6 6 6 11 1 17 -2 13 -5z m293 -31
c0 -1 -9 -1 -20 0 -12 1 -20 8 -20 19 0 17 1 17 20 1 11 -10 20 -18 20 -20z
m-242 -18 c-3 -3 -9 2 -12 12 -6 14 -5 15 5 6 7 -7 10 -15 7 -18z m72 -15 c21
-7 22 -8 5 -9 -12 -1 -26 -6 -32 -12 -7 -7 -12 -4 -16 10 -5 22 2 24 43 11z
m0 -30 c0 -5 -5 -10 -11 -10 -5 0 -7 5 -4 10 3 6 8 10 11 10 2 0 4 -4 4 -10z
m36 -21 c8 -17 11 -28 6 -25 -6 3 -12 0 -15 -6 -3 -10 -8 -10 -18 1 -8 8 -9
11 -3 8 7 -4 14 0 17 8 4 9 1 12 -8 9 -10 -4 -12 0 -8 15 7 28 10 27 29 -10z
m54 10 c0 -5 -4 -7 -10 -4 -5 3 -10 1 -10 -4 0 -6 -4 -11 -10 -11 -5 0 -7 7
-4 15 7 17 34 21 34 4z m-2585 -18 c3 -6 -4 -9 -15 -8 -11 1 -20 5 -20 9 0 11
28 10 35 -1z m55 -1 c0 -5 -4 -10 -10 -10 -5 0 -10 5 -10 10 0 6 5 10 10 10 6
0 10 -4 10 -10z m100 3 c0 -10 -57 -9 -67 0 -3 4 10 7 30 7 21 0 37 -3 37 -7z
m50 -3 c0 -5 -4 -10 -9 -10 -6 0 -13 5 -16 10 -3 6 1 10 9 10 9 0 16 -4 16
-10z m30 0 c0 -5 -5 -10 -11 -10 -5 0 -7 5 -4 10 3 6 8 10 11 10 2 0 4 -4 4
-10z m60 1 c0 -5 -11 -8 -25 -7 -33 1 -33 16 0 16 14 0 25 -4 25 -9z m75 -1
c8 -13 -35 -13 -55 0 -11 7 -7 10 17 10 17 0 35 -4 38 -10z m58 1 c4 -1 7 -9
8 -18 0 -15 2 -15 9 2 8 17 9 17 7 -7 -1 -22 -4 -25 -19 -17 -10 5 -18 16 -18
24 0 9 -6 12 -15 9 -8 -4 -15 -2 -15 4 0 6 8 9 18 7 9 -2 20 -4 25 -4z m2235
-16 c4 -3 3 -6 -3 -5 -27 6 -36 -3 -10 -10 28 -7 28 -8 5 -9 -14 0 -36 8 -49
18 l-24 18 37 -2 c20 -1 40 -6 44 -10z m-45 -42 c-7 -2 -19 -2 -25 0 -7 3 -2
5 12 5 14 0 19 -2 13 -5z m-63 -18 c0 -12 -19 -12 -23 0 -4 9 -1 12 9 8 7 -3
14 -7 14 -8z m50 -7 c0 -13 -32 -6 -37 9 -3 7 3 9 16 6 12 -3 21 -10 21 -15z
m-2370 -12 c0 -2 -7 -6 -15 -10 -8 -3 -15 -1 -15 4 0 6 7 10 15 10 8 0 15 -2
15 -4z m-57 -113 c-9 -7 -20 -13 -23 -13 -4 0 -7 6 -7 13 0 6 11 12 24 12 21
0 22 -1 6 -12z m24 -119 c-3 -3 -12 -4 -19 -1 -8 3 -5 6 6 6 11 1 17 -2 13 -5z
m-137 -140 c0 -8 -4 -12 -10 -9 -5 3 -10 10 -10 16 0 5 5 9 10 9 6 0 10 -7 10
-16z m130 -58 c0 -2 -7 -7 -16 -10 -8 -3 -12 -2 -9 4 6 10 25 14 25 6z m184
-34 c2 -4 1 -23 -4 -42 -7 -32 -15 -18 -11 17 1 8 -5 10 -14 7 -10 -4 -15 0
-15 10 0 16 35 23 44 8z m2096 -23 c0 -4 -7 -6 -15 -3 -8 4 -15 10 -15 15 0 4
7 6 15 3 8 -4 15 -10 15 -15z m-42 -4 c1 -1 0 -9 -3 -18 -4 -9 -17 -14 -35
-13 -29 2 -55 16 -31 16 7 0 11 6 8 14 -4 11 2 13 26 9 18 -3 33 -6 35 -8z
m-78 1 c0 -2 -7 -7 -16 -10 -8 -3 -12 -2 -9 4 6 10 25 14 25 6z m135 -120 c24
3 46 0 50 -6 4 -6 -12 -10 -42 -10 -56 0 -80 11 -67 31 7 11 9 11 12 -2 2 -13
12 -16 47 -13z m194 -12 c2 -2 -19 -4 -47 -4 -29 0 -52 4 -52 8 0 8 91 5 99
-4z m-799 -29 c0 -18 -30 -20 -31 -2 0 9 -2 9 -5 0 -7 -15 -34 -5 -34 12 0 8
8 15 18 18 23 5 52 -10 52 -28z m784 -21 c4 -10 2 -13 -6 -8 -6 4 -25 11 -42
15 l-31 7 36 1 c25 1 39 -4 43 -15z m226 12 c0 -2 -9 -6 -20 -9 -11 -3 -18 -1
-14 4 5 9 34 13 34 5z m-175 -46 c10 -4 -15 -7 -57 -6 -42 0 -74 4 -72 8 6 9
102 8 129 -2z"/>
<path d="M1790 1656 c0 -2 7 -6 15 -10 8 -3 15 -1 15 4 0 6 -7 10 -15 10 -8 0
-15 -2 -15 -4z"/>
<path d="M2458 643 c6 -2 18 -2 25 0 6 3 1 5 -13 5 -14 0 -19 -2 -12 -5z"/>
<path d="M35 1670 c-3 -5 -1 -10 4 -10 6 0 11 5 11 10 0 6 -2 10 -4 10 -3 0
-8 -4 -11 -10z"/>
<path d="M2736 1585 c4 -8 8 -15 10 -15 2 0 4 7 4 15 0 8 -4 15 -10 15 -5 0
-7 -7 -4 -15z"/>
<path d="M2000 1581 c0 -11 17 -17 74 -27 38 -7 39 -7 20 13 -13 14 -23 17
-32 10 -9 -7 -17 -6 -24 1 -14 14 -38 16 -38 3z"/>
<path d="M2180 1582 c0 -4 9 -13 20 -20 11 -7 20 -9 20 -4 0 4 -9 13 -20 20
-11 7 -20 9 -20 4z"/>
<path d="M2126 1564 c-9 -22 -2 -27 24 -19 12 4 19 12 17 18 -6 19 -34 20 -41
1z"/>
<path d="M1440 1550 c0 -5 -16 -16 -35 -24 -35 -15 -75 -17 -75 -5 0 4 -8 6
-17 4 -10 -2 -22 -4 -26 -4 -5 -1 -6 -5 -2 -10 3 -5 -2 -16 -10 -24 -8 -9 -15
-20 -15 -26 0 -6 -9 -11 -21 -11 -11 0 -17 -4 -14 -10 3 -5 -2 -10 -12 -10
-17 -1 -17 -1 0 -11 9 -5 17 -15 17 -20 0 -6 -5 -7 -12 -3 -7 4 -8 3 -4 -5 4
-6 12 -8 18 -5 6 4 8 -1 3 -15 -5 -16 -2 -21 12 -21 19 0 43 18 43 32 0 4 -4
8 -10 8 -5 0 -9 -5 -7 -12 1 -6 -7 -13 -18 -15 -15 -3 -17 -2 -6 5 10 7 10 11
1 17 -9 6 -9 10 1 16 11 7 10 9 -4 9 -39 0 -8 25 33 26 34 1 43 -2 47 -17 3
-12 14 -19 27 -18 17 1 17 2 4 6 -20 5 -24 28 -6 39 7 4 8 3 4 -4 -5 -8 1 -12
16 -12 16 0 19 3 10 9 -11 6 -10 10 5 16 16 7 15 9 -7 15 -21 7 -18 8 18 9 32
1 41 -2 36 -11 -6 -10 -5 -10 8 -1 8 7 18 10 22 6 4 -4 4 1 0 10 -4 10 -13 16
-20 13 -8 -3 -14 -1 -14 4 0 9 22 15 43 11 5 -1 6 3 2 9 -3 5 -13 10 -22 10
-13 0 -13 3 -3 15 9 10 9 15 1 15 -6 0 -11 -4 -11 -10z m-43 -56 c-3 -3 -12
-4 -19 -1 -8 3 -5 6 6 6 11 1 17 -2 13 -5z m-57 -26 c0 -8 -15 -14 -37 -14
-34 -1 -35 0 -18 12 23 17 55 18 55 2z"/>
<path d="M1610 1540 c-10 -7 -11 -10 -2 -10 6 0 12 -5 12 -11 0 -6 -7 -9 -15
-5 -8 3 -15 1 -15 -5 0 -5 8 -13 18 -16 9 -4 20 -11 25 -17 5 -7 10 -6 17 4 8
12 10 12 10 1 0 -8 6 -19 14 -25 8 -6 17 -21 20 -33 6 -18 3 -21 -16 -17 -23
4 -23 4 -2 -5 29 -13 39 -30 21 -37 -9 -3 -21 -19 -27 -35 -7 -16 -17 -29 -22
-29 -6 0 -8 -7 -5 -15 9 -21 -14 -31 -28 -12 -7 10 -18 17 -25 17 -8 0 -4 -8
8 -19 25 -21 29 -36 7 -28 -8 4 -17 1 -21 -4 -4 -6 -19 -8 -36 -5 -24 5 -31 2
-35 -14 -5 -17 -11 -20 -42 -15 -32 5 -34 4 -13 -6 23 -12 30 -29 12 -29 -5 0
-10 -5 -10 -11 0 -15 72 -8 93 9 15 14 17 13 17 -5 0 -28 -88 -72 -102 -51 -7
10 -8 9 -4 -4 4 -13 -2 -20 -19 -24 -34 -8 -52 -31 -37 -46 17 -17 15 -48 -3
-49 -8 -1 -19 -3 -25 -4 -5 -1 -16 -3 -22 -4 -8 -1 -6 -6 5 -12 10 -6 25 -8
33 -5 8 3 12 2 9 -4 -3 -5 6 -17 20 -26 27 -18 34 -40 10 -30 -8 3 -15 0 -15
-5 0 -6 8 -9 19 -6 10 2 27 0 37 -6 18 -10 18 -9 4 9 -14 18 -14 18 5 3 11 -9
30 -15 42 -14 12 1 20 -2 17 -7 -3 -4 3 -7 13 -6 36 3 52 -2 56 -19 3 -10 6 0
7 22 2 25 4 32 7 18 5 -27 23 -31 24 -5 0 9 3 12 5 5 3 -7 12 -9 20 -6 13 5
13 8 2 15 -9 7 -7 8 9 5 36 -8 38 12 4 26 -24 10 -28 16 -19 25 17 17 28 15
28 -5 0 -13 5 -11 18 10 11 18 22 25 32 21 28 -12 120 4 99 17 -10 6 -7 10 11
17 20 8 27 6 34 -9 5 -10 13 -19 18 -19 4 0 8 -11 8 -25 0 -23 -8 -28 -37 -24
-3 0 -10 -6 -15 -15 -5 -8 -15 -13 -23 -10 -10 4 -15 0 -15 -11 0 -9 -4 -14
-10 -10 -5 3 -7 12 -4 19 3 8 0 17 -5 21 -6 3 -9 10 -6 14 2 5 -7 9 -20 9 -14
0 -25 -4 -25 -9 0 -11 35 -30 44 -24 3 3 2 0 -3 -6 -6 -8 -15 -8 -30 0 -19 10
-21 9 -21 -11 0 -19 5 -23 32 -23 23 0 33 -5 32 -15 -1 -30 -15 -46 -41 -48
-34 -3 -39 -8 -23 -27 9 -11 15 -12 20 -5 4 6 16 12 28 13 11 0 20 6 19 11 -1
6 5 11 13 12 36 3 40 5 40 15 0 6 -6 9 -14 6 -8 -3 -20 0 -26 8 -14 16 1 29
41 34 5 0 7 5 4 11 -3 5 -1 10 4 10 6 0 11 -7 11 -15 0 -9 7 -18 15 -21 14 -6
13 -8 -2 -20 -20 -15 -11 -18 37 -14 32 3 38 9 20 20 -9 6 -17 5 -22 -3 -5 -8
-8 -6 -8 6 0 23 32 22 55 -3 13 -15 21 -17 31 -9 7 6 32 20 56 32 35 18 43 27
41 47 -3 25 -3 25 7 2 9 -22 10 -22 42 -6 18 9 38 23 45 30 12 11 9 16 -17 26
-29 12 -30 14 -11 25 18 11 19 10 14 -4 -5 -13 -2 -15 11 -10 9 4 15 3 12 -2
-6 -9 18 -33 52 -50 17 -9 27 -9 36 -2 7 6 16 8 19 4 4 -3 7 0 7 8 0 8 9 15
20 16 17 2 18 -1 7 -18 -6 -10 -18 -19 -25 -19 -11 0 -11 -3 1 -14 15 -16 28
-19 69 -17 24 1 27 5 26 29 -3 30 -23 51 -50 52 -10 0 -18 5 -18 10 0 6 -8 10
-17 11 -17 0 -17 1 -1 7 13 5 15 11 8 22 -9 13 -11 13 -21 0 -9 -13 -10 -12
-5 3 3 9 1 17 -4 17 -6 0 -10 5 -10 11 0 7 10 5 25 -5 22 -15 29 -15 60 -2 41
17 47 31 9 22 -16 -4 -23 -3 -19 3 8 14 -13 51 -29 51 -8 0 -17 -7 -20 -16 -3
-9 -13 -14 -21 -10 -17 6 -68 -18 -58 -27 3 -4 -2 -7 -11 -7 -10 0 -16 -5 -13
-12 2 -8 -15 -22 -45 -35 l-50 -23 15 23 c8 12 21 21 27 19 7 -2 10 3 7 11 -4
11 0 13 16 10 21 -4 21 -4 4 10 -10 8 -43 26 -72 39 -36 15 -53 28 -50 36 3 8
-4 16 -15 19 -11 3 -20 10 -20 17 -1 6 -8 -2 -17 -19 -17 -32 -20 -30 -25 27
-2 20 0 34 4 32 19 -12 6 14 -17 34 -31 27 -33 27 -46 0 l-10 -23 5 23 c4 19
2 21 -10 11 -13 -10 -18 -6 -15 14 0 4 -4 7 -9 7 -13 0 -13 -17 -1 -25 11 -6
10 -45 -1 -45 -4 0 -8 7 -8 15 0 22 -17 18 -23 -4 -3 -13 1 -21 12 -24 11 -3
9 -5 -6 -6 -13 -1 -23 6 -25 17 -3 13 -7 11 -21 -13 -9 -16 -16 -24 -17 -16 0
7 16 36 35 62 19 27 35 54 35 59 0 15 29 12 61 -7 28 -16 29 -16 43 2 17 24
12 33 -9 15 -10 -9 -15 -9 -15 -1 0 21 44 34 83 23 22 -6 37 -7 37 -1 0 5 6 9
14 9 8 0 16 7 20 15 6 18 5 18 -29 5 -14 -5 -24 -6 -21 -1 3 4 -17 6 -44 3
-33 -3 -50 -1 -50 7 0 18 -18 13 -24 -6 -3 -11 -4 -9 -3 6 1 13 -4 26 -12 29
-10 3 -12 0 -8 -12 4 -9 2 -16 -3 -16 -10 0 -14 15 -11 34 3 13 -60 -2 -80
-20 -16 -14 -20 -14 -48 1 -33 16 -42 29 -14 18 19 -8 12 9 -20 45 -22 24 -13
29 15 8 10 -7 15 -16 11 -19 -3 -4 1 -7 10 -7 10 0 14 5 11 15 -4 8 -12 15
-19 15 -7 0 -15 5 -17 12 -3 9 -12 9 -36 -1 -36 -15 -67 -8 -58 14 3 8 1 15
-4 15 -6 0 -10 8 -10 17 0 9 -3 13 -7 10 -3 -4 -11 -3 -17 3 -7 5 -17 5 -26 0z
m117 -120 l-14 -21 -6 21 c-3 13 0 20 9 20 8 0 14 6 15 13 0 9 2 9 6 0 2 -7
-2 -22 -10 -33z m259 -217 c-10 -10 -19 5 -10 18 6 11 8 11 12 0 2 -7 1 -15
-2 -18z m-446 -3 c0 -5 -2 -10 -4 -10 -3 0 -8 5 -11 10 -3 6 -1 10 4 10 6 0
11 -4 11 -10z m78 -12 c-5 -15 -23 -11 -26 6 -2 11 2 14 13 10 9 -4 14 -11 13
-16z m342 -44 c0 -8 -5 -14 -11 -14 -6 0 -8 -7 -5 -16 4 -9 2 -12 -5 -8 -6 4
-8 20 -4 40 5 28 3 33 -10 28 -11 -5 -14 -2 -8 11 6 17 8 16 25 -5 10 -12 18
-28 18 -36z m37 9 c-3 -10 -5 -4 -5 12 0 17 2 24 5 18 2 -7 2 -21 0 -30z
m-163 1 c3 -8 2 -12 -4 -9 -6 3 -10 10 -10 16 0 14 7 11 14 -7z m44 4 c-2 -6
-10 -14 -16 -16 -7 -2 -10 2 -6 12 7 18 28 22 22 4z m192 -10 c0 -6 -6 -5 -15
2 -8 7 -15 14 -15 16 0 2 7 1 15 -2 8 -4 15 -11 15 -16z m-162 -8 c-17 -10
-14 -50 4 -50 5 0 6 5 2 12 -5 7 -3 8 5 3 16 -9 -20 -44 -52 -51 -12 -2 -28
-11 -34 -21 -11 -14 -13 -9 -13 35 0 29 4 52 9 52 5 0 17 3 25 6 12 5 15 2 10
-10 -3 -9 -10 -13 -15 -10 -5 3 -9 1 -9 -5 0 -5 5 -13 11 -17 8 -4 7 -9 -2
-16 -11 -8 -11 -9 1 -6 8 3 17 18 21 35 8 40 17 53 37 53 16 -1 16 -1 0 -10z
m449 -56 c-3 -3 -12 -4 -19 -1 -8 3 -5 6 6 6 11 1 17 -2 13 -5z m-649 -45 c-3
-8 -7 -3 -11 10 -4 17 -3 21 5 13 5 -5 8 -16 6 -23z m581 -19 l16 -24 -28 18
c-15 10 -27 23 -27 28 0 16 22 4 39 -22z m-564 -6 c12 -5 3 -14 -35 -36 -29
-16 -53 -28 -55 -26 -2 2 7 18 21 36 26 32 39 37 69 26z m270 -44 c3 -6 -1 -7
-9 -4 -18 7 -21 14 -7 14 6 0 13 -4 16 -10z m-61 -72 c-6 -9 -34 1 -34 11 0 4
3 10 6 14 8 7 33 -16 28 -25z m93 -10 c-3 -8 -6 -5 -6 6 -1 11 2 17 5 13 3 -3
4 -12 1 -19z m-193 -46 c3 -5 -1 -9 -9 -9 -8 0 -12 4 -9 9 3 4 7 8 9 8 2 0 6
-4 9 -8z"/>
<path d="M1670 1530 c0 -13 11 -13 30 0 12 8 11 10 -7 10 -13 0 -23 -4 -23
-10z"/>
<path d="M1740 1530 c19 -13 30 -13 30 0 0 6 -10 10 -22 10 -19 0 -20 -2 -8
-10z"/>
<path d="M1863 1529 c9 -6 15 -14 12 -20 -4 -5 -1 -9 5 -9 7 0 9 7 6 16 -3 9
-6 18 -6 20 0 2 -8 4 -17 4 -17 -1 -17 -1 0 -11z"/>
<path d="M1237 1513 c3 -7 6 -13 8 -13 2 0 5 6 8 13 3 8 -1 14 -8 14 -7 0 -11
-6 -8 -14z"/>
<path d="M1828 1513 c7 -3 16 -2 19 1 4 3 -2 6 -13 5 -11 0 -14 -3 -6 -6z"/>
<path d="M1908 1498 c14 -14 52 -18 52 -5 0 5 -9 7 -20 4 -11 -3 -20 -1 -20 4
0 5 -5 9 -12 9 -9 0 -9 -3 0 -12z"/>
<path d="M1976 1482 c-7 -12 22 -45 33 -37 16 9 13 25 -5 25 -8 0 -12 5 -9 10
3 6 2 10 -4 10 -5 0 -12 -3 -15 -8z"/>
<path d="M2236 1479 c3 -5 -7 -9 -21 -9 -15 0 -24 -4 -20 -10 9 -15 44 -12 60
4 12 12 11 15 -5 19 -11 3 -18 1 -14 -4z"/>
<path d="M2298 1473 c7 -3 16 -2 19 1 4 3 -2 6 -13 5 -11 0 -14 -3 -6 -6z"/>
<path d="M1580 1461 c0 -5 8 -12 18 -16 27 -13 43 -14 36 -4 -3 5 -10 7 -15 4
-5 -4 -9 -2 -9 3 0 6 -7 12 -15 16 -8 3 -15 1 -15 -3z"/>
<path d="M1470 1444 c0 -8 -6 -14 -12 -13 -32 4 -59 -2 -56 -12 2 -6 6 -9 10
-7 3 2 15 -8 27 -22 11 -14 20 -20 21 -13 0 6 -6 14 -12 16 -10 4 -10 6 0 6 7
1 10 6 7 11 -3 6 -1 10 4 10 6 0 11 -6 11 -14 0 -8 3 -21 6 -29 3 -9 -1 -17
-10 -19 -11 -2 -8 -6 10 -15 24 -11 26 -10 21 7 -3 10 0 21 7 24 6 2 3 5 -7 5
-14 1 -17 8 -15 35 1 19 6 32 11 29 4 -3 6 -11 3 -19 -3 -8 -1 -14 4 -14 10 0
12 5 14 32 1 6 -9 13 -21 14 -16 3 -23 -1 -23 -12z"/>
<path d="M1533 1433 c-18 -7 -16 -23 2 -23 8 0 15 7 15 15 0 8 -1 15 -2 14 -2
0 -9 -3 -15 -6z"/>
<path d="M2278 1433 c7 -3 16 -2 19 1 4 3 -2 6 -13 5 -11 0 -14 -3 -6 -6z"/>
<path d="M2143 1423 c9 -2 17 -9 17 -14 0 -5 8 -9 18 -9 15 1 15 2 -2 15 -11
8 -27 14 -35 14 -13 -1 -12 -2 2 -6z"/>
<path d="M2000 1410 c0 -5 4 -10 9 -10 6 0 13 5 16 10 3 6 -1 10 -9 10 -9 0
-16 -4 -16 -10z"/>
<path d="M2045 1410 c3 -5 1 -10 -6 -10 -7 0 -10 -2 -8 -5 3 -2 15 -2 27 2 23
6 21 23 -4 23 -8 0 -12 -4 -9 -10z"/>
<path d="M1325 1380 c-3 -5 -1 -10 4 -10 6 0 11 5 11 10 0 6 -2 10 -4 10 -3 0
-8 -4 -11 -10z"/>
<path d="M1533 1383 c-7 -2 -9 -11 -6 -20 4 -11 2 -14 -5 -9 -7 4 -12 1 -12
-8 0 -9 5 -16 10 -16 6 0 10 -5 10 -11 0 -6 -7 -9 -15 -5 -19 7 -19 -1 0 -20
8 -9 23 -13 33 -11 16 4 16 5 0 6 -10 0 -18 6 -18 12 0 7 10 9 25 5 14 -4 25
-2 25 4 0 5 -3 10 -7 10 -5 0 -14 4 -22 9 -11 7 -12 13 -3 23 13 16 3 37 -15
31z"/>
<path d="M1380 1366 c0 -2 8 -10 18 -17 15 -13 16 -12 3 4 -13 16 -21 21 -21
13z"/>
<path d="M1105 1344 c-18 -14 -18 -14 1 -14 10 0 25 4 32 9 11 7 11 9 0 13 -8
3 -22 0 -33 -8z"/>
<path d="M1195 1350 c-3 -5 -1 -10 4 -10 6 0 11 5 11 10 0 6 -2 10 -4 10 -3 0
-8 -4 -11 -10z"/>
<path d="M2172 1335 c-13 -16 -5 -19 22 -9 9 3 13 10 10 15 -7 13 -17 11 -32
-6z"/>
<path d="M1300 1336 c0 -2 9 -6 20 -9 11 -3 20 -1 20 4 0 5 -9 9 -20 9 -11 0
-20 -2 -20 -4z"/>
<path d="M1138 1323 c7 -3 16 -2 19 1 4 3 -2 6 -13 5 -11 0 -14 -3 -6 -6z"/>
<path d="M2110 1320 c0 -5 7 -7 15 -4 8 4 15 8 15 10 0 2 -7 4 -15 4 -8 0 -15
-4 -15 -10z"/>
<path d="M1386 1312 c-3 -5 1 -9 9 -9 8 0 12 4 9 9 -3 4 -7 8 -9 8 -2 0 -6 -4
-9 -8z"/>
<path d="M1148 1300 c-16 -5 -28 -6 -28 -3 0 3 -7 0 -15 -7 -17 -14 -20 -30
-4 -30 5 0 7 5 3 11 -5 9 1 10 22 5 16 -4 31 -11 34 -16 6 -9 25 -13 55 -11
15 1 17 3 6 10 -9 6 -10 11 -2 15 16 10 13 26 -5 26 -8 0 -12 -4 -9 -10 3 -5
-4 -10 -15 -10 -16 0 -20 5 -16 15 3 8 4 15 3 14 -1 0 -14 -4 -29 -9z"/>
<path d="M2472 1273 c-6 -2 -10 -9 -6 -14 8 -14 21 -11 28 6 6 15 1 17 -22 8z"/>
<path d="M2470 1223 c0 -6 8 -17 18 -24 16 -13 16 -13 2 6 -8 11 -16 22 -17
24 -2 2 -3 0 -3 -6z"/>
<path d="M2036 1212 c-8 -13 71 -52 102 -52 l27 1 -25 14 c-14 8 -35 14 -46
15 -12 0 -24 7 -28 15 -6 16 -22 20 -30 7z"/>
<path d="M2098 1203 c7 -3 16 -2 19 1 4 3 -2 6 -13 5 -11 0 -14 -3 -6 -6z"/>
<path d="M1120 1125 c7 -8 8 -15 3 -15 -5 0 -18 -7 -29 -16 -18 -14 -18 -15 4
-4 17 8 22 8 20 -2 -2 -7 4 -12 12 -10 12 3 12 1 3 -9 -17 -17 5 -48 31 -42
17 4 18 3 6 -6 -13 -9 -13 -11 2 -11 9 0 19 4 22 9 7 10 -22 25 -41 22 -7 -1
-13 3 -13 9 0 5 7 10 15 10 8 0 15 9 15 20 0 11 -7 20 -15 20 -18 0 -20 20 -2
21 6 0 3 4 -8 9 -31 13 -39 12 -25 -5z"/>
<path d="M2488 1113 c7 -3 16 -2 19 1 4 3 -2 6 -13 5 -11 0 -14 -3 -6 -6z"/>
<path d="M1207 1079 c7 -7 15 -10 18 -7 3 3 -2 9 -12 12 -14 6 -15 5 -6 -5z"/>
<path d="M1077 1068 c-12 -10 -14 -17 -6 -28 9 -13 10 -12 5 3 -3 9 0 17 6 17
6 0 17 -8 24 -17 13 -16 13 -16 10 6 -3 30 -16 36 -39 19z"/>
<path d="M1380 1020 c0 -5 5 -10 11 -10 5 0 7 5 4 10 -3 6 -8 10 -11 10 -2 0
-4 -4 -4 -10z"/>
<path d="M343 975 c-9 -25 4 -29 17 -6 7 15 7 21 0 21 -6 0 -13 -7 -17 -15z"/>
<path d="M1273 975 c0 -11 4 -12 14 -4 7 6 13 13 13 15 0 2 -6 4 -13 4 -8 0
-14 -7 -14 -15z"/>
<path d="M546 970 c-15 -5 -17 -8 -6 -15 18 -11 -15 -36 -38 -28 -13 3 -14 2
-4 -4 7 -5 10 -17 6 -26 -4 -13 -1 -17 15 -17 12 0 21 5 21 10 0 6 -5 10 -10
10 -6 0 -5 6 2 14 8 9 17 11 24 5 15 -12 26 15 16 40 -5 13 -13 16 -26 11z"/>
<path d="M1314 971 c4 -5 0 -11 -6 -14 -7 -3 -3 -4 8 -4 21 1 23 27 2 27 -5 0
-7 -4 -4 -9z"/>
<path d="M1826 966 c2 -6 13 -12 24 -12 23 0 17 12 -9 19 -12 3 -18 0 -15 -7z"/>
<path d="M1210 955 c0 -7 7 -18 15 -25 10 -9 15 -9 15 -1 0 6 -6 11 -12 11 -9
0 -8 3 2 9 8 6 19 7 25 4 5 -4 7 -2 2 2 -12 14 -47 13 -47 0z"/>
<path d="M360 940 c0 -13 18 -22 24 -11 3 5 -1 11 -9 15 -8 3 -15 1 -15 -4z"/>
<path d="M1161 941 c-8 -6 -9 -11 -3 -15 6 -3 14 -1 17 5 9 14 2 20 -14 10z"/>
<path d="M1190 943 c0 -6 8 -17 18 -24 16 -13 16 -13 2 6 -8 11 -16 22 -17 24
-2 2 -3 0 -3 -6z"/>
<path d="M2446 933 c5 -5 12 -12 16 -18 4 -6 8 -2 8 8 0 9 -7 17 -17 17 -9 0
-12 -3 -7 -7z"/>
<path d="M470 921 c0 -6 4 -13 10 -16 6 -3 7 1 4 9 -7 18 -14 21 -14 7z"/>
<path d="M1263 923 c4 -3 5 -8 2 -13 -3 -4 4 -6 15 -3 12 3 20 0 20 -6 0 -7
-5 -9 -12 -5 -7 4 -8 3 -4 -4 8 -14 33 -5 40 14 4 10 -2 14 -18 14 -14 0 -30
2 -38 3 -7 2 -10 2 -5 0z"/>
<path d="M596 898 c5 -8 2 -9 -11 -4 -15 6 -16 4 -4 -10 11 -13 11 -15 -2 -14
-27 4 -40 0 -34 -10 4 -6 15 -8 26 -5 11 4 19 2 19 -4 0 -6 11 -11 25 -11 17
0 23 4 19 14 -3 9 -13 12 -22 9 -14 -5 -15 -3 -4 8 16 17 15 26 -4 33 -10 4
-13 2 -8 -6z"/>
<path d="M907 891 c6 -22 -6 -28 -23 -11 -7 7 -11 6 -11 -4 0 -8 4 -13 8 -10
4 2 10 0 14 -6 8 -12 16 -12 34 -1 11 7 10 13 -7 31 -21 22 -21 22 -15 1z"/>
<path d="M1117 885 c3 -8 9 -12 14 -9 12 7 11 11 -5 17 -10 4 -13 1 -9 -8z"/>
<path d="M830 870 c0 -5 5 -10 10 -10 6 0 10 5 10 10 0 6 -4 10 -10 10 -5 0
-10 -4 -10 -10z"/>
<path d="M1310 869 c0 -5 5 -7 10 -4 6 3 10 8 10 11 0 2 -4 4 -10 4 -5 0 -10
-5 -10 -11z"/>
<path d="M447 864 c-3 -4 -1 -16 5 -28 6 -11 11 -22 10 -23 -7 -11 1 -13 12
-4 19 16 13 47 -9 43 -10 -2 -14 1 -10 7 7 12 2 15 -8 5z"/>
<path d="M781 854 c0 -11 3 -14 6 -6 3 7 2 16 -1 19 -3 4 -6 -2 -5 -13z"/>
<path d="M1156 858 c-20 -11 -21 -28 -2 -28 7 0 19 -6 25 -14 10 -12 8 -15
-11 -19 -21 -4 -20 -4 4 -6 15 0 30 -5 33 -11 3 -5 0 -7 -8 -4 -11 4 -14 -3
-13 -26 0 -19 5 -29 13 -26 7 3 10 -1 7 -8 -6 -16 72 -21 82 -5 4 8 3 9 -4 5
-7 -4 -12 -2 -12 4 0 6 -5 8 -12 4 -7 -4 -8 -3 -4 5 11 17 -4 53 -19 47 -7 -2
-16 2 -19 10 -4 11 2 14 23 12 21 -2 27 -6 23 -18 -4 -12 -2 -12 8 -3 7 6 19
9 28 5 12 -4 14 -1 8 14 -7 18 -6 18 12 -1 11 -11 18 -22 17 -23 -7 -8 30 -42
44 -42 11 0 10 4 -5 16 -18 15 -18 15 6 8 35 -9 142 -11 127 -2 -9 6 -9 8 1 8
8 0 10 5 6 13 -4 6 2 4 13 -5 21 -19 69 -25 58 -8 -3 6 -13 10 -22 10 -9 0
-24 7 -34 16 -20 18 -61 10 -53 -10 3 -8 -4 -15 -20 -18 -14 -3 -26 -1 -26 3
0 5 8 9 18 9 13 0 14 2 3 9 -9 6 -10 11 -2 15 8 5 7 11 -2 20 -14 16 -40 9
-30 -8 5 -8 3 -8 -8 0 -8 6 -30 10 -51 10 -20 -1 -34 3 -31 7 3 5 -3 8 -13 7
-37 -4 -64 0 -64 10 0 6 6 10 14 10 8 0 17 4 20 8 7 11 -108 11 -128 0z"/>
<path d="M1340 860 c0 -5 5 -10 11 -10 5 0 7 5 4 10 -3 6 -8 10 -11 10 -2 0
-4 -4 -4 -10z"/>
<path d="M1372 846 c2 -17 8 -24 21 -23 16 1 16 3 3 13 -9 6 -13 13 -10 16 3
4 1 9 -5 13 -7 4 -10 -3 -9 -19z"/>
<path d="M1577 859 c7 -7 15 -10 18 -7 3 3 -2 9 -12 12 -14 6 -15 5 -6 -5z"/>
<path d="M1775 860 c-3 -5 -12 -7 -20 -3 -9 3 -15 -1 -15 -11 0 -9 8 -16 18
-16 19 0 42 18 42 32 0 11 -18 10 -25 -2z"/>
<path d="M2278 844 c4 -21 1 -25 -14 -22 -11 2 -19 10 -18 18 1 11 -10 15 -43
14 -24 0 -48 -5 -54 -11 -6 -6 1 -9 23 -6 21 2 27 0 16 -4 -15 -7 -15 -11 -2
-33 l15 -25 -7 24 c-6 23 -5 24 40 18 42 -6 48 -4 56 16 6 14 9 16 9 6 1 -9 8
-16 16 -16 11 0 12 3 3 14 -6 8 -19 18 -28 23 -14 8 -16 5 -12 -16z"/>
<path d="M826 832 c-3 -5 -18 -7 -34 -4 -36 5 -47 -17 -24 -49 9 -13 15 -32
14 -42 -3 -15 2 -17 30 -12 18 3 34 7 35 9 7 7 -29 45 -40 41 -19 -7 -41 11
-34 29 8 20 22 20 39 1 41 -49 42 -50 49 -24 3 13 2 29 -3 35 -4 6 -5 14 -1
17 3 4 -1 7 -10 7 -9 0 -18 -4 -21 -8z"/>
<path d="M1465 830 c3 -5 8 -10 11 -10 2 0 4 5 4 10 0 6 -5 10 -11 10 -5 0 -7
-4 -4 -10z"/>
<path d="M870 826 c0 -2 7 -7 16 -10 8 -3 12 -2 9 4 -6 10 -25 14 -25 6z"/>
<path d="M554 809 c-3 -6 -3 -13 0 -16 3 -4 6 0 6 8 0 12 2 12 9 0 5 -8 11 -9
15 -3 3 5 -1 12 -9 16 -8 3 -17 1 -21 -5z"/>
<path d="M2379 794 c19 -8 36 -12 39 -9 5 5 -43 25 -61 25 -7 -1 3 -7 22 -16z"/>
<path d="M1660 789 c0 -5 5 -7 10 -4 6 3 10 8 10 11 0 2 -4 4 -10 4 -5 0 -10
-5 -10 -11z"/>
<path d="M1826 791 c-3 -5 1 -11 9 -15 8 -3 15 -1 15 4 0 13 -18 22 -24 11z"/>
<path d="M2297 789 c7 -7 15 -10 18 -7 3 3 -2 9 -12 12 -14 6 -15 5 -6 -5z"/>
<path d="M934 777 c-13 -15 -7 -37 11 -37 7 0 13 11 13 25 0 27 -7 31 -24 12z"/>
<path d="M1007 774 c3 -7 9 -14 14 -14 5 0 9 -5 9 -11 0 -6 -7 -9 -15 -5 -9 3
-15 0 -15 -9 0 -16 30 -9 42 9 5 8 10 8 18 0 7 -7 5 -16 -6 -30 -8 -10 -13
-14 -10 -8 3 6 -1 11 -8 11 -7 0 -11 -9 -9 -21 3 -12 -5 -32 -16 -45 -28 -32
-27 -40 2 -13 24 23 51 32 29 10 -15 -15 -16 -28 -2 -28 6 0 9 3 9 8 -3 19 2
25 11 12 7 -11 10 -11 10 -2 0 7 5 10 12 6 7 -4 8 -3 4 5 -4 6 -12 8 -18 5 -8
-5 -9 -1 -5 10 4 9 3 14 -2 11 -5 -3 -12 -1 -15 4 -3 5 5 12 19 15 16 4 22 11
19 21 -4 8 -1 15 5 15 6 0 11 7 11 16 0 8 -5 12 -10 9 -6 -4 -21 0 -33 7 -37
24 -57 29 -50 12z"/>
<path d="M1135 770 c-3 -5 3 -10 15 -10 12 0 18 5 15 10 -3 6 -10 10 -15 10
-5 0 -12 -4 -15 -10z"/>
<path d="M1888 768 c-18 -6 -28 -17 -28 -29 0 -11 -5 -17 -10 -14 -6 4 -7 11
-4 17 5 8 1 9 -10 5 -10 -4 -20 -7 -23 -7 -3 0 1 -8 8 -17 12 -15 12 -16 -3
-11 -20 8 -18 -19 3 -33 8 -5 10 -9 4 -9 -5 0 -3 -5 5 -11 12 -8 9 -10 -12 -6
-19 3 -25 0 -21 -10 3 -7 11 -13 18 -13 8 0 20 -6 28 -14 28 -29 148 -42 131
-15 -2 5 6 11 20 15 28 7 33 21 27 77 -2 27 -7 37 -17 33 -8 -3 -11 0 -7 10 4
10 -2 17 -16 21 -11 3 -18 9 -15 14 3 5 0 9 -5 9 -6 0 -11 -4 -11 -10 0 -5 -9
-10 -21 -10 -11 0 -17 5 -14 10 3 6 5 10 3 9 -2 0 -15 -5 -30 -11z m17 -67 c2
-11 0 -21 -6 -21 -5 0 -11 0 -14 0 -3 0 -5 3 -4 6 0 4 -5 11 -13 16 -9 6 -6 7
9 3 19 -5 22 -3 16 12 -3 10 -3 15 1 12 4 -4 8 -16 11 -28z m56 19 c5 0 9 -4
9 -10 0 -5 -7 -7 -15 -4 -8 4 -15 1 -15 -6 0 -6 -4 -8 -10 -5 -17 10 -12 38 6
31 9 -3 20 -6 25 -6z m-65 -65 c-11 -8 -25 -15 -30 -15 -6 0 -2 7 8 15 11 8
25 15 30 15 6 0 2 -7 -8 -15z"/>
<path d="M2438 773 c7 -3 16 -2 19 1 4 3 -2 6 -13 5 -11 0 -14 -3 -6 -6z"/>
<path d="M547 754 c3 -8 10 -14 17 -14 6 0 4 -5 -4 -10 -9 -6 -10 -10 -3 -10
11 0 33 29 33 43 0 3 -11 5 -24 5 -17 0 -23 -5 -19 -14z"/>
<path d="M1731 754 c0 -11 3 -14 6 -6 3 7 2 16 -1 19 -3 4 -6 -2 -5 -13z"/>
<path d="M2000 758 c0 -8 40 -12 68 -9 8 1 19 -2 25 -7 7 -5 21 -6 32 -1 11 4
17 8 13 10 -5 1 -12 3 -18 4 -5 1 -11 3 -12 5 -8 6 -108 4 -108 -2z"/>
<path d="M703 739 c9 -14 7 -22 -7 -38 -11 -12 -25 -21 -33 -21 -7 0 -13 -4
-13 -10 0 -5 5 -10 10 -10 6 0 10 -5 10 -11 0 -5 -4 -7 -10 -4 -5 3 -10 1 -10
-4 0 -6 9 -11 20 -11 13 0 17 5 14 14 -8 21 15 59 31 52 18 -7 29 10 13 18
-10 5 -10 7 0 12 19 9 14 21 -12 26 -21 4 -23 3 -13 -13z"/>
<path d="M760 749 c0 -5 5 -7 10 -4 6 3 10 8 10 11 0 2 -4 4 -10 4 -5 0 -10
-5 -10 -11z"/>
<path d="M450 740 c0 -5 5 -10 11 -10 5 0 7 5 4 10 -3 6 -8 10 -11 10 -2 0 -4
-4 -4 -10z"/>
<path d="M643 729 c6 -10 14 -16 18 -13 4 2 9 -1 11 -8 3 -7 7 -3 10 9 5 17 1
22 -22 25 -24 4 -26 2 -17 -13z"/>
<path d="M1270 741 c0 -5 9 -7 20 -4 13 3 20 0 20 -8 0 -8 11 -15 24 -15 23
-2 23 -1 5 17 -19 19 -69 26 -69 10z"/>
<path d="M2478 743 c7 -3 16 -2 19 1 4 3 -2 6 -13 5 -11 0 -14 -3 -6 -6z"/>
<path d="M360 730 c0 -5 5 -10 10 -10 6 0 10 5 10 10 0 6 -4 10 -10 10 -5 0
-10 -4 -10 -10z"/>
<path d="M487 723 c3 -7 13 -11 24 -10 31 5 32 14 1 19 -22 3 -29 1 -25 -9z"/>
<path d="M900 725 c-7 -9 -21 -13 -31 -10 -11 4 -26 -3 -39 -17 -15 -17 -19
-18 -15 -5 4 9 3 17 -3 17 -6 0 -9 -8 -7 -17 1 -12 9 -17 21 -15 16 3 17 1 6
-9 -16 -17 -48 1 -44 24 2 11 -3 14 -18 10 -14 -4 -17 -9 -11 -17 11 -14 -24
-41 -39 -31 -6 4 -10 2 -10 -4 0 -5 5 -13 10 -16 6 -4 8 -10 5 -15 -3 -4 2
-13 10 -20 8 -7 15 -19 15 -26 0 -8 5 -14 11 -14 6 0 9 6 6 14 -3 8 -1 17 6
20 9 3 8 5 -1 5 -7 1 -11 5 -7 10 3 5 0 13 -6 17 -8 4 -9 3 -5 -4 4 -7 2 -12
-4 -12 -6 0 -10 10 -8 23 2 15 9 21 21 19 9 -2 17 3 17 9 0 8 7 6 18 -4 10
-10 24 -17 30 -17 7 0 12 -5 12 -11 0 -5 6 -7 13 -3 8 5 7 2 -2 -10 -8 -9 -19
-15 -26 -12 -6 2 -12 -2 -12 -9 0 -8 9 -13 19 -12 10 1 18 5 18 9 0 5 11 1 25
-8 19 -12 29 -14 38 -5 10 8 19 7 33 -4 17 -13 17 -16 4 -25 -13 -9 -12 -11 4
-8 12 2 20 12 21 28 3 25 1 26 -48 23 -49 -2 -52 0 -53 22 -1 15 2 22 9 18 6
-3 7 -1 3 6 -4 6 -15 10 -24 9 -12 -2 -16 3 -14 17 2 11 4 25 4 32 1 7 5 10 9
7 5 -2 6 -11 3 -18 -11 -29 42 -44 68 -18 9 9 5 12 -21 12 l-32 0 21 30 c22
31 22 42 0 15z"/>
<path d="M1548 733 c7 -3 16 -2 19 1 4 3 -2 6 -13 5 -11 0 -14 -3 -6 -6z"/>
<path d="M1581 711 c-19 -17 -37 -28 -41 -26 -4 2 -12 -6 -18 -19 -8 -18 -7
-23 4 -23 8 0 14 7 14 16 0 13 2 13 9 2 5 -7 14 -10 21 -6 9 6 9 9 -1 16 -10
6 -9 10 6 15 11 4 25 15 32 23 7 9 13 11 13 6 0 -6 -5 -16 -11 -22 -8 -8 -5
-17 11 -33 12 -12 26 -20 32 -18 6 2 4 11 -6 21 -10 9 -13 17 -7 17 5 0 13 -4
16 -10 11 -18 20 -10 21 19 1 26 -1 28 -13 15 -20 -20 -28 -18 -39 12 l-9 26
-34 -31z"/>
<path d="M2481 714 c0 -11 3 -14 6 -6 3 7 2 16 -1 19 -3 4 -6 -2 -5 -13z"/>
<path d="M450 709 c0 -5 6 -9 14 -9 9 0 13 -8 9 -22 -4 -21 -3 -21 7 -5 6 10
10 23 8 29 -5 14 -38 20 -38 7z"/>
<path d="M1759 707 c-15 -11 -15 -15 -3 -32 13 -17 13 -20 -3 -26 -14 -4 -14
-6 -2 -11 9 -3 24 4 36 18 19 21 19 25 5 36 -13 11 -14 11 -7 -1 5 -10 4 -12
-4 -7 -9 6 -9 11 0 22 14 17 0 18 -22 1z"/>
<path d="M2300 708 c0 -4 4 -8 9 -8 6 0 12 4 15 8 3 5 -1 9 -9 9 -8 0 -15 -4
-15 -9z"/>
<path d="M2425 710 c3 -5 8 -10 11 -10 2 0 4 5 4 10 0 6 -5 10 -11 10 -5 0 -7
-4 -4 -10z"/>
<path d="M573 699 c-35 -10 -45 -28 -15 -25 9 0 16 -5 15 -11 -2 -7 5 -13 15
-13 12 0 17 8 17 30 0 17 0 30 0 29 0 0 -15 -5 -32 -10z"/>
<path d="M957 694 c3 -8 -10 -28 -33 -49 -32 -29 -35 -35 -18 -35 12 0 25 10
32 25 8 16 17 23 27 19 9 -4 22 1 30 12 17 22 19 38 5 29 -5 -3 -10 -2 -10 2
0 5 -9 9 -19 10 -14 1 -18 -3 -14 -13z m33 -14 c0 -5 -5 -10 -11 -10 -5 0 -7
5 -4 10 3 6 8 10 11 10 2 0 4 -4 4 -10z"/>
<path d="M1105 700 c-3 -5 -1 -10 4 -10 6 0 11 5 11 10 0 6 -2 10 -4 10 -3 0
-8 -4 -11 -10z"/>
<path d="M1127 696 c-6 -14 0 -26 14 -26 3 0 9 9 12 20 6 23 -18 28 -26 6z"/>
<path d="M2048 703 c7 -3 16 -2 19 1 4 3 -2 6 -13 5 -11 0 -14 -3 -6 -6z"/>
<path d="M1330 686 c0 -13 -19 -26 -48 -32 -23 -4 -24 -11 -2 -17 13 -3 23 0
27 9 3 8 11 14 19 14 8 0 14 9 14 20 0 11 -2 20 -5 20 -3 0 -5 -6 -5 -14z"/>
<path d="M2205 690 c4 -6 11 -8 16 -5 14 9 11 15 -7 15 -8 0 -12 -5 -9 -10z"/>
<path d="M2250 680 c6 -12 21 -20 36 -20 14 0 22 4 19 10 -3 6 -13 10 -21 10
-8 0 -14 5 -14 10 0 6 -7 10 -15 10 -13 0 -14 -4 -5 -20z"/>
<path d="M2330 690 c-8 -5 -11 -12 -7 -16 4 -4 13 -2 19 4 15 15 7 24 -12 12z"/>
<path d="M1360 665 c0 -4 7 -13 15 -19 13 -9 11 -11 -9 -11 -13 0 -21 4 -18
10 3 6 -3 3 -14 -6 -21 -18 -67 -32 -58 -18 3 5 0 9 -5 9 -6 0 -11 -4 -11 -10
0 -6 -6 -9 -12 -8 -8 2 -14 -9 -16 -24 -3 -24 -6 -26 -22 -18 -15 8 -17 6 -13
-10 3 -11 11 -20 19 -20 8 0 11 -6 8 -15 -9 -23 43 -19 56 4 7 15 6 23 -5 35
-8 8 -15 20 -15 26 0 7 8 2 19 -11 16 -20 22 -22 42 -12 18 9 19 12 7 12 -9 1
-19 5 -22 10 -10 15 22 6 42 -12 19 -17 52 -14 52 4 0 5 7 9 15 9 21 0 19 -9
-7 -31 -11 -11 -16 -19 -11 -19 6 0 16 7 23 15 9 11 16 13 24 5 13 -13 49 -13
41 0 -4 6 -14 9 -23 8 -9 -2 -18 5 -20 14 -3 14 1 16 15 11 16 -5 16 -4 -2 14
-11 11 -21 16 -23 12 -6 -15 -22 -10 -22 6 0 10 10 15 27 15 31 0 22 14 -10
17 -12 0 -32 4 -44 8 -13 4 -23 4 -23 0z m10 -49 c0 -3 -4 -8 -10 -11 -5 -3
-10 -1 -10 4 0 6 5 11 10 11 6 0 10 -2 10 -4z"/>
<path d="M1695 660 c-3 -5 1 -10 9 -10 9 0 16 5 16 10 0 6 -4 10 -9 10 -6 0
-13 -4 -16 -10z"/>
<path d="M2108 663 c7 -3 16 -2 19 1 4 3 -2 6 -13 5 -11 0 -14 -3 -6 -6z"/>
<path d="M1103 646 c0 -8 8 -11 19 -8 27 7 30 18 4 20 -13 1 -23 -4 -23 -12z"/>
<path d="M1592 647 c-10 -12 -9 -16 4 -21 23 -9 42 -8 28 2 -6 4 -13 13 -15
21 -4 11 -7 10 -17 -2z"/>
<path d="M2130 640 c20 -13 33 -13 25 0 -3 6 -14 10 -23 10 -15 0 -15 -2 -2
-10z"/>
<path d="M1465 632 c-16 -4 -15 -6 10 -17 17 -8 24 -14 18 -14 -10 -1 -10 -7
-1 -27 10 -20 9 -27 -2 -34 -11 -7 -9 -11 10 -18 17 -6 27 -6 33 2 5 8 11 6
21 -6 22 -29 54 -22 44 9 -5 12 -28 12 -28 1 0 -6 -8 -4 -17 4 -10 9 -25 13
-33 11 -13 -4 -13 -3 0 9 8 7 16 19 18 26 3 16 -25 16 -31 0 -4 -9 -6 -8 -6 3
-1 8 5 21 12 28 8 10 8 12 0 7 -6 -3 -15 0 -20 7 -4 7 -17 11 -28 9z"/>
<path d="M1705 630 c11 -5 16 -9 10 -9 -5 -1 -3 -6 5 -11 12 -8 10 -10 -10
-10 -24 -1 -24 -1 -5 -13 11 -6 22 -12 25 -12 13 -1 30 -17 25 -25 -3 -5 -1
-11 5 -15 5 -3 10 3 10 14 0 32 50 38 99 12 27 -15 41 -14 41 4 0 8 -7 15 -15
15 -9 0 -29 7 -44 15 -15 7 -49 15 -74 17 -26 2 -49 9 -52 16 -2 6 -12 12 -22
11 -16 0 -16 -1 2 -9z m65 -30 c11 -7 11 -10 2 -10 -7 0 -10 -4 -7 -10 3 -5 2
-10 -4 -10 -5 0 -13 5 -16 10 -4 6 -12 7 -18 3 -7 -4 -6 0 2 10 15 20 20 20
41 7z"/>
<path d="M1544 622 c-14 -8 2 -25 26 -30 11 -2 10 1 -2 11 -10 8 -15 17 -11
20 9 9 1 9 -13 -1z"/>
<path d="M554 612 c2 -4 -10 -14 -27 -22 -18 -8 -26 -15 -18 -18 7 -2 17 1 21
8 4 7 15 10 24 7 11 -5 16 -1 16 13 0 11 -5 20 -11 20 -5 0 -8 -4 -5 -8z"/>
<path d="M2040 610 c0 -5 4 -10 9 -10 6 0 13 5 16 10 3 6 -1 10 -9 10 -9 0
-16 -4 -16 -10z"/>
<path d="M1044 596 c-7 -8 -5 -17 8 -30 22 -24 23 -38 2 -34 -10 2 -19 -2 -21
-8 -2 -6 9 -11 27 -11 20 0 26 3 18 8 -9 6 -2 11 20 15 17 4 32 10 32 15 0 5
-7 6 -16 2 -9 -3 -19 -1 -23 4 -3 5 -15 15 -26 21 l-20 11 20 1 c11 0 27 4 35
10 10 6 6 9 -16 8 -16 -1 -34 -6 -40 -12z"/>
<path d="M1590 589 c0 -5 5 -7 10 -4 6 3 10 8 10 11 0 2 -4 4 -10 4 -5 0 -10
-5 -10 -11z"/>
<path d="M229 556 c6 -7 9 -25 7 -41 -5 -42 -5 -42 -17 -25 -9 13 -10 13 -6 0
2 -10 17 -15 46 -15 24 0 45 3 47 7 3 4 11 5 18 2 7 -3 16 2 19 10 4 9 16 16
27 16 11 0 20 5 20 11 0 5 5 7 10 4 6 -3 10 -4 10 -1 0 3 -13 12 -30 21 -23
12 -30 12 -30 3 0 -8 -12 -13 -31 -13 -22 0 -29 4 -26 16 3 12 -5 15 -35 16
-29 1 -36 -2 -29 -11z m45 -31 c-4 -8 -8 -15 -10 -15 -2 0 -4 7 -4 15 0 8 4
15 10 15 5 0 7 -7 4 -15z"/>
<path d="M645 560 c3 -5 8 -10 11 -10 2 0 4 5 4 10 0 6 -5 10 -11 10 -5 0 -7
-4 -4 -10z"/>
<path d="M1794 556 c-8 -8 -7 -15 2 -23 15 -15 25 -6 17 14 -5 13 -2 13 15 4
26 -14 32 -14 32 0 0 5 -4 7 -10 4 -5 -3 -10 -2 -10 2 0 13 -34 13 -46 -1z"/>
<path d="M2290 560 c0 -6 7 -10 15 -10 8 0 15 2 15 4 0 2 -7 6 -15 10 -8 3
-15 1 -15 -4z"/>
<path d="M2396 557 c3 -10 9 -15 12 -12 3 3 0 11 -7 18 -10 9 -11 8 -5 -6z"/>
<path d="M843 544 c0 -8 7 -14 14 -14 8 0 12 -4 9 -8 -3 -5 1 -9 9 -9 10 0 11
5 5 17 -12 23 -37 32 -37 14z"/>
<path d="M895 550 c-3 -5 -1 -10 4 -10 6 0 11 5 11 10 0 6 -2 10 -4 10 -3 0
-8 -4 -11 -10z"/>
<path d="M1425 540 c-3 -5 -1 -10 4 -10 6 0 11 5 11 10 0 6 -2 10 -4 10 -3 0
-8 -4 -11 -10z"/>
<path d="M1453 528 c1 -7 -4 -12 -12 -10 -12 3 -12 0 -1 -12 9 -12 9 -16 1
-16 -7 0 -10 -4 -7 -9 8 -12 -78 -24 -114 -16 -16 4 -36 2 -45 -3 -15 -8 -15
-10 0 -22 13 -11 18 -11 25 -1 4 8 16 11 28 7 20 -7 21 -7 2 -26 -10 -10 -26
-20 -37 -23 -10 -3 8 -4 40 -4 57 2 73 11 40 21 -10 3 1 3 25 1 32 -4 44 -2
48 10 4 8 14 15 23 15 10 0 21 3 24 6 11 11 -14 46 -28 40 -13 -5 -15 17 -2
30 10 11 9 24 -3 24 -5 0 -9 -6 -7 -12z m14 -74 c-3 -3 -12 -4 -19 -1 -8 3 -5
6 6 6 11 1 17 -2 13 -5z m-80 -20 c-3 -3 -12 -4 -19 -1 -8 3 -5 6 6 6 11 1 17
-2 13 -5z"/>
<path d="M466 515 c-18 -14 -18 -14 1 -12 11 0 20 7 20 14 0 7 -1 13 -1 13 -1
0 -9 -7 -20 -15z"/>
<path d="M1285 519 c-4 -5 8 -9 26 -9 35 0 35 8 1 15 -12 2 -24 0 -27 -6z"/>
<path d="M1830 520 c0 -5 7 -10 16 -10 8 0 12 5 9 10 -3 6 -10 10 -16 10 -5 0
-9 -4 -9 -10z"/>
<path d="M2194 515 c8 -8 17 -15 20 -15 3 0 3 7 0 15 -4 8 -13 15 -21 15 -12
0 -12 -2 1 -15z"/>
<path d="M692 515 c4 -4 0 -14 -10 -21 -15 -12 -15 -12 6 -7 24 6 29 18 10 29
-7 4 -10 4 -6 -1z"/>
<path d="M900 509 c0 -5 5 -7 10 -4 6 3 10 8 10 11 0 2 -4 4 -10 4 -5 0 -10
-5 -10 -11z"/>
<path d="M648 503 c7 -3 16 -2 19 1 4 3 -2 6 -13 5 -11 0 -14 -3 -6 -6z"/>
<path d="M1618 500 c-2 -7 -20 -13 -41 -13 -37 -1 -54 -17 -17 -17 10 0 23 -6
27 -13 4 -7 27 -21 50 -31 23 -10 41 -22 38 -26 -2 -3 28 -7 68 -8 72 -1 72
-1 50 18 -13 10 -23 23 -23 29 0 6 -5 11 -11 11 -6 0 -8 -9 -4 -20 6 -20 -9
-28 -20 -10 -3 6 -17 10 -31 10 -31 0 -31 18 1 26 15 4 25 13 25 25 0 16 -4
17 -25 9 -19 -7 -23 -6 -18 5 7 20 -7 19 -24 -2 -14 -17 -14 -17 -9 0 3 9 1
17 -4 17 -6 0 -10 -6 -10 -12 0 -10 -3 -9 -9 1 -6 10 -10 10 -13 1z m9 -26
c-3 -3 -12 -4 -19 -1 -8 3 -5 6 6 6 11 1 17 -2 13 -5z m160 -70 c-3 -3 -12 -4
-19 -1 -8 3 -5 6 6 6 11 1 17 -2 13 -5z"/>
<path d="M1030 485 c-7 -8 -20 -15 -29 -16 -12 0 -11 -2 4 -9 11 -5 14 -9 8
-9 -12 -1 -19 -31 -7 -31 12 0 33 28 26 35 -4 5 0 4 8 -1 23 -13 39 -13 34 0
-3 9 4 12 23 10 15 -1 39 -2 52 -3 20 -1 21 -3 11 -16 -9 -11 -9 -15 -1 -15 7
0 10 -4 7 -9 -3 -4 -17 -6 -31 -3 -21 3 -24 1 -19 -13 6 -13 9 -14 16 -3 7 10
11 10 15 1 2 -7 12 -13 20 -13 9 0 14 3 10 6 -10 11 17 31 35 26 14 -3 18 2
17 24 -1 16 -3 21 -6 12 -2 -9 -13 -16 -24 -15 -19 1 -19 2 -3 14 15 11 12 13
-29 13 -26 0 -47 5 -47 10 0 7 -6 7 -20 0 -11 -6 -20 -8 -20 -4 0 3 -7 1 -15
-6 -13 -11 -14 -10 -10 3 9 21 -10 30 -25 12z"/>
<path d="M1266 484 c-6 -15 -4 -15 11 -3 10 7 20 15 22 16 2 2 -3 3 -11 3 -9
0 -19 -7 -22 -16z"/>
<path d="M1740 487 c0 -10 8 -17 18 -17 9 0 13 4 7 8 -5 4 -13 11 -17 16 -5 5
-8 2 -8 -7z"/>
<path d="M358 483 c7 -3 16 -2 19 1 4 3 -2 6 -13 5 -11 0 -14 -3 -6 -6z"/>
<path d="M861 474 c0 -11 3 -14 5 -7 4 8 13 9 29 3 15 -6 27 -6 30 0 4 6 -3
10 -14 10 -10 0 -26 3 -35 6 -11 4 -16 1 -15 -12z"/>
<path d="M988 483 c6 -2 18 -2 25 0 6 3 1 5 -13 5 -14 0 -19 -2 -12 -5z"/>
<path d="M950 461 c0 -6 4 -13 10 -16 6 -3 7 1 4 9 -7 18 -14 21 -14 7z"/>
<path d="M810 421 c0 -6 5 -13 10 -16 6 -3 10 1 10 9 0 9 -4 16 -10 16 -5 0
-10 -4 -10 -9z"/>
<path d="M870 420 c-8 -5 -11 -12 -7 -17 5 -4 11 -3 15 3 4 6 14 14 22 17 13
5 13 5 0 6 -8 0 -22 -3 -30 -9z"/>
<path d="M1026 415 c-19 -14 -12 -21 17 -16 4 0 7 -3 7 -8 0 -5 8 -7 18 -4 10
2 19 11 19 18 0 8 -4 12 -8 9 -4 -2 -10 2 -12 8 -4 10 -6 10 -6 1 -1 -7 -6
-13 -12 -13 -5 0 -7 5 -4 10 8 13 4 12 -19 -5z"/>
<path d="M1240 408 c0 -22 26 -24 34 -2 9 22 8 23 -14 21 -12 -1 -20 -8 -20
-19z"/>
<path d="M770 414 c0 -3 6 -12 14 -19 17 -17 30 -7 15 12 -12 13 -29 18 -29 7z"/>
<path d="M1553 408 c0 -8 15 -14 34 -15 29 -1 32 1 22 13 -14 17 -56 19 -56 2z"/>
<path d="M1470 403 c0 -1 9 -7 19 -12 14 -8 20 -7 24 2 3 8 -4 13 -19 13 -13
0 -24 -1 -24 -3z"/>
<path d="M7 373 c-4 -3 -7 -89 -7 -190 l0 -183 310 0 310 0 0 159 c0 98 4 162
10 166 6 4 8 9 6 13 -5 9 246 8 260 -1 6 -3 14 -4 17 0 4 3 292 6 640 6 463 0
639 -4 655 -12 21 -11 22 -18 22 -171 l0 -160 385 0 385 1 0 178 c0 194 2 189
-57 185 -67 -3 -65 -2 -53 -24 6 -11 9 -20 8 -21 -40 -10 -58 2 -38 26 6 7 7
15 3 17 -21 11 -260 1 -283 -12 -21 -11 -23 -11 -13 1 10 12 -125 14 -965 14
-640 0 -980 -3 -984 -10 -5 -7 -8 -7 -8 0 0 6 -21 9 -47 8 -27 0 -54 4 -62 10
-10 8 -13 9 -8 1 8 -14 -452 -16 -469 -3 -6 5 -14 6 -17 2z m2753 -63 c55 -28
100 -52 100 -55 0 -5 -199 92 -209 101 -14 13 21 -2 109 -46z m-2723 -37 c1
-55 -1 -70 -13 -70 -11 0 -14 17 -14 75 0 54 3 73 13 70 8 -3 13 -29 14 -75z
m566 21 c-1 -27 -2 -59 -2 -71 -1 -14 -7 -23 -17 -23 -12 0 -15 9 -12 48 2 26
9 57 16 69 8 14 8 23 2 26 -6 3 -5 4 2 3 8 -2 12 -20 11 -52z m1677 -6 c-3
-80 -2 -84 12 -70 7 7 19 12 28 12 8 -1 -2 -10 -24 -21 -30 -16 -41 -18 -50
-8 -8 9 -8 10 2 5 6 -4 12 -2 12 3 0 6 -6 11 -12 12 -10 0 -10 2 0 6 10 4 10
8 0 21 -11 13 -11 14 0 8 10 -6 13 -2 10 15 -2 13 -7 27 -13 31 -6 5 -5 8 3 8
6 0 12 7 12 15 0 8 5 15 11 15 6 0 10 -21 9 -52z m540 48 c0 -2 -7 -7 -16 -10
-8 -3 -12 -2 -9 4 6 10 25 14 25 6z m158 -39 c2 -23 4 -57 6 -74 2 -37 1 -38
-34 -18 -30 17 -44 19 -35 5 3 -5 1 -10 -4 -10 -6 0 -11 4 -11 9 0 17 19 22
40 11 18 -10 20 -8 21 27 1 21 0 50 -1 66 -1 15 2 27 7 27 4 0 9 -19 11 -43z
m-647 10 c-10 -9 -11 -8 -5 6 3 10 9 15 12 12 3 -3 0 -11 -7 -18z m49 5 c0 -4
-9 -13 -20 -20 -22 -13 -27 -3 -8 16 14 14 28 16 28 4z m129 4 c-10 -9 -129
-66 -129 -61 0 6 111 64 124 65 5 0 7 -2 5 -4z m326 -6 c3 -5 1 -10 -4 -10 -6
0 -11 5 -11 10 0 6 2 10 4 10 3 0 8 -4 11 -10z m-191 -23 c3 3 6 1 6 -5 0 -19
-18 -23 -34 -6 -21 21 -20 27 3 15 10 -6 21 -7 25 -4z m261 -7 c-1 -11 -4 -22
-7 -25 -9 -9 -30 23 -23 35 11 17 32 11 30 -10z m-100 -20 c3 -5 1 -10 -4 -10
-6 0 -11 5 -11 10 0 6 2 10 4 10 3 0 8 -4 11 -10z m-125 -10 c-19 -13 -30 -13
-30 0 0 6 10 10 23 10 18 0 19 -2 7 -10z m-310 -4 c0 -2 -7 -7 -16 -10 -8 -3
-12 -2 -9 4 6 10 25 14 25 6z m382 -18 c-7 -7 -12 -8 -12 -2 0 14 12 26 19 19
2 -3 -1 -11 -7 -17z m-267 -8 c3 -5 -1 -10 -9 -10 -9 0 -16 5 -16 10 0 6 4 10
9 10 6 0 13 -4 16 -10z m209 -6 c9 -3 16 -14 17 -23 0 -15 1 -15 7 0 6 14 9
15 20 3 7 -8 10 -14 6 -14 -3 0 -1 -7 6 -15 7 -8 17 -12 24 -8 6 3 5 0 -2 -8
-11 -12 -14 -12 -21 0 -7 10 -13 11 -27 2 -11 -6 -16 -11 -12 -11 4 0 3 -11
-2 -24 -7 -19 -6 -25 6 -28 12 -2 11 -7 -7 -26 -13 -14 -24 -20 -28 -14 -3 6
-19 14 -34 17 -16 4 -27 14 -27 25 0 9 -10 22 -22 28 -13 6 -17 11 -9 11 8 1
20 9 27 19 10 12 16 14 22 5 5 -8 19 -9 46 -3 54 12 55 18 5 26 -34 6 -39 9
-24 15 11 4 14 8 8 8 -15 1 -18 21 -4 21 5 0 16 -3 25 -6z m-169 -14 c4 -6 -6
-10 -22 -9 -25 0 -26 1 -8 9 11 5 21 9 22 9 1 1 5 -3 8 -9z m333 2 c8 -6 2 -9
-18 -9 -20 0 -26 3 -18 9 7 4 15 8 18 8 3 0 11 -4 18 -8z m-416 -27 c12 -14
28 -25 35 -25 7 0 13 -4 13 -9 0 -5 -13 -8 -30 -6 -16 2 -30 1 -30 -3 0 -4
-11 -7 -24 -7 -18 0 -23 5 -20 20 3 19 2 19 -10 3 -12 -16 -15 -15 -40 12 -24
28 -25 30 -6 30 13 0 18 -5 14 -15 -4 -8 -2 -15 4 -15 5 0 12 7 16 15 3 8 12
12 21 9 8 -3 15 -1 15 5 0 19 19 12 42 -14z m-2411 -8 c-17 -17 -13 -37 7 -38
9 0 12 -3 6 -5 -7 -3 -9 -23 -6 -53 3 -36 1 -49 -10 -54 -13 -4 -16 9 -17 74
-2 82 3 104 21 93 6 -4 6 -10 -1 -17z m574 13 c3 -5 1 -10 -5 -10 -6 0 -8 -4
-5 -10 10 -17 8 -110 -4 -124 -6 -7 -8 -16 -4 -19 3 -4 1 -7 -5 -7 -8 0 -11
27 -9 90 1 62 6 90 14 90 6 0 15 -4 18 -10z m1674 -80 c1 -42 -3 -70 -9 -70
-5 0 -10 14 -10 30 0 17 -5 30 -12 30 -9 0 -8 4 2 10 13 9 13 11 0 20 -10 6
-11 10 -2 10 6 0 11 3 11 8 -4 21 2 43 10 38 5 -3 9 -37 10 -76z m266 70 c-3
-5 0 -10 7 -10 7 0 4 -6 -6 -12 -15 -8 -21 -8 -24 0 -2 7 -10 12 -17 12 -31 0
-20 15 12 18 21 1 32 -2 28 -8z m55 -10 c0 -5 -4 -10 -10 -10 -5 0 -10 5 -10
10 0 6 5 10 10 10 6 0 10 -4 10 -10z m384 -62 c0 -27 -6 -54 -12 -60 -9 -9
-11 6 -11 60 1 53 4 68 12 60 7 -6 12 -33 11 -60z m-449 26 c14 -9 22 -21 18
-30 -5 -13 -8 -12 -24 2 -15 14 -21 14 -34 4 -12 -10 -15 -10 -15 2 0 12 18
38 27 38 2 0 15 -7 28 -16z m210 6 c3 -5 1 -10 -4 -10 -6 0 -11 5 -11 10 0 6
2 10 4 10 3 0 8 -4 11 -10z m174 -38 c-3 -6 -13 -6 -28 -1 -20 8 -21 12 -11
25 12 13 15 13 28 0 8 -8 13 -18 11 -24z m-544 8 c3 -5 -1 -10 -9 -10 -11 0
-16 -9 -16 -26 0 -22 -2 -25 -15 -14 -18 15 -19 32 -3 48 15 15 35 16 43 2z
m150 -20 c-3 -5 -10 -10 -16 -10 -5 0 -9 5 -9 10 0 6 7 10 16 10 8 0 12 -4 9
-10z m82 4 c-3 -3 -12 -4 -19 -1 -8 3 -5 6 6 6 11 1 17 -2 13 -5z m-227 -24
c0 -11 -4 -20 -10 -20 -5 0 -10 9 -10 20 0 11 5 20 10 20 6 0 10 -9 10 -20z
m480 10 c-13 -8 -12 -10 3 -10 9 0 17 -5 17 -10 0 -7 -7 -7 -20 0 -21 11 -19
30 3 30 7 0 6 -4 -3 -10z m-242 -24 c3 -11 -1 -17 -9 -14 -7 2 -13 12 -15 22
-3 23 20 15 24 -8z m199 -2 c-9 -9 -28 6 -21 18 4 6 10 6 17 -1 6 -6 8 -13 4
-17z m-2700 -10 c-3 -3 -12 -4 -19 -1 -8 3 -5 6 6 6 11 1 17 -2 13 -5z m410 0
c-3 -3 -12 -4 -19 -1 -8 3 -5 6 6 6 11 1 17 -2 13 -5z"/>
<path d="M22 320 c0 -14 2 -19 5 -12 2 6 2 18 0 25 -3 6 -5 1 -5 -13z"/>
<path d="M21 234 c0 -11 3 -14 6 -6 3 7 2 16 -1 19 -3 4 -6 -2 -5 -13z"/>
<path d="M581 234 c0 -11 3 -14 6 -6 3 7 2 16 -1 19 -3 4 -6 -2 -5 -13z"/>
<path d="M2625 120 c4 -6 11 -8 16 -5 14 9 11 15 -7 15 -8 0 -12 -5 -9 -10z"/>
<path d="M2645 80 c3 -5 11 -10 16 -10 6 0 7 5 4 10 -3 6 -11 10 -16 10 -6 0
-7 -4 -4 -10z"/>
<path d="M2430 156 c0 -2 7 -7 16 -10 8 -3 12 -2 9 4 -6 10 -25 14 -25 6z"/>
<path d="M750 245 c0 -43 1 -45 30 -45 20 0 30 5 30 15 0 8 -8 15 -18 15 -25
0 -33 10 -20 24 9 10 16 8 30 -6 10 -10 19 -24 19 -30 1 -7 4 3 8 22 7 39 -3
48 -51 49 -27 1 -28 -1 -28 -44z"/>
<path d="M1978 163 c-2 -10 -1 -36 3 -58 6 -36 6 -34 6 18 0 59 -2 69 -9 40z"/>
<path d="M2023 120 c1 -27 5 -50 10 -50 4 0 7 23 6 50 -1 28 -6 50 -10 50 -4
0 -7 -22 -6 -50z"/>
<path d="M764 119 c-11 -18 13 -33 37 -23 19 9 20 11 5 23 -14 12 -16 12 -10
-4 5 -13 3 -16 -7 -13 -8 3 -13 11 -11 17 3 14 -5 14 -14 0z"/>
</g>
</svg>
