<?xml version="1.0" standalone="no"?>
<!DOCTYPE svg PUBLIC "-//W3C//DTD SVG 20010904//EN"
 "http://www.w3.org/TR/2001/REC-SVG-20010904/DTD/svg10.dtd">
<svg version="1.0" xmlns="http://www.w3.org/2000/svg"
 width="259.000000pt" height="194.000000pt" viewBox="0 0 259.000000 194.000000"
 preserveAspectRatio="xMidYMid meet">

<g transform="translate(0.000000,194.000000) scale(0.100000,-0.100000)"
fill="#000000" stroke="none">
<path d="M0 1856 c0 -47 3 -87 8 -89 4 -3 16 -1 27 4 18 7 18 8 -5 9 -23 1
-22 4 24 45 l50 45 113 0 c75 0 112 -4 108 -10 -4 -6 -11 -7 -17 -4 -6 4 -8 2
-4 -4 3 -6 2 -13 -4 -17 -5 -3 -10 -2 -10 3 0 14 -32 25 -39 14 -3 -5 -17 -15
-29 -21 -13 -7 -22 -15 -19 -17 5 -5 68 21 65 27 -2 2 2 -2 9 -9 6 -8 16 -11
22 -7 6 3 11 1 11 -4 0 -6 -8 -11 -17 -12 -11 0 -13 -3 -5 -6 9 -3 6 -12 -10
-29 -26 -26 -39 -29 -55 -13 -13 13 -6 39 9 39 6 0 8 -7 4 -15 -4 -12 -2 -13
14 -3 33 21 34 39 2 32 -15 -3 -40 -7 -57 -8 -16 -1 -40 -3 -52 -4 -13 -1 -23
-6 -23 -12 0 -5 8 -7 18 -4 14 5 15 4 2 -5 -9 -7 -11 -11 -3 -11 7 0 16 7 20
15 5 9 17 12 31 9 12 -4 19 -10 16 -16 -3 -5 -12 -4 -20 3 -12 10 -13 9 -8 -5
4 -9 3 -16 -2 -15 -5 1 -18 1 -29 0 -18 -1 -17 -3 8 -27 28 -26 31 -44 5 -28
-7 5 -22 10 -33 10 -11 1 -30 4 -43 7 -12 3 -35 1 -51 -6 -23 -10 -26 -14 -15
-25 18 -17 24 -15 17 6 -3 9 -3 14 1 10 5 -4 19 -3 33 3 13 5 22 5 19 0 -3 -4
10 -7 29 -5 20 1 33 -2 29 -7 -3 -5 5 -9 18 -10 23 -1 23 -1 -2 -8 -16 -5 -31
-3 -41 6 -18 15 -29 17 -29 4 0 -5 8 -12 18 -14 9 -3 5 -4 -10 -4 -16 1 -28 7
-28 14 0 7 -5 13 -12 13 -6 0 -8 -3 -5 -7 10 -10 -13 -32 -28 -27 -7 3 -16 0
-20 -6 -4 -7 2 -9 19 -6 14 3 28 0 32 -5 3 -5 2 -9 -3 -8 -19 3 -34 -2 -29
-10 3 -5 16 -7 29 -5 12 2 15 1 7 -2 -8 -4 -24 -14 -34 -23 -11 -9 -16 -10
-12 -3 4 6 2 12 -3 12 -6 0 -11 -7 -11 -16 0 -10 7 -14 23 -12 12 2 21 8 20
14 -2 10 13 11 50 5 5 0 5 -6 1 -12 -4 -7 -10 -7 -16 -1 -7 7 -17 3 -30 -10
-11 -11 -18 -22 -15 -24 2 -2 10 2 17 11 7 8 17 15 23 15 6 0 0 -12 -14 -27
-17 -20 -18 -23 -4 -12 24 18 51 18 47 0 -1 -7 2 -10 8 -6 6 3 8 12 4 18 -3 7
1 4 10 -6 8 -11 22 -17 33 -14 16 4 16 5 1 6 -10 0 -18 5 -18 11 0 5 6 7 13 4
7 -2 13 3 14 14 1 10 -5 19 -12 19 -8 0 -12 -4 -9 -9 3 -4 1 -8 -5 -8 -15 0
-19 13 -10 35 4 11 8 14 8 8 1 -7 6 -13 12 -13 5 0 7 6 3 13 -6 10 -4 10 7 0
7 -7 21 -13 31 -13 10 0 18 -5 18 -11 0 -6 -6 -9 -14 -6 -8 3 -17 -1 -20 -10
-5 -11 -2 -14 9 -9 11 4 14 2 8 -7 -4 -6 -8 -15 -8 -20 0 -4 -13 -24 -29 -44
-23 -28 -29 -46 -28 -74 3 -36 2 -37 -63 -65 l-65 -28 0 -119 c0 -92 3 -117
12 -111 10 6 11 4 1 -7 -8 -8 -13 -44 -13 -96 l0 -84 33 -15 32 -15 -32 4
c-33 4 -33 4 -33 -42 0 -42 3 -48 33 -63 17 -9 49 -19 70 -23 22 -3 37 -12 37
-20 0 -12 73 -45 76 -34 0 2 8 -2 17 -9 14 -12 21 -12 47 0 18 8 28 18 25 26
-3 8 5 6 19 -5 13 -11 53 -32 90 -47 36 -16 66 -32 66 -36 0 -5 -15 -10 -32
-12 -31 -4 -29 -6 45 -41 78 -37 95 -49 55 -40 l-23 5 22 -16 c12 -9 32 -20
45 -25 20 -8 17 -10 -19 -10 -36 -1 -43 -4 -43 -21 0 -11 -5 -20 -12 -20 -6 0
-4 -7 5 -18 10 -10 15 -22 12 -25 -3 -4 -2 -5 1 -2 4 2 24 -5 44 -15 21 -11
57 -22 79 -26 39 -6 67 -24 39 -24 -20 -1 16 -19 77 -39 51 -17 56 -17 65 -2
5 9 10 12 10 7 0 -5 7 -3 15 4 13 11 14 10 9 -4 -3 -9 -13 -16 -21 -16 -9 0
-4 -9 14 -24 40 -33 82 -53 127 -60 45 -7 51 -11 42 -25 -9 -14 -1016 -10
-1017 4 0 5 5 11 12 14 7 2 9 -1 5 -8 -5 -7 1 -11 16 -10 13 0 17 3 11 6 -7 2
-13 11 -13 19 0 8 -6 13 -12 12 -7 -2 -12 4 -10 12 2 12 0 12 -11 -2 -9 -11
-14 -53 -16 -122 l-2 -106 161 0 c105 0 159 3 155 10 -3 6 -1 10 4 10 6 0 11
-4 11 -10 0 -6 36 -10 89 -10 l90 0 4 28 4 27 2 -27 1 -28 143 0 143 0 2 47
c1 26 7 52 13 57 9 8 10 7 5 -2 -6 -10 5 -13 53 -11 34 1 61 7 61 12 0 5 -11
7 -25 5 -14 -3 -25 -2 -25 2 0 5 -8 6 -19 3 -10 -3 -22 0 -25 6 -4 7 -1 8 8 5
9 -3 16 -2 16 4 0 6 74 9 200 9 110 -1 200 -5 200 -9 0 -5 8 -5 18 1 9 5 148
9 310 8 230 0 292 -3 292 -13 0 -7 9 -16 20 -19 11 -4 18 -11 15 -16 -4 -5 -2
-9 3 -9 6 0 12 6 15 14 4 10 -2 16 -16 18 -21 3 -20 4 4 9 18 4 26 1 27 -10 4
-33 8 -51 15 -57 4 -4 4 -18 1 -31 l-6 -24 98 3 c62 2 98 7 97 13 -1 6 13 12
30 13 17 2 35 8 39 15 5 9 11 6 22 -8 15 -20 15 -19 17 5 l1 25 7 -25 c4 -15
10 -20 14 -13 4 7 19 8 41 3 30 -6 33 -5 29 11 -7 25 -23 35 -23 15 0 -10 -6
-13 -16 -9 -11 4 -12 8 -4 13 9 6 9 9 -1 12 -12 4 -11 8 1 24 14 17 13 18 -1
7 -15 -12 -29 -8 -29 8 0 16 43 4 48 -13 2 -10 8 -15 13 -13 4 3 6 11 3 18 -2
8 7 12 25 13 16 1 45 9 65 18 37 18 84 13 92 -9 3 -7 15 -10 30 -7 23 4 24 8
24 79 0 81 2 79 -55 58 -16 -5 -17 -5 -5 4 8 6 11 11 6 11 -5 0 -1 9 8 19 10
11 24 17 32 14 10 -4 14 3 14 21 0 18 -4 24 -14 20 -9 -3 -21 5 -31 20 -13 19
-21 23 -33 17 -16 -9 -52 -3 -52 8 0 4 5 12 10 17 7 7 -4 10 -31 9 -38 -1 -69
14 -69 34 0 4 -7 8 -15 8 -8 0 -15 -4 -15 -8 0 -3 -24 2 -54 13 l-55 20 -27
-21 c-14 -11 -30 -18 -35 -15 -13 8 -11 32 3 40 8 5 9 1 4 -12 -11 -28 8 -4
22 28 9 23 9 26 -3 22 -10 -4 -18 4 -25 22 -8 21 -14 24 -22 16 -19 -19 -38
-14 -50 13 -6 14 -15 25 -20 25 -5 0 -6 -5 -2 -11 4 -7 0 -9 -12 -6 -11 3 -29
8 -41 12 -15 4 -20 12 -18 31 1 13 -2 27 -8 31 -6 3 -7 1 -4 -4 4 -6 -3 -13
-16 -17 -34 -9 -55 -6 -29 5 13 5 21 13 17 18 -7 13 26 30 53 28 12 -1 22 -7
22 -15 0 -8 -5 -10 -12 -6 -10 6 -10 5 -1 -8 7 -8 10 -18 6 -22 -4 -3 -8 -14
-9 -22 -2 -14 -1 -14 14 -1 9 9 22 17 27 19 6 2 9 7 7 11 -1 5 2 6 8 2 6 -3 8
-10 5 -15 -3 -5 0 -12 6 -16 7 -4 9 -3 6 3 -4 6 -1 13 7 16 8 3 17 -1 20 -10
6 -14 9 -13 28 3 12 11 18 13 14 7 -5 -9 -2 -11 10 -6 13 5 15 3 9 -8 -5 -8
-5 -11 1 -6 5 5 9 12 9 15 1 17 27 52 38 52 7 0 6 -4 -3 -10 -14 -9 -11 -11
18 -10 4 0 6 10 6 21 -1 14 3 19 15 15 12 -5 12 -3 -2 8 -18 14 -18 14 0 19
13 3 12 5 -7 7 -23 1 -23 2 -5 10 l20 9 -20 0 c-17 1 -18 3 -5 12 11 7 6 8
-20 4 -32 -6 -33 -6 -16 8 22 17 15 50 -9 41 -21 -8 -19 -25 3 -18 14 5 14 4
2 -4 -10 -8 -18 -8 -27 0 -14 11 -18 32 -5 24 4 -2 16 2 27 10 18 14 18 14 -2
14 -11 0 -31 8 -43 18 -21 17 -21 19 -4 32 11 9 15 10 10 3 -4 -7 -2 -13 3
-13 6 0 11 5 11 10 0 6 6 10 13 10 6 -1 1 -10 -12 -20 -23 -20 -23 -20 -2 -20
12 0 21 5 21 11 0 5 5 7 10 4 6 -4 8 -10 5 -15 -6 -10 21 -7 32 4 4 4 3 7 -2
6 -24 -5 -27 1 -9 15 19 15 19 15 0 8 -15 -5 -18 -3 -13 10 3 9 1 19 -5 23 -6
4 -8 3 -4 -4 9 -16 -6 -21 -32 -11 -13 5 -20 14 -17 19 5 8 11 8 19 1 9 -8 13
-7 13 2 0 8 -12 13 -31 11 -51 -3 -56 -4 -56 -13 0 -5 9 -7 20 -4 11 3 20 0
20 -6 0 -6 -6 -11 -12 -11 -10 0 -9 -3 1 -9 10 -7 11 -10 1 -16 -8 -5 -18 -1
-25 8 -10 15 -14 15 -33 1 -12 -8 -22 -12 -22 -8 0 3 -6 1 -14 -5 -11 -9 -16
-9 -22 0 -4 7 -3 9 4 5 6 -3 13 -2 17 4 3 5 -2 10 -12 11 -14 0 -15 2 -3 6 34
13 41 25 23 40 -17 14 -17 14 0 9 12 -4 16 -2 11 5 -4 7 -1 10 7 7 18 -7 51
10 44 23 -4 5 -1 9 5 9 6 0 8 4 5 10 -3 5 3 10 14 10 12 0 21 -4 21 -9 0 -17
61 -21 91 -6 50 26 79 35 79 25 0 -6 -7 -10 -15 -10 -8 0 -15 -5 -15 -11 0 -6
7 -8 15 -5 8 3 22 9 30 12 8 3 15 2 15 -3 0 -6 -17 -15 -39 -21 -46 -14 -61
-15 -41 -2 18 12 2 12 -25 0 -17 -7 -17 -9 -2 -9 9 -1 17 -6 17 -12 0 -7 9 -9
21 -6 14 4 19 2 15 -8 -2 -7 2 -16 10 -19 8 -3 13 -2 10 3 -3 5 1 12 10 15 23
9 24 8 17 -11 -5 -13 -2 -15 11 -10 10 4 22 7 27 7 6 0 7 5 4 10 -5 8 -11 7
-21 -1 -12 -10 -13 -9 -9 4 4 8 21 20 38 27 18 6 46 17 62 24 17 8 33 13 36
12 4 0 15 6 25 15 11 10 28 19 39 21 15 2 20 12 22 36 1 17 -3 32 -8 32 -5 0
-9 -5 -9 -10 0 -6 -3 -10 -7 -9 -16 2 -53 -14 -53 -23 0 -8 18 -5 58 9 6 3 12
1 12 -5 0 -5 -10 -12 -22 -16 -31 -7 -31 -8 -46 -23 -7 -7 -22 -13 -33 -13
-10 0 -19 -4 -19 -9 0 -4 -20 -14 -45 -21 -25 -7 -45 -17 -45 -22 0 -6 -7 -8
-15 -4 -8 3 -15 1 -15 -4 0 -6 -4 -10 -10 -10 -29 0 -3 21 52 43 40 15 62 29
60 38 -2 7 5 19 14 26 24 18 35 16 27 -3 -4 -11 -2 -15 7 -12 19 6 20 46 1 54
-12 4 -4 11 27 25 27 11 41 23 36 30 -4 7 0 9 13 5 16 -5 20 -2 19 16 -1 13
-5 29 -9 36 -5 7 -4 12 2 12 6 0 11 5 11 11 0 8 -5 8 -15 -1 -8 -7 -15 -9 -15
-5 0 4 -6 2 -13 -4 -8 -6 -17 -8 -20 -4 -4 3 -7 1 -7 -5 0 -7 -7 -12 -15 -12
-8 0 -15 -5 -15 -11 0 -6 -7 -9 -15 -5 -8 3 -15 1 -15 -5 0 -6 -7 -9 -15 -5
-8 3 -15 2 -15 -3 0 -8 -38 -24 -52 -22 -5 1 -8 -3 -8 -9 0 -5 -7 -10 -15 -10
-8 0 -15 -5 -15 -11 0 -6 -7 -9 -15 -5 -8 3 -15 2 -15 -3 0 -5 -10 -12 -22
-16 -13 -4 -25 -8 -28 -9 -24 -8 -53 -30 -43 -33 7 -3 44 12 82 31 40 20 73
31 76 26 6 -10 -1 -14 -17 -11 -5 0 -8 -3 -8 -8 0 -5 -10 -12 -22 -16 -13 -4
-26 -8 -30 -10 -19 -6 -23 -7 -30 -6 -5 0 -8 -3 -8 -8 0 -5 -10 -11 -22 -14
-12 -4 -20 -8 -17 -11 7 -8 87 22 136 51 24 14 47 22 51 18 6 -5 -23 -28 -38
-30 -3 0 -31 -13 -62 -28 -31 -15 -62 -27 -67 -27 -6 0 -11 -5 -11 -11 0 -5
-5 -7 -10 -4 -6 4 -8 10 -5 15 3 5 1 11 -4 15 -5 3 -8 15 -6 28 4 20 3 21 -9
5 -19 -25 -23 -23 -23 15 0 17 2 24 4 14 5 -21 43 -14 86 16 16 11 92 48 170
84 147 67 165 77 149 87 -5 3 -19 -4 -31 -15 -12 -11 -26 -17 -31 -14 -6 3
-10 2 -10 -3 0 -9 -37 -25 -52 -23 -5 1 -8 -3 -8 -9 0 -5 -7 -7 -16 -3 -10 4
2 14 40 30 30 14 53 30 52 37 -2 6 -1 8 1 4 8 -15 22 -8 17 7 -4 8 -1 15 6 15
6 0 8 -5 5 -10 -8 -13 5 -13 25 0 13 8 12 10 -3 10 -10 0 -15 5 -12 10 4 6 1
9 -7 8 -7 -2 -12 3 -10 10 3 16 -15 16 -21 0 -3 -7 -4 -3 -4 9 1 21 3 22 24 8
38 -26 44 -19 41 46 -3 59 -5 63 -40 85 l-38 24 -22 -42 c-16 -33 -23 -38 -26
-25 -2 11 8 31 25 49 28 29 28 30 8 44 -11 8 -29 13 -40 10 -12 -3 -33 1 -48
9 -23 12 -28 12 -36 -2 -4 -9 -6 -24 -4 -34 3 -11 0 -19 -6 -19 -7 0 -9 -4 -6
-10 6 -9 -8 -14 -28 -11 -5 1 -6 -3 -2 -9 3 -6 11 -8 16 -5 5 4 9 -1 9 -9 0
-13 -4 -14 -25 -4 -13 6 -22 14 -20 18 2 4 -2 7 -10 7 -8 0 -15 -7 -15 -15 0
-9 3 -12 7 -9 10 11 43 -24 43 -45 0 -40 -65 -12 -86 37 -16 39 -18 57 -4 35
6 -9 10 -11 10 -3 0 7 6 10 14 7 17 -6 31 12 16 21 -6 4 -8 12 -4 18 3 7 -3 3
-13 -8 -10 -11 -25 -20 -33 -20 -24 1 -42 -32 -35 -65 6 -25 2 -31 -25 -45
-17 -9 -40 -25 -51 -36 -11 -11 -25 -17 -31 -13 -7 5 -2 15 15 30 15 13 22 26
17 29 -6 3 -10 3 -10 -1 0 -4 -9 1 -20 11 -16 14 -23 16 -32 7 -11 -11 -1 -17
25 -13 11 2 9 -27 -3 -34 -5 -3 -10 1 -10 10 0 9 -3 14 -7 12 -5 -3 -13 1 -20
8 -9 10 -8 16 5 28 27 23 84 47 95 40 5 -3 7 -1 4 4 -4 6 5 14 20 17 24 7 25
8 7 20 -36 24 -81 35 -94 23 -10 -9 -12 -8 -7 6 7 19 -62 97 -86 97 -8 0 -22
10 -33 22 -10 12 -14 19 -8 15 19 -11 64 -16 64 -6 0 5 16 9 35 9 33 0 35 1
24 21 -9 18 -17 20 -47 16 -19 -4 -40 -11 -45 -16 -11 -11 -1 -10 53 5 19 5
22 4 14 -5 -21 -22 -67 -20 -92 5 -26 25 -48 22 -101 -15 -15 -10 -42 -17 -63
-17 -23 1 -40 -4 -43 -12 -3 -7 -9 -11 -14 -7 -5 3 -13 0 -17 -6 -4 -8 -9 -7
-15 2 -7 11 -9 10 -9 -5 0 -11 -5 -16 -14 -13 -8 3 -17 -2 -21 -11 -5 -14 -7
-14 -15 -2 -8 13 -10 12 -10 -3 0 -10 -4 -15 -10 -12 -5 3 -10 16 -10 28 0 12
-5 29 -10 37 -8 12 -10 9 -8 -10 2 -20 -1 -24 -17 -22 -27 4 -116 43 -137 60
-12 10 -18 11 -24 1 -4 -8 -3 -10 4 -5 18 11 15 1 -13 -40 -24 -36 -25 -36
-25 -10 0 14 5 26 10 26 6 0 10 5 10 11 0 5 -4 8 -9 5 -5 -3 -12 1 -15 10 -4
11 -2 15 6 11 14 -5 40 17 31 27 -9 9 -64 -24 -57 -35 3 -6 3 -39 -1 -75 -6
-62 -7 -63 -28 -49 -19 12 -26 12 -47 0 l-25 -13 28 -11 c35 -14 39 -63 6 -77
-20 -9 -14 -14 47 -43 148 -70 148 -70 129 -91 -10 -11 -22 -17 -26 -14 -5 3
-9 1 -9 -3 0 -8 -62 -36 -67 -31 -1 2 -9 -6 -18 -17 -12 -14 -15 -15 -12 -4 3
9 -1 16 -8 16 -7 0 -11 -6 -8 -13 2 -6 -1 -15 -8 -20 -8 -5 -10 -3 -5 7 4 8 1
6 -7 -4 -8 -9 -19 -17 -26 -17 -19 0 -12 37 8 43 15 3 20 16 22 55 3 43 0 54
-20 74 -14 13 -33 22 -47 20 -15 -2 -26 4 -34 18 -10 18 -14 19 -28 8 -13 -11
-14 -11 -8 1 6 9 5 12 -5 9 -19 -7 -49 10 -49 27 0 17 -11 19 -25 6 -6 -6 -20
-4 -35 5 -14 9 -17 13 -8 10 10 -3 25 -3 33 0 12 5 10 12 -11 37 -20 23 -22
32 -12 38 10 7 10 9 -2 9 -13 0 -13 1 0 10 9 6 10 10 3 10 -6 0 -15 -4 -18
-10 -3 -5 -12 -10 -18 -9 -9 0 -9 2 1 6 6 2 12 9 12 15 0 6 -7 8 -15 4 -26
-10 -16 3 14 18 31 17 52 50 24 39 -11 -5 -14 -3 -8 6 6 10 3 11 -14 2 -25
-14 -28 -3 -4 15 12 8 22 9 30 3 7 -7 14 -6 19 3 4 7 4 10 -1 6 -4 -4 -14 -3
-22 3 -7 6 -13 8 -13 4 0 -4 -6 -2 -14 4 -11 9 -17 8 -29 -4 -18 -18 -31 -20
-21 -4 4 7 1 10 -7 7 -8 -3 -13 -12 -11 -22 2 -11 -4 -16 -20 -17 -20 -1 -19
-2 6 -10 18 -5 34 -5 41 1 12 10 25 4 25 -12 0 -5 -5 -6 -12 -2 -7 5 -8 3 -3
-6 6 -10 4 -12 -8 -7 -9 3 -19 2 -22 -3 -10 -16 -25 -11 -19 5 8 19 -5 19 -30
0 -10 -7 -15 -18 -12 -23 3 -6 0 -13 -6 -16 -7 -3 -3 -3 9 0 17 4 21 2 17 -9
-3 -8 0 -18 7 -23 9 -5 10 -2 6 10 -6 14 -3 17 9 12 8 -3 19 -6 22 -6 4 0 0
-5 -8 -11 -11 -8 -9 -9 10 -4 20 6 22 5 13 -5 -6 -7 -9 -18 -7 -25 6 -14 -43
-9 -52 6 -13 21 -44 5 -84 -42 -34 -40 -43 -59 -44 -91 l-1 -39 -81 -36 -81
-36 4 -49 c4 -46 3 -47 -19 -39 -26 9 -38 51 -14 51 28 0 29 22 2 45 -18 16
-23 26 -15 30 6 4 15 2 19 -5 5 -8 9 -4 13 11 6 23 -9 53 -23 44 -4 -3 -7 3
-6 13 1 13 -5 16 -25 14 -19 -2 -31 4 -43 23 -14 21 -20 23 -36 15 -19 -10
-53 -4 -46 9 3 4 1 13 -4 21 -7 12 -11 12 -26 -1 -15 -12 -17 -12 -9 0 6 11 4
13 -8 8 -9 -3 -24 1 -33 11 -10 9 -26 18 -36 18 -40 3 -43 5 -25 15 17 10 17
11 1 23 -16 12 -14 15 14 31 17 11 34 26 37 34 4 11 -1 9 -17 -5 -36 -33 -48
-37 -48 -18 0 10 3 14 7 11 10 -11 33 13 33 35 0 10 5 16 10 13 6 -3 10 -4 10
-1 0 3 -10 10 -21 17 -13 7 -19 7 -15 1 3 -6 2 -13 -3 -17 -12 -7 -30 25 -24
43 4 10 8 10 21 0 12 -8 11 -5 -2 10 -11 12 -26 20 -34 17 -8 -3 -12 0 -9 7 2
7 13 12 23 10 16 -2 17 -1 4 7 -8 6 -10 11 -5 12 6 0 32 3 59 5 27 2 52 6 54
9 11 11 -5 13 -45 5 -31 -5 -43 -4 -43 5 0 6 12 11 28 10 19 -2 20 -1 4 2 -23
4 -27 27 -8 49 5 5 57 11 117 12 85 2 108 -1 112 -12 4 -9 15 -13 29 -10 l23
5 -22 -12 c-13 -7 -23 -16 -23 -20 0 -5 15 0 33 10 17 10 38 16 45 13 7 -2 24
3 37 12 22 14 74 16 452 14 236 -1 413 -3 395 -5 -18 -3 -30 -8 -27 -13 3 -5
0 -12 -6 -16 -8 -4 -9 -3 -5 4 4 7 3 12 -3 12 -20 0 -22 -22 -2 -27 11 -3 18
-9 15 -14 -3 -5 -10 -7 -15 -3 -10 6 -62 15 -94 16 -42 1 -45 -1 -28 -21 9
-11 20 -18 25 -15 5 3 15 0 23 -6 12 -10 15 -10 15 1 1 10 5 8 15 -4 9 -13 20
-17 34 -12 13 4 21 2 21 -5 0 -7 7 -9 16 -6 10 4 13 2 8 -6 -5 -7 -2 -9 8 -5
9 3 21 0 27 -6 8 -8 11 -8 11 1 0 7 8 12 18 12 14 0 15 -2 2 -10 -12 -8 -12
-10 3 -16 9 -3 15 -9 12 -14 -2 -4 7 -5 20 -2 18 3 25 0 25 -11 0 -11 6 -13
21 -10 16 4 20 2 17 -8 -3 -8 -10 -15 -16 -15 -7 -1 -14 -3 -17 -4 -3 -1 -10
-3 -17 -4 -6 0 -13 -7 -16 -15 -2 -7 -1 -12 4 -9 5 2 24 10 42 17 18 7 32 20
32 29 0 10 3 13 8 7 10 -14 117 -13 130 1 8 9 -2 11 -36 10 -39 -1 -47 2 -51
19 -3 17 -2 18 14 5 17 -14 17 -13 2 17 -23 43 -21 51 3 23 11 -13 23 -20 27
-17 3 4 12 2 20 -4 10 -9 13 -7 14 7 0 11 2 15 5 9 5 -12 104 -7 121 6 6 6 9
23 7 39 -6 34 6 43 57 43 22 0 40 5 43 13 4 10 59 13 262 13 142 1 259 3 262
5 2 3 0 11 -4 18 -12 18 -12 32 1 40 5 4 -574 8 -1287 8 l-1298 0 0 -84z
m1605 65 c3 -5 1 -12 -5 -16 -5 -3 -10 1 -10 9 0 18 6 21 15 7z m22 -13 c-3
-8 -6 -5 -6 6 -1 11 2 17 5 13 3 -3 4 -12 1 -19z m751 15 c-15 -2 -42 -2 -60
0 -18 2 -6 4 27 4 33 0 48 -2 33 -4z m162 0 c0 -5 -5 -15 -11 -23 -9 -13 -10
-12 -5 3 4 12 0 17 -14 17 -12 0 -20 -7 -20 -17 0 -15 -1 -15 -12 -1 -7 9 -24
19 -38 21 -14 2 3 5 38 6 34 0 62 -2 62 -6z m-2472 -25 c3 -13 -3 -18 -22 -18
-20 0 -26 5 -26 21 0 15 5 20 22 17 13 -2 24 -11 26 -20z m529 1 c-1 -11 -9
-19 -19 -19 -22 0 -20 36 3 37 12 1 17 -5 16 -18z m933 11 c0 -13 -11 -13 -30
0 -12 8 -11 10 8 10 12 0 22 -4 22 -10z m50 6 c0 -2 -9 -6 -20 -9 -11 -3 -20
-1 -20 4 0 5 9 9 20 9 11 0 20 -2 20 -4z m105 -6 c-7 -12 -32 -13 -39 -2 -2 4
7 9 20 10 15 1 22 -2 19 -8z m-1515 -8 c0 -5 -7 -9 -15 -9 -8 0 -15 4 -15 9 0
4 7 8 15 8 8 0 15 -4 15 -8z m65 -9 c-19 -13 -31 -11 -21 5 3 5 13 9 22 9 15
0 15 -2 -1 -14z m75 7 c0 -5 -5 -10 -11 -10 -5 0 -7 5 -4 10 3 6 8 10 11 10 2
0 4 -4 4 -10z m118 -7 c2 -7 -4 -13 -13 -13 -9 0 -13 4 -10 10 3 6 -1 7 -9 4
-9 -3 -16 -1 -16 6 0 15 42 9 48 -7z m357 7 c3 -5 1 -10 -4 -10 -6 0 -11 5
-11 10 0 6 2 10 4 10 3 0 8 -4 11 -10z m-25 -4 c0 -3 -4 -8 -10 -11 -5 -3 -10
-1 -10 4 0 6 5 11 10 11 6 0 10 -2 10 -4z m-124 -33 c-4 -5 -21 -8 -37 -8 -16
0 -29 3 -29 8 0 4 17 7 37 7 20 0 33 -3 29 -7z m44 -3 c-19 -13 -30 -13 -30 0
0 6 10 10 23 10 18 0 19 -2 7 -10z m910 6 c0 -3 -4 -8 -10 -11 -5 -3 -10 -1
-10 4 0 6 5 11 10 11 6 0 10 -2 10 -4z m356 -31 c3 -20 4 -39 0 -42 -3 -4 -6
5 -6 20 0 14 -4 28 -9 31 -5 4 -7 -3 -4 -13 4 -16 1 -19 -16 -14 -17 4 -19 8
-10 19 6 7 8 18 4 24 -3 5 3 10 14 10 15 0 22 -9 27 -35z m64 25 c0 -5 -4 -10
-10 -10 -5 0 -10 5 -10 10 0 6 5 10 10 10 6 0 10 -4 10 -10z m30 0 c0 -5 -2
-10 -4 -10 -3 0 -8 5 -11 10 -3 6 -1 10 4 10 6 0 11 -4 11 -10z m-180 -22 c0
-12 -17 -18 -34 -12 -25 10 -19 24 9 22 14 -1 25 -6 25 -10z m-115 -7 c3 -5 2
-12 -3 -15 -5 -3 -9 1 -9 9 0 17 3 19 12 6z m-125 -5 c0 -2 -7 -7 -16 -10 -8
-3 -12 -2 -9 4 6 10 25 14 25 6z m180 -11 c7 -9 8 -15 2 -15 -5 0 -12 7 -16
15 -3 8 -4 15 -2 15 2 0 9 -7 16 -15z m-74 -31 c-3 -7 0 -15 7 -18 7 -2 5 -5
-4 -5 -9 -1 -30 6 -45 14 -20 10 -23 15 -11 15 9 0 17 4 17 9 0 5 9 7 21 4 11
-3 18 -11 15 -19z m204 -6 c0 -16 -3 -18 -13 -9 -8 6 -17 7 -22 3 -4 -4 -2 3
4 16 14 26 31 21 31 -10z m-293 -20 c-3 -7 -5 -2 -5 12 0 14 2 19 5 13 2 -7 2
-19 0 -25z m-22 12 c3 -5 1 -10 -4 -10 -6 0 -11 5 -11 10 0 6 2 10 4 10 3 0 8
-4 11 -10z m-1445 -20 c0 -5 -5 -10 -11 -10 -5 0 -7 5 -4 10 3 6 8 10 11 10 2
0 4 -4 4 -10z m81 -21 c19 -18 26 -29 17 -26 -10 4 -18 2 -18 -3 0 -6 3 -10 8
-10 4 0 20 -12 36 -26 21 -19 26 -28 17 -37 -8 -8 -11 -6 -12 9 0 17 -1 17
-11 -3 -6 -13 -15 -23 -20 -23 -5 0 -7 4 -4 8 7 12 -12 38 -21 29 -4 -5 -1
-12 7 -17 9 -6 10 -10 3 -10 -16 0 -24 15 -17 33 3 9 13 13 27 9 13 -3 18 -1
14 4 -5 5 -13 10 -18 10 -5 1 -13 2 -18 3 -11 1 -9 19 3 41 7 12 6 13 -5 3
-19 -18 -34 -16 -19 2 11 13 10 14 -5 9 -14 -6 -16 -4 -10 6 5 9 4 11 -3 6 -8
-5 -9 -13 -2 -25 5 -10 7 -21 4 -23 -2 -3 2 -11 10 -17 17 -14 10 -44 -8 -35
-6 3 0 -4 14 -15 17 -14 20 -21 10 -21 -12 0 -13 -2 -1 -9 9 -6 10 -11 2 -15
-6 -4 -11 -3 -11 3 0 6 -12 18 -27 26 -16 9 -20 14 -11 11 11 -3 15 -1 12 8
-4 11 -14 11 -47 3 -30 -8 -42 -7 -45 1 -2 7 -8 9 -13 6 -6 -3 -6 -11 2 -20 6
-7 15 -12 19 -9 5 3 7 -3 5 -12 -1 -10 1 -23 6 -28 5 -7 -1 -11 -16 -11 -22 0
-23 1 -9 17 13 14 13 19 2 26 -7 4 -21 19 -29 33 l-16 25 61 1 c35 0 52 -2 41
-6 -11 -4 -23 -6 -27 -4 -4 3 -9 0 -13 -5 -3 -6 6 -8 22 -5 49 8 51 10 48 63
-3 43 0 51 14 51 10 0 33 -14 52 -31z m749 -39 c-37 -28 -50 -24 -15 4 17 13
32 22 35 19 3 -2 -6 -13 -20 -23z m935 0 c-3 -5 -16 -10 -28 -10 -18 0 -19 2
-7 10 20 13 43 13 35 0z m-889 -32 c4 -7 4 -10 0 -6 -10 8 -49 -27 -52 -46 -2
-16 22 -30 36 -21 5 3 7 -3 6 -12 -2 -10 7 -25 18 -34 12 -10 18 -20 14 -24
-10 -11 -49 15 -42 27 5 8 1 9 -10 5 -25 -10 -40 1 -26 18 9 11 2 19 -37 40
-33 18 -40 24 -21 20 15 -3 29 -1 33 5 3 5 11 7 18 4 7 -2 22 4 32 16 21 24
22 24 31 8z m829 -8 c-4 -6 -11 -8 -16 -5 -5 4 -9 1 -9 -5 0 -7 -7 -10 -15 -6
-9 3 -15 0 -15 -8 0 -18 18 -15 52 8 15 10 32 15 38 11 5 -3 10 -1 10 5 0 6 5
8 10 5 14 -9 12 -26 -2 -22 -7 1 -13 -4 -14 -10 -1 -7 -2 -17 -3 -22 0 -5 -10
-13 -22 -16 -11 -4 -18 -9 -15 -12 12 -12 -19 -31 -36 -22 -13 7 -16 6 -12 -4
4 -12 -7 -22 -36 -32 -25 -9 -46 -20 -51 -28 -10 -14 -54 41 -54 66 0 12 -6
22 -12 22 -29 0 -12 21 33 45 41 20 80 30 162 39 7 0 10 -4 7 -9z m-358 -37
c-4 -3 -1 -13 6 -22 10 -14 10 -14 -5 -3 -11 9 -18 10 -23 2 -3 -6 -10 -8 -15
-5 -5 3 -7 -5 -5 -17 4 -20 3 -21 -8 -7 -14 19 -38 14 -30 -7 3 -7 8 -12 12
-10 4 3 13 1 21 -5 12 -7 10 -9 -7 -9 -12 0 -27 9 -33 20 -9 18 -5 23 37 44
53 27 59 29 50 19z m-1242 -17 c18 -13 17 -13 -6 -13 -15 0 -26 5 -26 13 0 8
3 14 7 14 3 0 15 -6 25 -14z m7 -48 c-6 -6 -23 -3 -43 6 -19 9 -24 13 -12 10
12 -2 24 0 28 6 5 8 11 7 21 -1 9 -7 11 -16 6 -21z m1388 -19 c0 -5 -5 -9 -11
-9 -5 0 -8 4 -5 9 3 5 -1 11 -9 15 -8 3 -15 13 -15 23 1 15 4 15 20 -6 11 -13
20 -27 20 -32z m-143 -3 c0 -8 -6 -12 -15 -9 -11 5 -11 7 -1 14 11 6 10 9 -4
15 -9 3 -17 11 -17 17 0 5 8 3 18 -6 10 -10 19 -23 19 -31z m-1277 10 c0 -2
-8 -10 -17 -17 -16 -13 -17 -12 -4 4 13 16 21 21 21 13z m1231 -40 c1 5 1 12
0 16 0 4 6 5 15 1 15 -5 15 -7 0 -15 -9 -5 -13 -14 -10 -20 4 -7 2 -8 -4 -4
-7 4 -17 17 -22 29 -11 21 -11 21 4 3 9 -11 17 -16 17 -10z m338 7 c-19 -24
-52 -48 -61 -45 -5 1 -9 -2 -9 -8 -1 -5 -2 -15 -3 -21 -1 -15 -46 -45 -46 -31
0 5 9 12 21 15 12 3 18 10 14 17 -5 8 -10 8 -20 0 -10 -8 -15 -8 -21 1 -4 7
-3 14 4 17 6 2 8 11 5 20 -3 12 -2 13 4 4 7 -10 22 -6 64 17 64 36 65 36 48
14z m304 4 c3 -8 1 -20 -4 -28 -5 -8 -9 -10 -9 -5 0 5 -8 2 -17 -5 -15 -12
-16 -12 -10 4 6 15 3 17 -13 12 -27 -9 -25 9 3 23 30 15 44 14 50 -1z m37 -7
c0 -5 -5 -10 -11 -10 -5 0 -7 5 -4 10 3 6 8 10 11 10 2 0 4 -4 4 -10z m-820
-4 c0 -3 -4 -8 -10 -11 -5 -3 -10 -1 -10 4 0 6 5 11 10 11 6 0 10 -2 10 -4z
m-1135 -26 c-3 -5 -12 -10 -18 -10 -7 0 -6 4 3 10 19 12 23 12 15 0z m2370
-29 c3 -8 2 -17 -4 -20 -5 -3 -11 -15 -14 -26 -3 -11 -5 -4 -4 15 2 31 -1 35
-20 32 -25 -4 -30 7 -12 25 13 13 45 -2 54 -26z m-510 10 c-3 -6 -10 -9 -15
-6 -5 3 -13 -3 -19 -12 -6 -11 -11 -13 -11 -5 0 7 -4 10 -10 7 -5 -3 -10 -3
-10 0 0 7 63 35 69 30 1 -2 0 -9 -4 -14z m-1855 -16 c-7 -9 -15 -13 -19 -10
-3 3 1 10 9 15 21 14 24 12 10 -5z m75 -5 c-3 -5 -12 -10 -18 -10 -7 0 -6 4 3
10 19 12 23 12 15 0z m675 6 c0 -3 -4 -8 -10 -11 -5 -3 -10 -1 -10 4 0 6 5 11
10 11 6 0 10 -2 10 -4z m1551 -15 c-10 -7 -10 -10 -1 -16 7 -4 16 -1 21 6 6
10 9 8 9 -8 0 -17 -4 -21 -17 -16 -32 12 -39 43 -10 43 8 0 8 -3 -2 -9z
m-2326 -20 c3 -5 1 -12 -5 -16 -5 -3 -10 1 -10 9 0 18 6 21 15 7z m1835 -12
c0 -11 5 -17 10 -14 6 3 10 1 10 -5 0 -6 5 -8 10 -5 6 3 10 2 10 -4 0 -14 -14
-21 -27 -13 -16 10 -35 62 -23 62 6 0 10 -9 10 -21z m-533 -11 c-3 -8 -6 -5
-6 6 -1 11 2 17 5 13 3 -3 4 -12 1 -19z m-897 -13 c0 -2 -7 -1 -17 2 -11 4
-14 3 -9 -5 5 -8 1 -10 -10 -5 -11 4 -15 2 -11 -4 4 -6 0 -14 -9 -17 -24 -9
-28 0 -12 23 8 12 18 18 21 14 4 -3 7 -1 7 6 0 9 5 9 20 1 11 -6 20 -13 20
-15z m670 -1 c0 -5 -64 -34 -74 -34 -2 0 -7 7 -10 16 -3 8 -2 12 3 9 6 -3 14
3 20 12 10 17 10 17 11 1 0 -10 4 -18 9 -18 5 0 7 10 4 21 -5 19 -4 20 16 10
11 -7 21 -14 21 -17z m210 22 c0 -3 -4 -8 -10 -11 -5 -3 -10 -1 -10 4 0 6 5
11 10 11 6 0 10 -2 10 -4z m492 -16 c-12 -11 -25 -20 -29 -20 -9 1 36 40 45
40 3 0 -4 -9 -16 -20z m255 -2 c-3 -8 -6 -5 -6 6 -1 11 2 17 5 13 3 -3 4 -12
1 -19z m74 7 c1 -17 -18 -17 -25 0 -4 11 -1 15 10 13 8 -2 15 -7 15 -13z m196
-22 c-3 -10 -5 -4 -5 12 0 17 2 24 5 18 2 -7 2 -21 0 -30z m20 5 c-3 -8 -6 -5
-6 6 -1 11 2 17 5 13 3 -3 4 -12 1 -19z m69 -5 c-10 -10 -19 5 -10 18 6 11 8
11 12 0 2 -7 1 -15 -2 -18z m-2121 7 c-3 -5 -11 -10 -16 -10 -6 0 -7 5 -4 10
3 6 11 10 16 10 6 0 7 -4 4 -10z m1539 -5 c-4 -8 -13 -15 -22 -15 -13 0 -12 3
4 15 24 18 25 18 18 0z m185 -17 c11 -11 18 -24 16 -28 -2 -4 1 -7 8 -7 7 0
21 -4 31 -9 12 -4 17 -4 13 2 -3 6 11 10 36 11 46 1 78 10 89 27 5 7 8 4 8 -6
0 -10 -7 -18 -15 -18 -8 0 -15 -5 -15 -11 0 -7 -12 -9 -30 -7 -17 3 -33 1 -36
-4 -3 -4 0 -8 6 -8 6 0 8 -4 5 -10 -3 -5 3 -10 15 -10 12 0 19 -4 15 -9 -3 -6
10 -13 30 -17 19 -3 32 -10 29 -15 -3 -5 -9 -7 -14 -4 -5 3 -11 1 -15 -5 -4
-6 -10 -8 -15 -5 -4 3 -11 -2 -14 -11 -3 -8 -10 -13 -15 -9 -5 3 -12 1 -16 -5
-10 -17 13 -11 65 15 55 28 60 29 60 16 0 -5 -13 -12 -30 -16 -16 -4 -30 -10
-30 -15 0 -5 -13 -11 -30 -15 -16 -4 -30 -11 -30 -16 0 -5 -3 -9 -7 -8 -16 2
-53 -14 -53 -22 0 -5 -5 -9 -11 -9 -18 0 12 31 40 41 19 8 22 12 12 22 -9 9
-2 17 31 34 45 23 39 31 -9 12 -15 -6 -30 -10 -32 -9 -2 1 -7 -4 -12 -11 -5
-8 -25 -13 -49 -13 -22 1 -40 -2 -40 -6 0 -14 50 -21 70 -10 10 6 21 6 24 1 5
-8 -29 -25 -46 -22 -5 1 -8 -3 -8 -8 0 -5 -10 -11 -22 -14 -21 -5 -21 -5 -5 7
23 18 22 30 -4 23 -12 -3 -18 -3 -15 0 3 4 1 12 -5 20 -9 10 -8 13 0 13 7 0 9
5 6 10 -4 7 -11 7 -18 2 -7 -5 -21 -12 -31 -16 -16 -5 -17 -4 -7 8 7 9 21 18
31 21 11 4 17 12 14 20 -4 9 7 19 31 29 44 19 45 19 45 7 0 -5 -13 -12 -30
-16 -16 -4 -30 -11 -30 -16 0 -12 6 -11 30 4 17 10 22 9 29 -1 6 -10 14 -10
34 -3 37 14 34 24 -5 16 -21 -4 -28 -3 -20 3 19 13 -12 37 -35 26 -10 -4 -20
-8 -23 -8 -3 -1 -10 -5 -17 -9 -6 -4 -14 -3 -17 2 -4 5 3 12 14 16 11 3 20 11
20 16 0 13 -18 11 -23 -3 -3 -10 -7 -10 -17 -1 -10 9 -7 13 13 19 15 3 24 10
21 16 -4 5 -11 5 -18 -1 -7 -6 -16 -8 -19 -4 -4 3 -7 1 -7 -6 0 -7 -5 -9 -11
-5 -8 4 -4 13 12 25 29 23 24 23 48 -3z m123 0 c-9 -9 -15 -9 -24 1 -11 10
-10 11 5 6 10 -5 17 -2 17 6 0 7 3 9 7 6 4 -4 1 -13 -5 -19z m-2131 -6 c-11
-4 -11 -6 0 -12 10 -7 10 -11 0 -24 -8 -9 -21 -16 -30 -15 -10 0 -8 3 7 10 13
5 21 13 17 18 -3 6 -11 8 -19 5 -7 -3 -13 2 -13 10 0 8 6 12 15 8 10 -3 13 -1
8 6 -5 8 -1 10 10 5 13 -5 14 -8 5 -11z m666 10 c7 -5 10 -19 8 -35 -4 -21 -1
-27 12 -27 14 0 15 -2 4 -12 -11 -10 -14 -10 -18 0 -3 6 -9 12 -14 12 -6 0 -8
-4 -5 -8 3 -5 -2 -9 -10 -9 -11 0 -9 6 7 23 21 22 12 43 -13 28 -7 -4 -8 -3
-4 4 4 7 1 12 -6 12 -9 0 -9 3 2 10 18 12 22 12 37 2z m453 -12 c0 -11 -4 -20
-10 -20 -5 0 -7 7 -4 15 5 11 1 14 -12 9 -16 -5 -16 -4 -4 5 22 16 30 13 30
-9z m740 0 c0 -5 -7 -7 -15 -4 -8 4 -15 8 -15 10 0 2 7 4 15 4 8 0 15 -4 15
-10z m35 0 c-3 -5 -12 -10 -18 -10 -7 0 -6 4 3 10 19 12 23 12 15 0z m-1512
-13 c3 -8 1 -20 -4 -28 -6 -10 -9 -7 -9 14 0 29 5 35 13 14z m675 -12 c1 -14
-3 -25 -8 -25 -6 0 -10 11 -10 25 0 14 4 25 8 25 4 0 9 -11 10 -25z m1267 15
c3 -5 1 -10 -4 -10 -6 0 -11 5 -11 10 0 6 2 10 4 10 3 0 8 -4 11 -10z m-2375
-15 c0 -2 -6 -5 -13 -8 -8 -3 -14 1 -14 8 0 7 6 11 14 8 7 -3 13 -6 13 -8z
m470 5 c0 -5 -5 -10 -11 -10 -5 0 -7 5 -4 10 3 6 8 10 11 10 2 0 4 -4 4 -10z
m-70 -21 c0 -16 -5 -20 -19 -16 -14 3 -18 1 -14 -9 3 -8 0 -14 -6 -14 -16 0
-13 26 5 44 21 22 34 20 34 -5z m270 17 c0 -2 -7 -7 -16 -10 -8 -3 -12 -2 -9
4 6 10 25 14 25 6z m403 -39 c-2 -4 -9 -4 -15 -1 -6 4 -14 0 -19 -7 -4 -7 -12
-10 -16 -5 -4 5 -3 11 4 13 7 2 9 11 6 19 -3 8 -1 14 5 14 6 0 13 -6 15 -12 3
-7 6 -4 7 7 l1 20 8 -20 c5 -11 6 -23 4 -28z m1209 21 c-7 -7 -16 -6 -29 2
-16 10 -16 11 0 6 9 -3 17 -1 17 5 0 6 5 7 11 3 7 -4 7 -10 1 -16z m59 12 c5
0 9 -7 9 -16 0 -14 3 -14 15 -4 9 7 18 11 21 8 2 -3 -7 -13 -21 -22 -14 -9
-25 -14 -25 -10 0 4 -7 1 -15 -6 -8 -7 -15 -9 -15 -4 0 5 -4 3 -9 -5 -7 -10
-15 -11 -37 -3 l-29 10 27 1 c36 1 78 18 78 31 0 6 -4 9 -9 6 -5 -3 -15 2 -22
11 -12 15 -12 16 4 10 10 -4 23 -7 28 -7z m-1328 -20 c-3 -12 -8 -19 -11 -16
-5 6 5 36 12 36 2 0 2 -9 -1 -20z m312 -12 c-12 -16 -16 -17 -11 -5 3 11 2 16
-4 12 -6 -3 -10 -13 -10 -22 0 -9 -6 -13 -14 -10 -8 3 -17 -1 -20 -9 -3 -9
-10 -13 -15 -9 -5 3 -12 1 -16 -5 -4 -6 -11 -8 -16 -5 -5 4 -12 -1 -15 -9 -3
-9 -10 -13 -15 -10 -5 3 -9 -2 -9 -10 0 -9 6 -13 14 -10 8 3 17 -3 20 -14 5
-14 13 -18 31 -14 14 2 22 8 19 13 -3 5 0 9 6 9 7 0 9 -7 6 -17 -4 -9 -1 -20
6 -25 11 -6 10 -8 0 -8 -7 0 -10 -4 -7 -10 10 -17 -57 -201 -84 -228 -15 -15
-27 -20 -29 -13 -2 6 -8 9 -13 6 -5 -4 -6 0 -3 8 6 18 -12 32 -21 17 -11 -18
-35 -10 -45 15 -9 23 -14 25 -45 19 -31 -6 -36 -4 -46 22 -10 27 -12 28 -19 9
-5 -11 -9 -14 -9 -6 -1 7 -7 11 -16 7 -9 -3 -21 4 -31 19 -12 18 -20 22 -29
15 -17 -14 -48 11 -42 36 4 17 5 16 6 -3 1 -25 2 -26 25 -17 21 8 21 24 0 24
-9 0 -14 6 -11 13 2 6 -2 20 -11 30 -19 21 -9 23 12 2 14 -14 20 -13 62 6 38
19 47 20 55 8 8 -13 12 -34 11 -50 -1 -3 17 -4 39 -2 25 3 39 0 35 -5 -4 -6 3
-8 16 -4 19 5 20 6 4 12 -21 7 -23 20 -4 31 7 5 8 9 3 9 -18 0 -18 70 0 76 8
3 12 11 8 18 -4 6 1 5 10 -3 16 -13 16 -15 1 -32 -10 -11 -14 -22 -11 -26 4
-3 7 -1 7 5 0 7 5 11 12 9 6 -1 15 13 18 31 4 18 9 34 11 35 35 21 103 46 111
41 7 -4 8 -2 4 4 -4 7 -1 12 8 12 9 0 16 4 16 9 0 9 52 31 59 25 1 -1 -5 -13
-14 -26z m690 22 c3 -5 -3 -10 -14 -10 -12 0 -21 -5 -21 -11 0 -6 9 -8 20 -4
11 3 20 2 20 -3 0 -9 -37 -25 -52 -23 -5 1 -8 -3 -8 -9 0 -5 -4 -10 -10 -10
-17 0 -4 43 19 62 26 20 37 22 46 8z m-1943 -19 c-7 -4 -14 -17 -15 -29 0 -11
-5 -19 -9 -16 -4 3 -4 12 -1 21 5 13 2 15 -13 10 -19 -7 -19 -7 0 8 11 8 27
15 35 15 12 0 13 -2 3 -9z m723 -20 c3 -5 1 -12 -5 -16 -5 -3 -10 1 -10 9 0
18 6 21 15 7z m-655 -5 c0 -2 -7 -6 -15 -10 -8 -3 -15 -1 -15 4 0 6 7 10 15
10 8 0 15 -2 15 -4z m982 -48 c-7 -7 -9 -5 -7 8 2 11 4 26 6 34 1 8 4 4 6 -9
3 -13 0 -28 -5 -33z m-747 32 c-3 -5 -12 -10 -18 -10 -7 0 -6 4 3 10 19 12 23
12 15 0z m931 -26 c-9 -8 -20 -12 -26 -9 -5 3 -10 1 -10 -4 0 -6 -7 -11 -15
-11 -8 0 -15 -4 -15 -10 0 -16 -17 -12 -24 5 -4 11 3 19 22 26 15 6 29 11 32
11 3 0 14 7 25 14 25 18 33 1 11 -22z m714 27 c0 -8 -37 -24 -52 -22 -5 1 -8
-3 -8 -9 0 -5 -5 -10 -11 -10 -25 0 22 34 69 49 1 1 2 -3 2 -8z m-2102 -42
c-3 -8 -7 -3 -11 10 -4 17 -3 21 5 13 5 -5 8 -16 6 -23z m127 19 c5 4 5 1 1
-6 -6 -10 -11 -10 -22 -1 -8 6 -14 14 -14 16 0 3 6 0 13 -6 8 -6 18 -7 22 -3z
m685 8 c0 -2 -8 -10 -17 -17 -16 -13 -17 -12 -4 4 13 16 21 21 21 13z m1726
-8 c4 -6 3 -8 -4 -4 -6 3 -13 2 -17 -4 -3 -5 2 -10 12 -11 15 0 15 -2 -3 -9
-12 -4 -24 -16 -28 -26 -6 -16 -8 -16 -16 -4 -7 11 -3 18 13 27 27 15 17 16
-20 2 -15 -6 -30 -10 -32 -9 -2 1 -7 -2 -10 -7 -3 -5 -19 -14 -35 -21 -16 -7
-26 -15 -23 -18 3 -3 15 -1 26 6 12 6 26 8 32 4 6 -4 1 -11 -13 -18 -25 -13
-82 0 -71 16 2 5 35 22 71 39 37 16 74 33 82 39 20 12 28 12 36 -2z m-1861 -7
c3 -5 1 -12 -5 -16 -5 -3 -10 1 -10 9 0 18 6 21 15 7z m-361 -20 c3 -4 -4 -7
-14 -8 -11 -1 -22 2 -24 6 -3 4 4 7 14 8 11 1 22 -2 24 -6z m-221 -21 c-3 -10
-12 -25 -21 -32 -13 -11 -12 -8 2 20 19 36 27 41 19 12z m172 10 c3 -6 -1 -7
-9 -4 -18 7 -21 14 -7 14 6 0 13 -4 16 -10z m710 1 c3 -5 2 -12 -3 -15 -5 -3
-9 1 -9 9 0 17 3 19 12 6z m409 -6 c-4 -8 -8 -15 -10 -15 -2 0 -4 7 -4 15 0 8
4 15 10 15 5 0 7 -7 4 -15z m-1210 -7 c-3 -5 -9 -6 -14 -3 -4 3 -10 1 -12 -4
-1 -5 -9 -3 -16 5 -11 12 -9 14 17 12 16 -1 27 -6 25 -10z m321 -5 c-2 -10 -4
-19 -4 -21 -1 -2 -6 0 -11 3 -8 5 -7 11 1 21 15 18 18 18 14 -3z m-161 -25 c3
-16 3 -28 -2 -28 -4 0 -9 14 -10 32 -3 37 2 35 12 -4z m496 16 c0 -8 -5 -12
-10 -9 -6 4 -8 11 -5 16 9 14 15 11 15 -7z m1640 8 c0 -15 -11 -21 -27 -15
-12 5 -12 7 -1 14 17 11 28 11 28 1z m-1328 -26 c4 -19 0 -26 -15 -28 -26 -4
-35 -28 -10 -28 15 0 16 2 3 10 -13 8 -13 10 1 10 19 0 34 -26 16 -27 -7 0
-16 -2 -22 -3 -25 -6 -31 2 -27 33 4 29 25 57 43 57 4 0 9 -11 11 -24z m963 4
c-3 -5 -10 -10 -16 -10 -5 0 -9 5 -9 10 0 6 7 10 16 10 8 0 12 -4 9 -10z
m-1747 -28 c29 17 30 17 35 -2 6 -22 -8 -37 -18 -20 -9 15 -22 12 -29 -6 -10
-25 -1 -27 38 -9 20 10 37 26 39 38 4 18 5 17 6 -5 1 -23 -6 -31 -49 -51 -52
-25 -57 -23 -50 23 1 8 -1 12 -6 8 -4 -4 -13 -3 -21 4 -11 9 -12 7 -7 -8 4
-10 4 -16 -1 -12 -4 4 -14 3 -22 -4 -14 -12 -15 -13 7 47 l11 30 19 -25 c19
-25 19 -25 48 -8z m657 19 c3 -6 -5 -15 -17 -21 -21 -10 -21 -10 -6 3 10 8 15
17 11 20 -3 4 -4 7 0 7 3 0 8 -4 12 -9z m-438 -34 c2 -20 2 -20 -8 -4 -6 10
-15 14 -22 10 -7 -4 -6 1 2 10 16 20 24 16 28 -16z m1493 29 c0 -3 -4 -8 -10
-11 -5 -3 -10 -1 -10 4 0 6 5 11 10 11 6 0 10 -2 10 -4z m100 -6 c0 -5 -5 -10
-11 -10 -5 0 -7 5 -4 10 3 6 8 10 11 10 2 0 4 -4 4 -10z m-1970 -15 c0 -8 4
-15 9 -15 5 0 11 -6 14 -13 3 -8 -1 -14 -9 -14 -7 0 -11 4 -8 8 2 4 0 10 -6
14 -5 3 -10 0 -10 -8 0 -7 -7 -14 -15 -14 -8 0 -15 7 -15 14 0 8 4 12 9 8 5
-3 12 -1 16 5 3 5 1 10 -5 10 -6 0 -8 5 -5 10 9 15 25 12 25 -5z m2240 5 c0
-5 -7 -10 -15 -10 -8 0 -15 -5 -15 -11 0 -6 -7 -9 -15 -5 -8 3 -15 2 -15 -3 0
-8 -21 -17 -44 -19 -5 0 -12 -6 -17 -13 -4 -8 -11 -10 -15 -6 -10 9 -9 9 61
45 66 34 75 37 75 22z m-2335 -10 c3 -5 1 -10 -4 -10 -6 0 -11 5 -11 10 0 6 2
10 4 10 3 0 8 -4 11 -10z m575 6 c0 -2 -8 -10 -17 -17 -16 -13 -17 -12 -4 4
13 16 21 21 21 13z m-543 -28 c-3 -8 -6 -5 -6 6 -1 11 2 17 5 13 3 -3 4 -12 1
-19z m732 -12 c9 -11 8 -15 -4 -20 -9 -3 -13 -2 -10 4 8 13 -5 13 -25 0 -12
-8 -12 -10 -1 -10 8 0 12 -3 8 -6 -3 -3 -11 -3 -17 1 -8 5 -6 13 6 26 20 23
28 24 43 5z m-802 -10 c12 0 20 -3 17 -7 -3 -5 2 -12 10 -15 9 -3 13 -11 10
-16 -4 -6 -10 -4 -16 6 -5 9 -14 13 -20 10 -7 -5 -8 -2 -4 5 5 8 3 12 -5 10
-30 -4 -59 2 -59 11 0 6 9 6 23 2 12 -5 32 -7 44 -6z m693 10 c0 -2 -8 -10
-17 -17 -16 -13 -17 -12 -4 4 13 16 21 21 21 13z m-581 -96 c15 0 33 6 40 13
11 10 13 9 8 -5 -4 -10 -2 -18 3 -18 6 0 10 8 11 18 1 9 2 28 2 41 2 25 34 39
34 15 0 -7 -4 -11 -9 -8 -5 3 -7 -8 -6 -25 2 -29 18 -46 18 -19 0 6 3 8 6 5 4
-3 15 -2 26 4 19 10 17 24 -3 24 -5 0 -9 3 -9 8 0 4 0 14 0 23 0 8 5 12 10 9
6 -4 8 -10 5 -15 -3 -5 3 -13 12 -19 27 -15 5 -43 -50 -61 -37 -12 -45 -19
-43 -35 2 -11 1 -14 -1 -7 -3 6 -9 12 -14 12 -6 0 -8 4 -5 9 7 11 -17 21 -50
21 -23 0 -24 3 -22 53 l2 52 3 -47 c4 -45 6 -48 32 -48z m2206 80 c-3 -5 -13
-10 -21 -10 -8 0 -14 -4 -14 -10 0 -5 -4 -10 -10 -10 -30 0 4 28 48 39 2 1 0
-3 -3 -9z m-2205 -19 c-15 -29 -12 -38 5 -15 8 11 15 14 15 7 0 -7 4 -13 9
-13 6 0 8 10 6 21 -3 12 -1 19 2 15 12 -12 13 -45 1 -52 -24 -15 -58 -10 -58
7 0 25 11 49 21 49 6 0 5 -8 -1 -19z m727 4 c0 -8 -4 -12 -9 -9 -4 3 -8 9 -8
15 0 5 4 9 8 9 5 0 9 -7 9 -15z m-550 -17 c-3 -8 -6 -5 -6 6 -1 11 2 17 5 13
3 -3 4 -12 1 -19z m99 7 c10 4 3 -3 -16 -14 -38 -22 -65 -27 -55 -11 4 6 10 8
14 6 4 -3 13 -1 21 5 11 6 12 9 2 9 -7 0 -10 5 -6 11 5 8 8 8 14 0 3 -7 15 -9
26 -6z m295 -22 c13 -16 12 -17 -3 -4 -10 7 -18 15 -18 17 0 8 8 3 21 -13z
m1267 -11 c2 -6 -9 -14 -24 -18 -27 -7 -27 -7 -6 -15 26 -10 29 -29 5 -29 -14
0 -15 2 -5 9 10 6 7 10 -12 13 -14 3 -23 1 -20 -3 3 -5 0 -9 -5 -9 -6 0 -10
-6 -8 -12 1 -9 -12 -13 -42 -12 -40 0 -42 -1 -20 -10 13 -6 27 -15 31 -21 5
-6 8 -2 8 8 0 10 4 16 9 12 5 -3 16 2 25 10 13 13 14 12 12 -10 -1 -14 -6 -28
-11 -33 -4 -4 -5 -1 -1 5 5 9 2 11 -9 7 -26 -10 -1 -21 52 -23 15 -1 21 -6 17
-16 -5 -11 1 -13 26 -10 38 5 84 -11 75 -25 -3 -5 0 -10 7 -10 9 0 9 -3 -2
-10 -12 -8 -10 -10 10 -10 18 0 21 -3 11 -9 -12 -8 -20 -8 -50 -2 -2 1 2 8 9
16 10 12 10 15 -1 15 -11 0 -11 2 1 10 13 9 13 10 0 10 -9 0 -21 -5 -27 -11
-7 -7 -17 -8 -28 -2 -22 13 -67 4 -58 -11 4 -6 8 -15 8 -21 1 -5 7 -9 15 -7
10 2 8 -3 -5 -19 -15 -17 -16 -21 -4 -17 9 4 16 1 16 -7 0 -10 -6 -11 -22 -3
-18 8 -27 5 -51 -17 -16 -15 -28 -31 -27 -36 2 -5 -8 -4 -21 1 -13 5 -27 6
-31 2 -3 -3 -3 1 1 11 3 9 11 14 18 10 6 -3 5 0 -3 8 -10 11 -15 11 -18 1 -3
-6 -10 -9 -15 -6 -7 4 -8 2 -4 -4 4 -7 2 -12 -4 -12 -6 0 -9 -4 -6 -9 3 -4
-10 -1 -29 7 -43 20 -44 36 -5 56 17 8 30 10 30 5 0 -5 -4 -9 -10 -9 -5 0 -10
-6 -10 -12 1 -8 8 -4 18 8 10 11 22 19 28 17 5 -2 21 8 33 21 l23 25 -35 6
c-19 4 -44 2 -55 -4 -16 -9 -20 -8 -18 4 1 8 6 18 11 22 4 4 5 2 1 -4 -8 -15
0 -15 29 -4 12 5 30 3 47 -5 17 -9 29 -10 33 -4 3 6 -3 10 -14 10 -20 0 -25
10 -22 39 2 7 -3 10 -9 6 -6 -4 -9 -13 -7 -19 6 -14 -40 -15 -61 -2 -8 5 -11
2 -10 -6 2 -7 -5 -12 -16 -11 -13 1 -15 -2 -7 -10 18 -18 13 -36 -9 -32 -28 5
-25 -11 3 -19 l22 -6 -21 -13 c-12 -6 -19 -18 -16 -26 3 -10 -1 -12 -17 -8
-16 4 -21 1 -21 -16 0 -11 -3 -17 -7 -14 -3 4 -12 2 -20 -4 -7 -6 -13 -8 -13
-3 0 5 -5 2 -10 -6 -8 -12 -10 -11 -7 5 5 35 17 48 33 34 12 -10 15 -10 12 1
-2 8 13 22 32 32 28 15 31 18 13 18 -12 0 -24 -4 -28 -10 -8 -13 -33 -1 -40
19 -3 12 -15 17 -37 17 -25 -1 -33 3 -35 19 -1 15 -1 16 3 3 3 -10 9 -18 14
-18 13 0 30 26 22 35 -4 5 1 5 11 2 11 -4 16 -3 12 3 -3 6 1 10 10 10 9 0 14
4 10 9 -9 15 34 34 48 22 15 -11 43 -9 54 5 4 5 4 6 -1 2 -10 -9 -38 10 -32
21 3 4 -5 8 -17 8 -12 1 -29 11 -38 22 -16 19 -16 19 -15 -10 1 -21 5 -28 16
-24 8 4 11 3 6 -2 -4 -4 -30 -8 -58 -9 -44 0 -48 1 -33 12 10 8 22 11 28 7 6
-4 7 -1 2 8 -7 11 -6 12 7 2 8 -7 17 -11 20 -8 9 9 -4 55 -13 49 -5 -3 -7 -10
-4 -15 4 -5 1 -9 -4 -9 -6 0 -11 7 -11 15 0 8 -4 15 -9 15 -5 0 -8 -11 -5 -25
2 -14 1 -25 -4 -25 -16 0 -22 13 -11 26 8 10 3 11 -23 7 -39 -6 -28 14 12 21
14 2 26 5 28 6 9 7 51 2 71 -9 17 -10 26 -10 35 -1 8 8 6 9 -9 4 -15 -5 -17
-4 -9 5 8 9 17 8 37 -2 15 -8 24 -17 20 -20 -3 -4 -4 -7 0 -7 18 0 15 21 -5
29 -21 8 -21 10 -5 16 12 5 39 -3 79 -24 48 -24 64 -29 75 -19 8 6 12 17 9 24
-6 16 41 47 56 38 7 -5 8 -3 3 6 -5 8 -3 11 5 8 8 -2 15 -9 18 -16z m-1538 4
c0 -2 -7 -6 -15 -10 -8 -3 -15 -1 -15 4 0 6 7 10 15 10 8 0 15 -2 15 -4z m302
-28 c-7 -7 -10 -5 -7 8 5 29 6 30 12 16 3 -8 1 -18 -5 -24z m-418 4 c3 -5 -1
-9 -9 -9 -8 0 -12 4 -9 9 3 4 7 8 9 8 2 0 6 -4 9 -8z m121 -1 c5 -1 4 -6 -2
-12 -8 -8 -19 -7 -39 4 l-29 16 30 -4 c17 -2 34 -4 40 -4z m-158 -26 c0 -8 -4
-15 -9 -15 -10 0 -11 14 -1 23 9 10 10 9 10 -8z m100 -7 c-3 -8 -6 -5 -6 6 -1
11 2 17 5 13 3 -3 4 -12 1 -19z m101 -14 c-14 -14 -15 -14 -10 11 3 19 8 23
15 16 8 -8 7 -16 -5 -27z m307 26 c-3 -5 -12 -10 -18 -10 -7 0 -6 4 3 10 19
12 23 12 15 0z m-535 -38 c0 -28 11 -34 27 -14 8 9 11 10 6 2 -4 -8 -10 -37
-14 -65 l-6 -50 -2 48 c-1 49 -7 56 -30 35 -9 -9 -12 -9 -7 -1 3 6 3 13 -1 16
-5 2 -2 2 5 1 6 -2 12 1 12 6 0 13 -27 13 -34 1 -4 -5 6 -23 20 -40 16 -20 21
-31 12 -31 -10 0 -10 -2 -1 -8 16 -10 10 -47 -8 -47 -9 0 -13 10 -12 28 1 18
-3 27 -12 27 -8 0 -15 5 -15 10 0 6 6 10 13 10 9 0 9 2 -1 9 -8 4 -13 12 -13
17 1 5 -3 9 -8 9 -5 0 -13 3 -17 8 -4 4 1 7 12 7 11 0 25 9 32 20 15 25 42 26
42 2z m397 -4 c-3 -8 -6 -5 -6 6 -1 11 2 17 5 13 3 -3 4 -12 1 -19z m913 17
c0 -2 -9 -9 -20 -15 -12 -6 -20 -7 -20 -1 0 5 8 12 18 14 9 3 18 5 20 6 1 0 2
-1 2 -4z m-1168 -37 c-9 -9 -12 -7 -12 12 0 19 3 21 12 12 9 -9 9 -15 0 -24z
m1082 20 c-5 -8 0 -9 14 -6 12 4 25 2 28 -3 3 -5 17 -7 30 -5 21 4 23 2 14 -9
-15 -18 -3 -23 42 -20 35 3 37 1 27 -17 -9 -17 -13 -18 -20 -7 -7 12 -9 12 -9
0 0 -7 -6 -11 -14 -8 -8 3 -22 -3 -31 -13 -17 -19 -47 -19 -69 0 -7 5 -15 8
-17 5 -3 -2 -5 7 -5 20 0 14 4 25 9 25 5 0 6 -8 3 -17 -4 -10 -4 -14 0 -10 4
4 14 1 22 -6 13 -10 14 -9 8 1 -6 9 -1 15 15 20 22 5 20 7 -16 17 -36 11 -63
45 -35 45 6 0 8 -5 4 -12z m-50 -16 c2 -4 -5 -9 -17 -9 -17 -2 -19 0 -7 7 18
12 18 12 24 2z m610 -7 c19 -15 19 -15 -5 -15 -18 0 -21 -2 -9 -9 8 -6 18 -7
22 -5 4 3 8 0 8 -5 0 -14 -6 -14 -31 0 -16 8 -18 14 -9 24 8 10 7 14 -2 18 -7
3 -8 6 -3 6 6 0 19 -6 29 -14z m-1738 -43 c-12 -11 -18 7 -10 30 l8 23 4 -23
c2 -13 1 -26 -2 -30z m77 -6 c-4 -14 -1 -18 10 -13 11 4 14 2 11 -8 -5 -12
-10 -12 -30 2 -17 11 -21 19 -14 28 7 8 5 12 -5 12 -7 0 -14 -3 -13 -6 0 -3 0
-13 -1 -21 -1 -13 -2 -13 -11 0 -6 10 -4 20 6 31 8 8 11 19 7 24 -5 5 4 0 19
-11 19 -13 25 -25 21 -38z m72 44 c3 -6 -1 -7 -9 -4 -18 7 -21 14 -7 14 6 0
13 -4 16 -10z m960 -12 c5 4 5 1 1 -6 -6 -10 -11 -10 -22 -1 -8 6 -14 14 -14
16 0 3 6 0 13 -6 8 -6 18 -7 22 -3z m585 2 c0 -5 -2 -10 -4 -10 -3 0 -8 5 -11
10 -3 6 -1 10 4 10 6 0 11 -4 11 -10z m-1804 -15 c-3 -20 -16 -31 -16 -13 0
13 8 28 16 28 1 0 1 -7 0 -15z m299 5 c3 -6 -1 -7 -9 -4 -18 7 -21 14 -7 14 6
0 13 -4 16 -10z m651 -32 c-21 -11 -40 -17 -44 -14 -3 3 1 6 9 6 10 0 10 3 3
8 -8 5 -7 11 4 22 14 13 15 12 9 -3 -7 -19 1 -21 23 -7 10 6 11 10 3 10 -7 0
-13 5 -13 10 0 7 8 7 22 -1 21 -11 21 -12 -16 -31z m-886 22 c0 -5 -2 -10 -4
-10 -3 0 -8 5 -11 10 -3 6 -1 10 4 10 6 0 11 -4 11 -10z m256 -37 c-4 -16 -10
-40 -13 -55 -3 -16 -10 -28 -15 -28 -5 0 -6 -5 -2 -11 3 -6 -8 -3 -25 6 -17 9
-35 13 -40 10 -13 -7 -22 23 -15 51 8 31 23 22 16 -11 -3 -20 -1 -24 12 -19 9
3 13 11 9 17 -3 6 -1 7 6 3 23 -15 51 4 51 35 0 16 5 29 11 29 7 0 9 -10 5
-27z m218 1 c3 -8 2 -12 -4 -9 -6 3 -10 10 -10 16 0 14 7 11 14 -7z m-547 -16
c-3 -8 -6 -5 -6 6 -1 11 2 17 5 13 3 -3 4 -12 1 -19z m963 -7 c0 -11 -4 -23
-10 -26 -6 -4 -10 5 -10 19 0 14 5 26 10 26 6 0 10 -9 10 -19z m-330 5 c0 -9
-50 -12 -62 -5 -8 6 1 9 25 9 20 0 37 -2 37 -4z m245 -6 c-3 -5 -12 -10 -18
-10 -7 0 -6 4 3 10 19 12 23 12 15 0z m-518 -6 c-3 -3 -12 -4 -19 -1 -8 3 -5
6 6 6 11 1 17 -2 13 -5z m150 -1 c-10 -9 -56 -10 -51 -1 3 4 17 8 31 8 15 0
23 -3 20 -7z m404 -18 c5 4 9 1 9 -4 0 -6 -6 -11 -14 -11 -8 0 -16 -6 -19 -12
-2 -7 -8 -10 -12 -6 -4 4 -3 13 1 20 5 7 9 16 10 21 4 19 7 21 11 4 2 -9 9
-15 14 -12z m-255 -40 c-5 -26 -11 -33 -23 -28 -10 4 -14 2 -10 -4 6 -10 -21
-28 -29 -20 -2 2 4 21 15 42 11 23 21 33 25 26 4 -6 4 -16 0 -23 -4 -7 -3 -8
4 -4 7 4 12 22 13 39 0 18 3 26 6 19 3 -7 2 -28 -1 -47z m-649 30 c0 -8 -4
-12 -9 -9 -5 3 -6 10 -3 15 9 13 12 11 12 -6z m850 -7 c-3 -8 -6 -5 -6 6 -1
11 2 17 5 13 3 -3 4 -12 1 -19z m780 16 c-3 -3 -12 -4 -19 -1 -8 3 -5 6 6 6
11 1 17 -2 13 -5z m-602 -14 c3 -5 1 -10 -4 -10 -6 0 -11 5 -11 10 0 6 2 10 4
10 3 0 8 -4 11 -10z m-558 -6 c-3 -3 -12 -4 -19 -1 -8 3 -5 6 6 6 11 1 17 -2
13 -5z m727 -6 c-3 -5 -9 -6 -14 -3 -5 3 -13 -3 -19 -12 -6 -10 -11 -13 -11
-7 0 5 5 15 10 20 13 13 41 14 34 2z m-661 -47 l17 -30 -27 8 c-16 4 -34 6
-41 4 -7 -3 -10 1 -6 11 3 9 11 13 18 9 17 -11 37 -12 30 -2 -3 5 -10 7 -15 4
-5 -4 -9 -3 -10 2 0 4 -2 16 -4 26 -5 24 14 8 38 -32z m886 18 c-21 -13 -25
-11 -26 11 -2 17 1 19 19 9 17 -9 18 -13 7 -20z m438 18 c-1 -6 9 -16 23 -24
25 -12 25 -13 3 -13 -13 0 -23 5 -23 11 0 5 -5 7 -12 3 -7 -5 -8 -3 -3 6 5 9
2 10 -12 6 -12 -4 -20 -2 -20 6 0 7 11 14 23 14 13 1 22 -3 21 -9z m80 -2 c4
-4 2 -5 -4 -1 -7 4 -13 3 -13 -3 0 -5 5 -11 12 -13 8 -3 6 -6 -4 -10 -11 -5
-17 0 -20 17 -5 23 12 29 29 10z m-1507 -16 c0 -5 -4 -9 -10 -9 -5 0 -10 7
-10 16 0 8 5 12 10 9 6 -3 10 -10 10 -16z m33 -9 c-7 -27 -13 -25 -11 4 1 14
5 23 9 20 4 -2 5 -13 2 -24z m914 8 c-2 -12 -10 -24 -18 -26 -11 -3 -11 -1 1
7 11 8 11 11 2 11 -10 0 -10 3 0 15 17 19 18 19 15 -7z m-584 -2 c6 -15 -17
-16 -30 -1 -4 4 -2 5 5 1 6 -4 12 -2 12 3 0 15 7 14 13 -3z m-438 -27 c3 6 11
11 18 11 6 0 3 -6 -8 -13 -12 -10 -14 -16 -7 -21 7 -4 12 -3 12 3 0 6 8 7 17
4 13 -5 15 -2 10 11 -4 10 -3 15 4 11 5 -4 9 -16 7 -28 -2 -13 2 -21 9 -20 7
2 10 -3 7 -11 -4 -12 -9 -11 -25 5 -11 11 -24 17 -29 14 -5 -3 -12 -1 -15 5
-4 6 -16 8 -27 4 -17 -5 -20 -3 -15 11 4 9 7 22 7 28 0 7 7 4 14 -6 9 -12 16
-14 21 -8z m638 1 c4 0 5 4 2 10 -4 6 1 7 11 3 15 -6 15 -7 0 -15 -11 -6 -22
-6 -30 1 -7 6 -17 7 -21 3 -5 -4 -5 -1 0 6 5 10 10 11 18 3 6 -6 15 -11 20
-11z m-330 -39 c2 -38 -1 -44 -32 -63 -35 -22 -73 -26 -137 -14 -33 7 -34 8
-32 54 l1 47 4 -43 c3 -33 8 -42 18 -38 8 3 17 1 19 -3 3 -5 17 -8 31 -8 22 0
25 4 25 38 0 22 5 39 10 39 10 0 13 -17 11 -60 -1 -18 1 -21 7 -12 5 8 12 13
16 13 20 -3 26 0 20 11 -5 8 -2 9 9 5 14 -5 17 1 17 40 0 56 10 52 13 -6z
m1184 42 c-4 -3 -1 -13 6 -22 10 -14 10 -14 -4 -4 -9 7 -20 9 -25 5 -4 -4 -2
1 5 11 7 9 16 17 19 17 3 0 2 -3 -1 -7z m-454 -16 c3 -8 1 -20 -4 -28 -6 -10
-9 -7 -9 14 0 29 5 35 13 14z m518 -10 c-10 -9 -11 -8 -5 6 3 10 9 15 12 12 3
-3 0 -11 -7 -18z m-947 2 c-9 -15 26 -17 41 -3 18 18 21 4 3 -15 -8 -9 -8 -11
-2 -8 7 4 20 -1 31 -11 10 -9 13 -13 6 -9 -6 5 -17 6 -23 2 -6 -4 -19 0 -29 9
-17 16 -45 17 -66 4 -6 -4 -17 -2 -25 3 -12 8 -11 9 5 7 11 -2 20 3 21 10 2
20 3 21 23 19 11 0 18 -4 15 -8z m389 -6 c-7 -3 -13 -9 -13 -14 0 -6 5 -7 10
-4 6 3 10 1 10 -4 0 -6 -6 -11 -14 -11 -8 0 -16 -6 -19 -12 -2 -8 -8 -9 -13
-4 -5 5 -4 11 4 13 6 3 9 9 6 15 -7 10 28 40 36 31 3 -3 -1 -8 -7 -10z m-849
-18 c-9 -6 -14 -17 -10 -23 3 -6 2 -13 -4 -17 -6 -4 -10 5 -10 19 0 14 5 26
11 26 5 0 7 4 4 10 -3 6 1 7 10 4 14 -6 14 -8 -1 -19z m129 5 c-3 -11 -9 -20
-15 -20 -5 0 -4 9 2 20 6 11 12 20 14 20 2 0 2 -9 -1 -20z m1147 16 c0 -2 -8
-10 -17 -17 -16 -13 -17 -12 -4 4 13 16 21 21 21 13z m-1233 -43 c0 -21 -2
-32 -4 -25 -4 10 -8 10 -19 1 -8 -6 -14 -10 -15 -8 -8 38 -7 41 13 36 13 -4
18 -1 14 8 -4 10 1 25 9 25 0 0 1 -17 2 -37z m288 7 c-3 -5 -12 -7 -20 -3 -21
7 -19 13 6 13 11 0 18 -4 14 -10z m-73 -33 c-8 -9 -8 -17 -1 -24 8 -8 8 -13 0
-17 -6 -4 -11 0 -11 9 0 9 -4 14 -9 10 -5 -3 -12 -1 -16 5 -3 5 1 10 10 10 11
0 15 5 12 14 -7 18 4 29 16 17 7 -7 6 -15 -1 -24z m25 1 c-3 -7 -5 -2 -5 12 0
14 2 19 5 13 2 -7 2 -19 0 -25z m708 22 c-3 -5 -14 -10 -23 -9 -14 0 -13 2 3
9 27 11 27 11 20 0z m-410 -9 c3 -5 1 -12 -5 -16 -5 -3 -10 1 -10 9 0 18 6 21
15 7z m-114 -65 c-14 -16 -51 -28 -51 -16 0 5 8 22 17 38 17 29 18 30 31 11
10 -15 11 -23 3 -33z m273 38 c3 -8 2 -12 -4 -9 -6 3 -10 10 -10 16 0 14 7 11
14 -7z m333 3 c0 -8 -6 -14 -14 -14 -9 0 -10 4 -2 14 6 7 12 13 14 13 1 0 2
-6 2 -13z m-718 -45 c-5 -2 -6 -9 -2 -15 4 -7 -2 -5 -12 3 -11 9 -16 10 -11 3
4 -8 1 -13 -8 -13 -20 0 -20 5 1 41 l17 29 12 -23 c7 -12 9 -23 3 -25z m-206
18 c3 -13 0 -20 -8 -20 -11 0 -13 14 -6 38 3 8 9 -1 14 -18z m150 -10 c-3 -12
-8 -19 -11 -16 -5 6 5 36 12 36 2 0 2 -9 -1 -20z m672 0 c3 -5 1 -10 -4 -10
-6 0 -11 5 -11 10 0 6 2 10 4 10 3 0 8 -4 11 -10z m-844 -46 c6 -11 9 -38 6
-60 -3 -38 -4 -37 -5 9 -1 34 -6 46 -14 41 -6 -4 -8 -3 -5 3 4 6 0 16 -7 22
-10 9 -16 9 -21 1 -4 -6 -3 -10 2 -9 20 3 27 -2 13 -11 -11 -7 -11 -10 -2 -10
7 0 10 -5 6 -12 -4 -7 -3 -8 5 -4 9 6 11 -5 10 -43 -2 -28 -6 -51 -11 -51 -4
0 -11 0 -15 0 -4 0 -8 12 -8 27 0 18 -6 27 -14 25 -8 -2 -11 3 -8 12 4 9 2 18
-3 21 -6 3 -15 15 -20 26 -9 15 -7 19 5 19 10 0 13 -5 9 -12 -4 -8 -2 -8 7 1
11 10 11 15 2 18 -7 3 -13 9 -13 14 0 6 4 8 9 5 5 -4 20 -2 33 3 15 6 24 5 26
-3 2 -6 8 -20 13 -32z m484 36 c3 -6 -1 -7 -9 -4 -18 7 -21 14 -7 14 6 0 13
-4 16 -10z m-102 -54 c-3 -4 -9 -2 -14 5 -6 10 -9 3 -9 -19 0 -26 -5 -35 -27
-44 -44 -17 -54 -19 -115 -12 l-58 6 0 44 c0 24 4 44 9 44 5 0 8 -18 7 -40 -3
-37 -1 -40 23 -40 14 0 37 -3 49 -7 20 -5 24 -2 22 18 -4 41 0 59 10 59 6 0
10 -16 10 -35 0 -38 10 -44 33 -20 8 8 17 11 21 8 3 -4 6 15 6 41 l0 48 19
-23 c11 -13 17 -28 14 -33z m24 7 c-3 -10 -5 -2 -5 17 0 19 2 27 5 18 2 -10 2
-26 0 -35z m363 38 c0 -5 -10 -11 -22 -14 -22 -6 -22 -6 -4 8 23 17 26 18 26
6z m454 3 c9 -3 16 -10 16 -15 0 -14 -37 -29 -55 -23 -14 6 -14 8 1 25 19 22
17 21 38 13z m-1134 -17 c19 5 22 3 17 -10 -4 -11 -1 -17 8 -17 8 0 15 -5 15
-10 0 -7 -7 -7 -20 0 -11 6 -18 15 -15 21 9 13 -9 11 -23 -3 -9 -9 -12 -9 -12
0 0 7 -7 12 -15 12 -8 0 -15 5 -15 10 0 7 6 7 18 1 10 -6 29 -7 42 -4z m1015
4 c3 -5 2 -12 -3 -15 -5 -3 -9 1 -9 9 0 17 3 19 12 6z m-1351 -10 c4 -5 -3 -7
-14 -4 -23 6 -26 13 -6 13 8 0 17 -4 20 -9z m586 -20 c0 -10 -7 -18 -15 -18
-11 0 -12 4 -4 13 6 7 7 19 3 25 -4 8 -3 9 4 5 7 -4 12 -15 12 -25z m-133 -16
c-10 -20 -13 -21 -16 -8 -2 10 2 19 8 21 6 2 8 9 5 14 -4 6 -2 8 4 5 7 -5 7
-15 -1 -32z m494 21 c-15 -8 -20 -16 -12 -20 6 -4 16 -17 22 -29 7 -15 2 -12
-14 8 -26 32 -21 55 12 55 11 -1 9 -5 -8 -14z m-904 -28 c-3 -7 -5 -2 -5 12 0
14 2 19 5 13 2 -7 2 -19 0 -25z m460 17 c0 -8 -4 -12 -9 -9 -5 3 -6 10 -3 15
9 13 12 11 12 -6z m343 -7 c0 -6 -7 -7 -16 -4 -10 4 -13 2 -8 -7 5 -9 4 -9 -6
0 -7 6 -9 16 -6 22 8 12 36 3 36 -11z m238 7 c-2 -1 -14 -8 -28 -14 -22 -11
-23 -10 -8 2 10 8 15 17 11 21 -4 4 1 4 10 0 10 -3 17 -8 15 -9z m-595 -19
c18 -14 23 -36 8 -36 -6 0 -13 5 -17 12 -5 7 -3 8 6 3 9 -5 11 -4 6 4 -6 9
-11 9 -22 0 -11 -9 -14 -7 -14 10 0 24 8 26 33 7z m382 -13 c-11 -21 -12 -30
-2 -42 10 -14 10 -14 -5 -3 -10 8 -14 20 -11 30 3 9 -4 5 -15 -10 -12 -14 -22
-33 -22 -41 0 -9 -5 -19 -10 -22 -6 -4 -10 -3 -9 2 4 23 -2 35 -17 29 -8 -3
-12 -2 -9 4 3 6 2 10 -4 10 -6 0 -8 6 -5 14 3 8 1 17 -5 21 -6 3 -11 12 -11
18 1 7 9 2 20 -11 l19 -23 48 25 c26 14 49 25 50 26 1 0 -4 -12 -12 -27z m582
-10 c-3 -10 -5 -4 -5 12 0 17 2 24 5 18 2 -7 2 -21 0 -30z m-1282 18 c3 -5 1
-12 -5 -16 -5 -3 -10 1 -10 9 0 18 6 21 15 7z m480 0 c3 -5 2 -12 -3 -15 -5
-3 -9 1 -9 9 0 17 3 19 12 6z m373 -5 c-2 -1 -14 -10 -27 -21 -15 -12 -21 -14
-15 -5 5 8 9 18 10 23 1 4 2 9 3 12 0 2 8 2 16 -2 9 -3 15 -6 13 -7z m57 -4
c-16 -12 -16 -32 0 -26 9 4 22 1 30 -6 8 -7 15 -9 15 -4 0 4 5 3 12 -4 14 -14
20 -45 7 -36 -5 3 -9 12 -9 21 0 9 -3 13 -7 10 -3 -4 -12 -2 -18 3 -14 11 -45
3 -45 -12 0 -5 6 -6 13 -2 9 5 9 4 0 -6 -6 -7 -9 -20 -6 -29 3 -12 2 -12 -7 2
-18 28 -19 70 -2 90 8 9 18 15 21 12 3 -4 1 -9 -4 -13z m342 -7 c-1 -14 -7
-26 -12 -26 -6 0 -16 -5 -22 -11 -10 -8 -12 -4 -11 16 1 14 6 26 11 26 5 0 7
-7 4 -14 -4 -10 -1 -13 8 -9 8 3 12 9 9 14 -5 8 3 29 11 29 2 0 3 -11 2 -25z
m-701 -14 c12 10 20 7 12 -4 -2 -2 4 -12 12 -23 9 -12 9 -15 1 -7 -7 6 -19 10
-25 7 -6 -2 -22 6 -36 17 -24 19 -24 20 -2 9 18 -9 27 -8 38 1z m199 -10 c-3
-6 -11 -8 -17 -5 -6 4 -5 9 3 15 16 10 23 4 14 -10z m-758 -13 c-3 -8 -6 -5
-6 6 -1 11 2 17 5 13 3 -3 4 -12 1 -19z m430 -20 c-3 -7 -5 -2 -5 12 0 14 2
19 5 13 2 -7 2 -19 0 -25z m244 -11 c-8 -8 -11 -5 -11 9 0 27 14 41 18 19 2
-9 -1 -22 -7 -28z m640 26 c13 -16 12 -17 -3 -4 -17 13 -22 21 -14 21 2 0 10
-8 17 -17z m84 7 c-3 -5 -14 -10 -23 -9 -14 0 -13 2 3 9 27 11 27 11 20 0z
m-1055 -30 c0 -11 -2 -20 -4 -20 -2 0 -6 9 -9 20 -3 11 -1 20 4 20 5 0 9 -9 9
-20z m75 -24 c15 -32 19 -119 4 -110 -4 2 -15 1 -24 -2 -13 -6 -14 -9 -3 -16
10 -8 10 -9 -2 -5 -8 2 -14 14 -14 26 1 15 -7 26 -22 33 -22 10 -31 53 -8 44
6 -2 11 5 10 17 -1 20 19 46 36 47 4 0 14 -15 23 -34z m305 19 c0 -12 -19 -12
-23 0 -4 9 -1 12 9 8 7 -3 14 -7 14 -8z m158 -1 c-4 -3 0 -21 8 -40 8 -20 10
-34 4 -34 -5 0 -10 9 -10 19 0 23 -28 54 -40 46 -12 -7 -1 -37 18 -52 12 -10
11 -12 -6 -10 -11 0 -18 5 -16 9 3 4 -4 15 -15 25 -20 17 -20 17 2 29 22 12
65 19 55 8z m592 2 c0 -2 -7 -7 -16 -10 -8 -3 -12 -2 -9 4 6 10 25 14 25 6z
m-968 -17 c15 1 30 -4 33 -9 4 -7 -2 -9 -19 -4 -18 4 -26 2 -26 -7 0 -9 -3
-10 -8 -3 -4 6 -16 16 -27 23 l-20 13 20 -8 c11 -3 32 -6 47 -5z m288 -11 c0
-19 -2 -20 -10 -8 -13 19 -13 30 0 30 6 0 10 -10 10 -22z m230 -8 c9 -16 8
-18 -5 -14 -8 4 -15 12 -15 20 0 20 7 17 20 -6z m-673 4 c-3 -3 -12 -4 -19 -1
-8 3 -5 6 6 6 11 1 17 -2 13 -5z m324 -34 c13 0 11 -27 -3 -36 -8 -5 -9 -2 -5
9 3 9 2 19 -3 22 -6 4 -9 16 -9 28 2 22 2 22 6 0 2 -13 9 -23 14 -23z m627 5
c-1 -1 -14 -6 -28 -9 -24 -7 -24 -6 -4 6 12 7 19 20 17 28 -3 9 0 8 7 -3 7
-10 10 -20 8 -22z m-731 -32 c-2 -13 0 -23 4 -23 5 0 9 4 9 9 0 6 9 8 20 6 11
-2 23 1 26 7 4 6 3 9 -2 5 -5 -3 -18 1 -29 9 -19 14 -19 14 5 10 14 -2 27 -5
30 -6 3 -2 9 -2 13 -1 14 2 3 -34 -13 -41 -12 -5 -12 -7 3 -7 12 -1 17 -9 17
-30 0 -29 -1 -30 -50 -28 l-50 2 1 55 c1 72 0 78 -11 60 -5 -8 -10 -10 -10 -4
0 19 13 24 27 12 8 -6 13 -22 10 -35z m377 32 c3 -8 1 -15 -4 -15 -6 0 -10 7
-10 15 0 8 2 15 4 15 2 0 6 -7 10 -15z m36 11 c0 -3 -4 -8 -10 -11 -5 -3 -10
-1 -10 4 0 6 5 11 10 11 6 0 10 -2 10 -4z m-263 -22 c-3 -3 -12 -4 -19 -1 -8
3 -5 6 6 6 11 1 17 -2 13 -5z m412 -36 c0 -24 -4 -52 -9 -63 -7 -19 -8 -19
-15 -1 -5 11 -3 21 5 26 11 7 11 16 3 44 -9 30 -9 36 3 36 10 0 14 -12 13 -42z
m98 18 c-11 -9 -14 -17 -8 -21 6 -3 16 -16 21 -28 8 -16 4 -13 -14 8 -19 22
-22 32 -14 42 6 7 16 13 22 13 6 0 3 -7 -7 -14z m-237 -4 c0 -4 -9 -8 -20 -8
-11 0 -20 4 -20 8 0 4 9 8 20 8 11 0 20 -4 20 -8z m114 -18 c3 -8 2 -12 -3 -9
-5 3 -12 1 -16 -5 -11 -18 -23 -11 -18 10 6 24 28 26 37 4z m256 6 c-8 -5 -19
-10 -25 -10 -5 0 -3 5 5 10 8 5 20 10 25 10 6 0 3 -5 -5 -10z m-540 -14 c0 -7
-7 -19 -15 -26 -9 -8 -15 -8 -15 -2 0 6 6 13 13 15 9 4 8 8 -3 16 -13 9 -13
11 3 11 9 0 17 -6 17 -14z m337 -11 c-9 -19 -13 -21 -15 -9 -3 13 12 33 25 34
0 0 -4 -11 -10 -25z m580 -12 c-3 -10 -5 -4 -5 12 0 17 2 24 5 18 2 -7 2 -21
0 -30z m-720 10 c11 -14 14 -15 10 -3 -3 10 2 16 14 17 10 1 18 -1 18 -5 -3
-19 3 -46 8 -34 5 13 23 7 23 -9 0 -16 -28 -10 -39 9 -10 16 -10 15 -11 -3 -1
-11 -4 -14 -7 -7 -7 18 -21 15 -25 -5 -3 -10 -6 -1 -9 20 -6 42 -3 45 18 20z
m297 5 c-3 -4 -14 -8 -25 -8 -11 0 -18 4 -15 8 2 4 14 8 25 8 11 0 17 -4 15
-8z m46 -8 c-11 -7 -9 -11 13 -19 15 -6 27 -16 27 -23 0 -10 -2 -10 -9 1 -7
10 -13 11 -30 2 -11 -7 -21 -9 -21 -6 0 14 -3 21 -13 34 -9 11 -9 13 -1 8 7
-4 17 0 24 8 7 9 15 13 19 10 3 -3 -1 -10 -9 -15z m350 10 c0 -5 -5 -10 -11
-10 -5 0 -7 5 -4 10 3 6 8 10 11 10 2 0 4 -4 4 -10z m-30 -35 c0 -14 -4 -25
-10 -25 -5 0 -9 11 -8 25 1 14 6 25 10 25 4 0 8 -11 8 -25z m-697 -11 c-7 -18
-33 -18 -33 -1 0 19 10 27 25 20 8 -2 11 -11 8 -19z m727 16 c0 -5 -4 -10 -10
-10 -5 0 -10 5 -10 10 0 6 5 10 10 10 6 0 10 -4 10 -10z m-847 -13 c3 -8 -1
-14 -8 -14 -7 0 -11 6 -8 14 6 16 10 16 16 0z m452 1 c5 4 5 1 1 -6 -6 -10
-11 -10 -22 -1 -8 6 -14 14 -14 16 0 3 6 0 13 -6 8 -6 18 -7 22 -3z m-858 -14
c-3 -3 -12 -4 -19 -1 -8 3 -5 6 6 6 11 1 17 -2 13 -5z m-1064 -51 c-13 -2 -33
-2 -45 0 -13 2 -3 4 22 4 25 0 35 -2 23 -4z m1968 -27 c1 5 1 12 0 17 0 4 4 7
10 7 6 0 9 -6 6 -14 -4 -10 0 -14 14 -13 21 1 25 13 7 20 -7 3 -3 4 10 4 26
-1 28 -10 7 -27 -8 -7 -15 -10 -15 -7 0 3 -15 1 -34 -3 -27 -6 -33 -5 -29 6 3
8 0 14 -6 14 -6 0 -11 5 -11 12 0 6 9 3 20 -7 11 -10 21 -14 21 -9z m-2016
-16 c-17 -7 -17 -9 -2 -9 17 -1 22 -12 11 -24 -3 -3 -15 3 -27 14 -30 28 -45
24 -50 -13 -4 -32 -4 -32 -5 5 l-2 37 48 -1 c35 0 42 -3 27 -9z m168 3 c-35
-3 -43 -8 -43 -24 0 -11 7 -19 18 -20 13 0 14 -2 2 -6 -8 -3 -19 -11 -23 -17
-5 -7 -7 -6 -6 4 1 8 1 22 0 30 -1 13 -2 13 -11 0 -9 -13 -11 -13 -20 0 -7 11
-4 17 13 22 21 6 21 6 2 7 -12 1 -26 -4 -33 -11 -8 -8 -12 -9 -12 -1 0 6 -8
13 -17 15 -10 3 25 5 77 5 52 0 76 -2 53 -4z m190 0 c-40 -4 -42 -6 -46 -41
l-4 -37 -1 43 -2 42 48 -2 47 -1 -42 -4z m1595 -17 c-10 -7 -18 -19 -18 -27 0
-12 2 -12 9 0 9 13 31 8 31 -8 0 -12 -43 -6 -48 8 -5 14 16 41 32 41 6 0 3 -7
-6 -14z m-1978 -38 c0 -4 -7 -8 -15 -8 -10 0 -14 9 -13 26 2 23 4 24 15 8 7
-10 13 -21 13 -26z m229 24 c0 -10 -3 -12 -6 -4 -8 19 -23 14 -16 -5 7 -17 6
-17 -11 0 -10 9 -22 15 -27 12 -5 -4 -9 -2 -9 3 0 5 16 9 35 10 27 1 35 -2 34
-16z m186 -3 c4 -12 2 -26 -5 -33 -10 -8 -11 -6 -7 12 4 17 0 25 -16 32 l-22
9 22 0 c14 1 24 -7 28 -20z m-305 -29 c0 -5 -8 -10 -17 -10 -15 0 -16 2 -3 10
19 12 20 12 20 0z"/>
<path d="M193 1665 c0 -7 6 -11 14 -8 7 3 13 6 13 8 0 2 -6 5 -13 8 -8 3 -14
-1 -14 -8z"/>
<path d="M965 1621 c-3 -5 -2 -12 3 -15 5 -3 9 1 9 9 0 17 -3 19 -12 6z"/>
<path d="M1030 1536 c0 -2 7 -7 16 -10 8 -3 12 -2 9 4 -6 10 -25 14 -25 6z"/>
<path d="M1790 1626 c0 -11 -5 -16 -14 -13 -8 3 -17 -2 -21 -11 -5 -13 -8 -14
-14 -3 -6 10 -10 9 -15 -4 -3 -9 -10 -13 -16 -10 -6 3 -10 -4 -10 -17 0 -13 3
-18 8 -12 4 6 28 22 54 35 37 19 45 27 38 39 -8 13 -10 12 -10 -4z"/>
<path d="M1886 1614 c-3 -8 -10 -13 -15 -9 -5 3 -12 1 -16 -5 -4 -6 -11 -8
-16 -5 -5 4 -9 2 -9 -3 0 -8 -26 -21 -52 -26 -7 -1 -12 -15 -5 -17 13 -2 136
64 132 71 -8 14 -12 13 -19 -6z"/>
<path d="M1736 1545 c-3 -9 -10 -13 -16 -10 -5 3 -10 -1 -10 -11 0 -12 4 -14
13 -7 6 6 17 12 24 14 8 3 9 9 4 17 -7 11 -9 10 -15 -3z"/>
<path d="M2090 1500 c0 -5 7 -10 16 -10 8 0 12 5 9 10 -3 6 -10 10 -16 10 -5
0 -9 -4 -9 -10z"/>
<path d="M2288 1239 c-2 -7 -25 -13 -51 -14 -26 0 -53 -7 -60 -15 -10 -10 -9
-12 5 -7 9 3 18 1 21 -6 3 -9 11 -8 33 2 35 18 34 17 61 26 13 4 20 11 17 16
-7 13 -22 11 -26 -2z"/>
<path d="M810 1336 c0 -2 7 -7 16 -10 8 -3 12 -2 9 4 -6 10 -25 14 -25 6z"/>
<path d="M1365 1130 c3 -5 11 -10 16 -10 6 0 7 5 4 10 -3 6 -11 10 -16 10 -6
0 -7 -4 -4 -10z"/>
<path d="M1069 1089 c-8 -42 -6 -46 19 -30 10 6 10 10 -3 21 -8 7 -15 11 -16
9z"/>
<path d="M1216 1025 c-11 -8 -15 -15 -9 -15 6 0 16 7 23 15 16 19 11 19 -14 0z"/>
<path d="M1290 1020 c-8 -5 -22 -7 -32 -4 -9 2 -19 0 -23 -5 -4 -7 1 -9 12 -5
16 5 15 3 -2 -11 -14 -12 -16 -16 -5 -15 29 4 41 0 34 -12 -4 -7 -3 -8 5 -4 6
4 9 11 6 16 -3 4 1 11 7 13 9 4 9 6 -1 6 -11 1 -10 5 5 16 21 16 17 20 -6 5z"/>
<path d="M2075 1260 c-3 -5 1 -10 10 -10 9 0 13 5 10 10 -3 6 -8 10 -10 10 -2
0 -7 -4 -10 -10z"/>
<path d="M1795 919 c-4 -6 -14 -8 -24 -4 -13 5 -14 4 -3 -6 10 -11 15 -10 29
4 10 9 14 17 11 17 -4 0 -10 -5 -13 -11z"/>
<path d="M1864 872 c0 -12 8 -18 23 -17 13 0 23 5 22 10 -1 6 -6 9 -11 7 -6
-1 -15 2 -22 7 -8 7 -12 5 -12 -7z"/>
<path d="M1755 839 c-4 -6 -4 -13 -1 -16 3 -4 6 0 6 8 0 11 2 11 10 -1 8 -13
10 -12 10 3 0 19 -15 23 -25 6z"/>
<path d="M1869 827 c7 -7 14 -8 21 -1 6 6 2 10 -12 11 -16 2 -18 -1 -9 -10z"/>
<path d="M1940 822 c0 -9 7 -11 21 -7 13 5 19 3 15 -3 -10 -16 29 -20 49 -6
18 13 17 14 -9 14 -15 0 -25 3 -23 8 3 4 -8 7 -24 7 -17 0 -29 -5 -29 -13z"/>
<path d="M1730 800 c0 -5 5 -10 11 -10 5 0 7 5 4 10 -3 6 -8 10 -11 10 -2 0
-4 -4 -4 -10z"/>
<path d="M1761 788 c-1 -12 -7 -16 -18 -12 -10 3 -7 -1 7 -9 30 -19 33 -17 21
14 -7 17 -10 19 -10 7z"/>
<path d="M1945 759 c-43 -38 -43 -44 -6 -44 16 0 27 3 24 8 -2 4 1 7 7 7 7 0
8 6 1 18 -7 14 -6 19 3 19 9 0 12 -12 11 -36 -2 -20 -1 -30 2 -23 3 7 16 17
30 23 13 5 21 14 18 19 -4 6 -10 8 -15 5 -5 -3 -12 -1 -15 5 -4 6 -2 9 3 8 6
-2 12 1 14 6 1 5 -7 11 -19 12 -14 3 -35 -8 -58 -27z m15 -19 c0 -5 -7 -10
-16 -10 -8 0 -12 5 -9 10 3 6 10 10 16 10 5 0 9 -4 9 -10z"/>
<path d="M1830 700 c0 -6 7 -13 15 -17 24 -9 27 1 5 15 -13 8 -20 8 -20 2z"/>
<path d="M1715 670 c3 -5 8 -10 11 -10 2 0 4 5 4 10 0 6 -5 10 -11 10 -5 0 -7
-4 -4 -10z"/>
<path d="M1607 817 c-3 -8 1 -14 8 -14 7 0 11 6 8 14 -3 7 -6 13 -8 13 -2 0
-5 -6 -8 -13z"/>
<path d="M1225 530 c3 -5 8 -10 11 -10 2 0 4 5 4 10 0 6 -5 10 -11 10 -5 0 -7
-4 -4 -10z"/>
<path d="M2106 494 c-6 -16 2 -18 22 -5 11 7 11 9 -1 14 -9 3 -18 -1 -21 -9z"/>
<path d="M1220 295 c-16 -17 -19 -25 -10 -23 8 2 18 10 22 18 4 10 7 5 7 -13
1 -19 -3 -26 -11 -21 -6 4 -8 3 -4 -4 3 -5 0 -13 -6 -15 -7 -3 -8 -6 -3 -6 24
-2 36 18 33 53 l-3 38 -25 -27z"/>
<path d="M1416 207 c3 -10 9 -15 12 -12 3 3 0 11 -7 18 -10 9 -11 8 -5 -6z"/>
<path d="M1446 205 c-3 -9 0 -15 9 -15 9 0 12 6 9 15 -4 8 -7 15 -9 15 -2 0
-5 -7 -9 -15z"/>
<path d="M125 1847 c-12 -10 -14 -16 -7 -21 7 -4 12 -2 12 3 0 6 6 11 14 11 8
0 18 5 21 10 9 15 -18 12 -40 -3z"/>
<path d="M203 1849 c14 -8 22 -8 30 0 8 8 3 11 -18 11 -26 -1 -28 -2 -12 -11z"/>
<path d="M356 1851 c-4 -6 -1 -11 6 -11 10 0 9 -3 -2 -11 -12 -8 -10 -9 9 -4
16 5 21 4 17 -4 -4 -6 -1 -12 6 -12 7 -1 18 -2 23 -4 6 -1 16 -3 23 -3 6 -1
12 -6 12 -11 0 -5 -10 -7 -22 -4 -13 3 -21 3 -18 0 13 -14 64 -15 84 -2 24 17
40 20 31 5 -3 -5 -2 -10 4 -10 5 0 13 5 16 10 3 6 1 10 -6 10 -7 0 -10 2 -7 5
3 3 13 3 22 -1 14 -5 13 -8 -7 -23 -15 -12 -39 -17 -77 -16 -30 0 -63 -3 -72
-7 -9 -5 -19 -4 -23 2 -3 5 -16 8 -28 6 -12 -3 -25 -5 -28 -5 -15 -2 -4 -31
12 -31 10 0 21 -5 25 -12 5 -7 2 -9 -8 -6 -8 4 -15 1 -15 -7 0 -8 7 -11 15 -7
10 3 13 1 8 -6 -5 -8 -1 -10 10 -5 13 5 15 3 9 -8 -7 -12 -6 -12 6 -1 8 7 14
18 14 25 1 7 6 11 12 10 61 -12 61 -12 55 10 -5 20 -6 20 -13 1 -7 -16 -8 -17
-8 -1 -1 18 -35 24 -46 7 -3 -5 -11 -10 -17 -10 -7 0 -6 5 2 15 8 9 28 14 60
12 39 -1 47 -4 38 -14 -8 -11 -7 -12 6 -7 10 4 15 13 12 20 -3 8 -1 14 4 14 6
0 10 -5 10 -12 0 -7 6 -5 18 4 9 9 25 14 34 13 10 -2 16 2 15 8 -1 7 5 11 13
9 8 -2 12 0 8 4 -4 4 0 13 10 20 9 8 12 14 5 14 -6 0 -15 -4 -18 -10 -10 -17
-25 -11 -37 15 -6 13 -15 22 -19 19 -5 -3 -9 -1 -9 4 0 11 -106 9 -117 -2 -4
-4 6 -5 22 -2 30 6 30 6 5 -6 -14 -7 -28 -17 -32 -23 -4 -5 -8 0 -8 13 0 14
-4 21 -11 16 -6 -3 -15 -1 -19 6 -5 9 -9 9 -14 1z m152 -46 c-38 -19 -43 -20
-58 -6 -20 19 -15 27 25 37 27 7 29 6 17 -9 -8 -9 -21 -13 -30 -10 -14 4 -15
3 -2 -6 17 -12 57 10 52 28 -1 8 5 7 18 -1 18 -11 16 -14 -22 -33z m-138 -60
c0 -9 -5 -10 -30 -6 -19 2 -10 18 10 17 11 0 20 -5 20 -11z m15 -45 c3 -6 -1
-7 -9 -4 -18 7 -21 14 -7 14 6 0 13 -4 16 -10z"/>
<path d="M755 1853 c46 -10 49 -13 29 -29 -18 -14 -18 -14 4 -4 19 9 21 14 11
26 -6 8 -23 13 -38 13 -20 -1 -21 -2 -6 -6z"/>
<path d="M819 1846 c6 -7 7 -17 3 -22 -4 -4 1 -2 11 5 19 15 16 24 -9 27 -11
2 -12 -1 -5 -10z"/>
<path d="M868 1853 c6 -3 10 -9 6 -14 -8 -14 2 -11 14 4 8 10 6 13 -11 14 -12
0 -16 -1 -9 -4z"/>
<path d="M2100 1850 c0 -5 5 -10 11 -10 5 0 7 5 4 10 -3 6 -8 10 -11 10 -2 0
-4 -4 -4 -10z"/>
<path d="M80 1830 c0 -6 -11 -16 -25 -22 -22 -10 -23 -12 -8 -23 15 -11 15
-13 -5 -24 -12 -6 -22 -17 -21 -24 0 -9 2 -9 6 1 2 6 9 12 14 12 6 0 8 -4 5
-9 -4 -5 4 -7 16 -3 21 5 21 6 2 12 -15 6 -13 8 14 12 22 3 29 1 22 -6 -15
-15 -12 -29 6 -22 8 3 12 2 9 -4 -3 -6 -2 -10 4 -10 14 0 22 16 13 24 -4 4 -7
13 -7 19 0 7 -13 11 -28 10 -22 -1 -27 3 -27 20 0 16 3 18 12 9 7 -7 17 -12
23 -12 5 0 2 5 -7 11 -10 5 -15 16 -12 24 4 8 3 15 0 15 -3 0 -6 -5 -6 -10z"/>
<path d="M151 1823 c-14 -11 -12 -12 14 -7 17 4 34 10 39 15 15 13 -35 6 -53
-8z"/>
<path d="M630 1825 c0 -7 39 -12 49 -5 7 4 -1 7 -18 8 -17 0 -31 -1 -31 -3z"/>
<path d="M874 1805 c15 -8 32 -13 36 -10 5 3 10 0 12 -6 4 -13 66 -20 73 -9 2
4 -3 7 -13 7 -51 0 -55 2 -41 20 12 15 12 16 -1 8 -22 -14 -48 -16 -55 -5 -3
6 -14 10 -23 10 -11 0 -7 -6 12 -15z"/>
<path d="M885 1771 c-4 -7 0 -8 11 -4 12 4 15 3 10 -5 -4 -8 2 -16 16 -21 13
-6 21 -10 18 -11 -25 -7 -39 -7 -34 1 3 5 1 9 -4 9 -5 0 -9 -14 -9 -31 0 -23
3 -27 9 -15 5 9 14 16 19 16 6 0 7 -5 3 -12 -4 -7 -3 -8 5 -4 6 4 9 12 6 17
-4 5 1 12 10 16 16 5 16 7 1 15 -9 5 -14 13 -11 19 4 5 2 9 -4 9 -5 0 -16 3
-24 6 -8 3 -18 1 -22 -5z"/>
<path d="M856 1753 c-6 -14 -5 -15 5 -6 7 7 10 15 7 18 -3 3 -9 -2 -12 -12z"/>
<path d="M1011 1762 c-1 -7 -11 -17 -23 -22 -17 -6 -18 -9 -6 -9 9 -1 20 4 23
9 4 6 10 8 15 5 5 -3 12 0 16 6 4 7 3 9 -4 5 -5 -3 -13 0 -15 6 -4 10 -6 10
-6 0z"/>
<path d="M2230 1766 c0 -2 8 -10 18 -17 15 -13 16 -12 3 4 -13 16 -21 21 -21
13z"/>
<path d="M958 1753 c6 -2 18 -2 25 0 6 3 1 5 -13 5 -14 0 -19 -2 -12 -5z"/>
<path d="M1097 1749 c-9 -5 -21 -8 -25 -5 -5 3 -9 -1 -9 -9 0 -12 5 -12 29 1
15 8 28 17 28 19 0 7 -2 6 -23 -6z"/>
<path d="M2270 1736 c0 -2 8 -10 18 -17 15 -13 16 -12 3 4 -13 16 -21 21 -21
13z"/>
<path d="M1090 1690 c-8 -5 -12 -12 -9 -15 4 -3 12 1 19 10 14 17 11 19 -10 5z"/>
<path d="M2453 1681 c-10 -16 -9 -19 5 -17 9 2 16 6 15 10 -6 23 -9 24 -20 7z"/>
<path d="M1129 1663 c-13 -16 -12 -17 4 -4 9 7 17 15 17 17 0 8 -8 3 -21 -13z"/>
<path d="M2361 1664 c6 -7 16 -11 21 -8 11 7 3 17 -18 20 -12 2 -13 -1 -3 -12z"/>
<path d="M2504 1665 c11 -8 22 -12 25 -9 6 6 -19 24 -34 24 -5 -1 -1 -7 9 -15z"/>
<path d="M1070 1647 c0 -8 -10 -18 -22 -20 l-23 -4 23 -2 c22 -1 41 23 28 36
-3 4 -6 -1 -6 -10z"/>
<path d="M1555 1650 c-3 -6 1 -7 9 -4 18 7 21 14 7 14 -6 0 -13 -4 -16 -10z"/>
<path d="M2230 1640 c13 -24 17 -25 17 -5 0 8 -6 16 -14 19 -11 4 -11 1 -3
-14z"/>
<path d="M2270 1640 c-9 -6 -10 -10 -3 -10 6 0 15 5 18 10 8 12 4 12 -15 0z"/>
<path d="M1073 1595 c0 -8 4 -12 9 -9 5 3 6 10 3 15 -9 13 -12 11 -12 -6z"/>
<path d="M331 1586 c-16 -9 -20 -16 -12 -20 9 -6 9 -11 1 -21 -9 -10 -7 -13 7
-11 26 4 64 -15 56 -28 -4 -6 1 -4 11 4 10 8 25 15 33 16 8 2 18 6 21 10 4 4
0 5 -9 1 -9 -3 -22 0 -29 6 -10 9 -11 9 -6 0 9 -16 -7 -24 -24 -12 -13 8 -12
12 4 24 11 8 16 15 12 15 -5 0 -3 7 4 15 11 14 9 14 -16 0 -39 -20 -65 -20
-38 0 24 18 17 19 -15 1z m41 -28 c-12 -12 -42 -20 -42 -12 0 4 38 22 50 23 2
1 -1 -4 -8 -11z"/>
<path d="M424 1584 c-18 -15 -18 -15 2 -5 12 6 25 7 29 3 5 -4 5 -1 1 6 -9 15
-8 15 -32 -4z"/>
<path d="M1095 1580 c-10 -11 -22 -17 -28 -13 -6 4 -7 1 -2 -6 5 -9 13 -7 31
10 13 12 24 24 24 26 0 7 -8 2 -25 -17z"/>
<path d="M2164 1578 l-19 -23 23 19 c21 18 27 26 19 26 -2 0 -12 -10 -23 -22z"/>
<path d="M2219 1572 c11 -8 11 -10 0 -15 -10 -4 -8 -6 4 -6 21 -1 18 21 -4 27
-12 3 -12 2 0 -6z"/>
<path d="M3 1555 c0 -8 4 -12 9 -9 4 3 8 9 8 15 0 5 -4 9 -8 9 -5 0 -9 -7 -9
-15z"/>
<path d="M2350 1549 c0 -6 -7 -9 -15 -6 -8 4 -17 2 -20 -4 -4 -5 -10 -7 -14
-4 -5 2 -6 -7 -3 -20 2 -15 11 -25 21 -24 11 0 12 2 3 6 -10 4 -10 8 -1 19 13
16 33 19 24 4 -3 -5 -2 -10 3 -10 5 0 10 11 10 25 0 14 -2 25 -4 25 -2 0 -4
-5 -4 -11z"/>
<path d="M2255 1460 c-3 -5 -1 -10 4 -10 6 0 11 5 11 10 0 6 -2 10 -4 10 -3 0
-8 -4 -11 -10z"/>
<path d="M2270 1420 c0 -5 5 -10 11 -10 5 0 7 5 4 10 -3 6 -8 10 -11 10 -2 0
-4 -4 -4 -10z"/>
<path d="M1376 1387 c3 -10 9 -15 12 -12 3 3 0 11 -7 18 -10 9 -11 8 -5 -6z"/>
<path d="M2570 1142 c0 -11 -38 -25 -60 -22 -11 1 -12 -2 -4 -9 7 -8 21 -6 48
7 24 12 34 22 27 26 -6 4 -11 3 -11 -2z"/>
<path d="M2455 1050 c-3 -5 -1 -10 4 -10 6 0 11 5 11 10 0 6 -2 10 -4 10 -3 0
-8 -4 -11 -10z"/>
<path d="M2527 1018 c-37 -20 -45 -38 -10 -23 10 5 20 8 23 7 3 0 17 8 30 19
33 24 7 23 -43 -3z"/>
<path d="M2560 1001 c0 -7 -7 -11 -15 -8 -8 4 -17 2 -20 -2 -6 -10 -45 -22
-42 -12 4 12 -14 11 -48 -3 -21 -9 -33 -20 -30 -28 5 -13 -107 -73 -131 -72
-6 1 -11 -4 -11 -11 0 -8 7 -11 15 -7 10 3 13 1 8 -6 -4 -7 -2 -12 4 -12 7 0
10 6 7 14 -3 8 0 17 6 19 7 3 39 17 72 31 48 21 55 23 35 7 -13 -11 -27 -19
-30 -19 -11 2 -58 -21 -65 -31 -9 -15 7 -14 30 3 11 7 34 12 50 11 17 -1 45 4
64 12 40 15 41 16 41 4 0 -8 -37 -24 -52 -22 -5 1 -8 -4 -8 -10 0 -6 -7 -9
-15 -5 -9 3 -15 0 -15 -10 0 -11 5 -12 18 -6 9 5 34 17 55 27 28 13 35 21 27
30 -8 10 -1 16 32 27 41 14 43 17 44 54 1 21 0 32 -3 23 -2 -9 -16 -21 -31
-28 l-27 -12 25 20 c14 11 21 23 17 27 -4 4 -7 2 -7 -5z m-93 -36 c-5 -11 1
-13 26 -9 31 5 31 5 -8 -14 -28 -13 -43 -15 -51 -8 -7 6 -9 15 -6 21 3 5 7 4
10 -3 2 -7 8 -12 13 -12 6 0 7 5 4 10 -3 6 -3 15 0 20 9 15 18 12 12 -5z m104
-18 c-10 -9 -11 -8 -5 6 3 10 9 15 12 12 3 -3 0 -11 -7 -18z m-21 -7 c0 -5 -4
-10 -10 -10 -5 0 -10 5 -10 10 0 6 5 10 10 10 6 0 10 -4 10 -10z m-30 -8 c0
-6 -46 -30 -70 -36 -3 -1 -11 -5 -18 -10 -7 -4 -16 -5 -19 -2 -4 4 74 45 105
55 1 1 2 -3 2 -7z"/>
<path d="M2110 960 c-13 -8 -12 -10 3 -10 9 0 17 5 17 10 0 12 -1 12 -20 0z"/>
<path d="M2061 911 c-8 -6 -9 -11 -3 -15 6 -3 14 -1 17 5 9 14 2 20 -14 10z"/>
<path d="M2555 910 c-4 -6 -11 -8 -16 -5 -5 4 -9 1 -9 -5 0 -7 8 -9 23 -5 30
10 46 25 25 25 -9 0 -20 -5 -23 -10z"/>
<path d="M2482 849 c-76 -36 -129 -53 -92 -29 23 14 8 18 -18 5 l-23 -13 25
-6 c17 -4 44 2 80 19 61 28 70 30 60 14 -7 -12 -75 -44 -86 -41 -5 1 -8 -2 -8
-8 0 -5 2 -10 5 -10 13 0 95 45 95 53 0 4 4 5 10 2 5 -3 21 0 34 7 21 11 23
16 12 29 -11 15 -19 13 -94 -22z m88 12 c0 -12 -39 -21 -45 -11 -3 5 3 11 12
13 29 8 33 7 33 -2z"/>
<path d="M2375 860 c-3 -5 -2 -10 4 -10 5 0 13 5 16 10 3 6 2 10 -4 10 -5 0
-13 -4 -16 -10z"/>
<path d="M2523 807 c-34 -18 -62 -36 -63 -40 0 -5 5 -5 11 -1 6 3 15 1 19 -6
6 -9 15 -8 39 4 17 9 31 19 31 21 0 6 -32 -6 -47 -17 -6 -5 -14 -5 -17 0 -3 5
17 19 44 31 28 13 50 27 50 32 0 5 -1 9 -2 8 -2 -1 -31 -15 -65 -32z"/>
<path d="M2575 800 c-3 -5 -1 -10 4 -10 6 0 11 5 11 10 0 6 -2 10 -4 10 -3 0
-8 -4 -11 -10z"/>
<path d="M2555 762 c-17 -9 -32 -18 -34 -19 -2 -2 -1 -6 2 -9 4 -4 13 -1 22 6
13 11 14 10 9 -4 -7 -18 -4 -19 20 -10 9 3 16 11 16 16 0 6 -6 5 -15 -2 -20
-17 -19 -6 1 15 23 23 14 26 -21 7z"/>
<path d="M2306 697 c3 -10 9 -15 12 -12 3 3 0 11 -7 18 -10 9 -11 8 -5 -6z"/>
<path d="M2449 623 c-7 -10 -9 -15 -5 -11 5 4 16 2 25 -5 14 -10 14 -10 4 4
-7 9 -10 19 -6 22 3 4 4 7 1 7 -3 0 -12 -8 -19 -17z"/>
<path d="M2490 626 c0 -3 9 -10 19 -16 15 -7 22 -7 27 2 4 7 4 10 -1 6 -4 -4
-16 -3 -26 3 -11 5 -19 7 -19 5z"/>
<path d="M2227 599 c7 -7 15 -10 18 -7 3 3 -2 9 -12 12 -14 6 -15 5 -6 -5z"/>
<path d="M2187 567 c-3 -8 1 -14 8 -14 7 0 11 6 8 14 -3 7 -6 13 -8 13 -2 0
-5 -6 -8 -13z"/>
<path d="M2 538 c2 -6 10 -13 16 -14 7 -1 8 0 2 3 -5 2 -8 9 -4 14 3 5 0 9 -6
9 -7 0 -10 -5 -8 -12z"/>
<path d="M220 510 c-9 -6 -10 -10 -3 -10 6 0 15 5 18 10 8 12 4 12 -15 0z"/>
<path d="M43 495 c0 -8 4 -12 9 -9 5 3 6 10 3 15 -9 13 -12 11 -12 -6z"/>
<path d="M369 432 c9 -7 10 -11 2 -15 -7 -4 -8 -5 0 -4 15 3 13 21 -3 25 -10
3 -10 2 1 -6z"/>
<path d="M2528 413 c6 -2 18 -2 25 0 6 3 1 5 -13 5 -14 0 -19 -2 -12 -5z"/>
<path d="M407 399 c7 -7 15 -10 18 -7 3 3 -2 9 -12 12 -14 6 -15 5 -6 -5z"/>
<path d="M9 383 c0 -5 -2 -16 -4 -25 -2 -10 0 -20 4 -22 3 -2 7 9 7 25 1 16 0
29 -2 29 -2 0 -4 -3 -5 -7z"/>
<path d="M2556 283 c-6 -14 -5 -15 5 -6 7 7 10 15 7 18 -3 3 -9 -2 -12 -12z"/>
<path d="M420 286 c0 -2 7 -7 16 -10 8 -3 12 -2 9 4 -6 10 -25 14 -25 6z"/>
<path d="M693 264 c0 -6 11 -9 24 -6 34 6 37 19 4 18 -15 -1 -28 -6 -28 -12z"/>
<path d="M153 216 c-13 -6 -23 -16 -23 -23 0 -18 3 -17 34 12 29 26 25 30 -11
11z"/>
<path d="M183 205 c-11 -8 -7 -11 19 -10 18 0 41 -3 50 -7 10 -5 20 -4 23 2 5
8 11 7 21 -1 12 -10 13 -9 7 7 -6 17 -5 18 13 4 17 -14 18 -14 6 1 -14 18 -52
14 -52 -5 0 -6 -4 -5 -9 3 -11 17 -57 21 -78 6z"/>
<path d="M344 208 c2 -7 18 -13 38 -14 20 -1 44 -4 54 -8 10 -4 15 -4 11 0 -4
4 -2 13 5 21 8 10 8 12 -4 8 -24 -10 -97 -11 -102 -3 -3 5 -3 3 -2 -4z"/>
<path d="M466 205 c-3 -9 0 -15 9 -15 16 0 20 16 6 24 -5 3 -11 -1 -15 -9z"/>
<path d="M76 199 c3 -5 12 -9 21 -9 19 0 9 13 -12 16 -8 1 -13 -2 -9 -7z"/>
<path d="M503 198 c2 -7 10 -13 17 -13 7 0 15 6 18 13 2 7 -5 12 -18 12 -13 0
-20 -5 -17 -12z"/>
<path d="M2455 130 c-16 -7 -11 -9 20 -9 29 -1 36 2 25 9 -17 11 -19 11 -45 0z"/>
<path d="M830 40 l0 -40 45 0 45 0 0 40 0 40 -45 0 -45 0 0 -40z m64 5 c2 -7
-5 -11 -17 -10 -11 1 -22 6 -24 11 -5 14 36 12 41 -1z"/>
<path d="M1145 40 c-2 -3 7 -7 21 -8 13 -1 24 2 24 6 0 9 -40 11 -45 2z"/>
<path d="M1200 40 c0 -6 7 -10 15 -10 8 0 15 2 15 4 0 2 -7 6 -15 10 -8 3 -15
1 -15 -4z"/>
</g>
</svg>
