<?xml version="1.0" standalone="no"?>
<!DOCTYPE svg PUBLIC "-//W3C//DTD SVG 20010904//EN"
 "http://www.w3.org/TR/2001/REC-SVG-20010904/DTD/svg10.dtd">
<svg version="1.0" xmlns="http://www.w3.org/2000/svg"
 width="324.000000pt" height="182.000000pt" viewBox="0 0 324.000000 182.000000"
 preserveAspectRatio="xMidYMid meet">

<g transform="translate(0.000000,182.000000) scale(0.100000,-0.100000)"
fill="#000000" stroke="none">
<path d="M0 910 l0 -910 1620 0 1620 0 0 910 0 910 -1620 0 -1620 0 0 -910z
m1100 819 c0 -7 -71 -19 -79 -13 -1 1 0 7 3 13 8 12 76 12 76 0z m-880 -32 c0
-5 -6 -7 -14 -4 -14 6 -54 -29 -44 -38 3 -3 22 2 42 10 26 11 36 21 32 31 -4
9 1 14 14 14 11 0 20 -7 20 -15 0 -18 1 -18 33 -2 19 10 41 11 94 3 66 -9 69
-11 65 -33 -5 -28 -18 -30 -25 -3 -7 29 -32 25 -56 -9 -27 -37 -28 -65 -3 -57
11 4 19 1 21 -6 14 -95 13 -106 -10 -113 -22 -7 -22 -8 7 -20 37 -16 47 -10
42 26 -3 16 -1 29 4 29 4 0 8 -14 8 -32 0 -17 3 -29 6 -25 3 3 6 22 6 41 0 19
3 35 7 34 27 -3 70 4 85 15 17 13 16 14 -12 14 -17 0 -29 -4 -26 -9 3 -4 -4
-8 -14 -8 -11 0 -22 9 -25 20 -3 11 -1 18 4 14 5 -3 9 -1 9 3 0 5 14 10 31 11
22 2 28 -1 23 -10 -5 -8 -1 -8 10 2 11 8 14 16 7 18 -6 2 -9 8 -5 13 3 5 0 9
-5 9 -6 0 -11 21 -11 50 0 28 5 50 10 50 6 0 10 -18 10 -40 0 -32 3 -38 16
-33 13 5 13 7 2 14 -9 6 -9 9 -1 9 7 0 16 -8 22 -17 5 -10 13 -14 18 -10 4 5
-3 17 -16 28 -28 23 -24 24 18 3 18 -9 35 -13 38 -10 4 3 1 6 -5 6 -7 0 -12
10 -12 23 1 21 1 22 15 3 8 -11 15 -15 15 -9 0 6 17 10 40 9 22 -1 40 1 40 6
0 4 -5 8 -12 8 -6 0 -9 2 -6 5 12 12 36 -8 33 -26 -3 -14 2 -19 17 -19 14 0
18 5 14 15 -4 11 -1 13 12 6 32 -18 68 -24 65 -12 -2 8 154 7 163 -2 12 -11
26 -8 18 5 -4 6 -3 9 2 6 5 -2 27 -13 49 -23 22 -10 91 -42 153 -71 62 -30
116 -54 121 -54 4 0 6 13 3 28 -2 18 2 33 12 41 19 16 21 4 7 -47 l-10 -32 72
-36 c40 -19 76 -39 82 -45 20 -20 34 -8 37 33 2 32 7 42 23 44 27 4 65 -6 65
-18 0 -5 -4 -6 -10 -3 -7 4 -7 -3 0 -19 5 -15 6 -26 1 -26 -23 0 -41 14 -41
31 0 33 -17 20 -28 -20 l-10 -40 74 -35 c81 -40 105 -62 55 -51 -27 6 -31 4
-31 -14 0 -12 6 -21 15 -21 8 0 15 -4 15 -10 0 -5 -8 -10 -19 -10 -11 0 -21
-9 -24 -21 -3 -12 -10 -18 -17 -14 -7 4 -10 -4 -8 -22 2 -24 6 -28 31 -28 24
0 30 5 35 30 3 17 5 33 4 37 -1 4 13 23 32 42 18 20 30 36 26 36 -4 0 -5 11
-2 25 2 14 0 25 -5 25 -16 0 -54 41 -48 51 4 5 2 9 -4 9 -5 0 -13 -15 -17 -32
-6 -28 -8 -30 -14 -13 -15 44 13 70 65 61 15 -2 19 -9 17 -29 -5 -39 7 -51 26
-26 15 18 21 19 43 9 14 -6 26 -21 26 -32 3 -30 8 -31 43 -13 32 17 33 17 27
-4 -3 -12 -1 -21 4 -21 5 0 9 5 9 10 0 6 5 10 10 10 6 0 10 -9 10 -20 0 -16 5
-19 29 -14 22 5 35 1 53 -16 13 -13 18 -20 12 -17 -6 4 -10 -8 -8 -34 2 -48 9
-59 18 -25 7 30 34 40 69 27 19 -7 24 -15 20 -30 -6 -22 6 -28 23 -11 12 12
74 2 74 -12 0 -6 7 -8 15 -4 8 3 15 1 15 -4 0 -6 3 -9 8 -8 13 5 83 -42 77
-52 -3 -6 1 -7 10 -3 13 5 14 7 3 14 -7 5 -8 9 -3 9 14 0 36 -15 38 -26 1 -5
15 -8 31 -7 20 1 25 -1 16 -7 -8 -5 -11 -13 -6 -17 5 -4 11 -2 13 5 3 6 9 10
13 7 5 -3 12 0 16 6 4 7 3 9 -3 6 -6 -4 -16 -1 -22 7 -6 7 -257 136 -556 287
-300 151 -541 275 -536 277 5 2 54 -18 108 -45 54 -26 104 -47 110 -47 7 1 10
-3 7 -8 -4 -6 2 -7 17 -3 13 4 21 4 17 0 -9 -9 40 -37 52 -30 4 3 10 -2 14
-10 3 -8 13 -15 21 -15 9 0 23 -7 32 -16 9 -8 21 -13 28 -10 8 3 16 -2 19 -9
3 -8 12 -12 20 -9 7 3 23 -4 34 -16 11 -12 25 -19 31 -15 6 3 14 0 17 -9 3 -9
12 -12 21 -9 11 4 14 2 9 -5 -5 -8 -1 -10 10 -5 12 4 15 3 10 -5 -7 -12 5 -16
33 -13 7 2 10 -2 7 -8 -4 -6 11 -15 34 -21 24 -7 38 -15 34 -22 -4 -7 1 -8 16
-3 15 5 20 4 16 -4 -7 -11 6 -15 33 -12 7 2 10 -2 7 -7 -5 -9 42 -34 69 -38
26 -4 55 -17 55 -25 0 -5 5 -9 11 -9 6 0 17 -7 26 -16 9 -8 21 -13 28 -10 8 3
16 -2 19 -9 3 -9 12 -12 22 -8 13 5 15 3 9 -7 -5 -9 -4 -11 3 -6 7 4 12 2 12
-4 0 -7 6 -10 13 -7 6 2 17 -3 23 -11 9 -13 64 -27 64 -16 0 2 -217 112 -482
245 -266 132 -487 245 -493 250 -9 9 13 14 44 10 8 -2 10 2 5 10 -5 9 -2 10
10 6 10 -4 22 -7 27 -7 6 0 7 -5 3 -12 -5 -8 -2 -9 9 -5 21 8 21 3 3 -16 -13
-12 -12 -16 8 -25 17 -8 23 -7 23 3 0 8 -7 11 -16 8 -13 -5 -14 -3 -4 7 11 12
16 10 33 -8 17 -18 25 -20 46 -12 32 13 37 12 28 -1 -5 -8 -1 -8 13 0 11 6 23
7 27 4 3 -3 6 -1 6 5 0 6 7 9 15 6 8 -4 15 -10 15 -16 0 -5 -3 -7 -8 -4 -4 2
-16 -2 -27 -10 -15 -12 -16 -14 -3 -14 9 0 24 -3 34 -7 12 -4 15 -3 10 6 -6 8
2 7 23 -3 l30 -16 -2 29 c-1 16 -6 29 -11 28 -5 -1 -11 4 -13 11 -8 22 27 13
52 -14 14 -15 25 -24 25 -20 0 3 12 -1 26 -10 19 -13 22 -19 12 -26 -8 -6 -3
-7 17 -3 17 4 32 11 33 16 5 13 29 11 36 -3 3 -7 4 2 3 20 -2 18 0 35 4 38 5
2 6 10 3 17 -6 17 307 11 318 -6 6 -9 10 -9 16 -1 9 14 46 12 64 -4 8 -6 29
-10 46 -9 35 2 45 17 12 17 -11 0 -20 4 -20 9 0 10 103 23 124 15 9 -3 23 -1
31 6 15 13 55 5 55 -11 0 -6 9 -7 20 -4 12 4 20 2 20 -6 0 -7 10 -9 30 -6 26
6 31 3 36 -19 6 -22 11 -25 35 -22 24 4 28 1 34 -29 3 -18 10 -33 14 -33 5 0
8 -8 7 -17 -1 -14 6 -18 29 -17 17 0 37 2 45 5 11 3 14 -3 12 -21 -1 -14 -2
-37 -2 -52 0 -15 -4 -29 -10 -33 -17 -11 -11 -25 12 -25 20 0 21 -1 3 -20 -17
-19 -17 -20 1 -21 10 -1 24 -1 31 0 6 1 14 -3 18 -9 3 -5 1 -10 -4 -10 -6 0
-11 -7 -11 -16 0 -8 4 -13 9 -9 19 11 20 -13 2 -34 -22 -25 -35 -28 -23 -3 5
9 7 25 3 34 -6 17 -7 16 -19 -2 -8 -13 -8 -20 -2 -20 7 0 7 -7 -1 -21 -9 -17
-8 -23 2 -30 10 -6 11 -9 2 -9 -7 0 -13 -10 -13 -22 0 -12 3 -18 7 -15 3 4 12
2 20 -4 10 -9 13 -8 13 5 0 9 -5 16 -11 16 -5 0 -7 5 -4 11 4 6 14 8 22 5 12
-5 14 -1 10 14 -4 16 0 20 20 20 22 0 24 -2 13 -15 -10 -12 -10 -15 4 -15 18
0 21 -15 5 -25 -6 -4 -14 -17 -19 -29 -9 -20 -9 -20 -9 -1 -1 12 4 26 10 32 9
9 7 10 -9 6 -12 -3 -19 -9 -16 -14 9 -15 -21 -38 -37 -28 -19 12 -42 11 -34
-1 4 -6 11 -7 17 -4 7 5 9 1 5 -9 -5 -14 0 -17 31 -17 35 -1 36 -2 18 -15 -15
-11 -16 -15 -5 -16 8 -1 3 -4 -11 -8 -14 -4 -24 -13 -22 -19 1 -7 -2 -12 -8
-12 -5 0 -10 -5 -10 -12 0 -9 3 -9 12 0 7 7 17 12 23 12 15 0 13 -43 -3 -63
-11 -13 -10 -16 7 -22 12 -3 21 -12 22 -18 1 -7 5 -1 9 13 6 20 8 14 9 -27 1
-29 -1 -53 -4 -53 -3 0 -42 18 -86 41 -45 22 -83 38 -86 36 -2 -3 5 -8 16 -12
12 -3 21 -10 21 -14 0 -11 52 -35 69 -32 7 1 10 -2 7 -7 -3 -5 12 -17 32 -27
20 -10 32 -20 25 -22 -6 -2 -44 12 -84 32 -39 19 -74 33 -77 30 -3 -3 0 -5 7
-5 7 0 9 -5 5 -12 -4 -7 -3 -8 5 -4 13 8 20 -7 25 -50 3 -23 8 -28 25 -27 19
3 20 1 10 -19 -6 -12 -15 -33 -20 -47 -4 -16 -8 -19 -8 -8 -1 16 -21 26 -21
10 0 -15 15 -30 47 -48 20 -12 28 -22 21 -26 -7 -4 -2 -12 13 -20 l24 -13 -25
-6 c-15 -4 -24 -13 -24 -23 1 -10 -8 -20 -22 -23 -28 -7 -31 -22 -6 -31 15 -6
14 -8 -5 -13 l-22 -5 24 -12 c14 -6 23 -7 19 -2 -3 5 2 6 10 3 36 -14 24 -59
-13 -47 -13 4 -13 2 2 -10 9 -8 17 -19 17 -26 0 -6 4 -11 8 -11 4 0 8 -9 9
-19 1 -14 -3 -18 -13 -14 -20 8 -18 -24 4 -36 14 -8 9 -10 -23 -11 -40 0 -40
-1 -18 -18 11 -9 24 -31 28 -49 3 -17 13 -37 21 -44 15 -12 20 -34 5 -25 -14
9 -43 -5 -38 -18 2 -6 8 -22 12 -35 l7 -23 -30 22 c-27 20 -29 25 -16 37 21
21 17 35 -8 31 -15 -2 -24 -11 -26 -25 -2 -13 -10 -23 -18 -23 -24 0 -16 -41
14 -66 23 -21 29 -22 38 -10 6 10 19 13 33 9 17 -4 19 -8 10 -14 -8 -5 -17 -3
-21 4 -5 8 -8 6 -8 -5 0 -16 17 -23 43 -19 4 0 7 -3 7 -9 0 -6 -53 -10 -140
-10 -138 0 -140 0 -137 22 1 15 -4 23 -16 24 -12 1 -13 0 -2 -3 17 -5 17 -6 9
-27 -4 -11 -19 -16 -46 -16 l-40 0 23 19 24 19 -42 -4 c-34 -3 -41 -1 -37 11
4 8 1 15 -5 15 -9 0 -15 -17 -13 -40 0 -3 -72 -6 -161 -7 -89 0 -153 1 -142 4
11 3 24 10 28 17 6 8 10 8 14 -1 7 -18 20 -16 27 3 4 9 2 13 -5 8 -8 -4 -9 1
-4 17 8 24 7 24 -13 6 -12 -11 -26 -16 -33 -11 -7 4 -10 3 -6 -3 4 -7 -3 -10
-18 -9 -28 1 -33 14 -10 22 8 4 15 13 15 22 0 12 -3 13 -12 4 -16 -16 -28 -15
-28 3 0 8 -4 15 -9 15 -5 0 -7 -8 -4 -19 2 -10 -3 -25 -12 -35 -18 -17 -40
-22 -30 -6 3 6 0 10 -7 11 -60 5 -81 6 -70 2 6 -3 12 -8 12 -13 0 -6 -46 -11
-115 -10 -87 0 -105 -3 -105 -15 0 -6 12 -12 27 -13 14 -1 29 -5 32 -8 3 -3
-32 -3 -79 0 -47 3 -94 6 -105 6 -11 1 -42 -1 -68 -4 -44 -6 -47 -5 -34 9 16
16 32 21 24 8 -3 -5 6 -9 19 -9 13 -1 21 2 18 7 -3 5 -13 9 -22 9 -15 0 -15 2
-2 10 11 8 7 9 -15 4 -16 -4 -33 -11 -36 -16 -3 -5 -14 -5 -24 -2 -14 6 -17 4
-12 -9 5 -14 0 -17 -28 -17 -19 0 -35 4 -35 9 0 15 29 33 55 33 14 0 25 5 25
10 0 5 -13 7 -29 5 -18 -3 -32 0 -34 6 -2 8 -10 6 -21 -6 -10 -9 -13 -17 -7
-17 6 0 11 -5 11 -10 0 -6 -6 -10 -12 -9 -30 4 -43 -2 -23 -11 16 -7 11 -9
-20 -9 -46 -1 -85 8 -85 19 0 4 12 5 28 2 19 -3 24 -1 17 6 -6 6 -25 12 -43
14 -33 2 -42 12 -19 22 6 3 -3 4 -20 2 -18 -3 -33 -1 -33 3 0 4 -7 8 -15 8 -8
0 -12 -4 -9 -8 2 -4 -3 -12 -12 -17 -9 -5 -15 -13 -15 -18 2 -17 -44 -9 -61
11 -10 12 -17 15 -18 8 0 -7 5 -13 10 -13 6 0 10 -7 10 -15 0 -8 6 -16 13 -16
44 -4 -59 -13 -120 -11 -93 4 -89 14 6 15 51 1 71 5 71 14 0 11 -30 17 -77 16
-12 -1 -18 17 -14 40 0 4 -3 7 -9 7 -15 0 -12 -22 6 -48 18 -25 9 -29 -17 -7
-14 14 -19 14 -30 2 -8 -7 -20 -12 -27 -9 -7 2 -10 -2 -6 -12 5 -13 2 -15 -12
-9 -11 3 -22 10 -25 15 -3 5 -23 12 -44 15 -29 5 -36 3 -30 -7 14 -22 -13 -27
-148 -27 -73 0 -113 2 -89 4 23 2 42 8 42 13 0 5 12 10 28 12 15 2 27 8 27 13
0 6 4 16 8 22 5 8 4 13 -2 13 -6 0 -11 -4 -11 -10 0 -15 -68 -40 -109 -39 -28
0 -32 2 -16 8 14 6 8 8 -22 7 -23 0 -37 -4 -31 -7 14 -9 -57 -32 -79 -26 -14
4 -14 5 3 6 12 0 28 9 35 19 13 15 12 16 -3 3 -11 -8 -25 -10 -35 -5 -35 15
-67 9 -42 -8 10 -6 7 -8 -11 -7 -52 4 -63 -4 -15 -11 43 -6 37 -7 -42 -8 -52
-1 -93 2 -93 7 0 5 14 19 30 31 24 17 30 29 30 56 0 19 -3 33 -8 31 -4 -3 -8
8 -9 24 -1 16 -13 44 -26 62 -24 32 -24 32 -6 62 24 37 24 45 1 45 -10 0 -22
4 -28 10 -6 6 -21 6 -42 1 -25 -8 -32 -7 -32 4 0 8 -5 17 -12 21 -6 4 -8 3 -5
-3 4 -7 -3 -10 -18 -9 -16 0 -23 6 -20 14 2 6 0 12 -5 12 -6 0 -9 21 -9 48 1
26 3 38 6 27 3 -11 11 -25 19 -32 10 -7 11 -13 5 -17 -6 -4 -8 -13 -4 -22 4
-10 10 -5 22 18 19 37 17 55 -5 37 -10 -9 -14 -9 -14 0 0 19 28 24 45 8 15
-15 11 -47 -6 -47 -5 0 -9 -6 -9 -12 0 -7 16 4 34 26 23 26 36 34 39 25 2 -8
2 -3 0 9 -2 15 0 21 7 17 5 -3 11 2 12 12 3 40 -5 78 -18 86 -7 4 -11 14 -8
22 7 18 -7 20 -25 3 -11 -11 -13 -10 -9 2 2 8 15 17 29 21 13 4 18 7 12 8 -7
1 -13 6 -13 12 0 6 7 8 16 5 8 -3 12 -2 9 4 -3 5 -1 19 5 30 7 13 7 20 0 20
-5 0 -10 -7 -10 -15 0 -8 -7 -15 -16 -15 -9 0 -14 6 -11 13 7 19 -11 57 -28
57 -8 0 -15 -7 -15 -15 0 -8 -7 -15 -15 -15 -13 0 -14 4 -5 20 7 14 7 20 0 20
-5 0 -10 5 -10 11 0 6 7 9 15 5 8 -3 15 -2 15 3 0 5 -10 11 -22 15 -19 5 -20
8 -8 15 8 5 17 8 21 5 4 -2 9 12 11 31 4 33 2 35 -25 35 -17 0 -26 4 -22 11 4
6 13 8 20 5 18 -6 15 42 -3 52 -9 6 -7 14 8 30 12 12 24 22 27 22 3 0 -2 -9
-12 -20 -17 -19 -17 -20 9 -30 32 -12 67 -14 50 -2 -6 4 -15 18 -19 32 -4 14
-16 31 -26 38 -11 7 -19 17 -19 23 0 11 40 5 66 -9 10 -6 25 -5 41 2 20 9 24
17 21 49 -4 40 -5 40 81 41 41 1 48 15 21 44 -11 11 -20 31 -20 42 0 11 -11
33 -25 48 -14 15 -20 29 -15 30 6 2 3 11 -7 19 -17 13 -17 13 3 4 27 -13 57 4
34 19 -10 6 -11 10 -3 10 31 0 88 -75 78 -102 -3 -8 5 -24 19 -37 13 -12 23
-30 21 -39 -1 -9 0 -12 2 -5 2 7 11 9 19 6 10 -4 14 3 14 28 0 25 11 46 41 82
22 26 45 45 50 41 5 -3 9 0 9 5 0 6 -5 11 -11 11 -5 0 -7 5 -3 12 5 8 2 9 -9
5 -9 -3 -19 -2 -22 3 -3 5 -13 6 -22 3 -11 -4 -14 -3 -9 5 4 7 17 10 32 6 14
-4 24 -2 24 5 0 20 -74 3 -94 -21 -10 -13 -26 -22 -35 -20 -13 2 -13 1 -2 -7
12 -8 12 -12 -2 -26 -13 -12 -17 -13 -18 -3 -1 7 -2 20 -3 28 -1 14 -78 58
-103 59 -7 1 -13 -10 -13 -23 0 -17 -9 -27 -31 -36 -17 -8 -39 -22 -49 -32
-21 -23 -80 -15 -79 11 0 9 3 11 5 5 4 -9 13 -9 34 -1 23 9 27 14 19 29 -7 14
-6 18 6 18 8 0 15 7 15 15 0 8 -4 15 -9 15 -5 0 -7 9 -4 20 4 14 0 20 -11 20
-13 0 -16 11 -16 54 0 72 -19 89 -56 49 -23 -25 -25 -34 -20 -79 3 -28 8 -59
12 -70 5 -15 4 -16 -5 -8 -15 14 -30 76 -31 126 0 20 -4 40 -10 43 -20 12 -11
72 13 89 15 12 17 16 5 12 -17 -5 -24 4 -12 16 8 8 74 -14 74 -25z m2611 5
c-7 -2 -18 1 -23 6 -8 8 -4 9 13 5 13 -4 18 -8 10 -11z m222 11 c-7 -2 -13
-12 -13 -21 0 -12 -3 -13 -11 -5 -14 14 -3 33 19 32 11 0 12 -3 5 -6z m-1235
-23 c7 -11 9 -20 4 -20 -10 0 -32 22 -32 32 0 15 15 8 28 -12z m172 4 c0 -14
-3 -14 -15 -4 -8 7 -15 14 -15 16 0 2 7 4 15 4 8 0 15 -7 15 -16z m-1133 0
c-3 -3 -12 -4 -19 -1 -8 3 -5 6 6 6 11 1 17 -2 13 -5z m344 -17 c-10 -9 -11
-8 -5 6 3 10 9 15 12 12 3 -3 0 -11 -7 -18z m74 -25 c-8 -9 -35 20 -28 31 4 6
11 3 19 -8 8 -10 12 -21 9 -23z m435 18 c0 -5 -4 -10 -10 -10 -5 0 -10 5 -10
10 0 6 5 10 10 10 6 0 10 -4 10 -10z m1321 -7 c13 -16 12 -17 -3 -4 -17 13
-22 21 -14 21 2 0 10 -8 17 -17z m-1671 -12 c5 -11 10 -27 10 -35 0 -13 -3
-14 -19 -4 -10 6 -18 22 -17 35 1 28 12 30 26 4z m-836 -14 c14 -22 -6 -37
-46 -37 -20 0 -28 5 -27 18 0 9 3 12 5 6 3 -7 14 -9 25 -7 14 4 19 12 16 25
-6 23 12 19 27 -5z m782 1 c-3 -13 -6 -30 -7 -38 0 -10 -3 -8 -8 5 -9 23 -3
55 11 55 6 0 8 -10 4 -22z m534 12 c0 -5 -4 -10 -10 -10 -5 0 -10 5 -10 10 0
6 5 10 10 10 6 0 10 -4 10 -10z m-372 -65 c1 -28 -2 -32 -18 -28 -11 3 -20 11
-20 18 0 8 -3 20 -6 28 -4 10 2 15 19 15 20 0 24 -6 25 -33z m87 -15 c8 0 13
-12 13 -33 0 -30 -3 -33 -24 -29 -18 3 -24 11 -25 31 -1 25 -2 24 -11 -6 -13
-41 -28 -43 -28 -3 0 30 24 53 48 45 8 -3 20 -5 27 -5z m1522 -62 c-3 -8 -6
-5 -6 6 -1 11 2 17 5 13 3 -3 4 -12 1 -19z m-67 -2 c0 -3 -4 -8 -10 -11 -5 -3
-10 -1 -10 4 0 6 5 11 10 11 6 0 10 -2 10 -4z m75 -45 c-3 -12 -10 -21 -15
-21 -5 0 -4 11 2 25 13 29 23 26 13 -4z m-31 -46 c-4 -8 -11 -15 -16 -15 -6 0
-5 6 2 15 7 8 14 15 16 15 2 0 1 -7 -2 -15z m-2844 -12 c0 -10 -4 -14 -8 -8
-4 6 -11 13 -16 18 -5 4 -2 7 7 7 10 0 17 -8 17 -17z m2867 -55 c-3 -7 -5 -2
-5 12 0 14 2 19 5 13 2 -7 2 -19 0 -25z m-2842 -28 c-19 -21 -19 -49 0 -56 20
-8 11 -20 -26 -33 -27 -9 -30 -9 -19 4 6 8 9 19 6 24 -4 5 -2 12 4 16 5 3 10
11 10 16 0 6 -4 7 -10 4 -6 -3 -7 1 -4 9 3 9 11 13 17 9 6 -4 8 0 4 10 -4 11
0 15 13 14 17 -1 18 -3 5 -17z m2840 -20 c3 -5 1 -10 -4 -10 -6 0 -11 5 -11
10 0 6 2 10 4 10 3 0 8 -4 11 -10z m-2687 -38 c26 -53 27 -52 -21 -52 -32 0
-47 5 -51 16 -9 24 -8 27 13 21 28 -7 49 9 22 18 -28 9 -27 25 2 25 14 0 27
-10 35 -28z m-205 3 c4 -8 3 -16 -1 -19 -4 -3 -9 4 -9 15 -2 23 3 25 10 4z
m2186 -71 c14 -12 -19 -1 -35 12 -18 14 -18 14 6 3 14 -6 27 -13 29 -15z
m-2154 -15 c3 -4 -6 -14 -20 -23 -14 -9 -25 -13 -25 -9 0 5 -5 1 -11 -7 -9
-13 -10 -13 -6 0 2 8 9 14 15 13 5 -1 13 4 16 12 3 9 0 12 -10 8 -7 -3 -14 -1
-14 4 0 10 45 11 55 2z m108 -34 c-7 -21 -13 -19 -13 6 0 11 4 18 10 14 5 -3
7 -12 3 -20z m2744 -17 c-3 -7 -5 -2 -5 12 0 14 2 19 5 13 2 -7 2 -19 0 -25z
m-2829 1 c4 -11 2 -11 -8 -2 -7 6 -20 9 -29 6 -14 -4 -14 -3 -1 6 18 13 32 10
38 -10z m-48 -19 c8 -5 11 -10 5 -10 -5 0 -17 5 -25 10 -8 5 -10 10 -5 10 6 0
17 -5 25 -10z m-3 -66 c-7 -7 -37 7 -37 17 0 6 9 5 21 -1 11 -7 19 -14 16 -16z
m11 -116 c15 -15 16 -31 1 -22 -6 3 -15 0 -20 -7 -6 -10 -9 -6 -9 14 0 29 9
34 28 15z m2822 -120 c0 -4 -9 -8 -20 -8 -20 0 -28 29 -13 44 7 7 33 -21 33
-36z m-2774 -31 c2 -12 0 -16 -2 -9 -3 6 -10 10 -15 6 -11 -6 -11 -2 -3 21 8
20 17 12 20 -18z m-60 -15 c1 -7 0 -8 -3 -2 -2 5 -9 8 -14 4 -5 -3 -9 0 -9 6
0 15 23 7 26 -8z m-23 -32 c3 -11 1 -18 -4 -14 -5 3 -9 12 -9 20 0 20 7 17 13
-6z m86 6 c10 -12 8 -17 -11 -27 -21 -11 -22 -11 -9 5 13 15 13 19 0 27 -8 5
-9 9 -3 9 6 0 17 -6 23 -14z m-22 -102 c-3 -3 -12 -4 -19 -1 -8 3 -5 6 6 6 11
1 17 -2 13 -5z m2856 -82 c-6 -24 -18 -28 -29 -10 -4 6 -3 8 4 4 6 -3 14 3 17
15 9 27 16 20 8 -9z m-2838 8 c3 -5 1 -10 -4 -10 -6 0 -11 5 -11 10 0 6 2 10
4 10 3 0 8 -4 11 -10z m-72 -145 c-3 -9 -8 -14 -10 -11 -3 3 -2 9 2 15 9 16
15 13 8 -4z m41 -10 c3 -8 1 -15 -4 -15 -6 0 -10 7 -10 15 0 8 2 15 4 15 2 0
6 -7 10 -15z m2804 -104 c3 -8 -1 -12 -9 -9 -7 2 -15 10 -17 17 -3 8 1 12 9 9
7 -2 15 -10 17 -17z m-2713 -71 c-3 -5 0 -10 7 -10 14 -1 -28 -40 -42 -40 -5
0 -2 14 6 30 9 17 20 30 25 30 6 0 7 -4 4 -10z m-115 -54 c0 -2 -9 -6 -20 -9
-11 -3 -20 -1 -20 4 0 5 9 9 20 9 11 0 20 -2 20 -4z m2890 0 c0 -2 -8 -10 -17
-17 -16 -13 -17 -12 -4 4 13 16 21 21 21 13z m-2772 -46 c-9 -26 -14 -30 -46
-28 -36 1 -36 1 -5 5 17 2 34 10 37 18 3 9 0 12 -8 9 -8 -3 -17 0 -22 7 -4 7
-3 10 4 5 6 -3 17 0 24 8 20 21 28 9 16 -24z m-120 10 c-7 -11 -15 -15 -17 -9
-2 6 3 15 10 20 20 12 21 11 7 -11z m1158 0 c9 0 12 -4 9 -10 -8 -13 1 -13 26
0 13 8 19 7 19 0 0 -13 -12 -17 -75 -24 l-50 -6 30 17 c17 9 25 18 17 21 -6 2
-9 9 -5 15 5 8 8 8 11 -1 2 -7 10 -12 18 -12z m814 -1 c0 -6 -4 -7 -10 -4 -5
3 -10 11 -10 16 0 6 5 7 10 4 6 -3 10 -11 10 -16z m60 -9 c-7 -14 -7 -20 0
-20 5 0 10 5 10 11 0 5 5 7 10 4 6 -4 8 -11 5 -16 -8 -12 -65 -12 -65 1 0 6 5
10 11 10 5 0 8 4 5 9 -4 5 0 12 6 14 24 10 29 7 18 -13z m820 11 c0 -5 -7 -14
-15 -21 -13 -10 -15 -9 -15 9 0 12 6 21 15 21 8 0 15 -4 15 -9z m-950 -26 c0
-12 -13 -15 -62 -14 -42 0 -56 3 -43 8 11 5 37 6 58 3 24 -3 37 -1 37 7 0 6 2
11 5 11 3 0 5 -7 5 -15z m-1467 -2 c-7 -2 -19 -2 -25 0 -7 3 -2 5 12 5 14 0
19 -2 13 -5z"/>
<path d="M2555 1690 c-3 -5 -1 -10 4 -10 6 0 11 5 11 10 0 6 -2 10 -4 10 -3 0
-8 -4 -11 -10z"/>
<path d="M2588 1693 c7 -3 16 -2 19 1 4 3 -2 6 -13 5 -11 0 -14 -3 -6 -6z"/>
<path d="M2298 1673 c7 -3 16 -2 19 1 4 3 -2 6 -13 5 -11 0 -14 -3 -6 -6z"/>
<path d="M2321 1661 l-24 -18 32 1 c33 1 35 4 23 23 -5 8 -14 7 -31 -6z"/>
<path d="M313 1633 c-12 -4 -58 -72 -52 -76 18 -11 74 -25 80 -21 5 3 9 22 9
43 0 39 -15 62 -37 54z m7 -43 c0 -5 -2 -10 -4 -10 -3 0 -8 5 -11 10 -3 6 -1
10 4 10 6 0 11 -4 11 -10z"/>
<path d="M1940 1570 c0 -5 4 -10 9 -10 6 0 13 5 16 10 3 6 -1 10 -9 10 -9 0
-16 -4 -16 -10z"/>
<path d="M580 1500 c-8 -5 -10 -10 -5 -10 6 0 17 5 25 10 8 5 11 10 5 10 -5 0
-17 -5 -25 -10z"/>
<path d="M590 1479 c0 -5 -4 -7 -10 -4 -5 3 -10 2 -10 -2 0 -5 15 -9 34 -9 30
0 32 2 18 13 -21 15 -32 16 -32 2z"/>
<path d="M2254 1464 c3 -9 6 -23 6 -31 0 -26 15 -4 15 23 1 14 -5 24 -13 24
-9 0 -12 -6 -8 -16z"/>
<path d="M485 1450 c3 -5 8 -10 11 -10 2 0 4 5 4 10 0 6 -5 10 -11 10 -5 0 -7
-4 -4 -10z"/>
<path d="M1780 1374 c0 -8 5 -12 10 -9 6 4 8 11 5 16 -9 14 -15 11 -15 -7z"/>
<path d="M1250 1370 c0 -5 5 -10 10 -10 6 0 10 5 10 10 0 6 -4 10 -10 10 -5 0
-10 -4 -10 -10z"/>
<path d="M394 1359 c-3 -6 -1 -16 5 -22 8 -8 11 -6 11 7 0 9 4 15 9 11 5 -3
12 -1 16 5 3 5 -3 10 -14 10 -11 0 -23 -5 -27 -11z"/>
<path d="M635 1350 c-3 -6 1 -7 9 -4 18 7 21 14 7 14 -6 0 -13 -4 -16 -10z"/>
<path d="M440 1325 c7 -8 17 -12 22 -9 6 4 5 10 -3 15 -22 14 -33 10 -19 -6z"/>
<path d="M1245 1330 c-3 -5 1 -10 9 -10 8 0 18 5 21 10 3 6 -1 10 -9 10 -8 0
-18 -4 -21 -10z"/>
<path d="M2965 1329 c-4 -6 -5 -12 -2 -15 2 -3 7 2 10 11 7 17 1 20 -8 4z"/>
<path d="M1990 1321 c0 -5 7 -14 15 -21 16 -14 18 -10 9 14 -6 17 -24 22 -24
7z"/>
<path d="M2874 1314 c3 -9 6 -17 6 -19 0 -2 9 -1 20 2 11 3 20 10 20 15 0 5
-4 7 -9 3 -5 -3 -12 -1 -16 5 -10 16 -28 11 -21 -6z"/>
<path d="M1337 1309 c7 -7 15 -10 18 -7 3 3 -2 9 -12 12 -14 6 -15 5 -6 -5z"/>
<path d="M2936 1298 c8 -29 23 -48 38 -48 6 0 3 7 -7 14 -10 8 -17 18 -16 22
3 20 -2 34 -12 34 -6 0 -8 -9 -3 -22z"/>
<path d="M2846 1301 c-3 -5 1 -14 8 -20 12 -10 13 -8 9 8 -6 23 -9 25 -17 12z"/>
<path d="M454 1276 c-9 -9 -8 -17 2 -31 8 -10 17 -15 21 -11 4 4 1 11 -6 15
-8 5 -9 11 -3 15 5 3 13 -1 16 -10 4 -9 9 -14 12 -11 6 5 -17 47 -26 47 -3 -1
-10 -7 -16 -14z"/>
<path d="M1130 1280 c0 -5 5 -10 10 -10 6 0 10 5 10 10 0 6 -4 10 -10 10 -5 0
-10 -4 -10 -10z"/>
<path d="M1340 1280 c0 -5 5 -10 11 -10 5 0 7 5 4 10 -3 6 -8 10 -11 10 -2 0
-4 -4 -4 -10z"/>
<path d="M2800 1275 c-10 -12 -10 -15 4 -15 9 0 16 7 16 15 0 8 -2 15 -4 15
-2 0 -9 -7 -16 -15z"/>
<path d="M1995 1264 c9 -9 18 -14 21 -11 9 9 -6 27 -22 27 -13 0 -13 -2 1 -16z"/>
<path d="M626 1255 c-20 -15 -21 -29 0 -21 8 3 12 2 9 -4 -3 -6 -1 -10 4 -10
6 0 11 4 11 10 0 9 66 26 83 22 5 -1 6 2 3 7 -9 13 -90 10 -110 -4z"/>
<path d="M2087 1250 c-7 -28 -9 -25 23 -35 22 -6 23 -6 8 6 -9 8 -18 23 -20
34 -3 18 -5 17 -11 -5z"/>
<path d="M2747 1264 c-4 -4 -7 -14 -7 -23 0 -11 3 -12 11 -4 6 6 10 16 7 23
-2 6 -7 8 -11 4z"/>
<path d="M2830 1260 c0 -5 5 -10 10 -10 6 0 10 5 10 10 0 6 -4 10 -10 10 -5 0
-10 -4 -10 -10z"/>
<path d="M1447 1241 c3 -12 9 -21 14 -21 14 0 11 16 -5 29 -12 10 -13 8 -9 -8z"/>
<path d="M1920 1239 c1 -8 7 -25 15 -39 l14 -25 1 26 c0 15 -7 32 -15 39 -12
10 -15 10 -15 -1z"/>
<path d="M2925 1240 c-3 -5 1 -10 10 -10 9 0 13 5 10 10 -3 6 -8 10 -10 10 -2
0 -7 -4 -10 -10z"/>
<path d="M1050 1230 c0 -5 4 -10 9 -10 6 0 13 5 16 10 3 6 -1 10 -9 10 -9 0
-16 -4 -16 -10z"/>
<path d="M1248 1233 c6 -2 18 -2 25 0 6 3 1 5 -13 5 -14 0 -19 -2 -12 -5z"/>
<path d="M1730 1230 c0 -5 7 -7 15 -4 8 4 15 8 15 10 0 2 -7 4 -15 4 -8 0 -15
-4 -15 -10z"/>
<path d="M1808 1227 c-12 -29 -10 -63 3 -50 6 6 9 23 7 39 -2 24 -4 26 -10 11z"/>
<path d="M680 1210 c0 -5 5 -10 10 -10 6 0 10 5 10 10 0 6 -4 10 -10 10 -5 0
-10 -4 -10 -10z"/>
<path d="M2040 1210 c0 -6 7 -10 15 -10 8 0 15 2 15 4 0 2 -7 6 -15 10 -8 3
-15 1 -15 -4z"/>
<path d="M720 1203 c0 -4 5 -15 10 -23 8 -13 10 -13 10 2 0 9 -4 20 -10 23 -5
3 -10 3 -10 -2z"/>
<path d="M1356 1202 c2 -3 -1 -11 -7 -19 -8 -9 -8 -13 -1 -13 16 0 26 20 15
30 -6 4 -8 5 -7 2z"/>
<path d="M510 1181 c-65 -23 -143 -101 -160 -159 -16 -59 -12 -142 10 -191 50
-110 186 -173 300 -139 25 8 56 11 70 7 14 -4 40 -7 58 -8 l32 -1 0 140 0 140
-105 0 -105 0 0 -60 0 -60 42 0 c39 0 41 -1 26 -16 -9 -9 -39 -19 -67 -22 -85
-8 -141 42 -141 126 0 49 18 81 59 109 42 28 75 29 123 3 l37 -19 55 33 56 34
-37 32 c-73 64 -164 82 -253 51z"/>
<path d="M1058 1186 c-157 -43 -236 -224 -159 -367 31 -59 96 -111 159 -129
162 -45 324 77 325 245 1 170 -161 296 -325 251z m123 -131 c40 -21 69 -71 69
-118 0 -135 -173 -176 -235 -57 -56 108 60 230 166 175z"/>
<path d="M2150 1191 c-174 -36 -260 -224 -174 -382 80 -147 294 -172 410 -47
42 44 64 89 71 147 7 61 -17 145 -56 191 -56 69 -166 108 -251 91z m124 -152
c98 -86 46 -229 -83 -229 -32 0 -47 7 -74 34 -39 38 -50 79 -37 128 27 95 124
129 194 67z"/>
<path d="M2111 931 c-10 -18 -9 -21 9 -21 22 0 25 7 11 29 -7 11 -11 9 -20 -8z"/>
<path d="M2180 884 c0 -47 13 -52 30 -10 8 20 9 20 10 1 0 -17 2 -17 10 -5 14
22 12 27 -10 33 -10 3 -21 0 -24 -7 -3 -6 -3 -1 0 12 3 12 1 22 -5 22 -6 0
-11 -20 -11 -46z"/>
<path d="M2630 1189 c-113 -23 -174 -137 -120 -226 22 -37 59 -58 126 -73 27
-6 68 -17 92 -26 35 -13 43 -20 40 -38 -3 -18 -10 -21 -65 -24 -47 -2 -75 2
-110 18 -25 11 -47 19 -48 18 -13 -18 -55 -97 -55 -105 0 -22 113 -48 205 -48
107 1 159 23 194 85 26 47 27 85 1 134 -10 22 -18 42 -15 45 2 4 -4 7 -13 8
-9 1 -44 11 -77 22 -33 12 -80 27 -105 33 -34 10 -46 18 -48 35 -2 15 3 23 18
28 27 9 104 -2 147 -20 l32 -14 31 50 c16 27 30 51 30 53 0 2 -21 13 -47 24
-58 24 -152 34 -213 21z"/>
<path d="M362 1160 c0 -14 2 -19 5 -12 2 6 2 18 0 25 -3 6 -5 1 -5 -13z"/>
<path d="M1444 938 l1 -243 136 2 c98 1 146 6 173 17 21 9 42 14 46 11 5 -3
12 0 16 6 5 8 3 9 -7 4 -8 -5 0 6 18 23 54 52 77 108 77 182 0 77 -23 130 -80
180 -61 53 -89 60 -242 60 l-139 0 1 -242z m270 103 c37 -25 55 -57 56 -99 0
-76 -52 -122 -139 -122 l-50 0 -3 120 -3 120 55 0 c37 0 64 -6 84 -19z"/>
<path d="M1620 1012 c0 -11 46 -33 80 -38 21 -4 22 -3 7 6 -34 21 -87 40 -87
32z"/>
<path d="M1611 966 c-9 -11 -9 -15 1 -19 10 -4 10 -6 1 -6 -7 -1 -13 -6 -13
-12 0 -6 8 -8 19 -4 13 4 27 -4 45 -26 15 -17 30 -29 33 -25 3 3 0 12 -7 21
-10 12 -10 15 4 15 29 0 17 24 -24 48 -46 26 -44 26 -59 8z"/>
<path d="M1610 910 c-13 -9 -13 -11 0 -20 12 -8 12 -10 1 -10 -11 0 -11 -3 -1
-15 10 -12 15 -13 20 -4 4 6 13 8 19 5 15 -10 13 15 -3 37 -15 20 -16 20 -36
7z"/>
<path d="M2908 1083 c7 -3 16 -2 19 1 4 3 -2 6 -13 5 -11 0 -14 -3 -6 -6z"/>
<path d="M2990 980 c0 -5 8 -14 18 -19 14 -7 18 -6 18 10 0 12 -7 19 -18 19
-10 0 -18 -4 -18 -10z"/>
<path d="M240 949 c0 -5 5 -7 10 -4 6 3 10 8 10 11 0 2 -4 4 -10 4 -5 0 -10
-5 -10 -11z"/>
<path d="M1940 760 c0 -11 -4 -20 -10 -20 -5 0 -10 -4 -10 -10 0 -12 40 -13
58 -2 9 6 7 14 -8 30 -26 27 -30 27 -30 2z"/>
<path d="M310 739 c0 -5 5 -7 10 -4 6 3 10 8 10 11 0 2 -4 4 -10 4 -5 0 -10
-5 -10 -11z"/>
<path d="M1836 735 c-3 -9 0 -15 9 -15 9 0 12 6 9 15 -4 8 -7 15 -9 15 -2 0
-5 -7 -9 -15z"/>
<path d="M1340 702 c0 -5 7 -9 15 -9 8 0 15 4 15 9 0 4 -7 8 -15 8 -8 0 -15
-4 -15 -8z"/>
<path d="M1879 705 c-1 -5 -1 -13 0 -17 2 -12 -14 -9 -27 4 -10 10 -14 10 -21
0 -4 -7 -15 -10 -24 -6 -10 3 -17 1 -17 -5 0 -6 -6 -11 -14 -11 -8 0 -18 -5
-22 -12 -5 -8 0 -9 17 -4 27 8 26 8 92 4 26 -2 47 0 47 4 0 4 7 5 15 2 15 -6
45 11 45 26 0 9 -26 7 -36 -2 -8 -8 -37 2 -46 16 -5 7 -8 7 -9 1z"/>
<path d="M310 659 c0 -5 5 -7 10 -4 6 3 10 8 10 11 0 2 -4 4 -10 4 -5 0 -10
-5 -10 -11z"/>
<path d="M1240 649 c0 -5 5 -7 10 -4 6 3 10 8 10 11 0 2 -4 4 -10 4 -5 0 -10
-5 -10 -11z"/>
<path d="M1625 650 c-8 -13 5 -13 25 0 13 8 13 10 -2 10 -9 0 -20 -4 -23 -10z"/>
<path d="M390 640 c-9 -6 -10 -10 -3 -10 6 0 15 5 18 10 8 12 4 12 -15 0z"/>
<path d="M1728 613 c-23 -6 -23 -19 0 -25 12 -4 18 1 19 13 1 11 1 18 0 18 -1
-1 -10 -3 -19 -6z"/>
<path d="M2511 610 c-9 -5 -8 -9 5 -14 9 -4 21 -3 26 2 12 12 -15 23 -31 12z"/>
<path d="M1140 601 c0 -5 9 -7 20 -4 11 3 20 7 20 9 0 2 -9 4 -20 4 -11 0 -20
-4 -20 -9z"/>
<path d="M1835 590 c3 -5 11 -10 16 -10 6 0 7 5 4 10 -3 6 -11 10 -16 10 -6 0
-7 -4 -4 -10z"/>
<path d="M1640 580 c-12 -8 -12 -10 -1 -10 11 0 11 -3 1 -15 -10 -12 -10 -15
4 -15 11 0 15 8 14 25 -1 14 -3 25 -3 25 0 0 -7 -5 -15 -10z"/>
<path d="M2600 569 c0 -6 -4 -7 -10 -4 -6 3 -7 -1 -4 -10 4 -9 13 -14 21 -11
8 3 17 6 19 6 11 0 2 19 -11 24 -8 3 -15 1 -15 -5z"/>
<path d="M2401 554 c6 -7 17 -10 25 -7 19 7 8 22 -16 20 -14 -1 -16 -5 -9 -13z"/>
<path d="M896 551 c-3 -5 4 -11 16 -14 30 -8 35 -1 9 12 -11 6 -22 7 -25 2z"/>
<path d="M1830 550 c19 -13 30 -13 30 0 0 6 -10 10 -22 10 -19 0 -20 -2 -8
-10z"/>
<path d="M1161 541 c0 -8 -8 -19 -18 -26 -9 -7 -12 -15 -7 -18 18 -10 36 10
31 34 -2 13 -5 18 -6 10z"/>
<path d="M1545 540 c3 -5 11 -10 16 -10 6 0 7 5 4 10 -3 6 -11 10 -16 10 -6 0
-7 -4 -4 -10z"/>
<path d="M1745 540 c-16 -7 -17 -9 -3 -9 9 -1 20 4 23 9 7 11 7 11 -20 0z"/>
<path d="M2521 538 c-1 -9 -9 -18 -18 -21 -17 -4 -17 -4 0 -12 24 -10 37 5 27
30 -7 16 -9 17 -9 3z"/>
<path d="M1920 510 c-9 -17 -8 -20 11 -20 17 0 19 3 10 14 -9 11 -9 15 1 19 9
4 10 6 1 6 -7 1 -17 -8 -23 -19z"/>
<path d="M946 508 c3 -4 9 -8 15 -8 5 0 9 4 9 8 0 5 -7 9 -15 9 -8 0 -12 -4
-9 -9z"/>
<path d="M1722 508 c2 -6 10 -14 16 -16 7 -2 10 2 6 12 -7 18 -28 22 -22 4z"/>
<path d="M2321 511 c-7 -5 -9 -11 -4 -14 5 -3 15 -2 22 2 7 5 9 11 4 14 -5 3
-15 2 -22 -2z"/>
<path d="M2690 510 c0 -5 7 -10 15 -10 8 0 15 5 15 10 0 6 -7 10 -15 10 -8 0
-15 -4 -15 -10z"/>
<path d="M1533 503 c9 -2 23 -2 30 0 6 3 -1 5 -18 5 -16 0 -22 -2 -12 -5z"/>
<path d="M2613 495 c5 -11 1 -22 -10 -31 -17 -12 -16 -13 5 -14 17 0 22 6 22
24 0 14 -5 28 -12 32 -8 5 -9 2 -5 -11z"/>
<path d="M1445 490 c3 -5 8 -10 11 -10 2 0 4 5 4 10 0 6 -5 10 -11 10 -5 0 -7
-4 -4 -10z"/>
<path d="M1246 474 c-8 -22 -8 -24 6 -24 6 0 8 3 5 7 -4 3 -2 12 4 20 7 8 8
13 1 13 -5 0 -13 -7 -16 -16z"/>
<path d="M2231 483 c-1 -6 -4 -20 -7 -30 -5 -17 -5 -17 6 0 6 10 9 23 6 30 -3
9 -5 9 -5 0z"/>
<path d="M1435 460 c-3 -5 3 -10 15 -10 12 0 18 5 15 10 -3 6 -10 10 -15 10
-5 0 -12 -4 -15 -10z"/>
<path d="M1610 459 c0 -11 37 -12 43 -1 3 4 -6 8 -19 8 -13 1 -24 -2 -24 -7z"/>
<path d="M1820 461 c0 -5 5 -13 10 -16 6 -3 10 -2 10 4 0 5 -4 13 -10 16 -5 3
-10 2 -10 -4z"/>
<path d="M2410 460 c0 -5 9 -10 21 -10 11 0 17 5 14 10 -3 6 -13 10 -21 10 -8
0 -14 -4 -14 -10z"/>
<path d="M2790 460 c0 -5 7 -10 16 -10 8 0 12 5 9 10 -3 6 -10 10 -16 10 -5 0
-9 -4 -9 -10z"/>
<path d="M1540 450 c0 -5 5 -10 10 -10 6 0 10 5 10 10 0 6 -4 10 -10 10 -5 0
-10 -4 -10 -10z"/>
<path d="M617 419 c7 -7 15 -10 18 -7 3 3 -2 9 -12 12 -14 6 -15 5 -6 -5z"/>
<path d="M1530 410 c-12 -8 -9 -10 13 -10 15 0 27 5 27 10 0 13 -20 13 -40 0z"/>
<path d="M1720 406 c7 -7 13 -7 20 0 6 6 3 10 -10 10 -13 0 -16 -4 -10 -10z"/>
<path d="M2105 410 c3 -5 13 -10 21 -10 8 0 14 5 14 10 0 6 -9 10 -21 10 -11
0 -17 -4 -14 -10z"/>
<path d="M2510 410 c0 -5 7 -10 15 -10 8 0 15 5 15 10 0 6 -7 10 -15 10 -8 0
-15 -4 -15 -10z"/>
<path d="M2710 410 c0 -5 7 -10 15 -10 8 0 15 5 15 10 0 6 -7 10 -15 10 -8 0
-15 -4 -15 -10z"/>
<path d="M2016 400 c-18 -6 -18 -7 5 -14 l24 -6 -25 -15 c-25 -14 -25 -14 -2
-15 25 0 38 21 25 43 -5 9 -15 12 -27 7z"/>
<path d="M2611 388 c-1 -10 -5 -18 -11 -18 -5 0 -10 -4 -10 -10 0 -5 9 -10 20
-10 22 0 23 5 10 35 -7 17 -9 17 -9 3z"/>
<path d="M673 351 c3 -14 0 -24 -9 -28 -8 -3 -14 -9 -14 -14 0 -14 30 -11 31
4 0 6 2 20 4 29 2 10 -2 21 -7 25 -7 4 -9 -2 -5 -16z"/>
<path d="M1280 363 c0 -8 65 -63 74 -63 4 0 6 5 6 10 0 6 -6 10 -14 10 -8 0
-16 6 -19 14 -7 16 -47 41 -47 29z"/>
<path d="M1620 360 c0 -5 5 -10 11 -10 5 0 7 5 4 10 -3 6 -8 10 -11 10 -2 0
-4 -4 -4 -10z"/>
<path d="M2210 360 c0 -5 7 -10 15 -10 8 0 15 5 15 10 0 6 -7 10 -15 10 -8 0
-15 -4 -15 -10z"/>
<path d="M2120 351 c0 -6 5 -13 10 -16 6 -3 10 1 10 9 0 9 -4 16 -10 16 -5 0
-10 -4 -10 -9z"/>
<path d="M596 341 c-9 -14 26 -23 38 -10 8 9 8 10 -1 5 -7 -4 -13 -2 -13 3 0
13 -17 14 -24 2z"/>
<path d="M706 335 c4 -8 11 -15 16 -15 6 0 5 6 -2 15 -7 8 -14 15 -16 15 -2 0
-1 -7 2 -15z"/>
<path d="M1915 310 c3 -5 13 -10 21 -10 8 0 14 5 14 10 0 6 -9 10 -21 10 -11
0 -17 -4 -14 -10z"/>
<path d="M2095 306 c-17 -12 -16 -13 13 -12 17 0 34 7 37 14 6 16 -26 16 -50
-2z"/>
<path d="M2310 310 c0 -5 4 -10 9 -10 6 0 13 5 16 10 3 6 -1 10 -9 10 -9 0
-16 -4 -16 -10z"/>
<path d="M1837 295 c3 -9 -2 -22 -13 -30 -18 -14 -18 -14 2 -15 11 0 23 2 26
5 8 8 -3 55 -13 55 -5 0 -6 -7 -2 -15z"/>
<path d="M2025 300 c-3 -5 -1 -10 4 -10 6 0 11 5 11 10 0 6 -2 10 -4 10 -3 0
-8 -4 -11 -10z"/>
<path d="M2210 299 c0 -5 5 -7 10 -4 6 3 10 -1 10 -9 0 -8 -8 -16 -17 -18 -12
-2 -14 -6 -7 -10 17 -11 46 15 38 35 -7 18 -34 24 -34 6z"/>
<path d="M2415 290 c5 -15 2 -20 -12 -21 -14 0 -12 -2 6 -10 13 -5 26 -8 28
-5 7 7 -9 56 -19 56 -5 0 -6 -9 -3 -20z"/>
<path d="M710 286 c0 -9 -7 -12 -17 -10 -10 3 -36 1 -58 -4 l-40 -8 48 -13
c43 -12 49 -12 67 4 21 19 27 45 10 45 -5 0 -10 -6 -10 -14z"/>
<path d="M800 283 c0 -5 5 -15 10 -23 8 -12 10 -11 10 8 0 12 -4 22 -10 22 -5
0 -10 -3 -10 -7z"/>
<path d="M740 258 c0 -8 14 -14 33 -15 17 0 25 1 17 4 -8 3 -23 10 -32 15 -13
6 -18 5 -18 -4z"/>
<path d="M1930 260 c0 -5 5 -10 11 -10 5 0 7 5 4 10 -3 6 -8 10 -11 10 -2 0
-4 -4 -4 -10z"/>
<path d="M2020 260 c0 -13 20 -13 40 0 12 8 9 10 -12 10 -16 0 -28 -4 -28 -10z"/>
<path d="M2310 255 c0 -8 5 -15 11 -15 6 0 8 -9 4 -20 -6 -19 5 -27 18 -14 6
7 -19 64 -28 64 -3 0 -5 -7 -5 -15z"/>
<path d="M2122 248 c-16 -16 -15 -48 1 -48 8 0 14 12 14 30 0 35 1 34 -15 18z"/>
<path d="M1345 240 c-3 -5 -1 -10 4 -10 6 0 11 5 11 10 0 6 -2 10 -4 10 -3 0
-8 -4 -11 -10z"/>
<path d="M870 233 c-20 -8 -49 -45 -50 -63 0 -19 31 -47 53 -47 9 0 14 4 11 9
-3 4 0 8 7 8 7 0 9 3 6 7 -4 3 -1 13 6 21 10 13 8 14 -13 9 -14 -4 -19 -4 -12
-1 6 3 12 13 12 21 0 14 -2 14 -18 0 -10 -10 -22 -14 -25 -10 -9 9 12 33 29
33 8 0 14 5 14 10 0 6 -1 10 -2 9 -2 0 -10 -3 -18 -6z"/>
<path d="M1928 226 c-23 -17 -23 -26 2 -26 13 0 20 7 20 20 0 23 0 23 -22 6z"/>
<path d="M722 220 c-13 -6 -21 -14 -17 -19 6 -11 64 -12 80 -2 6 3 14 6 19 6
5 0 11 5 13 11 4 13 -65 16 -95 4z"/>
<path d="M2020 216 c0 -2 7 -9 15 -16 13 -11 14 -10 9 4 -5 14 -24 23 -24 12z"/>
<path d="M927 203 c-4 -3 -7 -11 -7 -17 0 -6 5 -5 12 2 6 6 9 14 7 17 -3 3 -9
2 -12 -2z"/>
<path d="M994 188 c-14 -23 -14 -46 0 -51 8 -3 17 1 20 9 3 9 1 12 -4 9 -6 -3
-10 -2 -10 4 0 5 6 11 13 14 9 3 9 8 1 17 -9 9 -14 9 -20 -2z"/>
<path d="M1845 190 c3 -5 8 -10 11 -10 2 0 4 5 4 10 0 6 -5 10 -11 10 -5 0 -7
-4 -4 -10z"/>
<path d="M1410 180 c0 -5 5 -10 11 -10 5 0 7 5 4 10 -3 6 -8 10 -11 10 -2 0
-4 -4 -4 -10z"/>
<path d="M950 166 c0 -9 5 -16 10 -16 6 0 10 4 10 9 0 6 -4 13 -10 16 -5 3
-10 -1 -10 -9z"/>
<path d="M1153 165 c0 -8 4 -15 9 -15 4 0 8 7 8 15 0 8 -4 15 -8 15 -5 0 -9
-7 -9 -15z"/>
<path d="M1185 170 c-3 -5 -1 -10 4 -10 6 0 11 5 11 10 0 6 -2 10 -4 10 -3 0
-8 -4 -11 -10z"/>
<path d="M1995 164 c-19 -15 -18 -15 14 -12 19 2 37 10 39 16 5 17 -29 14 -53
-4z"/>
<path d="M1250 150 c0 -5 5 -10 11 -10 5 0 7 5 4 10 -3 6 -8 10 -11 10 -2 0
-4 -4 -4 -10z"/>
<path d="M2378 146 c-18 -13 -14 -26 7 -26 6 0 11 9 11 20 0 11 0 20 -1 20 0
0 -8 -7 -17 -14z"/>
<path d="M783 124 c-16 -12 -14 -13 20 -14 39 0 50 14 17 23 -10 3 -27 -1 -37
-9z"/>
<path d="M2410 129 c0 -5 9 -9 19 -9 11 0 22 4 25 9 3 5 -6 9 -19 9 -14 0 -25
-4 -25 -9z"/>
<path d="M340 120 c0 -5 5 -10 11 -10 5 0 7 5 4 10 -3 6 -8 10 -11 10 -2 0 -4
-4 -4 -10z"/>
<path d="M1825 120 c-16 -7 -17 -9 -3 -9 9 -1 20 4 23 9 7 11 7 11 -20 0z"/>
<path d="M2740 120 c0 -5 10 -10 23 -10 18 0 19 2 7 10 -19 13 -30 13 -30 0z"/>
</g>
</svg>
